G04 #@! TF.GenerationSoftware,KiCad,Pcbnew,5.0.2*
G04 #@! TF.CreationDate,2019-09-26T12:35:43-03:00*
G04 #@! TF.ProjectId,ControleMix,436f6e74-726f-46c6-954d-69782e6b6963,rev?*
G04 #@! TF.SameCoordinates,Original*
G04 #@! TF.FileFunction,Soldermask,Top*
G04 #@! TF.FilePolarity,Negative*
%FSLAX46Y46*%
G04 Gerber Fmt 4.6, Leading zero omitted, Abs format (unit mm)*
G04 Created by KiCad (PCBNEW 5.0.2) date qui 26 set 2019 12:35:43 -03*
%MOMM*%
%LPD*%
G01*
G04 APERTURE LIST*
%ADD10C,0.100000*%
G04 APERTURE END LIST*
D10*
G36*
X189898445Y-107216254D02*
X190246593Y-107285504D01*
X190656249Y-107455189D01*
X191024929Y-107701534D01*
X191338466Y-108015071D01*
X191584811Y-108383751D01*
X191754496Y-108793407D01*
X191814127Y-109093194D01*
X191841000Y-109228294D01*
X191841000Y-109671706D01*
X191823746Y-109758445D01*
X191754496Y-110106593D01*
X191584811Y-110516249D01*
X191338466Y-110884929D01*
X191024929Y-111198466D01*
X190656249Y-111444811D01*
X190246593Y-111614496D01*
X189898445Y-111683746D01*
X189811706Y-111701000D01*
X189368294Y-111701000D01*
X189281555Y-111683746D01*
X188933407Y-111614496D01*
X188523751Y-111444811D01*
X188155071Y-111198466D01*
X187841534Y-110884929D01*
X187595189Y-110516249D01*
X187425504Y-110106593D01*
X187356254Y-109758445D01*
X187339000Y-109671706D01*
X187339000Y-109228294D01*
X187365873Y-109093194D01*
X187425504Y-108793407D01*
X187595189Y-108383751D01*
X187841534Y-108015071D01*
X188155071Y-107701534D01*
X188523751Y-107455189D01*
X188933407Y-107285504D01*
X189281555Y-107216254D01*
X189368294Y-107199000D01*
X189811706Y-107199000D01*
X189898445Y-107216254D01*
X189898445Y-107216254D01*
G37*
G36*
X177459683Y-110272725D02*
X177490144Y-110281966D01*
X177518223Y-110296975D01*
X177542831Y-110317169D01*
X177563025Y-110341777D01*
X177578034Y-110369856D01*
X177587275Y-110400317D01*
X177591000Y-110438140D01*
X177591000Y-111001860D01*
X177587275Y-111039683D01*
X177578034Y-111070144D01*
X177563025Y-111098223D01*
X177542831Y-111122831D01*
X177518223Y-111143025D01*
X177490144Y-111158034D01*
X177459683Y-111167275D01*
X177421860Y-111171000D01*
X176358140Y-111171000D01*
X176320317Y-111167275D01*
X176289856Y-111158034D01*
X176261777Y-111143025D01*
X176237169Y-111122831D01*
X176216975Y-111098223D01*
X176201966Y-111070144D01*
X176192725Y-111039683D01*
X176189000Y-111001860D01*
X176189000Y-110438140D01*
X176192725Y-110400317D01*
X176201966Y-110369856D01*
X176216975Y-110341777D01*
X176237169Y-110317169D01*
X176261777Y-110296975D01*
X176289856Y-110281966D01*
X176320317Y-110272725D01*
X176358140Y-110269000D01*
X177421860Y-110269000D01*
X177459683Y-110272725D01*
X177459683Y-110272725D01*
G37*
G36*
X136819683Y-110272725D02*
X136850144Y-110281966D01*
X136878223Y-110296975D01*
X136902831Y-110317169D01*
X136923025Y-110341777D01*
X136938034Y-110369856D01*
X136947275Y-110400317D01*
X136951000Y-110438140D01*
X136951000Y-111001860D01*
X136947275Y-111039683D01*
X136938034Y-111070144D01*
X136923025Y-111098223D01*
X136902831Y-111122831D01*
X136878223Y-111143025D01*
X136850144Y-111158034D01*
X136819683Y-111167275D01*
X136781860Y-111171000D01*
X135718140Y-111171000D01*
X135680317Y-111167275D01*
X135649856Y-111158034D01*
X135621777Y-111143025D01*
X135597169Y-111122831D01*
X135576975Y-111098223D01*
X135561966Y-111070144D01*
X135552725Y-111039683D01*
X135549000Y-111001860D01*
X135549000Y-110438140D01*
X135552725Y-110400317D01*
X135561966Y-110369856D01*
X135576975Y-110341777D01*
X135597169Y-110317169D01*
X135621777Y-110296975D01*
X135649856Y-110281966D01*
X135680317Y-110272725D01*
X135718140Y-110269000D01*
X136781860Y-110269000D01*
X136819683Y-110272725D01*
X136819683Y-110272725D01*
G37*
G36*
X146979683Y-110272725D02*
X147010144Y-110281966D01*
X147038223Y-110296975D01*
X147062831Y-110317169D01*
X147083025Y-110341777D01*
X147098034Y-110369856D01*
X147107275Y-110400317D01*
X147111000Y-110438140D01*
X147111000Y-111001860D01*
X147107275Y-111039683D01*
X147098034Y-111070144D01*
X147083025Y-111098223D01*
X147062831Y-111122831D01*
X147038223Y-111143025D01*
X147010144Y-111158034D01*
X146979683Y-111167275D01*
X146941860Y-111171000D01*
X145878140Y-111171000D01*
X145840317Y-111167275D01*
X145809856Y-111158034D01*
X145781777Y-111143025D01*
X145757169Y-111122831D01*
X145736975Y-111098223D01*
X145721966Y-111070144D01*
X145712725Y-111039683D01*
X145709000Y-111001860D01*
X145709000Y-110438140D01*
X145712725Y-110400317D01*
X145721966Y-110369856D01*
X145736975Y-110341777D01*
X145757169Y-110317169D01*
X145781777Y-110296975D01*
X145809856Y-110281966D01*
X145840317Y-110272725D01*
X145878140Y-110269000D01*
X146941860Y-110269000D01*
X146979683Y-110272725D01*
X146979683Y-110272725D01*
G37*
G36*
X152059683Y-110272725D02*
X152090144Y-110281966D01*
X152118223Y-110296975D01*
X152142831Y-110317169D01*
X152163025Y-110341777D01*
X152178034Y-110369856D01*
X152187275Y-110400317D01*
X152191000Y-110438140D01*
X152191000Y-111001860D01*
X152187275Y-111039683D01*
X152178034Y-111070144D01*
X152163025Y-111098223D01*
X152142831Y-111122831D01*
X152118223Y-111143025D01*
X152090144Y-111158034D01*
X152059683Y-111167275D01*
X152021860Y-111171000D01*
X150958140Y-111171000D01*
X150920317Y-111167275D01*
X150889856Y-111158034D01*
X150861777Y-111143025D01*
X150837169Y-111122831D01*
X150816975Y-111098223D01*
X150801966Y-111070144D01*
X150792725Y-111039683D01*
X150789000Y-111001860D01*
X150789000Y-110438140D01*
X150792725Y-110400317D01*
X150801966Y-110369856D01*
X150816975Y-110341777D01*
X150837169Y-110317169D01*
X150861777Y-110296975D01*
X150889856Y-110281966D01*
X150920317Y-110272725D01*
X150958140Y-110269000D01*
X152021860Y-110269000D01*
X152059683Y-110272725D01*
X152059683Y-110272725D01*
G37*
G36*
X162219683Y-110272725D02*
X162250144Y-110281966D01*
X162278223Y-110296975D01*
X162302831Y-110317169D01*
X162323025Y-110341777D01*
X162338034Y-110369856D01*
X162347275Y-110400317D01*
X162351000Y-110438140D01*
X162351000Y-111001860D01*
X162347275Y-111039683D01*
X162338034Y-111070144D01*
X162323025Y-111098223D01*
X162302831Y-111122831D01*
X162278223Y-111143025D01*
X162250144Y-111158034D01*
X162219683Y-111167275D01*
X162181860Y-111171000D01*
X161118140Y-111171000D01*
X161080317Y-111167275D01*
X161049856Y-111158034D01*
X161021777Y-111143025D01*
X160997169Y-111122831D01*
X160976975Y-111098223D01*
X160961966Y-111070144D01*
X160952725Y-111039683D01*
X160949000Y-111001860D01*
X160949000Y-110438140D01*
X160952725Y-110400317D01*
X160961966Y-110369856D01*
X160976975Y-110341777D01*
X160997169Y-110317169D01*
X161021777Y-110296975D01*
X161049856Y-110281966D01*
X161080317Y-110272725D01*
X161118140Y-110269000D01*
X162181860Y-110269000D01*
X162219683Y-110272725D01*
X162219683Y-110272725D01*
G37*
G36*
X167299683Y-110272725D02*
X167330144Y-110281966D01*
X167358223Y-110296975D01*
X167382831Y-110317169D01*
X167403025Y-110341777D01*
X167418034Y-110369856D01*
X167427275Y-110400317D01*
X167431000Y-110438140D01*
X167431000Y-111001860D01*
X167427275Y-111039683D01*
X167418034Y-111070144D01*
X167403025Y-111098223D01*
X167382831Y-111122831D01*
X167358223Y-111143025D01*
X167330144Y-111158034D01*
X167299683Y-111167275D01*
X167261860Y-111171000D01*
X166198140Y-111171000D01*
X166160317Y-111167275D01*
X166129856Y-111158034D01*
X166101777Y-111143025D01*
X166077169Y-111122831D01*
X166056975Y-111098223D01*
X166041966Y-111070144D01*
X166032725Y-111039683D01*
X166029000Y-111001860D01*
X166029000Y-110438140D01*
X166032725Y-110400317D01*
X166041966Y-110369856D01*
X166056975Y-110341777D01*
X166077169Y-110317169D01*
X166101777Y-110296975D01*
X166129856Y-110281966D01*
X166160317Y-110272725D01*
X166198140Y-110269000D01*
X167261860Y-110269000D01*
X167299683Y-110272725D01*
X167299683Y-110272725D01*
G37*
G36*
X172379683Y-110272725D02*
X172410144Y-110281966D01*
X172438223Y-110296975D01*
X172462831Y-110317169D01*
X172483025Y-110341777D01*
X172498034Y-110369856D01*
X172507275Y-110400317D01*
X172511000Y-110438140D01*
X172511000Y-111001860D01*
X172507275Y-111039683D01*
X172498034Y-111070144D01*
X172483025Y-111098223D01*
X172462831Y-111122831D01*
X172438223Y-111143025D01*
X172410144Y-111158034D01*
X172379683Y-111167275D01*
X172341860Y-111171000D01*
X171278140Y-111171000D01*
X171240317Y-111167275D01*
X171209856Y-111158034D01*
X171181777Y-111143025D01*
X171157169Y-111122831D01*
X171136975Y-111098223D01*
X171121966Y-111070144D01*
X171112725Y-111039683D01*
X171109000Y-111001860D01*
X171109000Y-110438140D01*
X171112725Y-110400317D01*
X171121966Y-110369856D01*
X171136975Y-110341777D01*
X171157169Y-110317169D01*
X171181777Y-110296975D01*
X171209856Y-110281966D01*
X171240317Y-110272725D01*
X171278140Y-110269000D01*
X172341860Y-110269000D01*
X172379683Y-110272725D01*
X172379683Y-110272725D01*
G37*
G36*
X157139683Y-110272725D02*
X157170144Y-110281966D01*
X157198223Y-110296975D01*
X157222831Y-110317169D01*
X157243025Y-110341777D01*
X157258034Y-110369856D01*
X157267275Y-110400317D01*
X157271000Y-110438140D01*
X157271000Y-111001860D01*
X157267275Y-111039683D01*
X157258034Y-111070144D01*
X157243025Y-111098223D01*
X157222831Y-111122831D01*
X157198223Y-111143025D01*
X157170144Y-111158034D01*
X157139683Y-111167275D01*
X157101860Y-111171000D01*
X156038140Y-111171000D01*
X156000317Y-111167275D01*
X155969856Y-111158034D01*
X155941777Y-111143025D01*
X155917169Y-111122831D01*
X155896975Y-111098223D01*
X155881966Y-111070144D01*
X155872725Y-111039683D01*
X155869000Y-111001860D01*
X155869000Y-110438140D01*
X155872725Y-110400317D01*
X155881966Y-110369856D01*
X155896975Y-110341777D01*
X155917169Y-110317169D01*
X155941777Y-110296975D01*
X155969856Y-110281966D01*
X156000317Y-110272725D01*
X156038140Y-110269000D01*
X157101860Y-110269000D01*
X157139683Y-110272725D01*
X157139683Y-110272725D01*
G37*
G36*
X182539683Y-110252725D02*
X182570144Y-110261966D01*
X182598223Y-110276975D01*
X182622831Y-110297169D01*
X182643025Y-110321777D01*
X182658034Y-110349856D01*
X182667275Y-110380317D01*
X182671000Y-110418140D01*
X182671000Y-110981860D01*
X182667275Y-111019683D01*
X182658034Y-111050144D01*
X182643025Y-111078223D01*
X182622831Y-111102831D01*
X182598223Y-111123025D01*
X182570144Y-111138034D01*
X182539683Y-111147275D01*
X182501860Y-111151000D01*
X181438140Y-111151000D01*
X181400317Y-111147275D01*
X181369856Y-111138034D01*
X181341777Y-111123025D01*
X181317169Y-111102831D01*
X181296975Y-111078223D01*
X181281966Y-111050144D01*
X181272725Y-111019683D01*
X181269000Y-110981860D01*
X181269000Y-110418140D01*
X181272725Y-110380317D01*
X181281966Y-110349856D01*
X181296975Y-110321777D01*
X181317169Y-110297169D01*
X181341777Y-110276975D01*
X181369856Y-110261966D01*
X181400317Y-110252725D01*
X181438140Y-110249000D01*
X182501860Y-110249000D01*
X182539683Y-110252725D01*
X182539683Y-110252725D01*
G37*
G36*
X141899683Y-110252725D02*
X141930144Y-110261966D01*
X141958223Y-110276975D01*
X141982831Y-110297169D01*
X142003025Y-110321777D01*
X142018034Y-110349856D01*
X142027275Y-110380317D01*
X142031000Y-110418140D01*
X142031000Y-110981860D01*
X142027275Y-111019683D01*
X142018034Y-111050144D01*
X142003025Y-111078223D01*
X141982831Y-111102831D01*
X141958223Y-111123025D01*
X141930144Y-111138034D01*
X141899683Y-111147275D01*
X141861860Y-111151000D01*
X140798140Y-111151000D01*
X140760317Y-111147275D01*
X140729856Y-111138034D01*
X140701777Y-111123025D01*
X140677169Y-111102831D01*
X140656975Y-111078223D01*
X140641966Y-111050144D01*
X140632725Y-111019683D01*
X140629000Y-110981860D01*
X140629000Y-110418140D01*
X140632725Y-110380317D01*
X140641966Y-110349856D01*
X140656975Y-110321777D01*
X140677169Y-110297169D01*
X140701777Y-110276975D01*
X140729856Y-110261966D01*
X140760317Y-110252725D01*
X140798140Y-110249000D01*
X141861860Y-110249000D01*
X141899683Y-110252725D01*
X141899683Y-110252725D01*
G37*
G36*
X156908413Y-109025525D02*
X156983456Y-109048290D01*
X156993425Y-109051314D01*
X157071774Y-109093193D01*
X157140448Y-109149552D01*
X157196807Y-109218226D01*
X157238686Y-109296575D01*
X157238687Y-109296579D01*
X157264475Y-109381587D01*
X157273182Y-109470000D01*
X157264475Y-109558413D01*
X157244754Y-109623421D01*
X157238686Y-109643425D01*
X157196807Y-109721774D01*
X157140448Y-109790448D01*
X157071774Y-109846807D01*
X156993425Y-109888686D01*
X156983456Y-109891710D01*
X156908413Y-109914475D01*
X156842158Y-109921000D01*
X156297842Y-109921000D01*
X156231587Y-109914475D01*
X156156544Y-109891710D01*
X156146575Y-109888686D01*
X156068226Y-109846807D01*
X155999552Y-109790448D01*
X155943193Y-109721774D01*
X155901314Y-109643425D01*
X155895246Y-109623421D01*
X155875525Y-109558413D01*
X155866818Y-109470000D01*
X155875525Y-109381587D01*
X155901313Y-109296579D01*
X155901314Y-109296575D01*
X155943193Y-109218226D01*
X155999552Y-109149552D01*
X156068226Y-109093193D01*
X156146575Y-109051314D01*
X156156544Y-109048290D01*
X156231587Y-109025525D01*
X156297842Y-109019000D01*
X156842158Y-109019000D01*
X156908413Y-109025525D01*
X156908413Y-109025525D01*
G37*
G36*
X136588413Y-109025525D02*
X136663456Y-109048290D01*
X136673425Y-109051314D01*
X136751774Y-109093193D01*
X136820448Y-109149552D01*
X136876807Y-109218226D01*
X136918686Y-109296575D01*
X136918687Y-109296579D01*
X136944475Y-109381587D01*
X136953182Y-109470000D01*
X136944475Y-109558413D01*
X136924754Y-109623421D01*
X136918686Y-109643425D01*
X136876807Y-109721774D01*
X136820448Y-109790448D01*
X136751774Y-109846807D01*
X136673425Y-109888686D01*
X136663456Y-109891710D01*
X136588413Y-109914475D01*
X136522158Y-109921000D01*
X135977842Y-109921000D01*
X135911587Y-109914475D01*
X135836544Y-109891710D01*
X135826575Y-109888686D01*
X135748226Y-109846807D01*
X135679552Y-109790448D01*
X135623193Y-109721774D01*
X135581314Y-109643425D01*
X135575246Y-109623421D01*
X135555525Y-109558413D01*
X135546818Y-109470000D01*
X135555525Y-109381587D01*
X135581313Y-109296579D01*
X135581314Y-109296575D01*
X135623193Y-109218226D01*
X135679552Y-109149552D01*
X135748226Y-109093193D01*
X135826575Y-109051314D01*
X135836544Y-109048290D01*
X135911587Y-109025525D01*
X135977842Y-109019000D01*
X136522158Y-109019000D01*
X136588413Y-109025525D01*
X136588413Y-109025525D01*
G37*
G36*
X146748413Y-109025525D02*
X146823456Y-109048290D01*
X146833425Y-109051314D01*
X146911774Y-109093193D01*
X146980448Y-109149552D01*
X147036807Y-109218226D01*
X147078686Y-109296575D01*
X147078687Y-109296579D01*
X147104475Y-109381587D01*
X147113182Y-109470000D01*
X147104475Y-109558413D01*
X147084754Y-109623421D01*
X147078686Y-109643425D01*
X147036807Y-109721774D01*
X146980448Y-109790448D01*
X146911774Y-109846807D01*
X146833425Y-109888686D01*
X146823456Y-109891710D01*
X146748413Y-109914475D01*
X146682158Y-109921000D01*
X146137842Y-109921000D01*
X146071587Y-109914475D01*
X145996544Y-109891710D01*
X145986575Y-109888686D01*
X145908226Y-109846807D01*
X145839552Y-109790448D01*
X145783193Y-109721774D01*
X145741314Y-109643425D01*
X145735246Y-109623421D01*
X145715525Y-109558413D01*
X145706818Y-109470000D01*
X145715525Y-109381587D01*
X145741313Y-109296579D01*
X145741314Y-109296575D01*
X145783193Y-109218226D01*
X145839552Y-109149552D01*
X145908226Y-109093193D01*
X145986575Y-109051314D01*
X145996544Y-109048290D01*
X146071587Y-109025525D01*
X146137842Y-109019000D01*
X146682158Y-109019000D01*
X146748413Y-109025525D01*
X146748413Y-109025525D01*
G37*
G36*
X151828413Y-109025525D02*
X151903456Y-109048290D01*
X151913425Y-109051314D01*
X151991774Y-109093193D01*
X152060448Y-109149552D01*
X152116807Y-109218226D01*
X152158686Y-109296575D01*
X152158687Y-109296579D01*
X152184475Y-109381587D01*
X152193182Y-109470000D01*
X152184475Y-109558413D01*
X152164754Y-109623421D01*
X152158686Y-109643425D01*
X152116807Y-109721774D01*
X152060448Y-109790448D01*
X151991774Y-109846807D01*
X151913425Y-109888686D01*
X151903456Y-109891710D01*
X151828413Y-109914475D01*
X151762158Y-109921000D01*
X151217842Y-109921000D01*
X151151587Y-109914475D01*
X151076544Y-109891710D01*
X151066575Y-109888686D01*
X150988226Y-109846807D01*
X150919552Y-109790448D01*
X150863193Y-109721774D01*
X150821314Y-109643425D01*
X150815246Y-109623421D01*
X150795525Y-109558413D01*
X150786818Y-109470000D01*
X150795525Y-109381587D01*
X150821313Y-109296579D01*
X150821314Y-109296575D01*
X150863193Y-109218226D01*
X150919552Y-109149552D01*
X150988226Y-109093193D01*
X151066575Y-109051314D01*
X151076544Y-109048290D01*
X151151587Y-109025525D01*
X151217842Y-109019000D01*
X151762158Y-109019000D01*
X151828413Y-109025525D01*
X151828413Y-109025525D01*
G37*
G36*
X161988413Y-109025525D02*
X162063456Y-109048290D01*
X162073425Y-109051314D01*
X162151774Y-109093193D01*
X162220448Y-109149552D01*
X162276807Y-109218226D01*
X162318686Y-109296575D01*
X162318687Y-109296579D01*
X162344475Y-109381587D01*
X162353182Y-109470000D01*
X162344475Y-109558413D01*
X162324754Y-109623421D01*
X162318686Y-109643425D01*
X162276807Y-109721774D01*
X162220448Y-109790448D01*
X162151774Y-109846807D01*
X162073425Y-109888686D01*
X162063456Y-109891710D01*
X161988413Y-109914475D01*
X161922158Y-109921000D01*
X161377842Y-109921000D01*
X161311587Y-109914475D01*
X161236544Y-109891710D01*
X161226575Y-109888686D01*
X161148226Y-109846807D01*
X161079552Y-109790448D01*
X161023193Y-109721774D01*
X160981314Y-109643425D01*
X160975246Y-109623421D01*
X160955525Y-109558413D01*
X160946818Y-109470000D01*
X160955525Y-109381587D01*
X160981313Y-109296579D01*
X160981314Y-109296575D01*
X161023193Y-109218226D01*
X161079552Y-109149552D01*
X161148226Y-109093193D01*
X161226575Y-109051314D01*
X161236544Y-109048290D01*
X161311587Y-109025525D01*
X161377842Y-109019000D01*
X161922158Y-109019000D01*
X161988413Y-109025525D01*
X161988413Y-109025525D01*
G37*
G36*
X167068413Y-109025525D02*
X167143456Y-109048290D01*
X167153425Y-109051314D01*
X167231774Y-109093193D01*
X167300448Y-109149552D01*
X167356807Y-109218226D01*
X167398686Y-109296575D01*
X167398687Y-109296579D01*
X167424475Y-109381587D01*
X167433182Y-109470000D01*
X167424475Y-109558413D01*
X167404754Y-109623421D01*
X167398686Y-109643425D01*
X167356807Y-109721774D01*
X167300448Y-109790448D01*
X167231774Y-109846807D01*
X167153425Y-109888686D01*
X167143456Y-109891710D01*
X167068413Y-109914475D01*
X167002158Y-109921000D01*
X166457842Y-109921000D01*
X166391587Y-109914475D01*
X166316544Y-109891710D01*
X166306575Y-109888686D01*
X166228226Y-109846807D01*
X166159552Y-109790448D01*
X166103193Y-109721774D01*
X166061314Y-109643425D01*
X166055246Y-109623421D01*
X166035525Y-109558413D01*
X166026818Y-109470000D01*
X166035525Y-109381587D01*
X166061313Y-109296579D01*
X166061314Y-109296575D01*
X166103193Y-109218226D01*
X166159552Y-109149552D01*
X166228226Y-109093193D01*
X166306575Y-109051314D01*
X166316544Y-109048290D01*
X166391587Y-109025525D01*
X166457842Y-109019000D01*
X167002158Y-109019000D01*
X167068413Y-109025525D01*
X167068413Y-109025525D01*
G37*
G36*
X177228413Y-109025525D02*
X177303456Y-109048290D01*
X177313425Y-109051314D01*
X177391774Y-109093193D01*
X177460448Y-109149552D01*
X177516807Y-109218226D01*
X177558686Y-109296575D01*
X177558687Y-109296579D01*
X177584475Y-109381587D01*
X177593182Y-109470000D01*
X177584475Y-109558413D01*
X177564754Y-109623421D01*
X177558686Y-109643425D01*
X177516807Y-109721774D01*
X177460448Y-109790448D01*
X177391774Y-109846807D01*
X177313425Y-109888686D01*
X177303456Y-109891710D01*
X177228413Y-109914475D01*
X177162158Y-109921000D01*
X176617842Y-109921000D01*
X176551587Y-109914475D01*
X176476544Y-109891710D01*
X176466575Y-109888686D01*
X176388226Y-109846807D01*
X176319552Y-109790448D01*
X176263193Y-109721774D01*
X176221314Y-109643425D01*
X176215246Y-109623421D01*
X176195525Y-109558413D01*
X176186818Y-109470000D01*
X176195525Y-109381587D01*
X176221313Y-109296579D01*
X176221314Y-109296575D01*
X176263193Y-109218226D01*
X176319552Y-109149552D01*
X176388226Y-109093193D01*
X176466575Y-109051314D01*
X176476544Y-109048290D01*
X176551587Y-109025525D01*
X176617842Y-109019000D01*
X177162158Y-109019000D01*
X177228413Y-109025525D01*
X177228413Y-109025525D01*
G37*
G36*
X172148413Y-109025525D02*
X172223456Y-109048290D01*
X172233425Y-109051314D01*
X172311774Y-109093193D01*
X172380448Y-109149552D01*
X172436807Y-109218226D01*
X172478686Y-109296575D01*
X172478687Y-109296579D01*
X172504475Y-109381587D01*
X172513182Y-109470000D01*
X172504475Y-109558413D01*
X172484754Y-109623421D01*
X172478686Y-109643425D01*
X172436807Y-109721774D01*
X172380448Y-109790448D01*
X172311774Y-109846807D01*
X172233425Y-109888686D01*
X172223456Y-109891710D01*
X172148413Y-109914475D01*
X172082158Y-109921000D01*
X171537842Y-109921000D01*
X171471587Y-109914475D01*
X171396544Y-109891710D01*
X171386575Y-109888686D01*
X171308226Y-109846807D01*
X171239552Y-109790448D01*
X171183193Y-109721774D01*
X171141314Y-109643425D01*
X171135246Y-109623421D01*
X171115525Y-109558413D01*
X171106818Y-109470000D01*
X171115525Y-109381587D01*
X171141313Y-109296579D01*
X171141314Y-109296575D01*
X171183193Y-109218226D01*
X171239552Y-109149552D01*
X171308226Y-109093193D01*
X171386575Y-109051314D01*
X171396544Y-109048290D01*
X171471587Y-109025525D01*
X171537842Y-109019000D01*
X172082158Y-109019000D01*
X172148413Y-109025525D01*
X172148413Y-109025525D01*
G37*
G36*
X141668413Y-109005525D02*
X141743456Y-109028290D01*
X141753425Y-109031314D01*
X141831774Y-109073193D01*
X141900448Y-109129552D01*
X141956807Y-109198226D01*
X141998686Y-109276575D01*
X141998687Y-109276579D01*
X142024475Y-109361587D01*
X142033182Y-109450000D01*
X142024475Y-109538413D01*
X142001710Y-109613456D01*
X141998686Y-109623425D01*
X141956807Y-109701774D01*
X141900448Y-109770448D01*
X141831774Y-109826807D01*
X141753425Y-109868686D01*
X141743456Y-109871710D01*
X141668413Y-109894475D01*
X141602158Y-109901000D01*
X141057842Y-109901000D01*
X140991587Y-109894475D01*
X140916544Y-109871710D01*
X140906575Y-109868686D01*
X140828226Y-109826807D01*
X140759552Y-109770448D01*
X140703193Y-109701774D01*
X140661314Y-109623425D01*
X140658290Y-109613456D01*
X140635525Y-109538413D01*
X140626818Y-109450000D01*
X140635525Y-109361587D01*
X140661313Y-109276579D01*
X140661314Y-109276575D01*
X140703193Y-109198226D01*
X140759552Y-109129552D01*
X140828226Y-109073193D01*
X140906575Y-109031314D01*
X140916544Y-109028290D01*
X140991587Y-109005525D01*
X141057842Y-108999000D01*
X141602158Y-108999000D01*
X141668413Y-109005525D01*
X141668413Y-109005525D01*
G37*
G36*
X182308413Y-109005525D02*
X182383456Y-109028290D01*
X182393425Y-109031314D01*
X182471774Y-109073193D01*
X182540448Y-109129552D01*
X182596807Y-109198226D01*
X182638686Y-109276575D01*
X182638687Y-109276579D01*
X182664475Y-109361587D01*
X182673182Y-109450000D01*
X182664475Y-109538413D01*
X182641710Y-109613456D01*
X182638686Y-109623425D01*
X182596807Y-109701774D01*
X182540448Y-109770448D01*
X182471774Y-109826807D01*
X182393425Y-109868686D01*
X182383456Y-109871710D01*
X182308413Y-109894475D01*
X182242158Y-109901000D01*
X181697842Y-109901000D01*
X181631587Y-109894475D01*
X181556544Y-109871710D01*
X181546575Y-109868686D01*
X181468226Y-109826807D01*
X181399552Y-109770448D01*
X181343193Y-109701774D01*
X181301314Y-109623425D01*
X181298290Y-109613456D01*
X181275525Y-109538413D01*
X181266818Y-109450000D01*
X181275525Y-109361587D01*
X181301313Y-109276579D01*
X181301314Y-109276575D01*
X181343193Y-109198226D01*
X181399552Y-109129552D01*
X181468226Y-109073193D01*
X181546575Y-109031314D01*
X181556544Y-109028290D01*
X181631587Y-109005525D01*
X181697842Y-108999000D01*
X182242158Y-108999000D01*
X182308413Y-109005525D01*
X182308413Y-109005525D01*
G37*
G36*
X167068413Y-107775525D02*
X167143456Y-107798290D01*
X167153425Y-107801314D01*
X167231774Y-107843193D01*
X167300448Y-107899552D01*
X167356807Y-107968226D01*
X167398686Y-108046575D01*
X167398687Y-108046579D01*
X167424475Y-108131587D01*
X167433182Y-108220000D01*
X167424475Y-108308413D01*
X167404754Y-108373421D01*
X167398686Y-108393425D01*
X167356807Y-108471774D01*
X167300448Y-108540448D01*
X167231774Y-108596807D01*
X167153425Y-108638686D01*
X167143456Y-108641710D01*
X167068413Y-108664475D01*
X167002158Y-108671000D01*
X166457842Y-108671000D01*
X166391587Y-108664475D01*
X166316544Y-108641710D01*
X166306575Y-108638686D01*
X166228226Y-108596807D01*
X166159552Y-108540448D01*
X166103193Y-108471774D01*
X166061314Y-108393425D01*
X166055246Y-108373421D01*
X166035525Y-108308413D01*
X166026818Y-108220000D01*
X166035525Y-108131587D01*
X166061313Y-108046579D01*
X166061314Y-108046575D01*
X166103193Y-107968226D01*
X166159552Y-107899552D01*
X166228226Y-107843193D01*
X166306575Y-107801314D01*
X166316544Y-107798290D01*
X166391587Y-107775525D01*
X166457842Y-107769000D01*
X167002158Y-107769000D01*
X167068413Y-107775525D01*
X167068413Y-107775525D01*
G37*
G36*
X177228413Y-107775525D02*
X177303456Y-107798290D01*
X177313425Y-107801314D01*
X177391774Y-107843193D01*
X177460448Y-107899552D01*
X177516807Y-107968226D01*
X177558686Y-108046575D01*
X177558687Y-108046579D01*
X177584475Y-108131587D01*
X177593182Y-108220000D01*
X177584475Y-108308413D01*
X177564754Y-108373421D01*
X177558686Y-108393425D01*
X177516807Y-108471774D01*
X177460448Y-108540448D01*
X177391774Y-108596807D01*
X177313425Y-108638686D01*
X177303456Y-108641710D01*
X177228413Y-108664475D01*
X177162158Y-108671000D01*
X176617842Y-108671000D01*
X176551587Y-108664475D01*
X176476544Y-108641710D01*
X176466575Y-108638686D01*
X176388226Y-108596807D01*
X176319552Y-108540448D01*
X176263193Y-108471774D01*
X176221314Y-108393425D01*
X176215246Y-108373421D01*
X176195525Y-108308413D01*
X176186818Y-108220000D01*
X176195525Y-108131587D01*
X176221313Y-108046579D01*
X176221314Y-108046575D01*
X176263193Y-107968226D01*
X176319552Y-107899552D01*
X176388226Y-107843193D01*
X176466575Y-107801314D01*
X176476544Y-107798290D01*
X176551587Y-107775525D01*
X176617842Y-107769000D01*
X177162158Y-107769000D01*
X177228413Y-107775525D01*
X177228413Y-107775525D01*
G37*
G36*
X172148413Y-107775525D02*
X172223456Y-107798290D01*
X172233425Y-107801314D01*
X172311774Y-107843193D01*
X172380448Y-107899552D01*
X172436807Y-107968226D01*
X172478686Y-108046575D01*
X172478687Y-108046579D01*
X172504475Y-108131587D01*
X172513182Y-108220000D01*
X172504475Y-108308413D01*
X172484754Y-108373421D01*
X172478686Y-108393425D01*
X172436807Y-108471774D01*
X172380448Y-108540448D01*
X172311774Y-108596807D01*
X172233425Y-108638686D01*
X172223456Y-108641710D01*
X172148413Y-108664475D01*
X172082158Y-108671000D01*
X171537842Y-108671000D01*
X171471587Y-108664475D01*
X171396544Y-108641710D01*
X171386575Y-108638686D01*
X171308226Y-108596807D01*
X171239552Y-108540448D01*
X171183193Y-108471774D01*
X171141314Y-108393425D01*
X171135246Y-108373421D01*
X171115525Y-108308413D01*
X171106818Y-108220000D01*
X171115525Y-108131587D01*
X171141313Y-108046579D01*
X171141314Y-108046575D01*
X171183193Y-107968226D01*
X171239552Y-107899552D01*
X171308226Y-107843193D01*
X171386575Y-107801314D01*
X171396544Y-107798290D01*
X171471587Y-107775525D01*
X171537842Y-107769000D01*
X172082158Y-107769000D01*
X172148413Y-107775525D01*
X172148413Y-107775525D01*
G37*
G36*
X161988413Y-107775525D02*
X162063456Y-107798290D01*
X162073425Y-107801314D01*
X162151774Y-107843193D01*
X162220448Y-107899552D01*
X162276807Y-107968226D01*
X162318686Y-108046575D01*
X162318687Y-108046579D01*
X162344475Y-108131587D01*
X162353182Y-108220000D01*
X162344475Y-108308413D01*
X162324754Y-108373421D01*
X162318686Y-108393425D01*
X162276807Y-108471774D01*
X162220448Y-108540448D01*
X162151774Y-108596807D01*
X162073425Y-108638686D01*
X162063456Y-108641710D01*
X161988413Y-108664475D01*
X161922158Y-108671000D01*
X161377842Y-108671000D01*
X161311587Y-108664475D01*
X161236544Y-108641710D01*
X161226575Y-108638686D01*
X161148226Y-108596807D01*
X161079552Y-108540448D01*
X161023193Y-108471774D01*
X160981314Y-108393425D01*
X160975246Y-108373421D01*
X160955525Y-108308413D01*
X160946818Y-108220000D01*
X160955525Y-108131587D01*
X160981313Y-108046579D01*
X160981314Y-108046575D01*
X161023193Y-107968226D01*
X161079552Y-107899552D01*
X161148226Y-107843193D01*
X161226575Y-107801314D01*
X161236544Y-107798290D01*
X161311587Y-107775525D01*
X161377842Y-107769000D01*
X161922158Y-107769000D01*
X161988413Y-107775525D01*
X161988413Y-107775525D01*
G37*
G36*
X146748413Y-107775525D02*
X146823456Y-107798290D01*
X146833425Y-107801314D01*
X146911774Y-107843193D01*
X146980448Y-107899552D01*
X147036807Y-107968226D01*
X147078686Y-108046575D01*
X147078687Y-108046579D01*
X147104475Y-108131587D01*
X147113182Y-108220000D01*
X147104475Y-108308413D01*
X147084754Y-108373421D01*
X147078686Y-108393425D01*
X147036807Y-108471774D01*
X146980448Y-108540448D01*
X146911774Y-108596807D01*
X146833425Y-108638686D01*
X146823456Y-108641710D01*
X146748413Y-108664475D01*
X146682158Y-108671000D01*
X146137842Y-108671000D01*
X146071587Y-108664475D01*
X145996544Y-108641710D01*
X145986575Y-108638686D01*
X145908226Y-108596807D01*
X145839552Y-108540448D01*
X145783193Y-108471774D01*
X145741314Y-108393425D01*
X145735246Y-108373421D01*
X145715525Y-108308413D01*
X145706818Y-108220000D01*
X145715525Y-108131587D01*
X145741313Y-108046579D01*
X145741314Y-108046575D01*
X145783193Y-107968226D01*
X145839552Y-107899552D01*
X145908226Y-107843193D01*
X145986575Y-107801314D01*
X145996544Y-107798290D01*
X146071587Y-107775525D01*
X146137842Y-107769000D01*
X146682158Y-107769000D01*
X146748413Y-107775525D01*
X146748413Y-107775525D01*
G37*
G36*
X156908413Y-107775525D02*
X156983456Y-107798290D01*
X156993425Y-107801314D01*
X157071774Y-107843193D01*
X157140448Y-107899552D01*
X157196807Y-107968226D01*
X157238686Y-108046575D01*
X157238687Y-108046579D01*
X157264475Y-108131587D01*
X157273182Y-108220000D01*
X157264475Y-108308413D01*
X157244754Y-108373421D01*
X157238686Y-108393425D01*
X157196807Y-108471774D01*
X157140448Y-108540448D01*
X157071774Y-108596807D01*
X156993425Y-108638686D01*
X156983456Y-108641710D01*
X156908413Y-108664475D01*
X156842158Y-108671000D01*
X156297842Y-108671000D01*
X156231587Y-108664475D01*
X156156544Y-108641710D01*
X156146575Y-108638686D01*
X156068226Y-108596807D01*
X155999552Y-108540448D01*
X155943193Y-108471774D01*
X155901314Y-108393425D01*
X155895246Y-108373421D01*
X155875525Y-108308413D01*
X155866818Y-108220000D01*
X155875525Y-108131587D01*
X155901313Y-108046579D01*
X155901314Y-108046575D01*
X155943193Y-107968226D01*
X155999552Y-107899552D01*
X156068226Y-107843193D01*
X156146575Y-107801314D01*
X156156544Y-107798290D01*
X156231587Y-107775525D01*
X156297842Y-107769000D01*
X156842158Y-107769000D01*
X156908413Y-107775525D01*
X156908413Y-107775525D01*
G37*
G36*
X136588413Y-107775525D02*
X136663456Y-107798290D01*
X136673425Y-107801314D01*
X136751774Y-107843193D01*
X136820448Y-107899552D01*
X136876807Y-107968226D01*
X136918686Y-108046575D01*
X136918687Y-108046579D01*
X136944475Y-108131587D01*
X136953182Y-108220000D01*
X136944475Y-108308413D01*
X136924754Y-108373421D01*
X136918686Y-108393425D01*
X136876807Y-108471774D01*
X136820448Y-108540448D01*
X136751774Y-108596807D01*
X136673425Y-108638686D01*
X136663456Y-108641710D01*
X136588413Y-108664475D01*
X136522158Y-108671000D01*
X135977842Y-108671000D01*
X135911587Y-108664475D01*
X135836544Y-108641710D01*
X135826575Y-108638686D01*
X135748226Y-108596807D01*
X135679552Y-108540448D01*
X135623193Y-108471774D01*
X135581314Y-108393425D01*
X135575246Y-108373421D01*
X135555525Y-108308413D01*
X135546818Y-108220000D01*
X135555525Y-108131587D01*
X135581313Y-108046579D01*
X135581314Y-108046575D01*
X135623193Y-107968226D01*
X135679552Y-107899552D01*
X135748226Y-107843193D01*
X135826575Y-107801314D01*
X135836544Y-107798290D01*
X135911587Y-107775525D01*
X135977842Y-107769000D01*
X136522158Y-107769000D01*
X136588413Y-107775525D01*
X136588413Y-107775525D01*
G37*
G36*
X151828413Y-107775525D02*
X151903456Y-107798290D01*
X151913425Y-107801314D01*
X151991774Y-107843193D01*
X152060448Y-107899552D01*
X152116807Y-107968226D01*
X152158686Y-108046575D01*
X152158687Y-108046579D01*
X152184475Y-108131587D01*
X152193182Y-108220000D01*
X152184475Y-108308413D01*
X152164754Y-108373421D01*
X152158686Y-108393425D01*
X152116807Y-108471774D01*
X152060448Y-108540448D01*
X151991774Y-108596807D01*
X151913425Y-108638686D01*
X151903456Y-108641710D01*
X151828413Y-108664475D01*
X151762158Y-108671000D01*
X151217842Y-108671000D01*
X151151587Y-108664475D01*
X151076544Y-108641710D01*
X151066575Y-108638686D01*
X150988226Y-108596807D01*
X150919552Y-108540448D01*
X150863193Y-108471774D01*
X150821314Y-108393425D01*
X150815246Y-108373421D01*
X150795525Y-108308413D01*
X150786818Y-108220000D01*
X150795525Y-108131587D01*
X150821313Y-108046579D01*
X150821314Y-108046575D01*
X150863193Y-107968226D01*
X150919552Y-107899552D01*
X150988226Y-107843193D01*
X151066575Y-107801314D01*
X151076544Y-107798290D01*
X151151587Y-107775525D01*
X151217842Y-107769000D01*
X151762158Y-107769000D01*
X151828413Y-107775525D01*
X151828413Y-107775525D01*
G37*
G36*
X182308413Y-107755525D02*
X182383456Y-107778290D01*
X182393425Y-107781314D01*
X182471774Y-107823193D01*
X182540448Y-107879552D01*
X182596807Y-107948226D01*
X182638686Y-108026575D01*
X182638687Y-108026579D01*
X182664475Y-108111587D01*
X182673182Y-108200000D01*
X182664475Y-108288413D01*
X182641710Y-108363456D01*
X182638686Y-108373425D01*
X182596807Y-108451774D01*
X182540448Y-108520448D01*
X182471774Y-108576807D01*
X182393425Y-108618686D01*
X182383456Y-108621710D01*
X182308413Y-108644475D01*
X182242158Y-108651000D01*
X181697842Y-108651000D01*
X181631587Y-108644475D01*
X181556544Y-108621710D01*
X181546575Y-108618686D01*
X181468226Y-108576807D01*
X181399552Y-108520448D01*
X181343193Y-108451774D01*
X181301314Y-108373425D01*
X181298290Y-108363456D01*
X181275525Y-108288413D01*
X181266818Y-108200000D01*
X181275525Y-108111587D01*
X181301313Y-108026579D01*
X181301314Y-108026575D01*
X181343193Y-107948226D01*
X181399552Y-107879552D01*
X181468226Y-107823193D01*
X181546575Y-107781314D01*
X181556544Y-107778290D01*
X181631587Y-107755525D01*
X181697842Y-107749000D01*
X182242158Y-107749000D01*
X182308413Y-107755525D01*
X182308413Y-107755525D01*
G37*
G36*
X141668413Y-107755525D02*
X141743456Y-107778290D01*
X141753425Y-107781314D01*
X141831774Y-107823193D01*
X141900448Y-107879552D01*
X141956807Y-107948226D01*
X141998686Y-108026575D01*
X141998687Y-108026579D01*
X142024475Y-108111587D01*
X142033182Y-108200000D01*
X142024475Y-108288413D01*
X142001710Y-108363456D01*
X141998686Y-108373425D01*
X141956807Y-108451774D01*
X141900448Y-108520448D01*
X141831774Y-108576807D01*
X141753425Y-108618686D01*
X141743456Y-108621710D01*
X141668413Y-108644475D01*
X141602158Y-108651000D01*
X141057842Y-108651000D01*
X140991587Y-108644475D01*
X140916544Y-108621710D01*
X140906575Y-108618686D01*
X140828226Y-108576807D01*
X140759552Y-108520448D01*
X140703193Y-108451774D01*
X140661314Y-108373425D01*
X140658290Y-108363456D01*
X140635525Y-108288413D01*
X140626818Y-108200000D01*
X140635525Y-108111587D01*
X140661313Y-108026579D01*
X140661314Y-108026575D01*
X140703193Y-107948226D01*
X140759552Y-107879552D01*
X140828226Y-107823193D01*
X140906575Y-107781314D01*
X140916544Y-107778290D01*
X140991587Y-107755525D01*
X141057842Y-107749000D01*
X141602158Y-107749000D01*
X141668413Y-107755525D01*
X141668413Y-107755525D01*
G37*
G36*
X156736821Y-103531313D02*
X156736824Y-103531314D01*
X156736825Y-103531314D01*
X156897239Y-103579975D01*
X156897241Y-103579976D01*
X156897244Y-103579977D01*
X157045078Y-103658995D01*
X157174659Y-103765341D01*
X157281005Y-103894922D01*
X157360023Y-104042756D01*
X157408687Y-104203179D01*
X157425117Y-104370000D01*
X157408687Y-104536821D01*
X157360023Y-104697244D01*
X157281005Y-104845078D01*
X157174659Y-104974659D01*
X157045078Y-105081005D01*
X156897244Y-105160023D01*
X156897241Y-105160024D01*
X156897239Y-105160025D01*
X156736825Y-105208686D01*
X156736824Y-105208686D01*
X156736821Y-105208687D01*
X156611804Y-105221000D01*
X156528196Y-105221000D01*
X156403179Y-105208687D01*
X156403176Y-105208686D01*
X156403175Y-105208686D01*
X156242761Y-105160025D01*
X156242759Y-105160024D01*
X156242756Y-105160023D01*
X156094922Y-105081005D01*
X155965341Y-104974659D01*
X155858995Y-104845078D01*
X155779977Y-104697244D01*
X155731313Y-104536821D01*
X155714883Y-104370000D01*
X155731313Y-104203179D01*
X155779977Y-104042756D01*
X155858995Y-103894922D01*
X155965341Y-103765341D01*
X156094922Y-103658995D01*
X156242756Y-103579977D01*
X156242759Y-103579976D01*
X156242761Y-103579975D01*
X156403175Y-103531314D01*
X156403176Y-103531314D01*
X156403179Y-103531313D01*
X156528196Y-103519000D01*
X156611804Y-103519000D01*
X156736821Y-103531313D01*
X156736821Y-103531313D01*
G37*
G36*
X146576821Y-103531313D02*
X146576824Y-103531314D01*
X146576825Y-103531314D01*
X146737239Y-103579975D01*
X146737241Y-103579976D01*
X146737244Y-103579977D01*
X146885078Y-103658995D01*
X147014659Y-103765341D01*
X147121005Y-103894922D01*
X147200023Y-104042756D01*
X147248687Y-104203179D01*
X147265117Y-104370000D01*
X147248687Y-104536821D01*
X147200023Y-104697244D01*
X147121005Y-104845078D01*
X147014659Y-104974659D01*
X146885078Y-105081005D01*
X146737244Y-105160023D01*
X146737241Y-105160024D01*
X146737239Y-105160025D01*
X146576825Y-105208686D01*
X146576824Y-105208686D01*
X146576821Y-105208687D01*
X146451804Y-105221000D01*
X146368196Y-105221000D01*
X146243179Y-105208687D01*
X146243176Y-105208686D01*
X146243175Y-105208686D01*
X146082761Y-105160025D01*
X146082759Y-105160024D01*
X146082756Y-105160023D01*
X145934922Y-105081005D01*
X145805341Y-104974659D01*
X145698995Y-104845078D01*
X145619977Y-104697244D01*
X145571313Y-104536821D01*
X145554883Y-104370000D01*
X145571313Y-104203179D01*
X145619977Y-104042756D01*
X145698995Y-103894922D01*
X145805341Y-103765341D01*
X145934922Y-103658995D01*
X146082756Y-103579977D01*
X146082759Y-103579976D01*
X146082761Y-103579975D01*
X146243175Y-103531314D01*
X146243176Y-103531314D01*
X146243179Y-103531313D01*
X146368196Y-103519000D01*
X146451804Y-103519000D01*
X146576821Y-103531313D01*
X146576821Y-103531313D01*
G37*
G36*
X149116821Y-103531313D02*
X149116824Y-103531314D01*
X149116825Y-103531314D01*
X149277239Y-103579975D01*
X149277241Y-103579976D01*
X149277244Y-103579977D01*
X149425078Y-103658995D01*
X149554659Y-103765341D01*
X149661005Y-103894922D01*
X149740023Y-104042756D01*
X149788687Y-104203179D01*
X149805117Y-104370000D01*
X149788687Y-104536821D01*
X149740023Y-104697244D01*
X149661005Y-104845078D01*
X149554659Y-104974659D01*
X149425078Y-105081005D01*
X149277244Y-105160023D01*
X149277241Y-105160024D01*
X149277239Y-105160025D01*
X149116825Y-105208686D01*
X149116824Y-105208686D01*
X149116821Y-105208687D01*
X148991804Y-105221000D01*
X148908196Y-105221000D01*
X148783179Y-105208687D01*
X148783176Y-105208686D01*
X148783175Y-105208686D01*
X148622761Y-105160025D01*
X148622759Y-105160024D01*
X148622756Y-105160023D01*
X148474922Y-105081005D01*
X148345341Y-104974659D01*
X148238995Y-104845078D01*
X148159977Y-104697244D01*
X148111313Y-104536821D01*
X148094883Y-104370000D01*
X148111313Y-104203179D01*
X148159977Y-104042756D01*
X148238995Y-103894922D01*
X148345341Y-103765341D01*
X148474922Y-103658995D01*
X148622756Y-103579977D01*
X148622759Y-103579976D01*
X148622761Y-103579975D01*
X148783175Y-103531314D01*
X148783176Y-103531314D01*
X148783179Y-103531313D01*
X148908196Y-103519000D01*
X148991804Y-103519000D01*
X149116821Y-103531313D01*
X149116821Y-103531313D01*
G37*
G36*
X151656821Y-103531313D02*
X151656824Y-103531314D01*
X151656825Y-103531314D01*
X151817239Y-103579975D01*
X151817241Y-103579976D01*
X151817244Y-103579977D01*
X151965078Y-103658995D01*
X152094659Y-103765341D01*
X152201005Y-103894922D01*
X152280023Y-104042756D01*
X152328687Y-104203179D01*
X152345117Y-104370000D01*
X152328687Y-104536821D01*
X152280023Y-104697244D01*
X152201005Y-104845078D01*
X152094659Y-104974659D01*
X151965078Y-105081005D01*
X151817244Y-105160023D01*
X151817241Y-105160024D01*
X151817239Y-105160025D01*
X151656825Y-105208686D01*
X151656824Y-105208686D01*
X151656821Y-105208687D01*
X151531804Y-105221000D01*
X151448196Y-105221000D01*
X151323179Y-105208687D01*
X151323176Y-105208686D01*
X151323175Y-105208686D01*
X151162761Y-105160025D01*
X151162759Y-105160024D01*
X151162756Y-105160023D01*
X151014922Y-105081005D01*
X150885341Y-104974659D01*
X150778995Y-104845078D01*
X150699977Y-104697244D01*
X150651313Y-104536821D01*
X150634883Y-104370000D01*
X150651313Y-104203179D01*
X150699977Y-104042756D01*
X150778995Y-103894922D01*
X150885341Y-103765341D01*
X151014922Y-103658995D01*
X151162756Y-103579977D01*
X151162759Y-103579976D01*
X151162761Y-103579975D01*
X151323175Y-103531314D01*
X151323176Y-103531314D01*
X151323179Y-103531313D01*
X151448196Y-103519000D01*
X151531804Y-103519000D01*
X151656821Y-103531313D01*
X151656821Y-103531313D01*
G37*
G36*
X154196821Y-103531313D02*
X154196824Y-103531314D01*
X154196825Y-103531314D01*
X154357239Y-103579975D01*
X154357241Y-103579976D01*
X154357244Y-103579977D01*
X154505078Y-103658995D01*
X154634659Y-103765341D01*
X154741005Y-103894922D01*
X154820023Y-104042756D01*
X154868687Y-104203179D01*
X154885117Y-104370000D01*
X154868687Y-104536821D01*
X154820023Y-104697244D01*
X154741005Y-104845078D01*
X154634659Y-104974659D01*
X154505078Y-105081005D01*
X154357244Y-105160023D01*
X154357241Y-105160024D01*
X154357239Y-105160025D01*
X154196825Y-105208686D01*
X154196824Y-105208686D01*
X154196821Y-105208687D01*
X154071804Y-105221000D01*
X153988196Y-105221000D01*
X153863179Y-105208687D01*
X153863176Y-105208686D01*
X153863175Y-105208686D01*
X153702761Y-105160025D01*
X153702759Y-105160024D01*
X153702756Y-105160023D01*
X153554922Y-105081005D01*
X153425341Y-104974659D01*
X153318995Y-104845078D01*
X153239977Y-104697244D01*
X153191313Y-104536821D01*
X153174883Y-104370000D01*
X153191313Y-104203179D01*
X153239977Y-104042756D01*
X153318995Y-103894922D01*
X153425341Y-103765341D01*
X153554922Y-103658995D01*
X153702756Y-103579977D01*
X153702759Y-103579976D01*
X153702761Y-103579975D01*
X153863175Y-103531314D01*
X153863176Y-103531314D01*
X153863179Y-103531313D01*
X153988196Y-103519000D01*
X154071804Y-103519000D01*
X154196821Y-103531313D01*
X154196821Y-103531313D01*
G37*
G36*
X159276821Y-103531313D02*
X159276824Y-103531314D01*
X159276825Y-103531314D01*
X159437239Y-103579975D01*
X159437241Y-103579976D01*
X159437244Y-103579977D01*
X159585078Y-103658995D01*
X159714659Y-103765341D01*
X159821005Y-103894922D01*
X159900023Y-104042756D01*
X159948687Y-104203179D01*
X159965117Y-104370000D01*
X159948687Y-104536821D01*
X159900023Y-104697244D01*
X159821005Y-104845078D01*
X159714659Y-104974659D01*
X159585078Y-105081005D01*
X159437244Y-105160023D01*
X159437241Y-105160024D01*
X159437239Y-105160025D01*
X159276825Y-105208686D01*
X159276824Y-105208686D01*
X159276821Y-105208687D01*
X159151804Y-105221000D01*
X159068196Y-105221000D01*
X158943179Y-105208687D01*
X158943176Y-105208686D01*
X158943175Y-105208686D01*
X158782761Y-105160025D01*
X158782759Y-105160024D01*
X158782756Y-105160023D01*
X158634922Y-105081005D01*
X158505341Y-104974659D01*
X158398995Y-104845078D01*
X158319977Y-104697244D01*
X158271313Y-104536821D01*
X158254883Y-104370000D01*
X158271313Y-104203179D01*
X158319977Y-104042756D01*
X158398995Y-103894922D01*
X158505341Y-103765341D01*
X158634922Y-103658995D01*
X158782756Y-103579977D01*
X158782759Y-103579976D01*
X158782761Y-103579975D01*
X158943175Y-103531314D01*
X158943176Y-103531314D01*
X158943179Y-103531313D01*
X159068196Y-103519000D01*
X159151804Y-103519000D01*
X159276821Y-103531313D01*
X159276821Y-103531313D01*
G37*
G36*
X161816821Y-103531313D02*
X161816824Y-103531314D01*
X161816825Y-103531314D01*
X161977239Y-103579975D01*
X161977241Y-103579976D01*
X161977244Y-103579977D01*
X162125078Y-103658995D01*
X162254659Y-103765341D01*
X162361005Y-103894922D01*
X162440023Y-104042756D01*
X162488687Y-104203179D01*
X162505117Y-104370000D01*
X162488687Y-104536821D01*
X162440023Y-104697244D01*
X162361005Y-104845078D01*
X162254659Y-104974659D01*
X162125078Y-105081005D01*
X161977244Y-105160023D01*
X161977241Y-105160024D01*
X161977239Y-105160025D01*
X161816825Y-105208686D01*
X161816824Y-105208686D01*
X161816821Y-105208687D01*
X161691804Y-105221000D01*
X161608196Y-105221000D01*
X161483179Y-105208687D01*
X161483176Y-105208686D01*
X161483175Y-105208686D01*
X161322761Y-105160025D01*
X161322759Y-105160024D01*
X161322756Y-105160023D01*
X161174922Y-105081005D01*
X161045341Y-104974659D01*
X160938995Y-104845078D01*
X160859977Y-104697244D01*
X160811313Y-104536821D01*
X160794883Y-104370000D01*
X160811313Y-104203179D01*
X160859977Y-104042756D01*
X160938995Y-103894922D01*
X161045341Y-103765341D01*
X161174922Y-103658995D01*
X161322756Y-103579977D01*
X161322759Y-103579976D01*
X161322761Y-103579975D01*
X161483175Y-103531314D01*
X161483176Y-103531314D01*
X161483179Y-103531313D01*
X161608196Y-103519000D01*
X161691804Y-103519000D01*
X161816821Y-103531313D01*
X161816821Y-103531313D01*
G37*
G36*
X164356821Y-103531313D02*
X164356824Y-103531314D01*
X164356825Y-103531314D01*
X164517239Y-103579975D01*
X164517241Y-103579976D01*
X164517244Y-103579977D01*
X164665078Y-103658995D01*
X164794659Y-103765341D01*
X164901005Y-103894922D01*
X164980023Y-104042756D01*
X165028687Y-104203179D01*
X165045117Y-104370000D01*
X165028687Y-104536821D01*
X164980023Y-104697244D01*
X164901005Y-104845078D01*
X164794659Y-104974659D01*
X164665078Y-105081005D01*
X164517244Y-105160023D01*
X164517241Y-105160024D01*
X164517239Y-105160025D01*
X164356825Y-105208686D01*
X164356824Y-105208686D01*
X164356821Y-105208687D01*
X164231804Y-105221000D01*
X164148196Y-105221000D01*
X164023179Y-105208687D01*
X164023176Y-105208686D01*
X164023175Y-105208686D01*
X163862761Y-105160025D01*
X163862759Y-105160024D01*
X163862756Y-105160023D01*
X163714922Y-105081005D01*
X163585341Y-104974659D01*
X163478995Y-104845078D01*
X163399977Y-104697244D01*
X163351313Y-104536821D01*
X163334883Y-104370000D01*
X163351313Y-104203179D01*
X163399977Y-104042756D01*
X163478995Y-103894922D01*
X163585341Y-103765341D01*
X163714922Y-103658995D01*
X163862756Y-103579977D01*
X163862759Y-103579976D01*
X163862761Y-103579975D01*
X164023175Y-103531314D01*
X164023176Y-103531314D01*
X164023179Y-103531313D01*
X164148196Y-103519000D01*
X164231804Y-103519000D01*
X164356821Y-103531313D01*
X164356821Y-103531313D01*
G37*
G36*
X169436821Y-103531313D02*
X169436824Y-103531314D01*
X169436825Y-103531314D01*
X169597239Y-103579975D01*
X169597241Y-103579976D01*
X169597244Y-103579977D01*
X169745078Y-103658995D01*
X169874659Y-103765341D01*
X169981005Y-103894922D01*
X170060023Y-104042756D01*
X170108687Y-104203179D01*
X170125117Y-104370000D01*
X170108687Y-104536821D01*
X170060023Y-104697244D01*
X169981005Y-104845078D01*
X169874659Y-104974659D01*
X169745078Y-105081005D01*
X169597244Y-105160023D01*
X169597241Y-105160024D01*
X169597239Y-105160025D01*
X169436825Y-105208686D01*
X169436824Y-105208686D01*
X169436821Y-105208687D01*
X169311804Y-105221000D01*
X169228196Y-105221000D01*
X169103179Y-105208687D01*
X169103176Y-105208686D01*
X169103175Y-105208686D01*
X168942761Y-105160025D01*
X168942759Y-105160024D01*
X168942756Y-105160023D01*
X168794922Y-105081005D01*
X168665341Y-104974659D01*
X168558995Y-104845078D01*
X168479977Y-104697244D01*
X168431313Y-104536821D01*
X168414883Y-104370000D01*
X168431313Y-104203179D01*
X168479977Y-104042756D01*
X168558995Y-103894922D01*
X168665341Y-103765341D01*
X168794922Y-103658995D01*
X168942756Y-103579977D01*
X168942759Y-103579976D01*
X168942761Y-103579975D01*
X169103175Y-103531314D01*
X169103176Y-103531314D01*
X169103179Y-103531313D01*
X169228196Y-103519000D01*
X169311804Y-103519000D01*
X169436821Y-103531313D01*
X169436821Y-103531313D01*
G37*
G36*
X166896821Y-103531313D02*
X166896824Y-103531314D01*
X166896825Y-103531314D01*
X167057239Y-103579975D01*
X167057241Y-103579976D01*
X167057244Y-103579977D01*
X167205078Y-103658995D01*
X167334659Y-103765341D01*
X167441005Y-103894922D01*
X167520023Y-104042756D01*
X167568687Y-104203179D01*
X167585117Y-104370000D01*
X167568687Y-104536821D01*
X167520023Y-104697244D01*
X167441005Y-104845078D01*
X167334659Y-104974659D01*
X167205078Y-105081005D01*
X167057244Y-105160023D01*
X167057241Y-105160024D01*
X167057239Y-105160025D01*
X166896825Y-105208686D01*
X166896824Y-105208686D01*
X166896821Y-105208687D01*
X166771804Y-105221000D01*
X166688196Y-105221000D01*
X166563179Y-105208687D01*
X166563176Y-105208686D01*
X166563175Y-105208686D01*
X166402761Y-105160025D01*
X166402759Y-105160024D01*
X166402756Y-105160023D01*
X166254922Y-105081005D01*
X166125341Y-104974659D01*
X166018995Y-104845078D01*
X165939977Y-104697244D01*
X165891313Y-104536821D01*
X165874883Y-104370000D01*
X165891313Y-104203179D01*
X165939977Y-104042756D01*
X166018995Y-103894922D01*
X166125341Y-103765341D01*
X166254922Y-103658995D01*
X166402756Y-103579977D01*
X166402759Y-103579976D01*
X166402761Y-103579975D01*
X166563175Y-103531314D01*
X166563176Y-103531314D01*
X166563179Y-103531313D01*
X166688196Y-103519000D01*
X166771804Y-103519000D01*
X166896821Y-103531313D01*
X166896821Y-103531313D01*
G37*
G36*
X191429683Y-102652725D02*
X191460144Y-102661966D01*
X191488223Y-102676975D01*
X191512831Y-102697169D01*
X191533025Y-102721777D01*
X191548034Y-102749856D01*
X191557275Y-102780317D01*
X191561000Y-102818140D01*
X191561000Y-103381860D01*
X191557275Y-103419683D01*
X191548034Y-103450144D01*
X191533025Y-103478223D01*
X191512831Y-103502831D01*
X191488223Y-103523025D01*
X191460144Y-103538034D01*
X191429683Y-103547275D01*
X191391860Y-103551000D01*
X190328140Y-103551000D01*
X190290317Y-103547275D01*
X190259856Y-103538034D01*
X190231777Y-103523025D01*
X190207169Y-103502831D01*
X190186975Y-103478223D01*
X190171966Y-103450144D01*
X190162725Y-103419683D01*
X190159000Y-103381860D01*
X190159000Y-102818140D01*
X190162725Y-102780317D01*
X190171966Y-102749856D01*
X190186975Y-102721777D01*
X190207169Y-102697169D01*
X190231777Y-102676975D01*
X190259856Y-102661966D01*
X190290317Y-102652725D01*
X190328140Y-102649000D01*
X191391860Y-102649000D01*
X191429683Y-102652725D01*
X191429683Y-102652725D01*
G37*
G36*
X175331731Y-100439136D02*
X175434644Y-100449272D01*
X175610703Y-100502679D01*
X175698734Y-100529383D01*
X175779862Y-100572747D01*
X175942120Y-100659475D01*
X176043259Y-100742479D01*
X176155450Y-100834550D01*
X176240531Y-100938223D01*
X176330525Y-101047880D01*
X176417253Y-101210138D01*
X176460617Y-101291266D01*
X176460617Y-101291267D01*
X176540728Y-101555356D01*
X176567778Y-101830000D01*
X176540728Y-102104644D01*
X176520766Y-102170448D01*
X176460617Y-102368734D01*
X176417253Y-102449862D01*
X176330525Y-102612120D01*
X176247521Y-102713259D01*
X176155450Y-102825450D01*
X176043259Y-102917521D01*
X175942120Y-103000525D01*
X175779862Y-103087253D01*
X175698734Y-103130617D01*
X175610703Y-103157321D01*
X175434644Y-103210728D01*
X175331731Y-103220864D01*
X175228820Y-103231000D01*
X174291180Y-103231000D01*
X174188269Y-103220864D01*
X174085356Y-103210728D01*
X173909297Y-103157321D01*
X173821266Y-103130617D01*
X173740138Y-103087253D01*
X173577880Y-103000525D01*
X173476741Y-102917521D01*
X173364550Y-102825450D01*
X173272479Y-102713259D01*
X173189475Y-102612120D01*
X173102747Y-102449862D01*
X173059383Y-102368734D01*
X172999234Y-102170448D01*
X172979272Y-102104644D01*
X172952222Y-101830000D01*
X172979272Y-101555356D01*
X173059383Y-101291267D01*
X173059383Y-101291266D01*
X173102747Y-101210138D01*
X173189475Y-101047880D01*
X173279469Y-100938223D01*
X173364550Y-100834550D01*
X173476741Y-100742479D01*
X173577880Y-100659475D01*
X173740138Y-100572747D01*
X173821266Y-100529383D01*
X173909297Y-100502679D01*
X174085356Y-100449272D01*
X174188269Y-100439136D01*
X174291180Y-100429000D01*
X175228820Y-100429000D01*
X175331731Y-100439136D01*
X175331731Y-100439136D01*
G37*
G36*
X183361000Y-103231000D02*
X179759000Y-103231000D01*
X179759000Y-100429000D01*
X183361000Y-100429000D01*
X183361000Y-103231000D01*
X183361000Y-103231000D01*
G37*
G36*
X191198413Y-101405525D02*
X191273456Y-101428290D01*
X191283425Y-101431314D01*
X191361774Y-101473193D01*
X191430448Y-101529552D01*
X191486807Y-101598226D01*
X191528686Y-101676575D01*
X191528687Y-101676579D01*
X191554475Y-101761587D01*
X191563182Y-101850000D01*
X191554475Y-101938413D01*
X191531710Y-102013456D01*
X191528686Y-102023425D01*
X191486807Y-102101774D01*
X191430448Y-102170448D01*
X191361774Y-102226807D01*
X191283425Y-102268686D01*
X191273456Y-102271710D01*
X191198413Y-102294475D01*
X191132158Y-102301000D01*
X190587842Y-102301000D01*
X190521587Y-102294475D01*
X190446544Y-102271710D01*
X190436575Y-102268686D01*
X190358226Y-102226807D01*
X190289552Y-102170448D01*
X190233193Y-102101774D01*
X190191314Y-102023425D01*
X190188290Y-102013456D01*
X190165525Y-101938413D01*
X190156818Y-101850000D01*
X190165525Y-101761587D01*
X190191313Y-101676579D01*
X190191314Y-101676575D01*
X190233193Y-101598226D01*
X190289552Y-101529552D01*
X190358226Y-101473193D01*
X190436575Y-101431314D01*
X190446544Y-101428290D01*
X190521587Y-101405525D01*
X190587842Y-101399000D01*
X191132158Y-101399000D01*
X191198413Y-101405525D01*
X191198413Y-101405525D01*
G37*
G36*
X191198413Y-100155525D02*
X191273456Y-100178290D01*
X191283425Y-100181314D01*
X191361774Y-100223193D01*
X191430448Y-100279552D01*
X191486807Y-100348226D01*
X191528686Y-100426575D01*
X191531710Y-100436544D01*
X191554475Y-100511587D01*
X191563182Y-100600000D01*
X191554475Y-100688413D01*
X191531710Y-100763456D01*
X191528686Y-100773425D01*
X191486807Y-100851774D01*
X191430448Y-100920448D01*
X191361774Y-100976807D01*
X191283425Y-101018686D01*
X191273456Y-101021710D01*
X191198413Y-101044475D01*
X191132158Y-101051000D01*
X190587842Y-101051000D01*
X190521587Y-101044475D01*
X190446544Y-101021710D01*
X190436575Y-101018686D01*
X190358226Y-100976807D01*
X190289552Y-100920448D01*
X190233193Y-100851774D01*
X190191314Y-100773425D01*
X190188290Y-100763456D01*
X190165525Y-100688413D01*
X190156818Y-100600000D01*
X190165525Y-100511587D01*
X190188290Y-100436544D01*
X190191314Y-100426575D01*
X190233193Y-100348226D01*
X190289552Y-100279552D01*
X190358226Y-100223193D01*
X190436575Y-100181314D01*
X190446544Y-100178290D01*
X190521587Y-100155525D01*
X190587842Y-100149000D01*
X191132158Y-100149000D01*
X191198413Y-100155525D01*
X191198413Y-100155525D01*
G37*
G36*
X139359683Y-100112725D02*
X139390144Y-100121966D01*
X139418223Y-100136975D01*
X139442831Y-100157169D01*
X139463025Y-100181777D01*
X139478034Y-100209856D01*
X139487275Y-100240317D01*
X139491000Y-100278140D01*
X139491000Y-100841860D01*
X139487275Y-100879683D01*
X139478034Y-100910144D01*
X139463025Y-100938223D01*
X139442831Y-100962831D01*
X139418223Y-100983025D01*
X139390144Y-100998034D01*
X139359683Y-101007275D01*
X139321860Y-101011000D01*
X138258140Y-101011000D01*
X138220317Y-101007275D01*
X138189856Y-100998034D01*
X138161777Y-100983025D01*
X138137169Y-100962831D01*
X138116975Y-100938223D01*
X138101966Y-100910144D01*
X138092725Y-100879683D01*
X138089000Y-100841860D01*
X138089000Y-100278140D01*
X138092725Y-100240317D01*
X138101966Y-100209856D01*
X138116975Y-100181777D01*
X138137169Y-100157169D01*
X138161777Y-100136975D01*
X138189856Y-100121966D01*
X138220317Y-100112725D01*
X138258140Y-100109000D01*
X139321860Y-100109000D01*
X139359683Y-100112725D01*
X139359683Y-100112725D01*
G37*
G36*
X191198413Y-98905525D02*
X191273456Y-98928290D01*
X191283425Y-98931314D01*
X191361774Y-98973193D01*
X191430448Y-99029552D01*
X191486807Y-99098226D01*
X191528686Y-99176575D01*
X191528687Y-99176579D01*
X191554475Y-99261587D01*
X191563182Y-99350000D01*
X191554475Y-99438413D01*
X191540821Y-99483421D01*
X191528686Y-99523425D01*
X191486807Y-99601774D01*
X191430448Y-99670448D01*
X191361774Y-99726807D01*
X191283425Y-99768686D01*
X191273456Y-99771710D01*
X191198413Y-99794475D01*
X191132158Y-99801000D01*
X190587842Y-99801000D01*
X190521587Y-99794475D01*
X190446544Y-99771710D01*
X190436575Y-99768686D01*
X190358226Y-99726807D01*
X190289552Y-99670448D01*
X190233193Y-99601774D01*
X190191314Y-99523425D01*
X190179179Y-99483421D01*
X190165525Y-99438413D01*
X190156818Y-99350000D01*
X190165525Y-99261587D01*
X190191313Y-99176579D01*
X190191314Y-99176575D01*
X190233193Y-99098226D01*
X190289552Y-99029552D01*
X190358226Y-98973193D01*
X190436575Y-98931314D01*
X190446544Y-98928290D01*
X190521587Y-98905525D01*
X190587842Y-98899000D01*
X191132158Y-98899000D01*
X191198413Y-98905525D01*
X191198413Y-98905525D01*
G37*
G36*
X139128413Y-98865525D02*
X139203456Y-98888290D01*
X139213425Y-98891314D01*
X139291774Y-98933193D01*
X139360448Y-98989552D01*
X139416807Y-99058226D01*
X139458686Y-99136575D01*
X139458687Y-99136579D01*
X139484475Y-99221587D01*
X139493182Y-99310000D01*
X139484475Y-99398413D01*
X139461710Y-99473456D01*
X139458686Y-99483425D01*
X139416807Y-99561774D01*
X139360448Y-99630448D01*
X139291774Y-99686807D01*
X139213425Y-99728686D01*
X139203456Y-99731710D01*
X139128413Y-99754475D01*
X139062158Y-99761000D01*
X138517842Y-99761000D01*
X138451587Y-99754475D01*
X138376544Y-99731710D01*
X138366575Y-99728686D01*
X138288226Y-99686807D01*
X138219552Y-99630448D01*
X138163193Y-99561774D01*
X138121314Y-99483425D01*
X138118290Y-99473456D01*
X138095525Y-99398413D01*
X138086818Y-99310000D01*
X138095525Y-99221587D01*
X138121313Y-99136579D01*
X138121314Y-99136575D01*
X138163193Y-99058226D01*
X138219552Y-98989552D01*
X138288226Y-98933193D01*
X138366575Y-98891314D01*
X138376544Y-98888290D01*
X138451587Y-98865525D01*
X138517842Y-98859000D01*
X139062158Y-98859000D01*
X139128413Y-98865525D01*
X139128413Y-98865525D01*
G37*
G36*
X183361000Y-99421000D02*
X179759000Y-99421000D01*
X179759000Y-96619000D01*
X183361000Y-96619000D01*
X183361000Y-99421000D01*
X183361000Y-99421000D01*
G37*
G36*
X175331731Y-96629136D02*
X175434644Y-96639272D01*
X175610703Y-96692679D01*
X175698734Y-96719383D01*
X175756014Y-96750000D01*
X175942120Y-96849475D01*
X176043259Y-96932479D01*
X176155450Y-97024550D01*
X176247521Y-97136741D01*
X176330525Y-97237880D01*
X176392944Y-97354659D01*
X176460617Y-97481266D01*
X176460617Y-97481267D01*
X176540728Y-97745356D01*
X176567778Y-98020000D01*
X176540728Y-98294644D01*
X176535531Y-98311775D01*
X176460617Y-98558734D01*
X176417253Y-98639862D01*
X176330525Y-98802120D01*
X176257325Y-98891314D01*
X176155450Y-99015450D01*
X176054587Y-99098225D01*
X175942120Y-99190525D01*
X175779862Y-99277253D01*
X175698734Y-99320617D01*
X175610703Y-99347321D01*
X175434644Y-99400728D01*
X175331731Y-99410864D01*
X175228820Y-99421000D01*
X174291180Y-99421000D01*
X174188269Y-99410864D01*
X174085356Y-99400728D01*
X173909297Y-99347321D01*
X173821266Y-99320617D01*
X173740138Y-99277253D01*
X173577880Y-99190525D01*
X173465413Y-99098225D01*
X173364550Y-99015450D01*
X173262675Y-98891314D01*
X173189475Y-98802120D01*
X173102747Y-98639862D01*
X173059383Y-98558734D01*
X172984469Y-98311775D01*
X172979272Y-98294644D01*
X172952222Y-98020000D01*
X172979272Y-97745356D01*
X173059383Y-97481267D01*
X173059383Y-97481266D01*
X173127056Y-97354659D01*
X173189475Y-97237880D01*
X173272479Y-97136741D01*
X173364550Y-97024550D01*
X173476741Y-96932479D01*
X173577880Y-96849475D01*
X173763986Y-96750000D01*
X173821266Y-96719383D01*
X173909297Y-96692679D01*
X174085356Y-96639272D01*
X174188269Y-96629136D01*
X174291180Y-96619000D01*
X175228820Y-96619000D01*
X175331731Y-96629136D01*
X175331731Y-96629136D01*
G37*
G36*
X139128413Y-97615525D02*
X139203456Y-97638290D01*
X139213425Y-97641314D01*
X139291774Y-97683193D01*
X139360448Y-97739552D01*
X139416807Y-97808226D01*
X139458686Y-97886575D01*
X139458687Y-97886579D01*
X139484475Y-97971587D01*
X139493182Y-98060000D01*
X139484475Y-98148413D01*
X139461710Y-98223456D01*
X139458686Y-98233425D01*
X139416807Y-98311774D01*
X139360448Y-98380448D01*
X139291774Y-98436807D01*
X139213425Y-98478686D01*
X139203456Y-98481710D01*
X139128413Y-98504475D01*
X139062158Y-98511000D01*
X138517842Y-98511000D01*
X138451587Y-98504475D01*
X138376544Y-98481710D01*
X138366575Y-98478686D01*
X138288226Y-98436807D01*
X138219552Y-98380448D01*
X138163193Y-98311774D01*
X138121314Y-98233425D01*
X138118290Y-98223456D01*
X138095525Y-98148413D01*
X138086818Y-98060000D01*
X138095525Y-97971587D01*
X138121313Y-97886579D01*
X138121314Y-97886575D01*
X138163193Y-97808226D01*
X138219552Y-97739552D01*
X138288226Y-97683193D01*
X138366575Y-97641314D01*
X138376544Y-97638290D01*
X138451587Y-97615525D01*
X138517842Y-97609000D01*
X139062158Y-97609000D01*
X139128413Y-97615525D01*
X139128413Y-97615525D01*
G37*
G36*
X164356821Y-95911313D02*
X164356824Y-95911314D01*
X164356825Y-95911314D01*
X164517239Y-95959975D01*
X164517241Y-95959976D01*
X164517244Y-95959977D01*
X164665078Y-96038995D01*
X164794659Y-96145341D01*
X164901005Y-96274922D01*
X164980023Y-96422756D01*
X165028687Y-96583179D01*
X165045117Y-96750000D01*
X165028687Y-96916821D01*
X165028686Y-96916824D01*
X165028686Y-96916825D01*
X164996008Y-97024551D01*
X164980023Y-97077244D01*
X164901005Y-97225078D01*
X164794659Y-97354659D01*
X164665078Y-97461005D01*
X164517244Y-97540023D01*
X164517241Y-97540024D01*
X164517239Y-97540025D01*
X164356825Y-97588686D01*
X164356824Y-97588686D01*
X164356821Y-97588687D01*
X164231804Y-97601000D01*
X164148196Y-97601000D01*
X164023179Y-97588687D01*
X164023176Y-97588686D01*
X164023175Y-97588686D01*
X163862761Y-97540025D01*
X163862759Y-97540024D01*
X163862756Y-97540023D01*
X163714922Y-97461005D01*
X163585341Y-97354659D01*
X163478995Y-97225078D01*
X163399977Y-97077244D01*
X163383993Y-97024551D01*
X163351314Y-96916825D01*
X163351314Y-96916824D01*
X163351313Y-96916821D01*
X163334883Y-96750000D01*
X163351313Y-96583179D01*
X163399977Y-96422756D01*
X163478995Y-96274922D01*
X163585341Y-96145341D01*
X163714922Y-96038995D01*
X163862756Y-95959977D01*
X163862759Y-95959976D01*
X163862761Y-95959975D01*
X164023175Y-95911314D01*
X164023176Y-95911314D01*
X164023179Y-95911313D01*
X164148196Y-95899000D01*
X164231804Y-95899000D01*
X164356821Y-95911313D01*
X164356821Y-95911313D01*
G37*
G36*
X166896821Y-95911313D02*
X166896824Y-95911314D01*
X166896825Y-95911314D01*
X167057239Y-95959975D01*
X167057241Y-95959976D01*
X167057244Y-95959977D01*
X167205078Y-96038995D01*
X167334659Y-96145341D01*
X167441005Y-96274922D01*
X167520023Y-96422756D01*
X167568687Y-96583179D01*
X167585117Y-96750000D01*
X167568687Y-96916821D01*
X167568686Y-96916824D01*
X167568686Y-96916825D01*
X167536008Y-97024551D01*
X167520023Y-97077244D01*
X167441005Y-97225078D01*
X167334659Y-97354659D01*
X167205078Y-97461005D01*
X167057244Y-97540023D01*
X167057241Y-97540024D01*
X167057239Y-97540025D01*
X166896825Y-97588686D01*
X166896824Y-97588686D01*
X166896821Y-97588687D01*
X166771804Y-97601000D01*
X166688196Y-97601000D01*
X166563179Y-97588687D01*
X166563176Y-97588686D01*
X166563175Y-97588686D01*
X166402761Y-97540025D01*
X166402759Y-97540024D01*
X166402756Y-97540023D01*
X166254922Y-97461005D01*
X166125341Y-97354659D01*
X166018995Y-97225078D01*
X165939977Y-97077244D01*
X165923993Y-97024551D01*
X165891314Y-96916825D01*
X165891314Y-96916824D01*
X165891313Y-96916821D01*
X165874883Y-96750000D01*
X165891313Y-96583179D01*
X165939977Y-96422756D01*
X166018995Y-96274922D01*
X166125341Y-96145341D01*
X166254922Y-96038995D01*
X166402756Y-95959977D01*
X166402759Y-95959976D01*
X166402761Y-95959975D01*
X166563175Y-95911314D01*
X166563176Y-95911314D01*
X166563179Y-95911313D01*
X166688196Y-95899000D01*
X166771804Y-95899000D01*
X166896821Y-95911313D01*
X166896821Y-95911313D01*
G37*
G36*
X161816821Y-95911313D02*
X161816824Y-95911314D01*
X161816825Y-95911314D01*
X161977239Y-95959975D01*
X161977241Y-95959976D01*
X161977244Y-95959977D01*
X162125078Y-96038995D01*
X162254659Y-96145341D01*
X162361005Y-96274922D01*
X162440023Y-96422756D01*
X162488687Y-96583179D01*
X162505117Y-96750000D01*
X162488687Y-96916821D01*
X162488686Y-96916824D01*
X162488686Y-96916825D01*
X162456008Y-97024551D01*
X162440023Y-97077244D01*
X162361005Y-97225078D01*
X162254659Y-97354659D01*
X162125078Y-97461005D01*
X161977244Y-97540023D01*
X161977241Y-97540024D01*
X161977239Y-97540025D01*
X161816825Y-97588686D01*
X161816824Y-97588686D01*
X161816821Y-97588687D01*
X161691804Y-97601000D01*
X161608196Y-97601000D01*
X161483179Y-97588687D01*
X161483176Y-97588686D01*
X161483175Y-97588686D01*
X161322761Y-97540025D01*
X161322759Y-97540024D01*
X161322756Y-97540023D01*
X161174922Y-97461005D01*
X161045341Y-97354659D01*
X160938995Y-97225078D01*
X160859977Y-97077244D01*
X160843993Y-97024551D01*
X160811314Y-96916825D01*
X160811314Y-96916824D01*
X160811313Y-96916821D01*
X160794883Y-96750000D01*
X160811313Y-96583179D01*
X160859977Y-96422756D01*
X160938995Y-96274922D01*
X161045341Y-96145341D01*
X161174922Y-96038995D01*
X161322756Y-95959977D01*
X161322759Y-95959976D01*
X161322761Y-95959975D01*
X161483175Y-95911314D01*
X161483176Y-95911314D01*
X161483179Y-95911313D01*
X161608196Y-95899000D01*
X161691804Y-95899000D01*
X161816821Y-95911313D01*
X161816821Y-95911313D01*
G37*
G36*
X159276821Y-95911313D02*
X159276824Y-95911314D01*
X159276825Y-95911314D01*
X159437239Y-95959975D01*
X159437241Y-95959976D01*
X159437244Y-95959977D01*
X159585078Y-96038995D01*
X159714659Y-96145341D01*
X159821005Y-96274922D01*
X159900023Y-96422756D01*
X159948687Y-96583179D01*
X159965117Y-96750000D01*
X159948687Y-96916821D01*
X159948686Y-96916824D01*
X159948686Y-96916825D01*
X159916008Y-97024551D01*
X159900023Y-97077244D01*
X159821005Y-97225078D01*
X159714659Y-97354659D01*
X159585078Y-97461005D01*
X159437244Y-97540023D01*
X159437241Y-97540024D01*
X159437239Y-97540025D01*
X159276825Y-97588686D01*
X159276824Y-97588686D01*
X159276821Y-97588687D01*
X159151804Y-97601000D01*
X159068196Y-97601000D01*
X158943179Y-97588687D01*
X158943176Y-97588686D01*
X158943175Y-97588686D01*
X158782761Y-97540025D01*
X158782759Y-97540024D01*
X158782756Y-97540023D01*
X158634922Y-97461005D01*
X158505341Y-97354659D01*
X158398995Y-97225078D01*
X158319977Y-97077244D01*
X158303993Y-97024551D01*
X158271314Y-96916825D01*
X158271314Y-96916824D01*
X158271313Y-96916821D01*
X158254883Y-96750000D01*
X158271313Y-96583179D01*
X158319977Y-96422756D01*
X158398995Y-96274922D01*
X158505341Y-96145341D01*
X158634922Y-96038995D01*
X158782756Y-95959977D01*
X158782759Y-95959976D01*
X158782761Y-95959975D01*
X158943175Y-95911314D01*
X158943176Y-95911314D01*
X158943179Y-95911313D01*
X159068196Y-95899000D01*
X159151804Y-95899000D01*
X159276821Y-95911313D01*
X159276821Y-95911313D01*
G37*
G36*
X156736821Y-95911313D02*
X156736824Y-95911314D01*
X156736825Y-95911314D01*
X156897239Y-95959975D01*
X156897241Y-95959976D01*
X156897244Y-95959977D01*
X157045078Y-96038995D01*
X157174659Y-96145341D01*
X157281005Y-96274922D01*
X157360023Y-96422756D01*
X157408687Y-96583179D01*
X157425117Y-96750000D01*
X157408687Y-96916821D01*
X157408686Y-96916824D01*
X157408686Y-96916825D01*
X157376008Y-97024551D01*
X157360023Y-97077244D01*
X157281005Y-97225078D01*
X157174659Y-97354659D01*
X157045078Y-97461005D01*
X156897244Y-97540023D01*
X156897241Y-97540024D01*
X156897239Y-97540025D01*
X156736825Y-97588686D01*
X156736824Y-97588686D01*
X156736821Y-97588687D01*
X156611804Y-97601000D01*
X156528196Y-97601000D01*
X156403179Y-97588687D01*
X156403176Y-97588686D01*
X156403175Y-97588686D01*
X156242761Y-97540025D01*
X156242759Y-97540024D01*
X156242756Y-97540023D01*
X156094922Y-97461005D01*
X155965341Y-97354659D01*
X155858995Y-97225078D01*
X155779977Y-97077244D01*
X155763993Y-97024551D01*
X155731314Y-96916825D01*
X155731314Y-96916824D01*
X155731313Y-96916821D01*
X155714883Y-96750000D01*
X155731313Y-96583179D01*
X155779977Y-96422756D01*
X155858995Y-96274922D01*
X155965341Y-96145341D01*
X156094922Y-96038995D01*
X156242756Y-95959977D01*
X156242759Y-95959976D01*
X156242761Y-95959975D01*
X156403175Y-95911314D01*
X156403176Y-95911314D01*
X156403179Y-95911313D01*
X156528196Y-95899000D01*
X156611804Y-95899000D01*
X156736821Y-95911313D01*
X156736821Y-95911313D01*
G37*
G36*
X149116821Y-95911313D02*
X149116824Y-95911314D01*
X149116825Y-95911314D01*
X149277239Y-95959975D01*
X149277241Y-95959976D01*
X149277244Y-95959977D01*
X149425078Y-96038995D01*
X149554659Y-96145341D01*
X149661005Y-96274922D01*
X149740023Y-96422756D01*
X149788687Y-96583179D01*
X149805117Y-96750000D01*
X149788687Y-96916821D01*
X149788686Y-96916824D01*
X149788686Y-96916825D01*
X149756008Y-97024551D01*
X149740023Y-97077244D01*
X149661005Y-97225078D01*
X149554659Y-97354659D01*
X149425078Y-97461005D01*
X149277244Y-97540023D01*
X149277241Y-97540024D01*
X149277239Y-97540025D01*
X149116825Y-97588686D01*
X149116824Y-97588686D01*
X149116821Y-97588687D01*
X148991804Y-97601000D01*
X148908196Y-97601000D01*
X148783179Y-97588687D01*
X148783176Y-97588686D01*
X148783175Y-97588686D01*
X148622761Y-97540025D01*
X148622759Y-97540024D01*
X148622756Y-97540023D01*
X148474922Y-97461005D01*
X148345341Y-97354659D01*
X148238995Y-97225078D01*
X148159977Y-97077244D01*
X148143993Y-97024551D01*
X148111314Y-96916825D01*
X148111314Y-96916824D01*
X148111313Y-96916821D01*
X148094883Y-96750000D01*
X148111313Y-96583179D01*
X148159977Y-96422756D01*
X148238995Y-96274922D01*
X148345341Y-96145341D01*
X148474922Y-96038995D01*
X148622756Y-95959977D01*
X148622759Y-95959976D01*
X148622761Y-95959975D01*
X148783175Y-95911314D01*
X148783176Y-95911314D01*
X148783179Y-95911313D01*
X148908196Y-95899000D01*
X148991804Y-95899000D01*
X149116821Y-95911313D01*
X149116821Y-95911313D01*
G37*
G36*
X146576821Y-95911313D02*
X146576824Y-95911314D01*
X146576825Y-95911314D01*
X146737239Y-95959975D01*
X146737241Y-95959976D01*
X146737244Y-95959977D01*
X146885078Y-96038995D01*
X147014659Y-96145341D01*
X147121005Y-96274922D01*
X147200023Y-96422756D01*
X147248687Y-96583179D01*
X147265117Y-96750000D01*
X147248687Y-96916821D01*
X147248686Y-96916824D01*
X147248686Y-96916825D01*
X147216008Y-97024551D01*
X147200023Y-97077244D01*
X147121005Y-97225078D01*
X147014659Y-97354659D01*
X146885078Y-97461005D01*
X146737244Y-97540023D01*
X146737241Y-97540024D01*
X146737239Y-97540025D01*
X146576825Y-97588686D01*
X146576824Y-97588686D01*
X146576821Y-97588687D01*
X146451804Y-97601000D01*
X146368196Y-97601000D01*
X146243179Y-97588687D01*
X146243176Y-97588686D01*
X146243175Y-97588686D01*
X146082761Y-97540025D01*
X146082759Y-97540024D01*
X146082756Y-97540023D01*
X145934922Y-97461005D01*
X145805341Y-97354659D01*
X145698995Y-97225078D01*
X145619977Y-97077244D01*
X145603993Y-97024551D01*
X145571314Y-96916825D01*
X145571314Y-96916824D01*
X145571313Y-96916821D01*
X145554883Y-96750000D01*
X145571313Y-96583179D01*
X145619977Y-96422756D01*
X145698995Y-96274922D01*
X145805341Y-96145341D01*
X145934922Y-96038995D01*
X146082756Y-95959977D01*
X146082759Y-95959976D01*
X146082761Y-95959975D01*
X146243175Y-95911314D01*
X146243176Y-95911314D01*
X146243179Y-95911313D01*
X146368196Y-95899000D01*
X146451804Y-95899000D01*
X146576821Y-95911313D01*
X146576821Y-95911313D01*
G37*
G36*
X170121000Y-97601000D02*
X168419000Y-97601000D01*
X168419000Y-95899000D01*
X170121000Y-95899000D01*
X170121000Y-97601000D01*
X170121000Y-97601000D01*
G37*
G36*
X154196821Y-95911313D02*
X154196824Y-95911314D01*
X154196825Y-95911314D01*
X154357239Y-95959975D01*
X154357241Y-95959976D01*
X154357244Y-95959977D01*
X154505078Y-96038995D01*
X154634659Y-96145341D01*
X154741005Y-96274922D01*
X154820023Y-96422756D01*
X154868687Y-96583179D01*
X154885117Y-96750000D01*
X154868687Y-96916821D01*
X154868686Y-96916824D01*
X154868686Y-96916825D01*
X154836008Y-97024551D01*
X154820023Y-97077244D01*
X154741005Y-97225078D01*
X154634659Y-97354659D01*
X154505078Y-97461005D01*
X154357244Y-97540023D01*
X154357241Y-97540024D01*
X154357239Y-97540025D01*
X154196825Y-97588686D01*
X154196824Y-97588686D01*
X154196821Y-97588687D01*
X154071804Y-97601000D01*
X153988196Y-97601000D01*
X153863179Y-97588687D01*
X153863176Y-97588686D01*
X153863175Y-97588686D01*
X153702761Y-97540025D01*
X153702759Y-97540024D01*
X153702756Y-97540023D01*
X153554922Y-97461005D01*
X153425341Y-97354659D01*
X153318995Y-97225078D01*
X153239977Y-97077244D01*
X153223993Y-97024551D01*
X153191314Y-96916825D01*
X153191314Y-96916824D01*
X153191313Y-96916821D01*
X153174883Y-96750000D01*
X153191313Y-96583179D01*
X153239977Y-96422756D01*
X153318995Y-96274922D01*
X153425341Y-96145341D01*
X153554922Y-96038995D01*
X153702756Y-95959977D01*
X153702759Y-95959976D01*
X153702761Y-95959975D01*
X153863175Y-95911314D01*
X153863176Y-95911314D01*
X153863179Y-95911313D01*
X153988196Y-95899000D01*
X154071804Y-95899000D01*
X154196821Y-95911313D01*
X154196821Y-95911313D01*
G37*
G36*
X151656821Y-95911313D02*
X151656824Y-95911314D01*
X151656825Y-95911314D01*
X151817239Y-95959975D01*
X151817241Y-95959976D01*
X151817244Y-95959977D01*
X151965078Y-96038995D01*
X152094659Y-96145341D01*
X152201005Y-96274922D01*
X152280023Y-96422756D01*
X152328687Y-96583179D01*
X152345117Y-96750000D01*
X152328687Y-96916821D01*
X152328686Y-96916824D01*
X152328686Y-96916825D01*
X152296008Y-97024551D01*
X152280023Y-97077244D01*
X152201005Y-97225078D01*
X152094659Y-97354659D01*
X151965078Y-97461005D01*
X151817244Y-97540023D01*
X151817241Y-97540024D01*
X151817239Y-97540025D01*
X151656825Y-97588686D01*
X151656824Y-97588686D01*
X151656821Y-97588687D01*
X151531804Y-97601000D01*
X151448196Y-97601000D01*
X151323179Y-97588687D01*
X151323176Y-97588686D01*
X151323175Y-97588686D01*
X151162761Y-97540025D01*
X151162759Y-97540024D01*
X151162756Y-97540023D01*
X151014922Y-97461005D01*
X150885341Y-97354659D01*
X150778995Y-97225078D01*
X150699977Y-97077244D01*
X150683993Y-97024551D01*
X150651314Y-96916825D01*
X150651314Y-96916824D01*
X150651313Y-96916821D01*
X150634883Y-96750000D01*
X150651313Y-96583179D01*
X150699977Y-96422756D01*
X150778995Y-96274922D01*
X150885341Y-96145341D01*
X151014922Y-96038995D01*
X151162756Y-95959977D01*
X151162759Y-95959976D01*
X151162761Y-95959975D01*
X151323175Y-95911314D01*
X151323176Y-95911314D01*
X151323179Y-95911313D01*
X151448196Y-95899000D01*
X151531804Y-95899000D01*
X151656821Y-95911313D01*
X151656821Y-95911313D01*
G37*
G36*
X191429683Y-93762725D02*
X191460144Y-93771966D01*
X191488223Y-93786975D01*
X191512831Y-93807169D01*
X191533025Y-93831777D01*
X191548034Y-93859856D01*
X191557275Y-93890317D01*
X191561000Y-93928140D01*
X191561000Y-94491860D01*
X191557275Y-94529683D01*
X191548034Y-94560144D01*
X191533025Y-94588223D01*
X191512831Y-94612831D01*
X191488223Y-94633025D01*
X191460144Y-94648034D01*
X191429683Y-94657275D01*
X191391860Y-94661000D01*
X190328140Y-94661000D01*
X190290317Y-94657275D01*
X190259856Y-94648034D01*
X190231777Y-94633025D01*
X190207169Y-94612831D01*
X190186975Y-94588223D01*
X190171966Y-94560144D01*
X190162725Y-94529683D01*
X190159000Y-94491860D01*
X190159000Y-93928140D01*
X190162725Y-93890317D01*
X190171966Y-93859856D01*
X190186975Y-93831777D01*
X190207169Y-93807169D01*
X190231777Y-93786975D01*
X190259856Y-93771966D01*
X190290317Y-93762725D01*
X190328140Y-93759000D01*
X191391860Y-93759000D01*
X191429683Y-93762725D01*
X191429683Y-93762725D01*
G37*
G36*
X191198413Y-92515525D02*
X191273456Y-92538290D01*
X191283425Y-92541314D01*
X191361774Y-92583193D01*
X191430448Y-92639552D01*
X191486807Y-92708226D01*
X191528686Y-92786575D01*
X191528687Y-92786579D01*
X191554475Y-92871587D01*
X191563182Y-92960000D01*
X191554475Y-93048413D01*
X191531710Y-93123456D01*
X191528686Y-93133425D01*
X191486807Y-93211774D01*
X191430448Y-93280448D01*
X191361774Y-93336807D01*
X191283425Y-93378686D01*
X191273456Y-93381710D01*
X191198413Y-93404475D01*
X191132158Y-93411000D01*
X190587842Y-93411000D01*
X190521587Y-93404475D01*
X190446544Y-93381710D01*
X190436575Y-93378686D01*
X190358226Y-93336807D01*
X190289552Y-93280448D01*
X190233193Y-93211774D01*
X190191314Y-93133425D01*
X190188290Y-93123456D01*
X190165525Y-93048413D01*
X190156818Y-92960000D01*
X190165525Y-92871587D01*
X190191313Y-92786579D01*
X190191314Y-92786575D01*
X190233193Y-92708226D01*
X190289552Y-92639552D01*
X190358226Y-92583193D01*
X190436575Y-92541314D01*
X190446544Y-92538290D01*
X190521587Y-92515525D01*
X190587842Y-92509000D01*
X191132158Y-92509000D01*
X191198413Y-92515525D01*
X191198413Y-92515525D01*
G37*
G36*
X161887142Y-90888242D02*
X162035102Y-90949530D01*
X162168258Y-91038502D01*
X162281498Y-91151742D01*
X162370470Y-91284898D01*
X162431758Y-91432858D01*
X162463000Y-91589925D01*
X162463000Y-91750075D01*
X162431758Y-91907142D01*
X162370470Y-92055102D01*
X162281498Y-92188258D01*
X162168258Y-92301498D01*
X162035102Y-92390470D01*
X161887142Y-92451758D01*
X161730075Y-92483000D01*
X161569925Y-92483000D01*
X161412858Y-92451758D01*
X161264898Y-92390470D01*
X161131742Y-92301498D01*
X161018502Y-92188258D01*
X160929530Y-92055102D01*
X160868242Y-91907142D01*
X160837000Y-91750075D01*
X160837000Y-91589925D01*
X160868242Y-91432858D01*
X160929530Y-91284898D01*
X161018502Y-91151742D01*
X161131742Y-91038502D01*
X161264898Y-90949530D01*
X161412858Y-90888242D01*
X161569925Y-90857000D01*
X161730075Y-90857000D01*
X161887142Y-90888242D01*
X161887142Y-90888242D01*
G37*
G36*
X164427142Y-90888242D02*
X164575102Y-90949530D01*
X164708258Y-91038502D01*
X164821498Y-91151742D01*
X164910470Y-91284898D01*
X164971758Y-91432858D01*
X165003000Y-91589925D01*
X165003000Y-91750075D01*
X164971758Y-91907142D01*
X164910470Y-92055102D01*
X164821498Y-92188258D01*
X164708258Y-92301498D01*
X164575102Y-92390470D01*
X164427142Y-92451758D01*
X164270075Y-92483000D01*
X164109925Y-92483000D01*
X163952858Y-92451758D01*
X163804898Y-92390470D01*
X163671742Y-92301498D01*
X163558502Y-92188258D01*
X163469530Y-92055102D01*
X163408242Y-91907142D01*
X163377000Y-91750075D01*
X163377000Y-91589925D01*
X163408242Y-91432858D01*
X163469530Y-91284898D01*
X163558502Y-91151742D01*
X163671742Y-91038502D01*
X163804898Y-90949530D01*
X163952858Y-90888242D01*
X164109925Y-90857000D01*
X164270075Y-90857000D01*
X164427142Y-90888242D01*
X164427142Y-90888242D01*
G37*
G36*
X166967142Y-90888242D02*
X167115102Y-90949530D01*
X167248258Y-91038502D01*
X167361498Y-91151742D01*
X167450470Y-91284898D01*
X167511758Y-91432858D01*
X167543000Y-91589925D01*
X167543000Y-91750075D01*
X167511758Y-91907142D01*
X167450470Y-92055102D01*
X167361498Y-92188258D01*
X167248258Y-92301498D01*
X167115102Y-92390470D01*
X166967142Y-92451758D01*
X166810075Y-92483000D01*
X166649925Y-92483000D01*
X166492858Y-92451758D01*
X166344898Y-92390470D01*
X166211742Y-92301498D01*
X166098502Y-92188258D01*
X166009530Y-92055102D01*
X165948242Y-91907142D01*
X165917000Y-91750075D01*
X165917000Y-91589925D01*
X165948242Y-91432858D01*
X166009530Y-91284898D01*
X166098502Y-91151742D01*
X166211742Y-91038502D01*
X166344898Y-90949530D01*
X166492858Y-90888242D01*
X166649925Y-90857000D01*
X166810075Y-90857000D01*
X166967142Y-90888242D01*
X166967142Y-90888242D01*
G37*
G36*
X169507142Y-90888242D02*
X169655102Y-90949530D01*
X169788258Y-91038502D01*
X169901498Y-91151742D01*
X169990470Y-91284898D01*
X170051758Y-91432858D01*
X170083000Y-91589925D01*
X170083000Y-91750075D01*
X170051758Y-91907142D01*
X169990470Y-92055102D01*
X169901498Y-92188258D01*
X169788258Y-92301498D01*
X169655102Y-92390470D01*
X169507142Y-92451758D01*
X169350075Y-92483000D01*
X169189925Y-92483000D01*
X169032858Y-92451758D01*
X168884898Y-92390470D01*
X168751742Y-92301498D01*
X168638502Y-92188258D01*
X168549530Y-92055102D01*
X168488242Y-91907142D01*
X168457000Y-91750075D01*
X168457000Y-91589925D01*
X168488242Y-91432858D01*
X168549530Y-91284898D01*
X168638502Y-91151742D01*
X168751742Y-91038502D01*
X168884898Y-90949530D01*
X169032858Y-90888242D01*
X169189925Y-90857000D01*
X169350075Y-90857000D01*
X169507142Y-90888242D01*
X169507142Y-90888242D01*
G37*
G36*
X172047142Y-90888242D02*
X172195102Y-90949530D01*
X172328258Y-91038502D01*
X172441498Y-91151742D01*
X172530470Y-91284898D01*
X172591758Y-91432858D01*
X172623000Y-91589925D01*
X172623000Y-91750075D01*
X172591758Y-91907142D01*
X172530470Y-92055102D01*
X172441498Y-92188258D01*
X172328258Y-92301498D01*
X172195102Y-92390470D01*
X172047142Y-92451758D01*
X171890075Y-92483000D01*
X171729925Y-92483000D01*
X171572858Y-92451758D01*
X171424898Y-92390470D01*
X171291742Y-92301498D01*
X171178502Y-92188258D01*
X171089530Y-92055102D01*
X171028242Y-91907142D01*
X170997000Y-91750075D01*
X170997000Y-91589925D01*
X171028242Y-91432858D01*
X171089530Y-91284898D01*
X171178502Y-91151742D01*
X171291742Y-91038502D01*
X171424898Y-90949530D01*
X171572858Y-90888242D01*
X171729925Y-90857000D01*
X171890075Y-90857000D01*
X172047142Y-90888242D01*
X172047142Y-90888242D01*
G37*
G36*
X177127142Y-90888242D02*
X177275102Y-90949530D01*
X177408258Y-91038502D01*
X177521498Y-91151742D01*
X177610470Y-91284898D01*
X177671758Y-91432858D01*
X177703000Y-91589925D01*
X177703000Y-91750075D01*
X177671758Y-91907142D01*
X177610470Y-92055102D01*
X177521498Y-92188258D01*
X177408258Y-92301498D01*
X177275102Y-92390470D01*
X177127142Y-92451758D01*
X176970075Y-92483000D01*
X176809925Y-92483000D01*
X176652858Y-92451758D01*
X176504898Y-92390470D01*
X176371742Y-92301498D01*
X176258502Y-92188258D01*
X176169530Y-92055102D01*
X176108242Y-91907142D01*
X176077000Y-91750075D01*
X176077000Y-91589925D01*
X176108242Y-91432858D01*
X176169530Y-91284898D01*
X176258502Y-91151742D01*
X176371742Y-91038502D01*
X176504898Y-90949530D01*
X176652858Y-90888242D01*
X176809925Y-90857000D01*
X176970075Y-90857000D01*
X177127142Y-90888242D01*
X177127142Y-90888242D01*
G37*
G36*
X179667142Y-90888242D02*
X179815102Y-90949530D01*
X179948258Y-91038502D01*
X180061498Y-91151742D01*
X180150470Y-91284898D01*
X180211758Y-91432858D01*
X180243000Y-91589925D01*
X180243000Y-91750075D01*
X180211758Y-91907142D01*
X180150470Y-92055102D01*
X180061498Y-92188258D01*
X179948258Y-92301498D01*
X179815102Y-92390470D01*
X179667142Y-92451758D01*
X179510075Y-92483000D01*
X179349925Y-92483000D01*
X179192858Y-92451758D01*
X179044898Y-92390470D01*
X178911742Y-92301498D01*
X178798502Y-92188258D01*
X178709530Y-92055102D01*
X178648242Y-91907142D01*
X178617000Y-91750075D01*
X178617000Y-91589925D01*
X178648242Y-91432858D01*
X178709530Y-91284898D01*
X178798502Y-91151742D01*
X178911742Y-91038502D01*
X179044898Y-90949530D01*
X179192858Y-90888242D01*
X179349925Y-90857000D01*
X179510075Y-90857000D01*
X179667142Y-90888242D01*
X179667142Y-90888242D01*
G37*
G36*
X182207142Y-90888242D02*
X182355102Y-90949530D01*
X182488258Y-91038502D01*
X182601498Y-91151742D01*
X182690470Y-91284898D01*
X182751758Y-91432858D01*
X182783000Y-91589925D01*
X182783000Y-91750075D01*
X182751758Y-91907142D01*
X182690470Y-92055102D01*
X182601498Y-92188258D01*
X182488258Y-92301498D01*
X182355102Y-92390470D01*
X182207142Y-92451758D01*
X182050075Y-92483000D01*
X181889925Y-92483000D01*
X181732858Y-92451758D01*
X181584898Y-92390470D01*
X181451742Y-92301498D01*
X181338502Y-92188258D01*
X181249530Y-92055102D01*
X181188242Y-91907142D01*
X181157000Y-91750075D01*
X181157000Y-91589925D01*
X181188242Y-91432858D01*
X181249530Y-91284898D01*
X181338502Y-91151742D01*
X181451742Y-91038502D01*
X181584898Y-90949530D01*
X181732858Y-90888242D01*
X181889925Y-90857000D01*
X182050075Y-90857000D01*
X182207142Y-90888242D01*
X182207142Y-90888242D01*
G37*
G36*
X184747142Y-90888242D02*
X184895102Y-90949530D01*
X185028258Y-91038502D01*
X185141498Y-91151742D01*
X185230470Y-91284898D01*
X185291758Y-91432858D01*
X185323000Y-91589925D01*
X185323000Y-91750075D01*
X185291758Y-91907142D01*
X185230470Y-92055102D01*
X185141498Y-92188258D01*
X185028258Y-92301498D01*
X184895102Y-92390470D01*
X184747142Y-92451758D01*
X184590075Y-92483000D01*
X184429925Y-92483000D01*
X184272858Y-92451758D01*
X184124898Y-92390470D01*
X183991742Y-92301498D01*
X183878502Y-92188258D01*
X183789530Y-92055102D01*
X183728242Y-91907142D01*
X183697000Y-91750075D01*
X183697000Y-91589925D01*
X183728242Y-91432858D01*
X183789530Y-91284898D01*
X183878502Y-91151742D01*
X183991742Y-91038502D01*
X184124898Y-90949530D01*
X184272858Y-90888242D01*
X184429925Y-90857000D01*
X184590075Y-90857000D01*
X184747142Y-90888242D01*
X184747142Y-90888242D01*
G37*
G36*
X149187142Y-90888242D02*
X149335102Y-90949530D01*
X149468258Y-91038502D01*
X149581498Y-91151742D01*
X149670470Y-91284898D01*
X149731758Y-91432858D01*
X149763000Y-91589925D01*
X149763000Y-91750075D01*
X149731758Y-91907142D01*
X149670470Y-92055102D01*
X149581498Y-92188258D01*
X149468258Y-92301498D01*
X149335102Y-92390470D01*
X149187142Y-92451758D01*
X149030075Y-92483000D01*
X148869925Y-92483000D01*
X148712858Y-92451758D01*
X148564898Y-92390470D01*
X148431742Y-92301498D01*
X148318502Y-92188258D01*
X148229530Y-92055102D01*
X148168242Y-91907142D01*
X148137000Y-91750075D01*
X148137000Y-91589925D01*
X148168242Y-91432858D01*
X148229530Y-91284898D01*
X148318502Y-91151742D01*
X148431742Y-91038502D01*
X148564898Y-90949530D01*
X148712858Y-90888242D01*
X148869925Y-90857000D01*
X149030075Y-90857000D01*
X149187142Y-90888242D01*
X149187142Y-90888242D01*
G37*
G36*
X156807142Y-90888242D02*
X156955102Y-90949530D01*
X157088258Y-91038502D01*
X157201498Y-91151742D01*
X157290470Y-91284898D01*
X157351758Y-91432858D01*
X157383000Y-91589925D01*
X157383000Y-91750075D01*
X157351758Y-91907142D01*
X157290470Y-92055102D01*
X157201498Y-92188258D01*
X157088258Y-92301498D01*
X156955102Y-92390470D01*
X156807142Y-92451758D01*
X156650075Y-92483000D01*
X156489925Y-92483000D01*
X156332858Y-92451758D01*
X156184898Y-92390470D01*
X156051742Y-92301498D01*
X155938502Y-92188258D01*
X155849530Y-92055102D01*
X155788242Y-91907142D01*
X155757000Y-91750075D01*
X155757000Y-91589925D01*
X155788242Y-91432858D01*
X155849530Y-91284898D01*
X155938502Y-91151742D01*
X156051742Y-91038502D01*
X156184898Y-90949530D01*
X156332858Y-90888242D01*
X156489925Y-90857000D01*
X156650075Y-90857000D01*
X156807142Y-90888242D01*
X156807142Y-90888242D01*
G37*
G36*
X174587142Y-90888242D02*
X174735102Y-90949530D01*
X174868258Y-91038502D01*
X174981498Y-91151742D01*
X175070470Y-91284898D01*
X175131758Y-91432858D01*
X175163000Y-91589925D01*
X175163000Y-91750075D01*
X175131758Y-91907142D01*
X175070470Y-92055102D01*
X174981498Y-92188258D01*
X174868258Y-92301498D01*
X174735102Y-92390470D01*
X174587142Y-92451758D01*
X174430075Y-92483000D01*
X174269925Y-92483000D01*
X174112858Y-92451758D01*
X173964898Y-92390470D01*
X173831742Y-92301498D01*
X173718502Y-92188258D01*
X173629530Y-92055102D01*
X173568242Y-91907142D01*
X173537000Y-91750075D01*
X173537000Y-91589925D01*
X173568242Y-91432858D01*
X173629530Y-91284898D01*
X173718502Y-91151742D01*
X173831742Y-91038502D01*
X173964898Y-90949530D01*
X174112858Y-90888242D01*
X174269925Y-90857000D01*
X174430075Y-90857000D01*
X174587142Y-90888242D01*
X174587142Y-90888242D01*
G37*
G36*
X136487142Y-90888242D02*
X136635102Y-90949530D01*
X136768258Y-91038502D01*
X136881498Y-91151742D01*
X136970470Y-91284898D01*
X137031758Y-91432858D01*
X137063000Y-91589925D01*
X137063000Y-91750075D01*
X137031758Y-91907142D01*
X136970470Y-92055102D01*
X136881498Y-92188258D01*
X136768258Y-92301498D01*
X136635102Y-92390470D01*
X136487142Y-92451758D01*
X136330075Y-92483000D01*
X136169925Y-92483000D01*
X136012858Y-92451758D01*
X135864898Y-92390470D01*
X135731742Y-92301498D01*
X135618502Y-92188258D01*
X135529530Y-92055102D01*
X135468242Y-91907142D01*
X135437000Y-91750075D01*
X135437000Y-91589925D01*
X135468242Y-91432858D01*
X135529530Y-91284898D01*
X135618502Y-91151742D01*
X135731742Y-91038502D01*
X135864898Y-90949530D01*
X136012858Y-90888242D01*
X136169925Y-90857000D01*
X136330075Y-90857000D01*
X136487142Y-90888242D01*
X136487142Y-90888242D01*
G37*
G36*
X139027142Y-90888242D02*
X139175102Y-90949530D01*
X139308258Y-91038502D01*
X139421498Y-91151742D01*
X139510470Y-91284898D01*
X139571758Y-91432858D01*
X139603000Y-91589925D01*
X139603000Y-91750075D01*
X139571758Y-91907142D01*
X139510470Y-92055102D01*
X139421498Y-92188258D01*
X139308258Y-92301498D01*
X139175102Y-92390470D01*
X139027142Y-92451758D01*
X138870075Y-92483000D01*
X138709925Y-92483000D01*
X138552858Y-92451758D01*
X138404898Y-92390470D01*
X138271742Y-92301498D01*
X138158502Y-92188258D01*
X138069530Y-92055102D01*
X138008242Y-91907142D01*
X137977000Y-91750075D01*
X137977000Y-91589925D01*
X138008242Y-91432858D01*
X138069530Y-91284898D01*
X138158502Y-91151742D01*
X138271742Y-91038502D01*
X138404898Y-90949530D01*
X138552858Y-90888242D01*
X138709925Y-90857000D01*
X138870075Y-90857000D01*
X139027142Y-90888242D01*
X139027142Y-90888242D01*
G37*
G36*
X141567142Y-90888242D02*
X141715102Y-90949530D01*
X141848258Y-91038502D01*
X141961498Y-91151742D01*
X142050470Y-91284898D01*
X142111758Y-91432858D01*
X142143000Y-91589925D01*
X142143000Y-91750075D01*
X142111758Y-91907142D01*
X142050470Y-92055102D01*
X141961498Y-92188258D01*
X141848258Y-92301498D01*
X141715102Y-92390470D01*
X141567142Y-92451758D01*
X141410075Y-92483000D01*
X141249925Y-92483000D01*
X141092858Y-92451758D01*
X140944898Y-92390470D01*
X140811742Y-92301498D01*
X140698502Y-92188258D01*
X140609530Y-92055102D01*
X140548242Y-91907142D01*
X140517000Y-91750075D01*
X140517000Y-91589925D01*
X140548242Y-91432858D01*
X140609530Y-91284898D01*
X140698502Y-91151742D01*
X140811742Y-91038502D01*
X140944898Y-90949530D01*
X141092858Y-90888242D01*
X141249925Y-90857000D01*
X141410075Y-90857000D01*
X141567142Y-90888242D01*
X141567142Y-90888242D01*
G37*
G36*
X144107142Y-90888242D02*
X144255102Y-90949530D01*
X144388258Y-91038502D01*
X144501498Y-91151742D01*
X144590470Y-91284898D01*
X144651758Y-91432858D01*
X144683000Y-91589925D01*
X144683000Y-91750075D01*
X144651758Y-91907142D01*
X144590470Y-92055102D01*
X144501498Y-92188258D01*
X144388258Y-92301498D01*
X144255102Y-92390470D01*
X144107142Y-92451758D01*
X143950075Y-92483000D01*
X143789925Y-92483000D01*
X143632858Y-92451758D01*
X143484898Y-92390470D01*
X143351742Y-92301498D01*
X143238502Y-92188258D01*
X143149530Y-92055102D01*
X143088242Y-91907142D01*
X143057000Y-91750075D01*
X143057000Y-91589925D01*
X143088242Y-91432858D01*
X143149530Y-91284898D01*
X143238502Y-91151742D01*
X143351742Y-91038502D01*
X143484898Y-90949530D01*
X143632858Y-90888242D01*
X143789925Y-90857000D01*
X143950075Y-90857000D01*
X144107142Y-90888242D01*
X144107142Y-90888242D01*
G37*
G36*
X146647142Y-90888242D02*
X146795102Y-90949530D01*
X146928258Y-91038502D01*
X147041498Y-91151742D01*
X147130470Y-91284898D01*
X147191758Y-91432858D01*
X147223000Y-91589925D01*
X147223000Y-91750075D01*
X147191758Y-91907142D01*
X147130470Y-92055102D01*
X147041498Y-92188258D01*
X146928258Y-92301498D01*
X146795102Y-92390470D01*
X146647142Y-92451758D01*
X146490075Y-92483000D01*
X146329925Y-92483000D01*
X146172858Y-92451758D01*
X146024898Y-92390470D01*
X145891742Y-92301498D01*
X145778502Y-92188258D01*
X145689530Y-92055102D01*
X145628242Y-91907142D01*
X145597000Y-91750075D01*
X145597000Y-91589925D01*
X145628242Y-91432858D01*
X145689530Y-91284898D01*
X145778502Y-91151742D01*
X145891742Y-91038502D01*
X146024898Y-90949530D01*
X146172858Y-90888242D01*
X146329925Y-90857000D01*
X146490075Y-90857000D01*
X146647142Y-90888242D01*
X146647142Y-90888242D01*
G37*
G36*
X151727142Y-90888242D02*
X151875102Y-90949530D01*
X152008258Y-91038502D01*
X152121498Y-91151742D01*
X152210470Y-91284898D01*
X152271758Y-91432858D01*
X152303000Y-91589925D01*
X152303000Y-91750075D01*
X152271758Y-91907142D01*
X152210470Y-92055102D01*
X152121498Y-92188258D01*
X152008258Y-92301498D01*
X151875102Y-92390470D01*
X151727142Y-92451758D01*
X151570075Y-92483000D01*
X151409925Y-92483000D01*
X151252858Y-92451758D01*
X151104898Y-92390470D01*
X150971742Y-92301498D01*
X150858502Y-92188258D01*
X150769530Y-92055102D01*
X150708242Y-91907142D01*
X150677000Y-91750075D01*
X150677000Y-91589925D01*
X150708242Y-91432858D01*
X150769530Y-91284898D01*
X150858502Y-91151742D01*
X150971742Y-91038502D01*
X151104898Y-90949530D01*
X151252858Y-90888242D01*
X151409925Y-90857000D01*
X151570075Y-90857000D01*
X151727142Y-90888242D01*
X151727142Y-90888242D01*
G37*
G36*
X154267142Y-90888242D02*
X154415102Y-90949530D01*
X154548258Y-91038502D01*
X154661498Y-91151742D01*
X154750470Y-91284898D01*
X154811758Y-91432858D01*
X154843000Y-91589925D01*
X154843000Y-91750075D01*
X154811758Y-91907142D01*
X154750470Y-92055102D01*
X154661498Y-92188258D01*
X154548258Y-92301498D01*
X154415102Y-92390470D01*
X154267142Y-92451758D01*
X154110075Y-92483000D01*
X153949925Y-92483000D01*
X153792858Y-92451758D01*
X153644898Y-92390470D01*
X153511742Y-92301498D01*
X153398502Y-92188258D01*
X153309530Y-92055102D01*
X153248242Y-91907142D01*
X153217000Y-91750075D01*
X153217000Y-91589925D01*
X153248242Y-91432858D01*
X153309530Y-91284898D01*
X153398502Y-91151742D01*
X153511742Y-91038502D01*
X153644898Y-90949530D01*
X153792858Y-90888242D01*
X153949925Y-90857000D01*
X154110075Y-90857000D01*
X154267142Y-90888242D01*
X154267142Y-90888242D01*
G37*
G36*
X159347142Y-90888242D02*
X159495102Y-90949530D01*
X159628258Y-91038502D01*
X159741498Y-91151742D01*
X159830470Y-91284898D01*
X159891758Y-91432858D01*
X159923000Y-91589925D01*
X159923000Y-91750075D01*
X159891758Y-91907142D01*
X159830470Y-92055102D01*
X159741498Y-92188258D01*
X159628258Y-92301498D01*
X159495102Y-92390470D01*
X159347142Y-92451758D01*
X159190075Y-92483000D01*
X159029925Y-92483000D01*
X158872858Y-92451758D01*
X158724898Y-92390470D01*
X158591742Y-92301498D01*
X158478502Y-92188258D01*
X158389530Y-92055102D01*
X158328242Y-91907142D01*
X158297000Y-91750075D01*
X158297000Y-91589925D01*
X158328242Y-91432858D01*
X158389530Y-91284898D01*
X158478502Y-91151742D01*
X158591742Y-91038502D01*
X158724898Y-90949530D01*
X158872858Y-90888242D01*
X159029925Y-90857000D01*
X159190075Y-90857000D01*
X159347142Y-90888242D01*
X159347142Y-90888242D01*
G37*
G36*
X191198413Y-91265525D02*
X191273456Y-91288290D01*
X191283425Y-91291314D01*
X191361774Y-91333193D01*
X191430448Y-91389552D01*
X191486807Y-91458226D01*
X191528686Y-91536575D01*
X191528687Y-91536579D01*
X191554475Y-91621587D01*
X191563182Y-91710000D01*
X191554475Y-91798413D01*
X191531710Y-91873456D01*
X191528686Y-91883425D01*
X191486807Y-91961774D01*
X191430448Y-92030448D01*
X191361774Y-92086807D01*
X191283425Y-92128686D01*
X191273456Y-92131710D01*
X191198413Y-92154475D01*
X191132158Y-92161000D01*
X190587842Y-92161000D01*
X190521587Y-92154475D01*
X190446544Y-92131710D01*
X190436575Y-92128686D01*
X190358226Y-92086807D01*
X190289552Y-92030448D01*
X190233193Y-91961774D01*
X190191314Y-91883425D01*
X190188290Y-91873456D01*
X190165525Y-91798413D01*
X190156818Y-91710000D01*
X190165525Y-91621587D01*
X190191313Y-91536579D01*
X190191314Y-91536575D01*
X190233193Y-91458226D01*
X190289552Y-91389552D01*
X190358226Y-91333193D01*
X190436575Y-91291314D01*
X190446544Y-91288290D01*
X190521587Y-91265525D01*
X190587842Y-91259000D01*
X191132158Y-91259000D01*
X191198413Y-91265525D01*
X191198413Y-91265525D01*
G37*
G36*
X191198413Y-90015525D02*
X191273456Y-90038290D01*
X191283425Y-90041314D01*
X191361774Y-90083193D01*
X191430448Y-90139552D01*
X191486807Y-90208226D01*
X191528686Y-90286575D01*
X191528687Y-90286579D01*
X191554475Y-90371587D01*
X191563182Y-90460000D01*
X191554475Y-90548413D01*
X191531710Y-90623456D01*
X191528686Y-90633425D01*
X191486807Y-90711774D01*
X191430448Y-90780448D01*
X191361774Y-90836807D01*
X191283425Y-90878686D01*
X191273456Y-90881710D01*
X191198413Y-90904475D01*
X191132158Y-90911000D01*
X190587842Y-90911000D01*
X190521587Y-90904475D01*
X190446544Y-90881710D01*
X190436575Y-90878686D01*
X190358226Y-90836807D01*
X190289552Y-90780448D01*
X190233193Y-90711774D01*
X190191314Y-90633425D01*
X190188290Y-90623456D01*
X190165525Y-90548413D01*
X190156818Y-90460000D01*
X190165525Y-90371587D01*
X190191313Y-90286579D01*
X190191314Y-90286575D01*
X190233193Y-90208226D01*
X190289552Y-90139552D01*
X190358226Y-90083193D01*
X190436575Y-90041314D01*
X190446544Y-90038290D01*
X190521587Y-90015525D01*
X190587842Y-90009000D01*
X191132158Y-90009000D01*
X191198413Y-90015525D01*
X191198413Y-90015525D01*
G37*
G36*
X191198413Y-88765525D02*
X191273456Y-88788290D01*
X191283425Y-88791314D01*
X191361774Y-88833193D01*
X191430448Y-88889552D01*
X191486807Y-88958226D01*
X191528686Y-89036575D01*
X191528687Y-89036579D01*
X191554475Y-89121587D01*
X191563182Y-89210000D01*
X191554475Y-89298413D01*
X191531710Y-89373456D01*
X191528686Y-89383425D01*
X191486807Y-89461774D01*
X191430448Y-89530448D01*
X191361774Y-89586807D01*
X191283425Y-89628686D01*
X191273456Y-89631710D01*
X191198413Y-89654475D01*
X191132158Y-89661000D01*
X190587842Y-89661000D01*
X190521587Y-89654475D01*
X190446544Y-89631710D01*
X190436575Y-89628686D01*
X190358226Y-89586807D01*
X190289552Y-89530448D01*
X190233193Y-89461774D01*
X190191314Y-89383425D01*
X190188290Y-89373456D01*
X190165525Y-89298413D01*
X190156818Y-89210000D01*
X190165525Y-89121587D01*
X190191313Y-89036579D01*
X190191314Y-89036575D01*
X190233193Y-88958226D01*
X190289552Y-88889552D01*
X190358226Y-88833193D01*
X190436575Y-88791314D01*
X190446544Y-88788290D01*
X190521587Y-88765525D01*
X190587842Y-88759000D01*
X191132158Y-88759000D01*
X191198413Y-88765525D01*
X191198413Y-88765525D01*
G37*
G36*
X169436821Y-87021313D02*
X169436824Y-87021314D01*
X169436825Y-87021314D01*
X169597239Y-87069975D01*
X169597241Y-87069976D01*
X169597244Y-87069977D01*
X169745078Y-87148995D01*
X169874659Y-87255341D01*
X169981005Y-87384922D01*
X170060023Y-87532756D01*
X170060024Y-87532759D01*
X170060025Y-87532761D01*
X170108686Y-87693175D01*
X170108687Y-87693179D01*
X170125117Y-87860000D01*
X170108687Y-88026821D01*
X170060023Y-88187244D01*
X169981005Y-88335078D01*
X169874659Y-88464659D01*
X169745078Y-88571005D01*
X169597244Y-88650023D01*
X169597241Y-88650024D01*
X169597239Y-88650025D01*
X169436825Y-88698686D01*
X169436824Y-88698686D01*
X169436821Y-88698687D01*
X169311804Y-88711000D01*
X169228196Y-88711000D01*
X169103179Y-88698687D01*
X169103176Y-88698686D01*
X169103175Y-88698686D01*
X168942761Y-88650025D01*
X168942759Y-88650024D01*
X168942756Y-88650023D01*
X168794922Y-88571005D01*
X168665341Y-88464659D01*
X168558995Y-88335078D01*
X168479977Y-88187244D01*
X168431313Y-88026821D01*
X168414883Y-87860000D01*
X168431313Y-87693179D01*
X168431314Y-87693175D01*
X168479975Y-87532761D01*
X168479976Y-87532759D01*
X168479977Y-87532756D01*
X168558995Y-87384922D01*
X168665341Y-87255341D01*
X168794922Y-87148995D01*
X168942756Y-87069977D01*
X168942759Y-87069976D01*
X168942761Y-87069975D01*
X169103175Y-87021314D01*
X169103176Y-87021314D01*
X169103179Y-87021313D01*
X169228196Y-87009000D01*
X169311804Y-87009000D01*
X169436821Y-87021313D01*
X169436821Y-87021313D01*
G37*
G36*
X166896821Y-87021313D02*
X166896824Y-87021314D01*
X166896825Y-87021314D01*
X167057239Y-87069975D01*
X167057241Y-87069976D01*
X167057244Y-87069977D01*
X167205078Y-87148995D01*
X167334659Y-87255341D01*
X167441005Y-87384922D01*
X167520023Y-87532756D01*
X167520024Y-87532759D01*
X167520025Y-87532761D01*
X167568686Y-87693175D01*
X167568687Y-87693179D01*
X167585117Y-87860000D01*
X167568687Y-88026821D01*
X167520023Y-88187244D01*
X167441005Y-88335078D01*
X167334659Y-88464659D01*
X167205078Y-88571005D01*
X167057244Y-88650023D01*
X167057241Y-88650024D01*
X167057239Y-88650025D01*
X166896825Y-88698686D01*
X166896824Y-88698686D01*
X166896821Y-88698687D01*
X166771804Y-88711000D01*
X166688196Y-88711000D01*
X166563179Y-88698687D01*
X166563176Y-88698686D01*
X166563175Y-88698686D01*
X166402761Y-88650025D01*
X166402759Y-88650024D01*
X166402756Y-88650023D01*
X166254922Y-88571005D01*
X166125341Y-88464659D01*
X166018995Y-88335078D01*
X165939977Y-88187244D01*
X165891313Y-88026821D01*
X165874883Y-87860000D01*
X165891313Y-87693179D01*
X165891314Y-87693175D01*
X165939975Y-87532761D01*
X165939976Y-87532759D01*
X165939977Y-87532756D01*
X166018995Y-87384922D01*
X166125341Y-87255341D01*
X166254922Y-87148995D01*
X166402756Y-87069977D01*
X166402759Y-87069976D01*
X166402761Y-87069975D01*
X166563175Y-87021314D01*
X166563176Y-87021314D01*
X166563179Y-87021313D01*
X166688196Y-87009000D01*
X166771804Y-87009000D01*
X166896821Y-87021313D01*
X166896821Y-87021313D01*
G37*
G36*
X149116821Y-87021313D02*
X149116824Y-87021314D01*
X149116825Y-87021314D01*
X149277239Y-87069975D01*
X149277241Y-87069976D01*
X149277244Y-87069977D01*
X149425078Y-87148995D01*
X149554659Y-87255341D01*
X149661005Y-87384922D01*
X149740023Y-87532756D01*
X149740024Y-87532759D01*
X149740025Y-87532761D01*
X149788686Y-87693175D01*
X149788687Y-87693179D01*
X149805117Y-87860000D01*
X149788687Y-88026821D01*
X149740023Y-88187244D01*
X149661005Y-88335078D01*
X149554659Y-88464659D01*
X149425078Y-88571005D01*
X149277244Y-88650023D01*
X149277241Y-88650024D01*
X149277239Y-88650025D01*
X149116825Y-88698686D01*
X149116824Y-88698686D01*
X149116821Y-88698687D01*
X148991804Y-88711000D01*
X148908196Y-88711000D01*
X148783179Y-88698687D01*
X148783176Y-88698686D01*
X148783175Y-88698686D01*
X148622761Y-88650025D01*
X148622759Y-88650024D01*
X148622756Y-88650023D01*
X148474922Y-88571005D01*
X148345341Y-88464659D01*
X148238995Y-88335078D01*
X148159977Y-88187244D01*
X148111313Y-88026821D01*
X148094883Y-87860000D01*
X148111313Y-87693179D01*
X148111314Y-87693175D01*
X148159975Y-87532761D01*
X148159976Y-87532759D01*
X148159977Y-87532756D01*
X148238995Y-87384922D01*
X148345341Y-87255341D01*
X148474922Y-87148995D01*
X148622756Y-87069977D01*
X148622759Y-87069976D01*
X148622761Y-87069975D01*
X148783175Y-87021314D01*
X148783176Y-87021314D01*
X148783179Y-87021313D01*
X148908196Y-87009000D01*
X148991804Y-87009000D01*
X149116821Y-87021313D01*
X149116821Y-87021313D01*
G37*
G36*
X164356821Y-87021313D02*
X164356824Y-87021314D01*
X164356825Y-87021314D01*
X164517239Y-87069975D01*
X164517241Y-87069976D01*
X164517244Y-87069977D01*
X164665078Y-87148995D01*
X164794659Y-87255341D01*
X164901005Y-87384922D01*
X164980023Y-87532756D01*
X164980024Y-87532759D01*
X164980025Y-87532761D01*
X165028686Y-87693175D01*
X165028687Y-87693179D01*
X165045117Y-87860000D01*
X165028687Y-88026821D01*
X164980023Y-88187244D01*
X164901005Y-88335078D01*
X164794659Y-88464659D01*
X164665078Y-88571005D01*
X164517244Y-88650023D01*
X164517241Y-88650024D01*
X164517239Y-88650025D01*
X164356825Y-88698686D01*
X164356824Y-88698686D01*
X164356821Y-88698687D01*
X164231804Y-88711000D01*
X164148196Y-88711000D01*
X164023179Y-88698687D01*
X164023176Y-88698686D01*
X164023175Y-88698686D01*
X163862761Y-88650025D01*
X163862759Y-88650024D01*
X163862756Y-88650023D01*
X163714922Y-88571005D01*
X163585341Y-88464659D01*
X163478995Y-88335078D01*
X163399977Y-88187244D01*
X163351313Y-88026821D01*
X163334883Y-87860000D01*
X163351313Y-87693179D01*
X163351314Y-87693175D01*
X163399975Y-87532761D01*
X163399976Y-87532759D01*
X163399977Y-87532756D01*
X163478995Y-87384922D01*
X163585341Y-87255341D01*
X163714922Y-87148995D01*
X163862756Y-87069977D01*
X163862759Y-87069976D01*
X163862761Y-87069975D01*
X164023175Y-87021314D01*
X164023176Y-87021314D01*
X164023179Y-87021313D01*
X164148196Y-87009000D01*
X164231804Y-87009000D01*
X164356821Y-87021313D01*
X164356821Y-87021313D01*
G37*
G36*
X161816821Y-87021313D02*
X161816824Y-87021314D01*
X161816825Y-87021314D01*
X161977239Y-87069975D01*
X161977241Y-87069976D01*
X161977244Y-87069977D01*
X162125078Y-87148995D01*
X162254659Y-87255341D01*
X162361005Y-87384922D01*
X162440023Y-87532756D01*
X162440024Y-87532759D01*
X162440025Y-87532761D01*
X162488686Y-87693175D01*
X162488687Y-87693179D01*
X162505117Y-87860000D01*
X162488687Y-88026821D01*
X162440023Y-88187244D01*
X162361005Y-88335078D01*
X162254659Y-88464659D01*
X162125078Y-88571005D01*
X161977244Y-88650023D01*
X161977241Y-88650024D01*
X161977239Y-88650025D01*
X161816825Y-88698686D01*
X161816824Y-88698686D01*
X161816821Y-88698687D01*
X161691804Y-88711000D01*
X161608196Y-88711000D01*
X161483179Y-88698687D01*
X161483176Y-88698686D01*
X161483175Y-88698686D01*
X161322761Y-88650025D01*
X161322759Y-88650024D01*
X161322756Y-88650023D01*
X161174922Y-88571005D01*
X161045341Y-88464659D01*
X160938995Y-88335078D01*
X160859977Y-88187244D01*
X160811313Y-88026821D01*
X160794883Y-87860000D01*
X160811313Y-87693179D01*
X160811314Y-87693175D01*
X160859975Y-87532761D01*
X160859976Y-87532759D01*
X160859977Y-87532756D01*
X160938995Y-87384922D01*
X161045341Y-87255341D01*
X161174922Y-87148995D01*
X161322756Y-87069977D01*
X161322759Y-87069976D01*
X161322761Y-87069975D01*
X161483175Y-87021314D01*
X161483176Y-87021314D01*
X161483179Y-87021313D01*
X161608196Y-87009000D01*
X161691804Y-87009000D01*
X161816821Y-87021313D01*
X161816821Y-87021313D01*
G37*
G36*
X159276821Y-87021313D02*
X159276824Y-87021314D01*
X159276825Y-87021314D01*
X159437239Y-87069975D01*
X159437241Y-87069976D01*
X159437244Y-87069977D01*
X159585078Y-87148995D01*
X159714659Y-87255341D01*
X159821005Y-87384922D01*
X159900023Y-87532756D01*
X159900024Y-87532759D01*
X159900025Y-87532761D01*
X159948686Y-87693175D01*
X159948687Y-87693179D01*
X159965117Y-87860000D01*
X159948687Y-88026821D01*
X159900023Y-88187244D01*
X159821005Y-88335078D01*
X159714659Y-88464659D01*
X159585078Y-88571005D01*
X159437244Y-88650023D01*
X159437241Y-88650024D01*
X159437239Y-88650025D01*
X159276825Y-88698686D01*
X159276824Y-88698686D01*
X159276821Y-88698687D01*
X159151804Y-88711000D01*
X159068196Y-88711000D01*
X158943179Y-88698687D01*
X158943176Y-88698686D01*
X158943175Y-88698686D01*
X158782761Y-88650025D01*
X158782759Y-88650024D01*
X158782756Y-88650023D01*
X158634922Y-88571005D01*
X158505341Y-88464659D01*
X158398995Y-88335078D01*
X158319977Y-88187244D01*
X158271313Y-88026821D01*
X158254883Y-87860000D01*
X158271313Y-87693179D01*
X158271314Y-87693175D01*
X158319975Y-87532761D01*
X158319976Y-87532759D01*
X158319977Y-87532756D01*
X158398995Y-87384922D01*
X158505341Y-87255341D01*
X158634922Y-87148995D01*
X158782756Y-87069977D01*
X158782759Y-87069976D01*
X158782761Y-87069975D01*
X158943175Y-87021314D01*
X158943176Y-87021314D01*
X158943179Y-87021313D01*
X159068196Y-87009000D01*
X159151804Y-87009000D01*
X159276821Y-87021313D01*
X159276821Y-87021313D01*
G37*
G36*
X154196821Y-87021313D02*
X154196824Y-87021314D01*
X154196825Y-87021314D01*
X154357239Y-87069975D01*
X154357241Y-87069976D01*
X154357244Y-87069977D01*
X154505078Y-87148995D01*
X154634659Y-87255341D01*
X154741005Y-87384922D01*
X154820023Y-87532756D01*
X154820024Y-87532759D01*
X154820025Y-87532761D01*
X154868686Y-87693175D01*
X154868687Y-87693179D01*
X154885117Y-87860000D01*
X154868687Y-88026821D01*
X154820023Y-88187244D01*
X154741005Y-88335078D01*
X154634659Y-88464659D01*
X154505078Y-88571005D01*
X154357244Y-88650023D01*
X154357241Y-88650024D01*
X154357239Y-88650025D01*
X154196825Y-88698686D01*
X154196824Y-88698686D01*
X154196821Y-88698687D01*
X154071804Y-88711000D01*
X153988196Y-88711000D01*
X153863179Y-88698687D01*
X153863176Y-88698686D01*
X153863175Y-88698686D01*
X153702761Y-88650025D01*
X153702759Y-88650024D01*
X153702756Y-88650023D01*
X153554922Y-88571005D01*
X153425341Y-88464659D01*
X153318995Y-88335078D01*
X153239977Y-88187244D01*
X153191313Y-88026821D01*
X153174883Y-87860000D01*
X153191313Y-87693179D01*
X153191314Y-87693175D01*
X153239975Y-87532761D01*
X153239976Y-87532759D01*
X153239977Y-87532756D01*
X153318995Y-87384922D01*
X153425341Y-87255341D01*
X153554922Y-87148995D01*
X153702756Y-87069977D01*
X153702759Y-87069976D01*
X153702761Y-87069975D01*
X153863175Y-87021314D01*
X153863176Y-87021314D01*
X153863179Y-87021313D01*
X153988196Y-87009000D01*
X154071804Y-87009000D01*
X154196821Y-87021313D01*
X154196821Y-87021313D01*
G37*
G36*
X156736821Y-87021313D02*
X156736824Y-87021314D01*
X156736825Y-87021314D01*
X156897239Y-87069975D01*
X156897241Y-87069976D01*
X156897244Y-87069977D01*
X157045078Y-87148995D01*
X157174659Y-87255341D01*
X157281005Y-87384922D01*
X157360023Y-87532756D01*
X157360024Y-87532759D01*
X157360025Y-87532761D01*
X157408686Y-87693175D01*
X157408687Y-87693179D01*
X157425117Y-87860000D01*
X157408687Y-88026821D01*
X157360023Y-88187244D01*
X157281005Y-88335078D01*
X157174659Y-88464659D01*
X157045078Y-88571005D01*
X156897244Y-88650023D01*
X156897241Y-88650024D01*
X156897239Y-88650025D01*
X156736825Y-88698686D01*
X156736824Y-88698686D01*
X156736821Y-88698687D01*
X156611804Y-88711000D01*
X156528196Y-88711000D01*
X156403179Y-88698687D01*
X156403176Y-88698686D01*
X156403175Y-88698686D01*
X156242761Y-88650025D01*
X156242759Y-88650024D01*
X156242756Y-88650023D01*
X156094922Y-88571005D01*
X155965341Y-88464659D01*
X155858995Y-88335078D01*
X155779977Y-88187244D01*
X155731313Y-88026821D01*
X155714883Y-87860000D01*
X155731313Y-87693179D01*
X155731314Y-87693175D01*
X155779975Y-87532761D01*
X155779976Y-87532759D01*
X155779977Y-87532756D01*
X155858995Y-87384922D01*
X155965341Y-87255341D01*
X156094922Y-87148995D01*
X156242756Y-87069977D01*
X156242759Y-87069976D01*
X156242761Y-87069975D01*
X156403175Y-87021314D01*
X156403176Y-87021314D01*
X156403179Y-87021313D01*
X156528196Y-87009000D01*
X156611804Y-87009000D01*
X156736821Y-87021313D01*
X156736821Y-87021313D01*
G37*
G36*
X172661000Y-88711000D02*
X170959000Y-88711000D01*
X170959000Y-87009000D01*
X172661000Y-87009000D01*
X172661000Y-88711000D01*
X172661000Y-88711000D01*
G37*
G36*
X151656821Y-87021313D02*
X151656824Y-87021314D01*
X151656825Y-87021314D01*
X151817239Y-87069975D01*
X151817241Y-87069976D01*
X151817244Y-87069977D01*
X151965078Y-87148995D01*
X152094659Y-87255341D01*
X152201005Y-87384922D01*
X152280023Y-87532756D01*
X152280024Y-87532759D01*
X152280025Y-87532761D01*
X152328686Y-87693175D01*
X152328687Y-87693179D01*
X152345117Y-87860000D01*
X152328687Y-88026821D01*
X152280023Y-88187244D01*
X152201005Y-88335078D01*
X152094659Y-88464659D01*
X151965078Y-88571005D01*
X151817244Y-88650023D01*
X151817241Y-88650024D01*
X151817239Y-88650025D01*
X151656825Y-88698686D01*
X151656824Y-88698686D01*
X151656821Y-88698687D01*
X151531804Y-88711000D01*
X151448196Y-88711000D01*
X151323179Y-88698687D01*
X151323176Y-88698686D01*
X151323175Y-88698686D01*
X151162761Y-88650025D01*
X151162759Y-88650024D01*
X151162756Y-88650023D01*
X151014922Y-88571005D01*
X150885341Y-88464659D01*
X150778995Y-88335078D01*
X150699977Y-88187244D01*
X150651313Y-88026821D01*
X150634883Y-87860000D01*
X150651313Y-87693179D01*
X150651314Y-87693175D01*
X150699975Y-87532761D01*
X150699976Y-87532759D01*
X150699977Y-87532756D01*
X150778995Y-87384922D01*
X150885341Y-87255341D01*
X151014922Y-87148995D01*
X151162756Y-87069977D01*
X151162759Y-87069976D01*
X151162761Y-87069975D01*
X151323175Y-87021314D01*
X151323176Y-87021314D01*
X151323179Y-87021313D01*
X151448196Y-87009000D01*
X151531804Y-87009000D01*
X151656821Y-87021313D01*
X151656821Y-87021313D01*
G37*
G36*
X146576821Y-87021313D02*
X146576824Y-87021314D01*
X146576825Y-87021314D01*
X146737239Y-87069975D01*
X146737241Y-87069976D01*
X146737244Y-87069977D01*
X146885078Y-87148995D01*
X147014659Y-87255341D01*
X147121005Y-87384922D01*
X147200023Y-87532756D01*
X147200024Y-87532759D01*
X147200025Y-87532761D01*
X147248686Y-87693175D01*
X147248687Y-87693179D01*
X147265117Y-87860000D01*
X147248687Y-88026821D01*
X147200023Y-88187244D01*
X147121005Y-88335078D01*
X147014659Y-88464659D01*
X146885078Y-88571005D01*
X146737244Y-88650023D01*
X146737241Y-88650024D01*
X146737239Y-88650025D01*
X146576825Y-88698686D01*
X146576824Y-88698686D01*
X146576821Y-88698687D01*
X146451804Y-88711000D01*
X146368196Y-88711000D01*
X146243179Y-88698687D01*
X146243176Y-88698686D01*
X146243175Y-88698686D01*
X146082761Y-88650025D01*
X146082759Y-88650024D01*
X146082756Y-88650023D01*
X145934922Y-88571005D01*
X145805341Y-88464659D01*
X145698995Y-88335078D01*
X145619977Y-88187244D01*
X145571313Y-88026821D01*
X145554883Y-87860000D01*
X145571313Y-87693179D01*
X145571314Y-87693175D01*
X145619975Y-87532761D01*
X145619976Y-87532759D01*
X145619977Y-87532756D01*
X145698995Y-87384922D01*
X145805341Y-87255341D01*
X145934922Y-87148995D01*
X146082756Y-87069977D01*
X146082759Y-87069976D01*
X146082761Y-87069975D01*
X146243175Y-87021314D01*
X146243176Y-87021314D01*
X146243179Y-87021313D01*
X146368196Y-87009000D01*
X146451804Y-87009000D01*
X146576821Y-87021313D01*
X146576821Y-87021313D01*
G37*
G36*
X191198413Y-87515525D02*
X191273456Y-87538290D01*
X191283425Y-87541314D01*
X191361774Y-87583193D01*
X191430448Y-87639552D01*
X191486807Y-87708226D01*
X191528686Y-87786575D01*
X191528687Y-87786579D01*
X191554475Y-87871587D01*
X191563182Y-87960000D01*
X191554475Y-88048413D01*
X191531710Y-88123456D01*
X191528686Y-88133425D01*
X191486807Y-88211774D01*
X191430448Y-88280448D01*
X191361774Y-88336807D01*
X191283425Y-88378686D01*
X191273456Y-88381710D01*
X191198413Y-88404475D01*
X191132158Y-88411000D01*
X190587842Y-88411000D01*
X190521587Y-88404475D01*
X190446544Y-88381710D01*
X190436575Y-88378686D01*
X190358226Y-88336807D01*
X190289552Y-88280448D01*
X190233193Y-88211774D01*
X190191314Y-88133425D01*
X190188290Y-88123456D01*
X190165525Y-88048413D01*
X190156818Y-87960000D01*
X190165525Y-87871587D01*
X190191313Y-87786579D01*
X190191314Y-87786575D01*
X190233193Y-87708226D01*
X190289552Y-87639552D01*
X190358226Y-87583193D01*
X190436575Y-87541314D01*
X190446544Y-87538290D01*
X190521587Y-87515525D01*
X190587842Y-87509000D01*
X191132158Y-87509000D01*
X191198413Y-87515525D01*
X191198413Y-87515525D01*
G37*
G36*
X191198413Y-86265525D02*
X191273456Y-86288290D01*
X191283425Y-86291314D01*
X191361774Y-86333193D01*
X191430448Y-86389552D01*
X191486807Y-86458226D01*
X191528686Y-86536575D01*
X191528687Y-86536579D01*
X191554475Y-86621587D01*
X191563182Y-86710000D01*
X191554475Y-86798413D01*
X191531710Y-86873456D01*
X191528686Y-86883425D01*
X191486807Y-86961774D01*
X191430448Y-87030448D01*
X191361774Y-87086807D01*
X191283425Y-87128686D01*
X191273456Y-87131710D01*
X191198413Y-87154475D01*
X191132158Y-87161000D01*
X190587842Y-87161000D01*
X190521587Y-87154475D01*
X190446544Y-87131710D01*
X190436575Y-87128686D01*
X190358226Y-87086807D01*
X190289552Y-87030448D01*
X190233193Y-86961774D01*
X190191314Y-86883425D01*
X190188290Y-86873456D01*
X190165525Y-86798413D01*
X190156818Y-86710000D01*
X190165525Y-86621587D01*
X190191313Y-86536579D01*
X190191314Y-86536575D01*
X190233193Y-86458226D01*
X190289552Y-86389552D01*
X190358226Y-86333193D01*
X190436575Y-86291314D01*
X190446544Y-86288290D01*
X190521587Y-86265525D01*
X190587842Y-86259000D01*
X191132158Y-86259000D01*
X191198413Y-86265525D01*
X191198413Y-86265525D01*
G37*
G36*
X191198413Y-85015525D02*
X191273456Y-85038290D01*
X191283425Y-85041314D01*
X191361774Y-85083193D01*
X191430448Y-85139552D01*
X191486807Y-85208226D01*
X191528686Y-85286575D01*
X191528687Y-85286579D01*
X191554475Y-85371587D01*
X191563182Y-85460000D01*
X191554475Y-85548413D01*
X191531710Y-85623456D01*
X191528686Y-85633425D01*
X191486807Y-85711774D01*
X191430448Y-85780448D01*
X191361774Y-85836807D01*
X191283425Y-85878686D01*
X191273456Y-85881710D01*
X191198413Y-85904475D01*
X191132158Y-85911000D01*
X190587842Y-85911000D01*
X190521587Y-85904475D01*
X190446544Y-85881710D01*
X190436575Y-85878686D01*
X190358226Y-85836807D01*
X190289552Y-85780448D01*
X190233193Y-85711774D01*
X190191314Y-85633425D01*
X190188290Y-85623456D01*
X190165525Y-85548413D01*
X190156818Y-85460000D01*
X190165525Y-85371587D01*
X190191313Y-85286579D01*
X190191314Y-85286575D01*
X190233193Y-85208226D01*
X190289552Y-85139552D01*
X190358226Y-85083193D01*
X190436575Y-85041314D01*
X190446544Y-85038290D01*
X190521587Y-85015525D01*
X190587842Y-85009000D01*
X191132158Y-85009000D01*
X191198413Y-85015525D01*
X191198413Y-85015525D01*
G37*
G36*
X191429683Y-79792725D02*
X191460144Y-79801966D01*
X191488223Y-79816975D01*
X191512831Y-79837169D01*
X191533025Y-79861777D01*
X191548034Y-79889856D01*
X191557275Y-79920317D01*
X191561000Y-79958140D01*
X191561000Y-80521860D01*
X191557275Y-80559683D01*
X191548034Y-80590144D01*
X191533025Y-80618223D01*
X191512831Y-80642831D01*
X191488223Y-80663025D01*
X191460144Y-80678034D01*
X191429683Y-80687275D01*
X191391860Y-80691000D01*
X190328140Y-80691000D01*
X190290317Y-80687275D01*
X190259856Y-80678034D01*
X190231777Y-80663025D01*
X190207169Y-80642831D01*
X190186975Y-80618223D01*
X190171966Y-80590144D01*
X190162725Y-80559683D01*
X190159000Y-80521860D01*
X190159000Y-79958140D01*
X190162725Y-79920317D01*
X190171966Y-79889856D01*
X190186975Y-79861777D01*
X190207169Y-79837169D01*
X190231777Y-79816975D01*
X190259856Y-79801966D01*
X190290317Y-79792725D01*
X190328140Y-79789000D01*
X191391860Y-79789000D01*
X191429683Y-79792725D01*
X191429683Y-79792725D01*
G37*
G36*
X191198413Y-78545525D02*
X191273456Y-78568290D01*
X191283425Y-78571314D01*
X191361774Y-78613193D01*
X191430448Y-78669552D01*
X191486807Y-78738226D01*
X191528686Y-78816575D01*
X191528687Y-78816579D01*
X191554475Y-78901587D01*
X191563182Y-78990000D01*
X191554475Y-79078413D01*
X191531710Y-79153456D01*
X191528686Y-79163425D01*
X191486807Y-79241774D01*
X191430448Y-79310448D01*
X191361774Y-79366807D01*
X191283425Y-79408686D01*
X191273456Y-79411710D01*
X191198413Y-79434475D01*
X191132158Y-79441000D01*
X190587842Y-79441000D01*
X190521587Y-79434475D01*
X190446544Y-79411710D01*
X190436575Y-79408686D01*
X190358226Y-79366807D01*
X190289552Y-79310448D01*
X190233193Y-79241774D01*
X190191314Y-79163425D01*
X190188290Y-79153456D01*
X190165525Y-79078413D01*
X190156818Y-78990000D01*
X190165525Y-78901587D01*
X190191313Y-78816579D01*
X190191314Y-78816575D01*
X190233193Y-78738226D01*
X190289552Y-78669552D01*
X190358226Y-78613193D01*
X190436575Y-78571314D01*
X190446544Y-78568290D01*
X190521587Y-78545525D01*
X190587842Y-78539000D01*
X191132158Y-78539000D01*
X191198413Y-78545525D01*
X191198413Y-78545525D01*
G37*
G36*
X191198413Y-77295525D02*
X191273456Y-77318290D01*
X191283425Y-77321314D01*
X191361774Y-77363193D01*
X191430448Y-77419552D01*
X191486807Y-77488226D01*
X191528686Y-77566575D01*
X191528687Y-77566579D01*
X191554475Y-77651587D01*
X191563182Y-77740000D01*
X191554475Y-77828413D01*
X191531710Y-77903456D01*
X191528686Y-77913425D01*
X191486807Y-77991774D01*
X191430448Y-78060448D01*
X191361774Y-78116807D01*
X191283425Y-78158686D01*
X191273456Y-78161710D01*
X191198413Y-78184475D01*
X191132158Y-78191000D01*
X190587842Y-78191000D01*
X190521587Y-78184475D01*
X190446544Y-78161710D01*
X190436575Y-78158686D01*
X190358226Y-78116807D01*
X190289552Y-78060448D01*
X190233193Y-77991774D01*
X190191314Y-77913425D01*
X190188290Y-77903456D01*
X190165525Y-77828413D01*
X190156818Y-77740000D01*
X190165525Y-77651587D01*
X190191313Y-77566579D01*
X190191314Y-77566575D01*
X190233193Y-77488226D01*
X190289552Y-77419552D01*
X190358226Y-77363193D01*
X190436575Y-77321314D01*
X190446544Y-77318290D01*
X190521587Y-77295525D01*
X190587842Y-77289000D01*
X191132158Y-77289000D01*
X191198413Y-77295525D01*
X191198413Y-77295525D01*
G37*
G36*
X172047142Y-75648242D02*
X172195102Y-75709530D01*
X172328258Y-75798502D01*
X172441498Y-75911742D01*
X172530470Y-76044898D01*
X172591758Y-76192858D01*
X172623000Y-76349925D01*
X172623000Y-76510075D01*
X172591758Y-76667142D01*
X172544354Y-76781583D01*
X172530471Y-76815100D01*
X172467939Y-76908687D01*
X172441498Y-76948258D01*
X172328258Y-77061498D01*
X172195102Y-77150470D01*
X172047142Y-77211758D01*
X171890075Y-77243000D01*
X171729925Y-77243000D01*
X171572858Y-77211758D01*
X171424898Y-77150470D01*
X171291742Y-77061498D01*
X171178502Y-76948258D01*
X171152062Y-76908687D01*
X171089529Y-76815100D01*
X171075646Y-76781583D01*
X171028242Y-76667142D01*
X170997000Y-76510075D01*
X170997000Y-76349925D01*
X171028242Y-76192858D01*
X171089530Y-76044898D01*
X171178502Y-75911742D01*
X171291742Y-75798502D01*
X171424898Y-75709530D01*
X171572858Y-75648242D01*
X171729925Y-75617000D01*
X171890075Y-75617000D01*
X172047142Y-75648242D01*
X172047142Y-75648242D01*
G37*
G36*
X166967142Y-75648242D02*
X167115102Y-75709530D01*
X167248258Y-75798502D01*
X167361498Y-75911742D01*
X167450470Y-76044898D01*
X167511758Y-76192858D01*
X167543000Y-76349925D01*
X167543000Y-76510075D01*
X167511758Y-76667142D01*
X167464354Y-76781583D01*
X167450471Y-76815100D01*
X167387939Y-76908687D01*
X167361498Y-76948258D01*
X167248258Y-77061498D01*
X167115102Y-77150470D01*
X166967142Y-77211758D01*
X166810075Y-77243000D01*
X166649925Y-77243000D01*
X166492858Y-77211758D01*
X166344898Y-77150470D01*
X166211742Y-77061498D01*
X166098502Y-76948258D01*
X166072062Y-76908687D01*
X166009529Y-76815100D01*
X165995646Y-76781583D01*
X165948242Y-76667142D01*
X165917000Y-76510075D01*
X165917000Y-76349925D01*
X165948242Y-76192858D01*
X166009530Y-76044898D01*
X166098502Y-75911742D01*
X166211742Y-75798502D01*
X166344898Y-75709530D01*
X166492858Y-75648242D01*
X166649925Y-75617000D01*
X166810075Y-75617000D01*
X166967142Y-75648242D01*
X166967142Y-75648242D01*
G37*
G36*
X169507142Y-75648242D02*
X169655102Y-75709530D01*
X169788258Y-75798502D01*
X169901498Y-75911742D01*
X169990470Y-76044898D01*
X170051758Y-76192858D01*
X170083000Y-76349925D01*
X170083000Y-76510075D01*
X170051758Y-76667142D01*
X170004354Y-76781583D01*
X169990471Y-76815100D01*
X169927939Y-76908687D01*
X169901498Y-76948258D01*
X169788258Y-77061498D01*
X169655102Y-77150470D01*
X169507142Y-77211758D01*
X169350075Y-77243000D01*
X169189925Y-77243000D01*
X169032858Y-77211758D01*
X168884898Y-77150470D01*
X168751742Y-77061498D01*
X168638502Y-76948258D01*
X168612062Y-76908687D01*
X168549529Y-76815100D01*
X168535646Y-76781583D01*
X168488242Y-76667142D01*
X168457000Y-76510075D01*
X168457000Y-76349925D01*
X168488242Y-76192858D01*
X168549530Y-76044898D01*
X168638502Y-75911742D01*
X168751742Y-75798502D01*
X168884898Y-75709530D01*
X169032858Y-75648242D01*
X169189925Y-75617000D01*
X169350075Y-75617000D01*
X169507142Y-75648242D01*
X169507142Y-75648242D01*
G37*
G36*
X164427142Y-75648242D02*
X164575102Y-75709530D01*
X164708258Y-75798502D01*
X164821498Y-75911742D01*
X164910470Y-76044898D01*
X164971758Y-76192858D01*
X165003000Y-76349925D01*
X165003000Y-76510075D01*
X164971758Y-76667142D01*
X164924354Y-76781583D01*
X164910471Y-76815100D01*
X164847939Y-76908687D01*
X164821498Y-76948258D01*
X164708258Y-77061498D01*
X164575102Y-77150470D01*
X164427142Y-77211758D01*
X164270075Y-77243000D01*
X164109925Y-77243000D01*
X163952858Y-77211758D01*
X163804898Y-77150470D01*
X163671742Y-77061498D01*
X163558502Y-76948258D01*
X163532062Y-76908687D01*
X163469529Y-76815100D01*
X163455646Y-76781583D01*
X163408242Y-76667142D01*
X163377000Y-76510075D01*
X163377000Y-76349925D01*
X163408242Y-76192858D01*
X163469530Y-76044898D01*
X163558502Y-75911742D01*
X163671742Y-75798502D01*
X163804898Y-75709530D01*
X163952858Y-75648242D01*
X164109925Y-75617000D01*
X164270075Y-75617000D01*
X164427142Y-75648242D01*
X164427142Y-75648242D01*
G37*
G36*
X161887142Y-75648242D02*
X162035102Y-75709530D01*
X162168258Y-75798502D01*
X162281498Y-75911742D01*
X162370470Y-76044898D01*
X162431758Y-76192858D01*
X162463000Y-76349925D01*
X162463000Y-76510075D01*
X162431758Y-76667142D01*
X162384354Y-76781583D01*
X162370471Y-76815100D01*
X162307939Y-76908687D01*
X162281498Y-76948258D01*
X162168258Y-77061498D01*
X162035102Y-77150470D01*
X161887142Y-77211758D01*
X161730075Y-77243000D01*
X161569925Y-77243000D01*
X161412858Y-77211758D01*
X161264898Y-77150470D01*
X161131742Y-77061498D01*
X161018502Y-76948258D01*
X160992062Y-76908687D01*
X160929529Y-76815100D01*
X160915646Y-76781583D01*
X160868242Y-76667142D01*
X160837000Y-76510075D01*
X160837000Y-76349925D01*
X160868242Y-76192858D01*
X160929530Y-76044898D01*
X161018502Y-75911742D01*
X161131742Y-75798502D01*
X161264898Y-75709530D01*
X161412858Y-75648242D01*
X161569925Y-75617000D01*
X161730075Y-75617000D01*
X161887142Y-75648242D01*
X161887142Y-75648242D01*
G37*
G36*
X159347142Y-75648242D02*
X159495102Y-75709530D01*
X159628258Y-75798502D01*
X159741498Y-75911742D01*
X159830470Y-76044898D01*
X159891758Y-76192858D01*
X159923000Y-76349925D01*
X159923000Y-76510075D01*
X159891758Y-76667142D01*
X159844354Y-76781583D01*
X159830471Y-76815100D01*
X159767939Y-76908687D01*
X159741498Y-76948258D01*
X159628258Y-77061498D01*
X159495102Y-77150470D01*
X159347142Y-77211758D01*
X159190075Y-77243000D01*
X159029925Y-77243000D01*
X158872858Y-77211758D01*
X158724898Y-77150470D01*
X158591742Y-77061498D01*
X158478502Y-76948258D01*
X158452062Y-76908687D01*
X158389529Y-76815100D01*
X158375646Y-76781583D01*
X158328242Y-76667142D01*
X158297000Y-76510075D01*
X158297000Y-76349925D01*
X158328242Y-76192858D01*
X158389530Y-76044898D01*
X158478502Y-75911742D01*
X158591742Y-75798502D01*
X158724898Y-75709530D01*
X158872858Y-75648242D01*
X159029925Y-75617000D01*
X159190075Y-75617000D01*
X159347142Y-75648242D01*
X159347142Y-75648242D01*
G37*
G36*
X156807142Y-75648242D02*
X156955102Y-75709530D01*
X157088258Y-75798502D01*
X157201498Y-75911742D01*
X157290470Y-76044898D01*
X157351758Y-76192858D01*
X157383000Y-76349925D01*
X157383000Y-76510075D01*
X157351758Y-76667142D01*
X157304354Y-76781583D01*
X157290471Y-76815100D01*
X157227939Y-76908687D01*
X157201498Y-76948258D01*
X157088258Y-77061498D01*
X156955102Y-77150470D01*
X156807142Y-77211758D01*
X156650075Y-77243000D01*
X156489925Y-77243000D01*
X156332858Y-77211758D01*
X156184898Y-77150470D01*
X156051742Y-77061498D01*
X155938502Y-76948258D01*
X155912062Y-76908687D01*
X155849529Y-76815100D01*
X155835646Y-76781583D01*
X155788242Y-76667142D01*
X155757000Y-76510075D01*
X155757000Y-76349925D01*
X155788242Y-76192858D01*
X155849530Y-76044898D01*
X155938502Y-75911742D01*
X156051742Y-75798502D01*
X156184898Y-75709530D01*
X156332858Y-75648242D01*
X156489925Y-75617000D01*
X156650075Y-75617000D01*
X156807142Y-75648242D01*
X156807142Y-75648242D01*
G37*
G36*
X154267142Y-75648242D02*
X154415102Y-75709530D01*
X154548258Y-75798502D01*
X154661498Y-75911742D01*
X154750470Y-76044898D01*
X154811758Y-76192858D01*
X154843000Y-76349925D01*
X154843000Y-76510075D01*
X154811758Y-76667142D01*
X154764354Y-76781583D01*
X154750471Y-76815100D01*
X154687939Y-76908687D01*
X154661498Y-76948258D01*
X154548258Y-77061498D01*
X154415102Y-77150470D01*
X154267142Y-77211758D01*
X154110075Y-77243000D01*
X153949925Y-77243000D01*
X153792858Y-77211758D01*
X153644898Y-77150470D01*
X153511742Y-77061498D01*
X153398502Y-76948258D01*
X153372062Y-76908687D01*
X153309529Y-76815100D01*
X153295646Y-76781583D01*
X153248242Y-76667142D01*
X153217000Y-76510075D01*
X153217000Y-76349925D01*
X153248242Y-76192858D01*
X153309530Y-76044898D01*
X153398502Y-75911742D01*
X153511742Y-75798502D01*
X153644898Y-75709530D01*
X153792858Y-75648242D01*
X153949925Y-75617000D01*
X154110075Y-75617000D01*
X154267142Y-75648242D01*
X154267142Y-75648242D01*
G37*
G36*
X151727142Y-75648242D02*
X151875102Y-75709530D01*
X152008258Y-75798502D01*
X152121498Y-75911742D01*
X152210470Y-76044898D01*
X152271758Y-76192858D01*
X152303000Y-76349925D01*
X152303000Y-76510075D01*
X152271758Y-76667142D01*
X152224354Y-76781583D01*
X152210471Y-76815100D01*
X152147939Y-76908687D01*
X152121498Y-76948258D01*
X152008258Y-77061498D01*
X151875102Y-77150470D01*
X151727142Y-77211758D01*
X151570075Y-77243000D01*
X151409925Y-77243000D01*
X151252858Y-77211758D01*
X151104898Y-77150470D01*
X150971742Y-77061498D01*
X150858502Y-76948258D01*
X150832062Y-76908687D01*
X150769529Y-76815100D01*
X150755646Y-76781583D01*
X150708242Y-76667142D01*
X150677000Y-76510075D01*
X150677000Y-76349925D01*
X150708242Y-76192858D01*
X150769530Y-76044898D01*
X150858502Y-75911742D01*
X150971742Y-75798502D01*
X151104898Y-75709530D01*
X151252858Y-75648242D01*
X151409925Y-75617000D01*
X151570075Y-75617000D01*
X151727142Y-75648242D01*
X151727142Y-75648242D01*
G37*
G36*
X182207142Y-75648242D02*
X182355102Y-75709530D01*
X182488258Y-75798502D01*
X182601498Y-75911742D01*
X182690470Y-76044898D01*
X182751758Y-76192858D01*
X182783000Y-76349925D01*
X182783000Y-76510075D01*
X182751758Y-76667142D01*
X182704354Y-76781583D01*
X182690471Y-76815100D01*
X182627939Y-76908687D01*
X182601498Y-76948258D01*
X182488258Y-77061498D01*
X182355102Y-77150470D01*
X182207142Y-77211758D01*
X182050075Y-77243000D01*
X181889925Y-77243000D01*
X181732858Y-77211758D01*
X181584898Y-77150470D01*
X181451742Y-77061498D01*
X181338502Y-76948258D01*
X181312062Y-76908687D01*
X181249529Y-76815100D01*
X181235646Y-76781583D01*
X181188242Y-76667142D01*
X181157000Y-76510075D01*
X181157000Y-76349925D01*
X181188242Y-76192858D01*
X181249530Y-76044898D01*
X181338502Y-75911742D01*
X181451742Y-75798502D01*
X181584898Y-75709530D01*
X181732858Y-75648242D01*
X181889925Y-75617000D01*
X182050075Y-75617000D01*
X182207142Y-75648242D01*
X182207142Y-75648242D01*
G37*
G36*
X177127142Y-75648242D02*
X177275102Y-75709530D01*
X177408258Y-75798502D01*
X177521498Y-75911742D01*
X177610470Y-76044898D01*
X177671758Y-76192858D01*
X177703000Y-76349925D01*
X177703000Y-76510075D01*
X177671758Y-76667142D01*
X177624354Y-76781583D01*
X177610471Y-76815100D01*
X177547939Y-76908687D01*
X177521498Y-76948258D01*
X177408258Y-77061498D01*
X177275102Y-77150470D01*
X177127142Y-77211758D01*
X176970075Y-77243000D01*
X176809925Y-77243000D01*
X176652858Y-77211758D01*
X176504898Y-77150470D01*
X176371742Y-77061498D01*
X176258502Y-76948258D01*
X176232062Y-76908687D01*
X176169529Y-76815100D01*
X176155646Y-76781583D01*
X176108242Y-76667142D01*
X176077000Y-76510075D01*
X176077000Y-76349925D01*
X176108242Y-76192858D01*
X176169530Y-76044898D01*
X176258502Y-75911742D01*
X176371742Y-75798502D01*
X176504898Y-75709530D01*
X176652858Y-75648242D01*
X176809925Y-75617000D01*
X176970075Y-75617000D01*
X177127142Y-75648242D01*
X177127142Y-75648242D01*
G37*
G36*
X149187142Y-75648242D02*
X149335102Y-75709530D01*
X149468258Y-75798502D01*
X149581498Y-75911742D01*
X149670470Y-76044898D01*
X149731758Y-76192858D01*
X149763000Y-76349925D01*
X149763000Y-76510075D01*
X149731758Y-76667142D01*
X149684354Y-76781583D01*
X149670471Y-76815100D01*
X149607939Y-76908687D01*
X149581498Y-76948258D01*
X149468258Y-77061498D01*
X149335102Y-77150470D01*
X149187142Y-77211758D01*
X149030075Y-77243000D01*
X148869925Y-77243000D01*
X148712858Y-77211758D01*
X148564898Y-77150470D01*
X148431742Y-77061498D01*
X148318502Y-76948258D01*
X148292062Y-76908687D01*
X148229529Y-76815100D01*
X148215646Y-76781583D01*
X148168242Y-76667142D01*
X148137000Y-76510075D01*
X148137000Y-76349925D01*
X148168242Y-76192858D01*
X148229530Y-76044898D01*
X148318502Y-75911742D01*
X148431742Y-75798502D01*
X148564898Y-75709530D01*
X148712858Y-75648242D01*
X148869925Y-75617000D01*
X149030075Y-75617000D01*
X149187142Y-75648242D01*
X149187142Y-75648242D01*
G37*
G36*
X146647142Y-75648242D02*
X146795102Y-75709530D01*
X146928258Y-75798502D01*
X147041498Y-75911742D01*
X147130470Y-76044898D01*
X147191758Y-76192858D01*
X147223000Y-76349925D01*
X147223000Y-76510075D01*
X147191758Y-76667142D01*
X147144354Y-76781583D01*
X147130471Y-76815100D01*
X147067939Y-76908687D01*
X147041498Y-76948258D01*
X146928258Y-77061498D01*
X146795102Y-77150470D01*
X146647142Y-77211758D01*
X146490075Y-77243000D01*
X146329925Y-77243000D01*
X146172858Y-77211758D01*
X146024898Y-77150470D01*
X145891742Y-77061498D01*
X145778502Y-76948258D01*
X145752062Y-76908687D01*
X145689529Y-76815100D01*
X145675646Y-76781583D01*
X145628242Y-76667142D01*
X145597000Y-76510075D01*
X145597000Y-76349925D01*
X145628242Y-76192858D01*
X145689530Y-76044898D01*
X145778502Y-75911742D01*
X145891742Y-75798502D01*
X146024898Y-75709530D01*
X146172858Y-75648242D01*
X146329925Y-75617000D01*
X146490075Y-75617000D01*
X146647142Y-75648242D01*
X146647142Y-75648242D01*
G37*
G36*
X144107142Y-75648242D02*
X144255102Y-75709530D01*
X144388258Y-75798502D01*
X144501498Y-75911742D01*
X144590470Y-76044898D01*
X144651758Y-76192858D01*
X144683000Y-76349925D01*
X144683000Y-76510075D01*
X144651758Y-76667142D01*
X144604354Y-76781583D01*
X144590471Y-76815100D01*
X144527939Y-76908687D01*
X144501498Y-76948258D01*
X144388258Y-77061498D01*
X144255102Y-77150470D01*
X144107142Y-77211758D01*
X143950075Y-77243000D01*
X143789925Y-77243000D01*
X143632858Y-77211758D01*
X143484898Y-77150470D01*
X143351742Y-77061498D01*
X143238502Y-76948258D01*
X143212062Y-76908687D01*
X143149529Y-76815100D01*
X143135646Y-76781583D01*
X143088242Y-76667142D01*
X143057000Y-76510075D01*
X143057000Y-76349925D01*
X143088242Y-76192858D01*
X143149530Y-76044898D01*
X143238502Y-75911742D01*
X143351742Y-75798502D01*
X143484898Y-75709530D01*
X143632858Y-75648242D01*
X143789925Y-75617000D01*
X143950075Y-75617000D01*
X144107142Y-75648242D01*
X144107142Y-75648242D01*
G37*
G36*
X141567142Y-75648242D02*
X141715102Y-75709530D01*
X141848258Y-75798502D01*
X141961498Y-75911742D01*
X142050470Y-76044898D01*
X142111758Y-76192858D01*
X142143000Y-76349925D01*
X142143000Y-76510075D01*
X142111758Y-76667142D01*
X142064354Y-76781583D01*
X142050471Y-76815100D01*
X141987939Y-76908687D01*
X141961498Y-76948258D01*
X141848258Y-77061498D01*
X141715102Y-77150470D01*
X141567142Y-77211758D01*
X141410075Y-77243000D01*
X141249925Y-77243000D01*
X141092858Y-77211758D01*
X140944898Y-77150470D01*
X140811742Y-77061498D01*
X140698502Y-76948258D01*
X140672062Y-76908687D01*
X140609529Y-76815100D01*
X140595646Y-76781583D01*
X140548242Y-76667142D01*
X140517000Y-76510075D01*
X140517000Y-76349925D01*
X140548242Y-76192858D01*
X140609530Y-76044898D01*
X140698502Y-75911742D01*
X140811742Y-75798502D01*
X140944898Y-75709530D01*
X141092858Y-75648242D01*
X141249925Y-75617000D01*
X141410075Y-75617000D01*
X141567142Y-75648242D01*
X141567142Y-75648242D01*
G37*
G36*
X139027142Y-75648242D02*
X139175102Y-75709530D01*
X139308258Y-75798502D01*
X139421498Y-75911742D01*
X139510470Y-76044898D01*
X139571758Y-76192858D01*
X139603000Y-76349925D01*
X139603000Y-76510075D01*
X139571758Y-76667142D01*
X139524354Y-76781583D01*
X139510471Y-76815100D01*
X139447939Y-76908687D01*
X139421498Y-76948258D01*
X139308258Y-77061498D01*
X139175102Y-77150470D01*
X139027142Y-77211758D01*
X138870075Y-77243000D01*
X138709925Y-77243000D01*
X138552858Y-77211758D01*
X138404898Y-77150470D01*
X138271742Y-77061498D01*
X138158502Y-76948258D01*
X138132062Y-76908687D01*
X138069529Y-76815100D01*
X138055646Y-76781583D01*
X138008242Y-76667142D01*
X137977000Y-76510075D01*
X137977000Y-76349925D01*
X138008242Y-76192858D01*
X138069530Y-76044898D01*
X138158502Y-75911742D01*
X138271742Y-75798502D01*
X138404898Y-75709530D01*
X138552858Y-75648242D01*
X138709925Y-75617000D01*
X138870075Y-75617000D01*
X139027142Y-75648242D01*
X139027142Y-75648242D01*
G37*
G36*
X136487142Y-75648242D02*
X136635102Y-75709530D01*
X136768258Y-75798502D01*
X136881498Y-75911742D01*
X136970470Y-76044898D01*
X137031758Y-76192858D01*
X137063000Y-76349925D01*
X137063000Y-76510075D01*
X137031758Y-76667142D01*
X136984354Y-76781583D01*
X136970471Y-76815100D01*
X136907939Y-76908687D01*
X136881498Y-76948258D01*
X136768258Y-77061498D01*
X136635102Y-77150470D01*
X136487142Y-77211758D01*
X136330075Y-77243000D01*
X136169925Y-77243000D01*
X136012858Y-77211758D01*
X135864898Y-77150470D01*
X135731742Y-77061498D01*
X135618502Y-76948258D01*
X135592062Y-76908687D01*
X135529529Y-76815100D01*
X135515646Y-76781583D01*
X135468242Y-76667142D01*
X135437000Y-76510075D01*
X135437000Y-76349925D01*
X135468242Y-76192858D01*
X135529530Y-76044898D01*
X135618502Y-75911742D01*
X135731742Y-75798502D01*
X135864898Y-75709530D01*
X136012858Y-75648242D01*
X136169925Y-75617000D01*
X136330075Y-75617000D01*
X136487142Y-75648242D01*
X136487142Y-75648242D01*
G37*
G36*
X179667142Y-75648242D02*
X179815102Y-75709530D01*
X179948258Y-75798502D01*
X180061498Y-75911742D01*
X180150470Y-76044898D01*
X180211758Y-76192858D01*
X180243000Y-76349925D01*
X180243000Y-76510075D01*
X180211758Y-76667142D01*
X180164354Y-76781583D01*
X180150471Y-76815100D01*
X180087939Y-76908687D01*
X180061498Y-76948258D01*
X179948258Y-77061498D01*
X179815102Y-77150470D01*
X179667142Y-77211758D01*
X179510075Y-77243000D01*
X179349925Y-77243000D01*
X179192858Y-77211758D01*
X179044898Y-77150470D01*
X178911742Y-77061498D01*
X178798502Y-76948258D01*
X178772062Y-76908687D01*
X178709529Y-76815100D01*
X178695646Y-76781583D01*
X178648242Y-76667142D01*
X178617000Y-76510075D01*
X178617000Y-76349925D01*
X178648242Y-76192858D01*
X178709530Y-76044898D01*
X178798502Y-75911742D01*
X178911742Y-75798502D01*
X179044898Y-75709530D01*
X179192858Y-75648242D01*
X179349925Y-75617000D01*
X179510075Y-75617000D01*
X179667142Y-75648242D01*
X179667142Y-75648242D01*
G37*
G36*
X184747142Y-75648242D02*
X184895102Y-75709530D01*
X185028258Y-75798502D01*
X185141498Y-75911742D01*
X185230470Y-76044898D01*
X185291758Y-76192858D01*
X185323000Y-76349925D01*
X185323000Y-76510075D01*
X185291758Y-76667142D01*
X185244354Y-76781583D01*
X185230471Y-76815100D01*
X185167939Y-76908687D01*
X185141498Y-76948258D01*
X185028258Y-77061498D01*
X184895102Y-77150470D01*
X184747142Y-77211758D01*
X184590075Y-77243000D01*
X184429925Y-77243000D01*
X184272858Y-77211758D01*
X184124898Y-77150470D01*
X183991742Y-77061498D01*
X183878502Y-76948258D01*
X183852062Y-76908687D01*
X183789529Y-76815100D01*
X183775646Y-76781583D01*
X183728242Y-76667142D01*
X183697000Y-76510075D01*
X183697000Y-76349925D01*
X183728242Y-76192858D01*
X183789530Y-76044898D01*
X183878502Y-75911742D01*
X183991742Y-75798502D01*
X184124898Y-75709530D01*
X184272858Y-75648242D01*
X184429925Y-75617000D01*
X184590075Y-75617000D01*
X184747142Y-75648242D01*
X184747142Y-75648242D01*
G37*
G36*
X174587142Y-75648242D02*
X174735102Y-75709530D01*
X174868258Y-75798502D01*
X174981498Y-75911742D01*
X175070470Y-76044898D01*
X175131758Y-76192858D01*
X175163000Y-76349925D01*
X175163000Y-76510075D01*
X175131758Y-76667142D01*
X175084354Y-76781583D01*
X175070471Y-76815100D01*
X175007939Y-76908687D01*
X174981498Y-76948258D01*
X174868258Y-77061498D01*
X174735102Y-77150470D01*
X174587142Y-77211758D01*
X174430075Y-77243000D01*
X174269925Y-77243000D01*
X174112858Y-77211758D01*
X173964898Y-77150470D01*
X173831742Y-77061498D01*
X173718502Y-76948258D01*
X173692062Y-76908687D01*
X173629529Y-76815100D01*
X173615646Y-76781583D01*
X173568242Y-76667142D01*
X173537000Y-76510075D01*
X173537000Y-76349925D01*
X173568242Y-76192858D01*
X173629530Y-76044898D01*
X173718502Y-75911742D01*
X173831742Y-75798502D01*
X173964898Y-75709530D01*
X174112858Y-75648242D01*
X174269925Y-75617000D01*
X174430075Y-75617000D01*
X174587142Y-75648242D01*
X174587142Y-75648242D01*
G37*
G36*
X191198413Y-76045525D02*
X191273456Y-76068290D01*
X191283425Y-76071314D01*
X191361774Y-76113193D01*
X191430448Y-76169552D01*
X191486807Y-76238226D01*
X191528686Y-76316575D01*
X191528687Y-76316579D01*
X191554475Y-76401587D01*
X191563182Y-76490000D01*
X191554475Y-76578413D01*
X191531710Y-76653456D01*
X191528686Y-76663425D01*
X191486807Y-76741774D01*
X191430448Y-76810448D01*
X191361774Y-76866807D01*
X191283425Y-76908686D01*
X191273456Y-76911710D01*
X191198413Y-76934475D01*
X191132158Y-76941000D01*
X190587842Y-76941000D01*
X190521587Y-76934475D01*
X190446544Y-76911710D01*
X190436575Y-76908686D01*
X190358226Y-76866807D01*
X190289552Y-76810448D01*
X190233193Y-76741774D01*
X190191314Y-76663425D01*
X190188290Y-76653456D01*
X190165525Y-76578413D01*
X190156818Y-76490000D01*
X190165525Y-76401587D01*
X190191313Y-76316579D01*
X190191314Y-76316575D01*
X190233193Y-76238226D01*
X190289552Y-76169552D01*
X190358226Y-76113193D01*
X190436575Y-76071314D01*
X190446544Y-76068290D01*
X190521587Y-76045525D01*
X190587842Y-76039000D01*
X191132158Y-76039000D01*
X191198413Y-76045525D01*
X191198413Y-76045525D01*
G37*
G36*
X139808445Y-69516254D02*
X140156593Y-69585504D01*
X140566249Y-69755189D01*
X140934929Y-70001534D01*
X141248466Y-70315071D01*
X141494811Y-70683751D01*
X141664496Y-71093407D01*
X141751000Y-71528296D01*
X141751000Y-71971704D01*
X141664496Y-72406593D01*
X141494811Y-72816249D01*
X141248466Y-73184929D01*
X140934929Y-73498466D01*
X140566249Y-73744811D01*
X140156593Y-73914496D01*
X139808445Y-73983746D01*
X139721706Y-74001000D01*
X139278294Y-74001000D01*
X139191555Y-73983746D01*
X138843407Y-73914496D01*
X138433751Y-73744811D01*
X138065071Y-73498466D01*
X137751534Y-73184929D01*
X137505189Y-72816249D01*
X137335504Y-72406593D01*
X137249000Y-71971704D01*
X137249000Y-71528296D01*
X137335504Y-71093407D01*
X137505189Y-70683751D01*
X137751534Y-70315071D01*
X138065071Y-70001534D01*
X138433751Y-69755189D01*
X138843407Y-69585504D01*
X139191555Y-69516254D01*
X139278294Y-69499000D01*
X139721706Y-69499000D01*
X139808445Y-69516254D01*
X139808445Y-69516254D01*
G37*
G36*
X191429683Y-70902725D02*
X191460144Y-70911966D01*
X191488223Y-70926975D01*
X191512831Y-70947169D01*
X191533025Y-70971777D01*
X191548034Y-70999856D01*
X191557275Y-71030317D01*
X191561000Y-71068140D01*
X191561000Y-71631860D01*
X191557275Y-71669683D01*
X191548034Y-71700144D01*
X191533025Y-71728223D01*
X191512831Y-71752831D01*
X191488223Y-71773025D01*
X191460144Y-71788034D01*
X191429683Y-71797275D01*
X191391860Y-71801000D01*
X190328140Y-71801000D01*
X190290317Y-71797275D01*
X190259856Y-71788034D01*
X190231777Y-71773025D01*
X190207169Y-71752831D01*
X190186975Y-71728223D01*
X190171966Y-71700144D01*
X190162725Y-71669683D01*
X190159000Y-71631860D01*
X190159000Y-71068140D01*
X190162725Y-71030317D01*
X190171966Y-70999856D01*
X190186975Y-70971777D01*
X190207169Y-70947169D01*
X190231777Y-70926975D01*
X190259856Y-70911966D01*
X190290317Y-70902725D01*
X190328140Y-70899000D01*
X191391860Y-70899000D01*
X191429683Y-70902725D01*
X191429683Y-70902725D01*
G37*
G36*
X191198413Y-69655525D02*
X191273456Y-69678290D01*
X191283425Y-69681314D01*
X191361774Y-69723193D01*
X191430448Y-69779552D01*
X191486807Y-69848226D01*
X191528686Y-69926575D01*
X191528687Y-69926579D01*
X191554475Y-70011587D01*
X191563182Y-70100000D01*
X191554475Y-70188413D01*
X191531710Y-70263456D01*
X191528686Y-70273425D01*
X191486807Y-70351774D01*
X191430448Y-70420448D01*
X191361774Y-70476807D01*
X191283425Y-70518686D01*
X191273456Y-70521710D01*
X191198413Y-70544475D01*
X191132158Y-70551000D01*
X190587842Y-70551000D01*
X190521587Y-70544475D01*
X190446544Y-70521710D01*
X190436575Y-70518686D01*
X190358226Y-70476807D01*
X190289552Y-70420448D01*
X190233193Y-70351774D01*
X190191314Y-70273425D01*
X190188290Y-70263456D01*
X190165525Y-70188413D01*
X190156818Y-70100000D01*
X190165525Y-70011587D01*
X190191313Y-69926579D01*
X190191314Y-69926575D01*
X190233193Y-69848226D01*
X190289552Y-69779552D01*
X190358226Y-69723193D01*
X190436575Y-69681314D01*
X190446544Y-69678290D01*
X190521587Y-69655525D01*
X190587842Y-69649000D01*
X191132158Y-69649000D01*
X191198413Y-69655525D01*
X191198413Y-69655525D01*
G37*
G36*
X166131000Y-70431000D02*
X164029000Y-70431000D01*
X164029000Y-69729000D01*
X166131000Y-69729000D01*
X166131000Y-70431000D01*
X166131000Y-70431000D01*
G37*
G36*
X156731000Y-70431000D02*
X154629000Y-70431000D01*
X154629000Y-69729000D01*
X156731000Y-69729000D01*
X156731000Y-70431000D01*
X156731000Y-70431000D01*
G37*
G36*
X191198413Y-68405525D02*
X191273456Y-68428290D01*
X191283425Y-68431314D01*
X191361774Y-68473193D01*
X191430448Y-68529552D01*
X191486807Y-68598226D01*
X191528686Y-68676575D01*
X191528687Y-68676579D01*
X191554475Y-68761587D01*
X191563182Y-68850000D01*
X191554475Y-68938413D01*
X191531710Y-69013456D01*
X191528686Y-69023425D01*
X191486807Y-69101774D01*
X191430448Y-69170448D01*
X191361774Y-69226807D01*
X191283425Y-69268686D01*
X191273456Y-69271710D01*
X191198413Y-69294475D01*
X191132158Y-69301000D01*
X190587842Y-69301000D01*
X190521587Y-69294475D01*
X190446544Y-69271710D01*
X190436575Y-69268686D01*
X190358226Y-69226807D01*
X190289552Y-69170448D01*
X190233193Y-69101774D01*
X190191314Y-69023425D01*
X190188290Y-69013456D01*
X190165525Y-68938413D01*
X190156818Y-68850000D01*
X190165525Y-68761587D01*
X190191313Y-68676579D01*
X190191314Y-68676575D01*
X190233193Y-68598226D01*
X190289552Y-68529552D01*
X190358226Y-68473193D01*
X190436575Y-68431314D01*
X190446544Y-68428290D01*
X190521587Y-68405525D01*
X190587842Y-68399000D01*
X191132158Y-68399000D01*
X191198413Y-68405525D01*
X191198413Y-68405525D01*
G37*
G36*
X185079683Y-68362725D02*
X185110144Y-68371966D01*
X185138223Y-68386975D01*
X185162831Y-68407169D01*
X185183025Y-68431777D01*
X185198034Y-68459856D01*
X185207275Y-68490317D01*
X185211000Y-68528140D01*
X185211000Y-69091860D01*
X185207275Y-69129683D01*
X185198034Y-69160144D01*
X185183025Y-69188223D01*
X185162831Y-69212831D01*
X185138223Y-69233025D01*
X185110144Y-69248034D01*
X185079683Y-69257275D01*
X185041860Y-69261000D01*
X183978140Y-69261000D01*
X183940317Y-69257275D01*
X183909856Y-69248034D01*
X183881777Y-69233025D01*
X183857169Y-69212831D01*
X183836975Y-69188223D01*
X183821966Y-69160144D01*
X183812725Y-69129683D01*
X183809000Y-69091860D01*
X183809000Y-68528140D01*
X183812725Y-68490317D01*
X183821966Y-68459856D01*
X183836975Y-68431777D01*
X183857169Y-68407169D01*
X183881777Y-68386975D01*
X183909856Y-68371966D01*
X183940317Y-68362725D01*
X183978140Y-68359000D01*
X185041860Y-68359000D01*
X185079683Y-68362725D01*
X185079683Y-68362725D01*
G37*
G36*
X179999683Y-68362725D02*
X180030144Y-68371966D01*
X180058223Y-68386975D01*
X180082831Y-68407169D01*
X180103025Y-68431777D01*
X180118034Y-68459856D01*
X180127275Y-68490317D01*
X180131000Y-68528140D01*
X180131000Y-69091860D01*
X180127275Y-69129683D01*
X180118034Y-69160144D01*
X180103025Y-69188223D01*
X180082831Y-69212831D01*
X180058223Y-69233025D01*
X180030144Y-69248034D01*
X179999683Y-69257275D01*
X179961860Y-69261000D01*
X178898140Y-69261000D01*
X178860317Y-69257275D01*
X178829856Y-69248034D01*
X178801777Y-69233025D01*
X178777169Y-69212831D01*
X178756975Y-69188223D01*
X178741966Y-69160144D01*
X178732725Y-69129683D01*
X178729000Y-69091860D01*
X178729000Y-68528140D01*
X178732725Y-68490317D01*
X178741966Y-68459856D01*
X178756975Y-68431777D01*
X178777169Y-68407169D01*
X178801777Y-68386975D01*
X178829856Y-68371966D01*
X178860317Y-68362725D01*
X178898140Y-68359000D01*
X179961860Y-68359000D01*
X179999683Y-68362725D01*
X179999683Y-68362725D01*
G37*
G36*
X174919683Y-68362725D02*
X174950144Y-68371966D01*
X174978223Y-68386975D01*
X175002831Y-68407169D01*
X175023025Y-68431777D01*
X175038034Y-68459856D01*
X175047275Y-68490317D01*
X175051000Y-68528140D01*
X175051000Y-69091860D01*
X175047275Y-69129683D01*
X175038034Y-69160144D01*
X175023025Y-69188223D01*
X175002831Y-69212831D01*
X174978223Y-69233025D01*
X174950144Y-69248034D01*
X174919683Y-69257275D01*
X174881860Y-69261000D01*
X173818140Y-69261000D01*
X173780317Y-69257275D01*
X173749856Y-69248034D01*
X173721777Y-69233025D01*
X173697169Y-69212831D01*
X173676975Y-69188223D01*
X173661966Y-69160144D01*
X173652725Y-69129683D01*
X173649000Y-69091860D01*
X173649000Y-68528140D01*
X173652725Y-68490317D01*
X173661966Y-68459856D01*
X173676975Y-68431777D01*
X173697169Y-68407169D01*
X173721777Y-68386975D01*
X173749856Y-68371966D01*
X173780317Y-68362725D01*
X173818140Y-68359000D01*
X174881860Y-68359000D01*
X174919683Y-68362725D01*
X174919683Y-68362725D01*
G37*
G36*
X169839683Y-68362725D02*
X169870144Y-68371966D01*
X169898223Y-68386975D01*
X169922831Y-68407169D01*
X169943025Y-68431777D01*
X169958034Y-68459856D01*
X169967275Y-68490317D01*
X169971000Y-68528140D01*
X169971000Y-69091860D01*
X169967275Y-69129683D01*
X169958034Y-69160144D01*
X169943025Y-69188223D01*
X169922831Y-69212831D01*
X169898223Y-69233025D01*
X169870144Y-69248034D01*
X169839683Y-69257275D01*
X169801860Y-69261000D01*
X168738140Y-69261000D01*
X168700317Y-69257275D01*
X168669856Y-69248034D01*
X168641777Y-69233025D01*
X168617169Y-69212831D01*
X168596975Y-69188223D01*
X168581966Y-69160144D01*
X168572725Y-69129683D01*
X168569000Y-69091860D01*
X168569000Y-68528140D01*
X168572725Y-68490317D01*
X168581966Y-68459856D01*
X168596975Y-68431777D01*
X168617169Y-68407169D01*
X168641777Y-68386975D01*
X168669856Y-68371966D01*
X168700317Y-68362725D01*
X168738140Y-68359000D01*
X169801860Y-68359000D01*
X169839683Y-68362725D01*
X169839683Y-68362725D01*
G37*
G36*
X166131000Y-69161000D02*
X164029000Y-69161000D01*
X164029000Y-68459000D01*
X166131000Y-68459000D01*
X166131000Y-69161000D01*
X166131000Y-69161000D01*
G37*
G36*
X156731000Y-69161000D02*
X154629000Y-69161000D01*
X154629000Y-68459000D01*
X156731000Y-68459000D01*
X156731000Y-69161000D01*
X156731000Y-69161000D01*
G37*
G36*
X191198413Y-67155525D02*
X191273456Y-67178290D01*
X191283425Y-67181314D01*
X191361774Y-67223193D01*
X191430448Y-67279552D01*
X191486807Y-67348226D01*
X191528686Y-67426575D01*
X191528687Y-67426579D01*
X191554475Y-67511587D01*
X191563182Y-67600000D01*
X191554475Y-67688413D01*
X191540821Y-67733421D01*
X191528686Y-67773425D01*
X191486807Y-67851774D01*
X191430448Y-67920448D01*
X191361774Y-67976807D01*
X191283425Y-68018686D01*
X191273456Y-68021710D01*
X191198413Y-68044475D01*
X191132158Y-68051000D01*
X190587842Y-68051000D01*
X190521587Y-68044475D01*
X190446544Y-68021710D01*
X190436575Y-68018686D01*
X190358226Y-67976807D01*
X190289552Y-67920448D01*
X190233193Y-67851774D01*
X190191314Y-67773425D01*
X190179179Y-67733421D01*
X190165525Y-67688413D01*
X190156818Y-67600000D01*
X190165525Y-67511587D01*
X190191313Y-67426579D01*
X190191314Y-67426575D01*
X190233193Y-67348226D01*
X190289552Y-67279552D01*
X190358226Y-67223193D01*
X190436575Y-67181314D01*
X190446544Y-67178290D01*
X190521587Y-67155525D01*
X190587842Y-67149000D01*
X191132158Y-67149000D01*
X191198413Y-67155525D01*
X191198413Y-67155525D01*
G37*
G36*
X174688413Y-67115525D02*
X174763456Y-67138290D01*
X174773425Y-67141314D01*
X174851774Y-67183193D01*
X174920448Y-67239552D01*
X174976807Y-67308226D01*
X175018686Y-67386575D01*
X175018687Y-67386579D01*
X175044475Y-67471587D01*
X175053182Y-67560000D01*
X175044475Y-67648413D01*
X175021710Y-67723456D01*
X175018686Y-67733425D01*
X174976807Y-67811774D01*
X174920448Y-67880448D01*
X174851774Y-67936807D01*
X174773425Y-67978686D01*
X174763456Y-67981710D01*
X174688413Y-68004475D01*
X174622158Y-68011000D01*
X174077842Y-68011000D01*
X174011587Y-68004475D01*
X173936544Y-67981710D01*
X173926575Y-67978686D01*
X173848226Y-67936807D01*
X173779552Y-67880448D01*
X173723193Y-67811774D01*
X173681314Y-67733425D01*
X173678290Y-67723456D01*
X173655525Y-67648413D01*
X173646818Y-67560000D01*
X173655525Y-67471587D01*
X173681313Y-67386579D01*
X173681314Y-67386575D01*
X173723193Y-67308226D01*
X173779552Y-67239552D01*
X173848226Y-67183193D01*
X173926575Y-67141314D01*
X173936544Y-67138290D01*
X174011587Y-67115525D01*
X174077842Y-67109000D01*
X174622158Y-67109000D01*
X174688413Y-67115525D01*
X174688413Y-67115525D01*
G37*
G36*
X179768413Y-67115525D02*
X179843456Y-67138290D01*
X179853425Y-67141314D01*
X179931774Y-67183193D01*
X180000448Y-67239552D01*
X180056807Y-67308226D01*
X180098686Y-67386575D01*
X180098687Y-67386579D01*
X180124475Y-67471587D01*
X180133182Y-67560000D01*
X180124475Y-67648413D01*
X180101710Y-67723456D01*
X180098686Y-67733425D01*
X180056807Y-67811774D01*
X180000448Y-67880448D01*
X179931774Y-67936807D01*
X179853425Y-67978686D01*
X179843456Y-67981710D01*
X179768413Y-68004475D01*
X179702158Y-68011000D01*
X179157842Y-68011000D01*
X179091587Y-68004475D01*
X179016544Y-67981710D01*
X179006575Y-67978686D01*
X178928226Y-67936807D01*
X178859552Y-67880448D01*
X178803193Y-67811774D01*
X178761314Y-67733425D01*
X178758290Y-67723456D01*
X178735525Y-67648413D01*
X178726818Y-67560000D01*
X178735525Y-67471587D01*
X178761313Y-67386579D01*
X178761314Y-67386575D01*
X178803193Y-67308226D01*
X178859552Y-67239552D01*
X178928226Y-67183193D01*
X179006575Y-67141314D01*
X179016544Y-67138290D01*
X179091587Y-67115525D01*
X179157842Y-67109000D01*
X179702158Y-67109000D01*
X179768413Y-67115525D01*
X179768413Y-67115525D01*
G37*
G36*
X184848413Y-67115525D02*
X184923456Y-67138290D01*
X184933425Y-67141314D01*
X185011774Y-67183193D01*
X185080448Y-67239552D01*
X185136807Y-67308226D01*
X185178686Y-67386575D01*
X185178687Y-67386579D01*
X185204475Y-67471587D01*
X185213182Y-67560000D01*
X185204475Y-67648413D01*
X185181710Y-67723456D01*
X185178686Y-67733425D01*
X185136807Y-67811774D01*
X185080448Y-67880448D01*
X185011774Y-67936807D01*
X184933425Y-67978686D01*
X184923456Y-67981710D01*
X184848413Y-68004475D01*
X184782158Y-68011000D01*
X184237842Y-68011000D01*
X184171587Y-68004475D01*
X184096544Y-67981710D01*
X184086575Y-67978686D01*
X184008226Y-67936807D01*
X183939552Y-67880448D01*
X183883193Y-67811774D01*
X183841314Y-67733425D01*
X183838290Y-67723456D01*
X183815525Y-67648413D01*
X183806818Y-67560000D01*
X183815525Y-67471587D01*
X183841313Y-67386579D01*
X183841314Y-67386575D01*
X183883193Y-67308226D01*
X183939552Y-67239552D01*
X184008226Y-67183193D01*
X184086575Y-67141314D01*
X184096544Y-67138290D01*
X184171587Y-67115525D01*
X184237842Y-67109000D01*
X184782158Y-67109000D01*
X184848413Y-67115525D01*
X184848413Y-67115525D01*
G37*
G36*
X169608413Y-67115525D02*
X169683456Y-67138290D01*
X169693425Y-67141314D01*
X169771774Y-67183193D01*
X169840448Y-67239552D01*
X169896807Y-67308226D01*
X169938686Y-67386575D01*
X169938687Y-67386579D01*
X169964475Y-67471587D01*
X169973182Y-67560000D01*
X169964475Y-67648413D01*
X169941710Y-67723456D01*
X169938686Y-67733425D01*
X169896807Y-67811774D01*
X169840448Y-67880448D01*
X169771774Y-67936807D01*
X169693425Y-67978686D01*
X169683456Y-67981710D01*
X169608413Y-68004475D01*
X169542158Y-68011000D01*
X168997842Y-68011000D01*
X168931587Y-68004475D01*
X168856544Y-67981710D01*
X168846575Y-67978686D01*
X168768226Y-67936807D01*
X168699552Y-67880448D01*
X168643193Y-67811774D01*
X168601314Y-67733425D01*
X168598290Y-67723456D01*
X168575525Y-67648413D01*
X168566818Y-67560000D01*
X168575525Y-67471587D01*
X168601313Y-67386579D01*
X168601314Y-67386575D01*
X168643193Y-67308226D01*
X168699552Y-67239552D01*
X168768226Y-67183193D01*
X168846575Y-67141314D01*
X168856544Y-67138290D01*
X168931587Y-67115525D01*
X168997842Y-67109000D01*
X169542158Y-67109000D01*
X169608413Y-67115525D01*
X169608413Y-67115525D01*
G37*
G36*
X156731000Y-67891000D02*
X154629000Y-67891000D01*
X154629000Y-67189000D01*
X156731000Y-67189000D01*
X156731000Y-67891000D01*
X156731000Y-67891000D01*
G37*
G36*
X166131000Y-67891000D02*
X164029000Y-67891000D01*
X164029000Y-67189000D01*
X166131000Y-67189000D01*
X166131000Y-67891000D01*
X166131000Y-67891000D01*
G37*
G36*
X169608413Y-65865525D02*
X169683456Y-65888290D01*
X169693425Y-65891314D01*
X169771774Y-65933193D01*
X169840448Y-65989552D01*
X169896807Y-66058226D01*
X169938686Y-66136575D01*
X169938687Y-66136579D01*
X169964475Y-66221587D01*
X169973182Y-66310000D01*
X169964475Y-66398413D01*
X169941710Y-66473456D01*
X169938686Y-66483425D01*
X169896807Y-66561774D01*
X169840448Y-66630448D01*
X169771774Y-66686807D01*
X169693425Y-66728686D01*
X169683456Y-66731710D01*
X169608413Y-66754475D01*
X169542158Y-66761000D01*
X168997842Y-66761000D01*
X168931587Y-66754475D01*
X168856544Y-66731710D01*
X168846575Y-66728686D01*
X168768226Y-66686807D01*
X168699552Y-66630448D01*
X168643193Y-66561774D01*
X168601314Y-66483425D01*
X168598290Y-66473456D01*
X168575525Y-66398413D01*
X168566818Y-66310000D01*
X168575525Y-66221587D01*
X168601313Y-66136579D01*
X168601314Y-66136575D01*
X168643193Y-66058226D01*
X168699552Y-65989552D01*
X168768226Y-65933193D01*
X168846575Y-65891314D01*
X168856544Y-65888290D01*
X168931587Y-65865525D01*
X168997842Y-65859000D01*
X169542158Y-65859000D01*
X169608413Y-65865525D01*
X169608413Y-65865525D01*
G37*
G36*
X174688413Y-65865525D02*
X174763456Y-65888290D01*
X174773425Y-65891314D01*
X174851774Y-65933193D01*
X174920448Y-65989552D01*
X174976807Y-66058226D01*
X175018686Y-66136575D01*
X175018687Y-66136579D01*
X175044475Y-66221587D01*
X175053182Y-66310000D01*
X175044475Y-66398413D01*
X175021710Y-66473456D01*
X175018686Y-66483425D01*
X174976807Y-66561774D01*
X174920448Y-66630448D01*
X174851774Y-66686807D01*
X174773425Y-66728686D01*
X174763456Y-66731710D01*
X174688413Y-66754475D01*
X174622158Y-66761000D01*
X174077842Y-66761000D01*
X174011587Y-66754475D01*
X173936544Y-66731710D01*
X173926575Y-66728686D01*
X173848226Y-66686807D01*
X173779552Y-66630448D01*
X173723193Y-66561774D01*
X173681314Y-66483425D01*
X173678290Y-66473456D01*
X173655525Y-66398413D01*
X173646818Y-66310000D01*
X173655525Y-66221587D01*
X173681313Y-66136579D01*
X173681314Y-66136575D01*
X173723193Y-66058226D01*
X173779552Y-65989552D01*
X173848226Y-65933193D01*
X173926575Y-65891314D01*
X173936544Y-65888290D01*
X174011587Y-65865525D01*
X174077842Y-65859000D01*
X174622158Y-65859000D01*
X174688413Y-65865525D01*
X174688413Y-65865525D01*
G37*
G36*
X179768413Y-65865525D02*
X179843456Y-65888290D01*
X179853425Y-65891314D01*
X179931774Y-65933193D01*
X180000448Y-65989552D01*
X180056807Y-66058226D01*
X180098686Y-66136575D01*
X180098687Y-66136579D01*
X180124475Y-66221587D01*
X180133182Y-66310000D01*
X180124475Y-66398413D01*
X180101710Y-66473456D01*
X180098686Y-66483425D01*
X180056807Y-66561774D01*
X180000448Y-66630448D01*
X179931774Y-66686807D01*
X179853425Y-66728686D01*
X179843456Y-66731710D01*
X179768413Y-66754475D01*
X179702158Y-66761000D01*
X179157842Y-66761000D01*
X179091587Y-66754475D01*
X179016544Y-66731710D01*
X179006575Y-66728686D01*
X178928226Y-66686807D01*
X178859552Y-66630448D01*
X178803193Y-66561774D01*
X178761314Y-66483425D01*
X178758290Y-66473456D01*
X178735525Y-66398413D01*
X178726818Y-66310000D01*
X178735525Y-66221587D01*
X178761313Y-66136579D01*
X178761314Y-66136575D01*
X178803193Y-66058226D01*
X178859552Y-65989552D01*
X178928226Y-65933193D01*
X179006575Y-65891314D01*
X179016544Y-65888290D01*
X179091587Y-65865525D01*
X179157842Y-65859000D01*
X179702158Y-65859000D01*
X179768413Y-65865525D01*
X179768413Y-65865525D01*
G37*
G36*
X184848413Y-65865525D02*
X184923456Y-65888290D01*
X184933425Y-65891314D01*
X185011774Y-65933193D01*
X185080448Y-65989552D01*
X185136807Y-66058226D01*
X185178686Y-66136575D01*
X185178687Y-66136579D01*
X185204475Y-66221587D01*
X185213182Y-66310000D01*
X185204475Y-66398413D01*
X185181710Y-66473456D01*
X185178686Y-66483425D01*
X185136807Y-66561774D01*
X185080448Y-66630448D01*
X185011774Y-66686807D01*
X184933425Y-66728686D01*
X184923456Y-66731710D01*
X184848413Y-66754475D01*
X184782158Y-66761000D01*
X184237842Y-66761000D01*
X184171587Y-66754475D01*
X184096544Y-66731710D01*
X184086575Y-66728686D01*
X184008226Y-66686807D01*
X183939552Y-66630448D01*
X183883193Y-66561774D01*
X183841314Y-66483425D01*
X183838290Y-66473456D01*
X183815525Y-66398413D01*
X183806818Y-66310000D01*
X183815525Y-66221587D01*
X183841313Y-66136579D01*
X183841314Y-66136575D01*
X183883193Y-66058226D01*
X183939552Y-65989552D01*
X184008226Y-65933193D01*
X184086575Y-65891314D01*
X184096544Y-65888290D01*
X184171587Y-65865525D01*
X184237842Y-65859000D01*
X184782158Y-65859000D01*
X184848413Y-65865525D01*
X184848413Y-65865525D01*
G37*
G36*
X166131000Y-66621000D02*
X164029000Y-66621000D01*
X164029000Y-65919000D01*
X166131000Y-65919000D01*
X166131000Y-66621000D01*
X166131000Y-66621000D01*
G37*
G36*
X156731000Y-66621000D02*
X154629000Y-66621000D01*
X154629000Y-65919000D01*
X156731000Y-65919000D01*
X156731000Y-66621000D01*
X156731000Y-66621000D01*
G37*
G36*
X166131000Y-65351000D02*
X164029000Y-65351000D01*
X164029000Y-64649000D01*
X166131000Y-64649000D01*
X166131000Y-65351000D01*
X166131000Y-65351000D01*
G37*
G36*
X156731000Y-65351000D02*
X154629000Y-65351000D01*
X154629000Y-64649000D01*
X156731000Y-64649000D01*
X156731000Y-65351000D01*
X156731000Y-65351000D01*
G37*
G36*
X188430443Y-62835519D02*
X188496627Y-62842037D01*
X188609853Y-62876384D01*
X188666467Y-62893557D01*
X188805087Y-62967652D01*
X188822991Y-62977222D01*
X188858729Y-63006552D01*
X188960186Y-63089814D01*
X189043448Y-63191271D01*
X189072778Y-63227009D01*
X189072779Y-63227011D01*
X189156443Y-63383533D01*
X189173033Y-63438225D01*
X189207963Y-63553373D01*
X189225359Y-63730000D01*
X189207963Y-63906627D01*
X189197301Y-63941774D01*
X189156443Y-64076467D01*
X189117840Y-64148687D01*
X189072778Y-64232991D01*
X189043448Y-64268729D01*
X188960186Y-64370186D01*
X188858729Y-64453448D01*
X188822991Y-64482778D01*
X188822989Y-64482779D01*
X188666467Y-64566443D01*
X188609853Y-64583616D01*
X188496627Y-64617963D01*
X188430442Y-64624482D01*
X188364260Y-64631000D01*
X188275740Y-64631000D01*
X188209558Y-64624482D01*
X188143373Y-64617963D01*
X188030147Y-64583616D01*
X187973533Y-64566443D01*
X187817011Y-64482779D01*
X187817009Y-64482778D01*
X187781271Y-64453448D01*
X187679814Y-64370186D01*
X187596552Y-64268729D01*
X187567222Y-64232991D01*
X187522160Y-64148687D01*
X187483557Y-64076467D01*
X187442699Y-63941774D01*
X187432037Y-63906627D01*
X187414641Y-63730000D01*
X187432037Y-63553373D01*
X187466967Y-63438225D01*
X187483557Y-63383533D01*
X187567221Y-63227011D01*
X187567222Y-63227009D01*
X187596552Y-63191271D01*
X187679814Y-63089814D01*
X187781271Y-63006552D01*
X187817009Y-62977222D01*
X187834913Y-62967652D01*
X187973533Y-62893557D01*
X188030147Y-62876384D01*
X188143373Y-62842037D01*
X188209557Y-62835519D01*
X188275740Y-62829000D01*
X188364260Y-62829000D01*
X188430443Y-62835519D01*
X188430443Y-62835519D01*
G37*
G36*
X191761000Y-64631000D02*
X189959000Y-64631000D01*
X189959000Y-62829000D01*
X191761000Y-62829000D01*
X191761000Y-64631000D01*
X191761000Y-64631000D01*
G37*
G36*
X146748413Y-63285525D02*
X146823456Y-63308290D01*
X146833425Y-63311314D01*
X146911774Y-63353193D01*
X146980448Y-63409552D01*
X147036807Y-63478226D01*
X147078686Y-63556575D01*
X147078687Y-63556579D01*
X147104475Y-63641587D01*
X147113182Y-63730000D01*
X147104475Y-63818413D01*
X147090821Y-63863421D01*
X147078686Y-63903425D01*
X147036807Y-63981774D01*
X146980448Y-64050448D01*
X146911774Y-64106807D01*
X146833425Y-64148686D01*
X146823456Y-64151710D01*
X146748413Y-64174475D01*
X146682158Y-64181000D01*
X146137842Y-64181000D01*
X146071587Y-64174475D01*
X145996544Y-64151710D01*
X145986575Y-64148686D01*
X145908226Y-64106807D01*
X145839552Y-64050448D01*
X145783193Y-63981774D01*
X145741314Y-63903425D01*
X145729179Y-63863421D01*
X145715525Y-63818413D01*
X145706818Y-63730000D01*
X145715525Y-63641587D01*
X145741313Y-63556579D01*
X145741314Y-63556575D01*
X145783193Y-63478226D01*
X145839552Y-63409552D01*
X145908226Y-63353193D01*
X145986575Y-63311314D01*
X145996544Y-63308290D01*
X146071587Y-63285525D01*
X146137842Y-63279000D01*
X146682158Y-63279000D01*
X146748413Y-63285525D01*
X146748413Y-63285525D01*
G37*
G36*
X151828413Y-63245525D02*
X151903456Y-63268290D01*
X151913425Y-63271314D01*
X151991774Y-63313193D01*
X152060448Y-63369552D01*
X152116807Y-63438226D01*
X152158686Y-63516575D01*
X152158687Y-63516579D01*
X152184475Y-63601587D01*
X152193182Y-63690000D01*
X152184475Y-63778413D01*
X152161710Y-63853456D01*
X152158686Y-63863425D01*
X152116807Y-63941774D01*
X152060448Y-64010448D01*
X151991774Y-64066807D01*
X151913425Y-64108686D01*
X151903456Y-64111710D01*
X151828413Y-64134475D01*
X151762158Y-64141000D01*
X151217842Y-64141000D01*
X151151587Y-64134475D01*
X151076544Y-64111710D01*
X151066575Y-64108686D01*
X150988226Y-64066807D01*
X150919552Y-64010448D01*
X150863193Y-63941774D01*
X150821314Y-63863425D01*
X150818290Y-63853456D01*
X150795525Y-63778413D01*
X150786818Y-63690000D01*
X150795525Y-63601587D01*
X150821313Y-63516579D01*
X150821314Y-63516575D01*
X150863193Y-63438226D01*
X150919552Y-63369552D01*
X150988226Y-63313193D01*
X151066575Y-63271314D01*
X151076544Y-63268290D01*
X151151587Y-63245525D01*
X151217842Y-63239000D01*
X151762158Y-63239000D01*
X151828413Y-63245525D01*
X151828413Y-63245525D01*
G37*
G36*
X141668413Y-63245525D02*
X141743456Y-63268290D01*
X141753425Y-63271314D01*
X141831774Y-63313193D01*
X141900448Y-63369552D01*
X141956807Y-63438226D01*
X141998686Y-63516575D01*
X141998687Y-63516579D01*
X142024475Y-63601587D01*
X142033182Y-63690000D01*
X142024475Y-63778413D01*
X142001710Y-63853456D01*
X141998686Y-63863425D01*
X141956807Y-63941774D01*
X141900448Y-64010448D01*
X141831774Y-64066807D01*
X141753425Y-64108686D01*
X141743456Y-64111710D01*
X141668413Y-64134475D01*
X141602158Y-64141000D01*
X141057842Y-64141000D01*
X140991587Y-64134475D01*
X140916544Y-64111710D01*
X140906575Y-64108686D01*
X140828226Y-64066807D01*
X140759552Y-64010448D01*
X140703193Y-63941774D01*
X140661314Y-63863425D01*
X140658290Y-63853456D01*
X140635525Y-63778413D01*
X140626818Y-63690000D01*
X140635525Y-63601587D01*
X140661313Y-63516579D01*
X140661314Y-63516575D01*
X140703193Y-63438226D01*
X140759552Y-63369552D01*
X140828226Y-63313193D01*
X140906575Y-63271314D01*
X140916544Y-63268290D01*
X140991587Y-63245525D01*
X141057842Y-63239000D01*
X141602158Y-63239000D01*
X141668413Y-63245525D01*
X141668413Y-63245525D01*
G37*
G36*
X136588413Y-63245525D02*
X136663456Y-63268290D01*
X136673425Y-63271314D01*
X136751774Y-63313193D01*
X136820448Y-63369552D01*
X136876807Y-63438226D01*
X136918686Y-63516575D01*
X136918687Y-63516579D01*
X136944475Y-63601587D01*
X136953182Y-63690000D01*
X136944475Y-63778413D01*
X136921710Y-63853456D01*
X136918686Y-63863425D01*
X136876807Y-63941774D01*
X136820448Y-64010448D01*
X136751774Y-64066807D01*
X136673425Y-64108686D01*
X136663456Y-64111710D01*
X136588413Y-64134475D01*
X136522158Y-64141000D01*
X135977842Y-64141000D01*
X135911587Y-64134475D01*
X135836544Y-64111710D01*
X135826575Y-64108686D01*
X135748226Y-64066807D01*
X135679552Y-64010448D01*
X135623193Y-63941774D01*
X135581314Y-63863425D01*
X135578290Y-63853456D01*
X135555525Y-63778413D01*
X135546818Y-63690000D01*
X135555525Y-63601587D01*
X135581313Y-63516579D01*
X135581314Y-63516575D01*
X135623193Y-63438226D01*
X135679552Y-63369552D01*
X135748226Y-63313193D01*
X135826575Y-63271314D01*
X135836544Y-63268290D01*
X135911587Y-63245525D01*
X135977842Y-63239000D01*
X136522158Y-63239000D01*
X136588413Y-63245525D01*
X136588413Y-63245525D01*
G37*
G36*
X156731000Y-64081000D02*
X154629000Y-64081000D01*
X154629000Y-63379000D01*
X156731000Y-63379000D01*
X156731000Y-64081000D01*
X156731000Y-64081000D01*
G37*
G36*
X166131000Y-64081000D02*
X164029000Y-64081000D01*
X164029000Y-63379000D01*
X166131000Y-63379000D01*
X166131000Y-64081000D01*
X166131000Y-64081000D01*
G37*
G36*
X146748413Y-62035525D02*
X146823456Y-62058290D01*
X146833425Y-62061314D01*
X146911774Y-62103193D01*
X146980448Y-62159552D01*
X147036807Y-62228226D01*
X147078686Y-62306575D01*
X147078687Y-62306579D01*
X147104475Y-62391587D01*
X147113182Y-62480000D01*
X147104475Y-62568413D01*
X147090821Y-62613421D01*
X147078686Y-62653425D01*
X147036807Y-62731774D01*
X146980448Y-62800448D01*
X146911774Y-62856807D01*
X146833425Y-62898686D01*
X146823456Y-62901710D01*
X146748413Y-62924475D01*
X146682158Y-62931000D01*
X146137842Y-62931000D01*
X146071587Y-62924475D01*
X145996544Y-62901710D01*
X145986575Y-62898686D01*
X145908226Y-62856807D01*
X145839552Y-62800448D01*
X145783193Y-62731774D01*
X145741314Y-62653425D01*
X145729179Y-62613421D01*
X145715525Y-62568413D01*
X145706818Y-62480000D01*
X145715525Y-62391587D01*
X145741313Y-62306579D01*
X145741314Y-62306575D01*
X145783193Y-62228226D01*
X145839552Y-62159552D01*
X145908226Y-62103193D01*
X145986575Y-62061314D01*
X145996544Y-62058290D01*
X146071587Y-62035525D01*
X146137842Y-62029000D01*
X146682158Y-62029000D01*
X146748413Y-62035525D01*
X146748413Y-62035525D01*
G37*
G36*
X141668413Y-61995525D02*
X141743456Y-62018290D01*
X141753425Y-62021314D01*
X141831774Y-62063193D01*
X141900448Y-62119552D01*
X141956807Y-62188226D01*
X141998686Y-62266575D01*
X141998687Y-62266579D01*
X142024475Y-62351587D01*
X142033182Y-62440000D01*
X142024475Y-62528413D01*
X142001710Y-62603456D01*
X141998686Y-62613425D01*
X141956807Y-62691774D01*
X141900448Y-62760448D01*
X141831774Y-62816807D01*
X141753425Y-62858686D01*
X141743456Y-62861710D01*
X141668413Y-62884475D01*
X141602158Y-62891000D01*
X141057842Y-62891000D01*
X140991587Y-62884475D01*
X140916544Y-62861710D01*
X140906575Y-62858686D01*
X140828226Y-62816807D01*
X140759552Y-62760448D01*
X140703193Y-62691774D01*
X140661314Y-62613425D01*
X140658290Y-62603456D01*
X140635525Y-62528413D01*
X140626818Y-62440000D01*
X140635525Y-62351587D01*
X140661313Y-62266579D01*
X140661314Y-62266575D01*
X140703193Y-62188226D01*
X140759552Y-62119552D01*
X140828226Y-62063193D01*
X140906575Y-62021314D01*
X140916544Y-62018290D01*
X140991587Y-61995525D01*
X141057842Y-61989000D01*
X141602158Y-61989000D01*
X141668413Y-61995525D01*
X141668413Y-61995525D01*
G37*
G36*
X151828413Y-61995525D02*
X151903456Y-62018290D01*
X151913425Y-62021314D01*
X151991774Y-62063193D01*
X152060448Y-62119552D01*
X152116807Y-62188226D01*
X152158686Y-62266575D01*
X152158687Y-62266579D01*
X152184475Y-62351587D01*
X152193182Y-62440000D01*
X152184475Y-62528413D01*
X152161710Y-62603456D01*
X152158686Y-62613425D01*
X152116807Y-62691774D01*
X152060448Y-62760448D01*
X151991774Y-62816807D01*
X151913425Y-62858686D01*
X151903456Y-62861710D01*
X151828413Y-62884475D01*
X151762158Y-62891000D01*
X151217842Y-62891000D01*
X151151587Y-62884475D01*
X151076544Y-62861710D01*
X151066575Y-62858686D01*
X150988226Y-62816807D01*
X150919552Y-62760448D01*
X150863193Y-62691774D01*
X150821314Y-62613425D01*
X150818290Y-62603456D01*
X150795525Y-62528413D01*
X150786818Y-62440000D01*
X150795525Y-62351587D01*
X150821313Y-62266579D01*
X150821314Y-62266575D01*
X150863193Y-62188226D01*
X150919552Y-62119552D01*
X150988226Y-62063193D01*
X151066575Y-62021314D01*
X151076544Y-62018290D01*
X151151587Y-61995525D01*
X151217842Y-61989000D01*
X151762158Y-61989000D01*
X151828413Y-61995525D01*
X151828413Y-61995525D01*
G37*
G36*
X136588413Y-61995525D02*
X136663456Y-62018290D01*
X136673425Y-62021314D01*
X136751774Y-62063193D01*
X136820448Y-62119552D01*
X136876807Y-62188226D01*
X136918686Y-62266575D01*
X136918687Y-62266579D01*
X136944475Y-62351587D01*
X136953182Y-62440000D01*
X136944475Y-62528413D01*
X136921710Y-62603456D01*
X136918686Y-62613425D01*
X136876807Y-62691774D01*
X136820448Y-62760448D01*
X136751774Y-62816807D01*
X136673425Y-62858686D01*
X136663456Y-62861710D01*
X136588413Y-62884475D01*
X136522158Y-62891000D01*
X135977842Y-62891000D01*
X135911587Y-62884475D01*
X135836544Y-62861710D01*
X135826575Y-62858686D01*
X135748226Y-62816807D01*
X135679552Y-62760448D01*
X135623193Y-62691774D01*
X135581314Y-62613425D01*
X135578290Y-62603456D01*
X135555525Y-62528413D01*
X135546818Y-62440000D01*
X135555525Y-62351587D01*
X135581313Y-62266579D01*
X135581314Y-62266575D01*
X135623193Y-62188226D01*
X135679552Y-62119552D01*
X135748226Y-62063193D01*
X135826575Y-62021314D01*
X135836544Y-62018290D01*
X135911587Y-61995525D01*
X135977842Y-61989000D01*
X136522158Y-61989000D01*
X136588413Y-61995525D01*
X136588413Y-61995525D01*
G37*
G36*
X166131000Y-62811000D02*
X164029000Y-62811000D01*
X164029000Y-62109000D01*
X166131000Y-62109000D01*
X166131000Y-62811000D01*
X166131000Y-62811000D01*
G37*
G36*
X156731000Y-62811000D02*
X154629000Y-62811000D01*
X154629000Y-62109000D01*
X156731000Y-62109000D01*
X156731000Y-62811000D01*
X156731000Y-62811000D01*
G37*
G36*
X146979683Y-60782725D02*
X147010144Y-60791966D01*
X147038223Y-60806975D01*
X147062831Y-60827169D01*
X147083025Y-60851777D01*
X147098034Y-60879856D01*
X147107275Y-60910317D01*
X147111000Y-60948140D01*
X147111000Y-61511860D01*
X147107275Y-61549683D01*
X147098034Y-61580144D01*
X147083025Y-61608223D01*
X147062831Y-61632831D01*
X147038223Y-61653025D01*
X147010144Y-61668034D01*
X146979683Y-61677275D01*
X146941860Y-61681000D01*
X145878140Y-61681000D01*
X145840317Y-61677275D01*
X145809856Y-61668034D01*
X145781777Y-61653025D01*
X145757169Y-61632831D01*
X145736975Y-61608223D01*
X145721966Y-61580144D01*
X145712725Y-61549683D01*
X145709000Y-61511860D01*
X145709000Y-60948140D01*
X145712725Y-60910317D01*
X145721966Y-60879856D01*
X145736975Y-60851777D01*
X145757169Y-60827169D01*
X145781777Y-60806975D01*
X145809856Y-60791966D01*
X145840317Y-60782725D01*
X145878140Y-60779000D01*
X146941860Y-60779000D01*
X146979683Y-60782725D01*
X146979683Y-60782725D01*
G37*
G36*
X152059683Y-60742725D02*
X152090144Y-60751966D01*
X152118223Y-60766975D01*
X152142831Y-60787169D01*
X152163025Y-60811777D01*
X152178034Y-60839856D01*
X152187275Y-60870317D01*
X152191000Y-60908140D01*
X152191000Y-61471860D01*
X152187275Y-61509683D01*
X152178034Y-61540144D01*
X152163025Y-61568223D01*
X152142831Y-61592831D01*
X152118223Y-61613025D01*
X152090144Y-61628034D01*
X152059683Y-61637275D01*
X152021860Y-61641000D01*
X150958140Y-61641000D01*
X150920317Y-61637275D01*
X150889856Y-61628034D01*
X150861777Y-61613025D01*
X150837169Y-61592831D01*
X150816975Y-61568223D01*
X150801966Y-61540144D01*
X150792725Y-61509683D01*
X150789000Y-61471860D01*
X150789000Y-60908140D01*
X150792725Y-60870317D01*
X150801966Y-60839856D01*
X150816975Y-60811777D01*
X150837169Y-60787169D01*
X150861777Y-60766975D01*
X150889856Y-60751966D01*
X150920317Y-60742725D01*
X150958140Y-60739000D01*
X152021860Y-60739000D01*
X152059683Y-60742725D01*
X152059683Y-60742725D01*
G37*
G36*
X141899683Y-60742725D02*
X141930144Y-60751966D01*
X141958223Y-60766975D01*
X141982831Y-60787169D01*
X142003025Y-60811777D01*
X142018034Y-60839856D01*
X142027275Y-60870317D01*
X142031000Y-60908140D01*
X142031000Y-61471860D01*
X142027275Y-61509683D01*
X142018034Y-61540144D01*
X142003025Y-61568223D01*
X141982831Y-61592831D01*
X141958223Y-61613025D01*
X141930144Y-61628034D01*
X141899683Y-61637275D01*
X141861860Y-61641000D01*
X140798140Y-61641000D01*
X140760317Y-61637275D01*
X140729856Y-61628034D01*
X140701777Y-61613025D01*
X140677169Y-61592831D01*
X140656975Y-61568223D01*
X140641966Y-61540144D01*
X140632725Y-61509683D01*
X140629000Y-61471860D01*
X140629000Y-60908140D01*
X140632725Y-60870317D01*
X140641966Y-60839856D01*
X140656975Y-60811777D01*
X140677169Y-60787169D01*
X140701777Y-60766975D01*
X140729856Y-60751966D01*
X140760317Y-60742725D01*
X140798140Y-60739000D01*
X141861860Y-60739000D01*
X141899683Y-60742725D01*
X141899683Y-60742725D01*
G37*
G36*
X136819683Y-60742725D02*
X136850144Y-60751966D01*
X136878223Y-60766975D01*
X136902831Y-60787169D01*
X136923025Y-60811777D01*
X136938034Y-60839856D01*
X136947275Y-60870317D01*
X136951000Y-60908140D01*
X136951000Y-61471860D01*
X136947275Y-61509683D01*
X136938034Y-61540144D01*
X136923025Y-61568223D01*
X136902831Y-61592831D01*
X136878223Y-61613025D01*
X136850144Y-61628034D01*
X136819683Y-61637275D01*
X136781860Y-61641000D01*
X135718140Y-61641000D01*
X135680317Y-61637275D01*
X135649856Y-61628034D01*
X135621777Y-61613025D01*
X135597169Y-61592831D01*
X135576975Y-61568223D01*
X135561966Y-61540144D01*
X135552725Y-61509683D01*
X135549000Y-61471860D01*
X135549000Y-60908140D01*
X135552725Y-60870317D01*
X135561966Y-60839856D01*
X135576975Y-60811777D01*
X135597169Y-60787169D01*
X135621777Y-60766975D01*
X135649856Y-60751966D01*
X135680317Y-60742725D01*
X135718140Y-60739000D01*
X136781860Y-60739000D01*
X136819683Y-60742725D01*
X136819683Y-60742725D01*
G37*
G36*
X156731000Y-61541000D02*
X154629000Y-61541000D01*
X154629000Y-60839000D01*
X156731000Y-60839000D01*
X156731000Y-61541000D01*
X156731000Y-61541000D01*
G37*
G36*
X166131000Y-61541000D02*
X164029000Y-61541000D01*
X164029000Y-60839000D01*
X166131000Y-60839000D01*
X166131000Y-61541000D01*
X166131000Y-61541000D01*
G37*
G36*
X156731000Y-60271000D02*
X154629000Y-60271000D01*
X154629000Y-59569000D01*
X156731000Y-59569000D01*
X156731000Y-60271000D01*
X156731000Y-60271000D01*
G37*
G36*
X166131000Y-60271000D02*
X164029000Y-60271000D01*
X164029000Y-59569000D01*
X166131000Y-59569000D01*
X166131000Y-60271000D01*
X166131000Y-60271000D01*
G37*
G36*
X138956821Y-56541313D02*
X138956824Y-56541314D01*
X138956825Y-56541314D01*
X139117239Y-56589975D01*
X139117241Y-56589976D01*
X139117244Y-56589977D01*
X139265078Y-56668995D01*
X139394659Y-56775341D01*
X139501005Y-56904922D01*
X139580023Y-57052756D01*
X139628687Y-57213179D01*
X139645117Y-57380000D01*
X139628687Y-57546821D01*
X139580023Y-57707244D01*
X139501005Y-57855078D01*
X139394659Y-57984659D01*
X139265078Y-58091005D01*
X139117244Y-58170023D01*
X139117241Y-58170024D01*
X139117239Y-58170025D01*
X138956825Y-58218686D01*
X138956824Y-58218686D01*
X138956821Y-58218687D01*
X138831804Y-58231000D01*
X138748196Y-58231000D01*
X138623179Y-58218687D01*
X138623176Y-58218686D01*
X138623175Y-58218686D01*
X138462761Y-58170025D01*
X138462759Y-58170024D01*
X138462756Y-58170023D01*
X138314922Y-58091005D01*
X138185341Y-57984659D01*
X138078995Y-57855078D01*
X137999977Y-57707244D01*
X137951313Y-57546821D01*
X137934883Y-57380000D01*
X137951313Y-57213179D01*
X137999977Y-57052756D01*
X138078995Y-56904922D01*
X138185341Y-56775341D01*
X138314922Y-56668995D01*
X138462756Y-56589977D01*
X138462759Y-56589976D01*
X138462761Y-56589975D01*
X138623175Y-56541314D01*
X138623176Y-56541314D01*
X138623179Y-56541313D01*
X138748196Y-56529000D01*
X138831804Y-56529000D01*
X138956821Y-56541313D01*
X138956821Y-56541313D01*
G37*
G36*
X146576821Y-56541313D02*
X146576824Y-56541314D01*
X146576825Y-56541314D01*
X146737239Y-56589975D01*
X146737241Y-56589976D01*
X146737244Y-56589977D01*
X146885078Y-56668995D01*
X147014659Y-56775341D01*
X147121005Y-56904922D01*
X147200023Y-57052756D01*
X147248687Y-57213179D01*
X147265117Y-57380000D01*
X147248687Y-57546821D01*
X147200023Y-57707244D01*
X147121005Y-57855078D01*
X147014659Y-57984659D01*
X146885078Y-58091005D01*
X146737244Y-58170023D01*
X146737241Y-58170024D01*
X146737239Y-58170025D01*
X146576825Y-58218686D01*
X146576824Y-58218686D01*
X146576821Y-58218687D01*
X146451804Y-58231000D01*
X146368196Y-58231000D01*
X146243179Y-58218687D01*
X146243176Y-58218686D01*
X146243175Y-58218686D01*
X146082761Y-58170025D01*
X146082759Y-58170024D01*
X146082756Y-58170023D01*
X145934922Y-58091005D01*
X145805341Y-57984659D01*
X145698995Y-57855078D01*
X145619977Y-57707244D01*
X145571313Y-57546821D01*
X145554883Y-57380000D01*
X145571313Y-57213179D01*
X145619977Y-57052756D01*
X145698995Y-56904922D01*
X145805341Y-56775341D01*
X145934922Y-56668995D01*
X146082756Y-56589977D01*
X146082759Y-56589976D01*
X146082761Y-56589975D01*
X146243175Y-56541314D01*
X146243176Y-56541314D01*
X146243179Y-56541313D01*
X146368196Y-56529000D01*
X146451804Y-56529000D01*
X146576821Y-56541313D01*
X146576821Y-56541313D01*
G37*
G36*
X144036821Y-56541313D02*
X144036824Y-56541314D01*
X144036825Y-56541314D01*
X144197239Y-56589975D01*
X144197241Y-56589976D01*
X144197244Y-56589977D01*
X144345078Y-56668995D01*
X144474659Y-56775341D01*
X144581005Y-56904922D01*
X144660023Y-57052756D01*
X144708687Y-57213179D01*
X144725117Y-57380000D01*
X144708687Y-57546821D01*
X144660023Y-57707244D01*
X144581005Y-57855078D01*
X144474659Y-57984659D01*
X144345078Y-58091005D01*
X144197244Y-58170023D01*
X144197241Y-58170024D01*
X144197239Y-58170025D01*
X144036825Y-58218686D01*
X144036824Y-58218686D01*
X144036821Y-58218687D01*
X143911804Y-58231000D01*
X143828196Y-58231000D01*
X143703179Y-58218687D01*
X143703176Y-58218686D01*
X143703175Y-58218686D01*
X143542761Y-58170025D01*
X143542759Y-58170024D01*
X143542756Y-58170023D01*
X143394922Y-58091005D01*
X143265341Y-57984659D01*
X143158995Y-57855078D01*
X143079977Y-57707244D01*
X143031313Y-57546821D01*
X143014883Y-57380000D01*
X143031313Y-57213179D01*
X143079977Y-57052756D01*
X143158995Y-56904922D01*
X143265341Y-56775341D01*
X143394922Y-56668995D01*
X143542756Y-56589977D01*
X143542759Y-56589976D01*
X143542761Y-56589975D01*
X143703175Y-56541314D01*
X143703176Y-56541314D01*
X143703179Y-56541313D01*
X143828196Y-56529000D01*
X143911804Y-56529000D01*
X144036821Y-56541313D01*
X144036821Y-56541313D01*
G37*
G36*
X141496821Y-56541313D02*
X141496824Y-56541314D01*
X141496825Y-56541314D01*
X141657239Y-56589975D01*
X141657241Y-56589976D01*
X141657244Y-56589977D01*
X141805078Y-56668995D01*
X141934659Y-56775341D01*
X142041005Y-56904922D01*
X142120023Y-57052756D01*
X142168687Y-57213179D01*
X142185117Y-57380000D01*
X142168687Y-57546821D01*
X142120023Y-57707244D01*
X142041005Y-57855078D01*
X141934659Y-57984659D01*
X141805078Y-58091005D01*
X141657244Y-58170023D01*
X141657241Y-58170024D01*
X141657239Y-58170025D01*
X141496825Y-58218686D01*
X141496824Y-58218686D01*
X141496821Y-58218687D01*
X141371804Y-58231000D01*
X141288196Y-58231000D01*
X141163179Y-58218687D01*
X141163176Y-58218686D01*
X141163175Y-58218686D01*
X141002761Y-58170025D01*
X141002759Y-58170024D01*
X141002756Y-58170023D01*
X140854922Y-58091005D01*
X140725341Y-57984659D01*
X140618995Y-57855078D01*
X140539977Y-57707244D01*
X140491313Y-57546821D01*
X140474883Y-57380000D01*
X140491313Y-57213179D01*
X140539977Y-57052756D01*
X140618995Y-56904922D01*
X140725341Y-56775341D01*
X140854922Y-56668995D01*
X141002756Y-56589977D01*
X141002759Y-56589976D01*
X141002761Y-56589975D01*
X141163175Y-56541314D01*
X141163176Y-56541314D01*
X141163179Y-56541313D01*
X141288196Y-56529000D01*
X141371804Y-56529000D01*
X141496821Y-56541313D01*
X141496821Y-56541313D01*
G37*
G36*
X137101000Y-58231000D02*
X135399000Y-58231000D01*
X135399000Y-56529000D01*
X137101000Y-56529000D01*
X137101000Y-58231000D01*
X137101000Y-58231000D01*
G37*
M02*
