G04 #@! TF.GenerationSoftware,KiCad,Pcbnew,5.0.2*
G04 #@! TF.CreationDate,2019-09-26T16:07:35-03:00*
G04 #@! TF.ProjectId,ControleMix,436f6e74-726f-46c6-954d-69782e6b6963,rev?*
G04 #@! TF.SameCoordinates,Original*
G04 #@! TF.FileFunction,Copper,L1,Top*
G04 #@! TF.FilePolarity,Positive*
%FSLAX46Y46*%
G04 Gerber Fmt 4.6, Leading zero omitted, Abs format (unit mm)*
G04 Created by KiCad (PCBNEW 5.0.2) date qui 26 set 2019 16:07:35 -03*
%MOMM*%
%LPD*%
G01*
G04 APERTURE LIST*
G04 #@! TA.AperFunction,NonConductor*
%ADD10C,0.200000*%
G04 #@! TD*
G04 #@! TA.AperFunction,ComponentPad*
%ADD11R,1.600000X1.600000*%
G04 #@! TD*
G04 #@! TA.AperFunction,ComponentPad*
%ADD12O,1.600000X1.600000*%
G04 #@! TD*
G04 #@! TA.AperFunction,ComponentPad*
%ADD13C,4.400000*%
G04 #@! TD*
G04 #@! TA.AperFunction,ComponentPad*
%ADD14C,1.524000*%
G04 #@! TD*
G04 #@! TA.AperFunction,ComponentPad*
%ADD15R,1.700000X1.700000*%
G04 #@! TD*
G04 #@! TA.AperFunction,ComponentPad*
%ADD16O,1.700000X1.700000*%
G04 #@! TD*
G04 #@! TA.AperFunction,SMDPad,CuDef*
%ADD17R,2.000000X0.600000*%
G04 #@! TD*
G04 #@! TA.AperFunction,Conductor*
%ADD18C,0.100000*%
G04 #@! TD*
G04 #@! TA.AperFunction,ComponentPad*
%ADD19C,0.800000*%
G04 #@! TD*
G04 #@! TA.AperFunction,ComponentPad*
%ADD20O,1.300000X0.800000*%
G04 #@! TD*
G04 #@! TA.AperFunction,SMDPad,CuDef*
%ADD21R,3.500000X2.700000*%
G04 #@! TD*
G04 #@! TA.AperFunction,SMDPad,CuDef*
%ADD22O,3.500000X2.700000*%
G04 #@! TD*
G04 #@! TA.AperFunction,ViaPad*
%ADD23C,0.700000*%
G04 #@! TD*
G04 #@! TA.AperFunction,Conductor*
%ADD24C,0.800000*%
G04 #@! TD*
G04 #@! TA.AperFunction,Conductor*
%ADD25C,0.600000*%
G04 #@! TD*
G04 #@! TA.AperFunction,Conductor*
%ADD26C,0.700000*%
G04 #@! TD*
G04 #@! TA.AperFunction,Conductor*
%ADD27C,1.000000*%
G04 #@! TD*
G04 #@! TA.AperFunction,Conductor*
%ADD28C,0.254000*%
G04 #@! TD*
G04 APERTURE END LIST*
D10*
X153873809Y-55980952D02*
X153835714Y-55942857D01*
X153759523Y-55904761D01*
X153683333Y-55904761D01*
X153607142Y-55942857D01*
X153569047Y-55980952D01*
X153530952Y-56057142D01*
X153530952Y-56133333D01*
X153569047Y-56209523D01*
X153607142Y-56247619D01*
X153683333Y-56285714D01*
X153759523Y-56285714D01*
X153835714Y-56247619D01*
X153873809Y-56209523D01*
X153873809Y-55904761D02*
X153873809Y-56209523D01*
X153911904Y-56247619D01*
X153950000Y-56247619D01*
X154026190Y-56209523D01*
X154064285Y-56133333D01*
X154064285Y-55942857D01*
X153988095Y-55828571D01*
X153873809Y-55752380D01*
X153721428Y-55714285D01*
X153569047Y-55752380D01*
X153454761Y-55828571D01*
X153378571Y-55942857D01*
X153340476Y-56095238D01*
X153378571Y-56247619D01*
X153454761Y-56361904D01*
X153569047Y-56438095D01*
X153721428Y-56476190D01*
X153873809Y-56438095D01*
X153988095Y-56361904D01*
X154407142Y-55828571D02*
X154407142Y-56628571D01*
X154407142Y-55866666D02*
X154483333Y-55828571D01*
X154635714Y-55828571D01*
X154711904Y-55866666D01*
X154750000Y-55904761D01*
X154788095Y-55980952D01*
X154788095Y-56209523D01*
X154750000Y-56285714D01*
X154711904Y-56323809D01*
X154635714Y-56361904D01*
X154483333Y-56361904D01*
X154407142Y-56323809D01*
X155435714Y-56323809D02*
X155359523Y-56361904D01*
X155207142Y-56361904D01*
X155130952Y-56323809D01*
X155092857Y-56247619D01*
X155092857Y-55942857D01*
X155130952Y-55866666D01*
X155207142Y-55828571D01*
X155359523Y-55828571D01*
X155435714Y-55866666D01*
X155473809Y-55942857D01*
X155473809Y-56019047D01*
X155092857Y-56095238D01*
X156159523Y-56361904D02*
X156159523Y-55561904D01*
X156159523Y-56323809D02*
X156083333Y-56361904D01*
X155930952Y-56361904D01*
X155854761Y-56323809D01*
X155816666Y-56285714D01*
X155778571Y-56209523D01*
X155778571Y-55980952D01*
X155816666Y-55904761D01*
X155854761Y-55866666D01*
X155930952Y-55828571D01*
X156083333Y-55828571D01*
X156159523Y-55866666D01*
X156540476Y-56361904D02*
X156540476Y-55828571D01*
X156540476Y-55980952D02*
X156578571Y-55904761D01*
X156616666Y-55866666D01*
X156692857Y-55828571D01*
X156769047Y-55828571D01*
X157150000Y-56361904D02*
X157073809Y-56323809D01*
X157035714Y-56285714D01*
X156997619Y-56209523D01*
X156997619Y-55980952D01*
X157035714Y-55904761D01*
X157073809Y-55866666D01*
X157150000Y-55828571D01*
X157264285Y-55828571D01*
X157340476Y-55866666D01*
X157378571Y-55904761D01*
X157416666Y-55980952D01*
X157416666Y-56209523D01*
X157378571Y-56285714D01*
X157340476Y-56323809D01*
X157264285Y-56361904D01*
X157150000Y-56361904D01*
X157759523Y-56057142D02*
X158369047Y-56057142D01*
X158750000Y-56361904D02*
X158750000Y-55828571D01*
X158750000Y-55561904D02*
X158711904Y-55600000D01*
X158750000Y-55638095D01*
X158788095Y-55600000D01*
X158750000Y-55561904D01*
X158750000Y-55638095D01*
X159130952Y-56361904D02*
X159130952Y-55561904D01*
X159130952Y-55866666D02*
X159207142Y-55828571D01*
X159359523Y-55828571D01*
X159435714Y-55866666D01*
X159473809Y-55904761D01*
X159511904Y-55980952D01*
X159511904Y-56209523D01*
X159473809Y-56285714D01*
X159435714Y-56323809D01*
X159359523Y-56361904D01*
X159207142Y-56361904D01*
X159130952Y-56323809D01*
X159816666Y-56323809D02*
X159892857Y-56361904D01*
X160045238Y-56361904D01*
X160121428Y-56323809D01*
X160159523Y-56247619D01*
X160159523Y-56209523D01*
X160121428Y-56133333D01*
X160045238Y-56095238D01*
X159930952Y-56095238D01*
X159854761Y-56057142D01*
X159816666Y-55980952D01*
X159816666Y-55942857D01*
X159854761Y-55866666D01*
X159930952Y-55828571D01*
X160045238Y-55828571D01*
X160121428Y-55866666D01*
X184057142Y-56361904D02*
X184057142Y-55561904D01*
X184514285Y-56361904D01*
X184514285Y-55561904D01*
X184857142Y-56133333D02*
X185238095Y-56133333D01*
X184780952Y-56361904D02*
X185047619Y-55561904D01*
X185314285Y-56361904D01*
X184857142Y-55371428D02*
X184895238Y-55333333D01*
X184971428Y-55295238D01*
X185123809Y-55371428D01*
X185200000Y-55333333D01*
X185238095Y-55295238D01*
X185733333Y-55561904D02*
X185885714Y-55561904D01*
X185961904Y-55600000D01*
X186038095Y-55676190D01*
X186076190Y-55828571D01*
X186076190Y-56095238D01*
X186038095Y-56247619D01*
X185961904Y-56323809D01*
X185885714Y-56361904D01*
X185733333Y-56361904D01*
X185657142Y-56323809D01*
X185580952Y-56247619D01*
X185542857Y-56095238D01*
X185542857Y-55828571D01*
X185580952Y-55676190D01*
X185657142Y-55600000D01*
X185733333Y-55561904D01*
X187485714Y-56285714D02*
X187447619Y-56323809D01*
X187333333Y-56361904D01*
X187257142Y-56361904D01*
X187142857Y-56323809D01*
X187066666Y-56247619D01*
X187028571Y-56171428D01*
X186990476Y-56019047D01*
X186990476Y-55904761D01*
X187028571Y-55752380D01*
X187066666Y-55676190D01*
X187142857Y-55600000D01*
X187257142Y-55561904D01*
X187333333Y-55561904D01*
X187447619Y-55600000D01*
X187485714Y-55638095D01*
X187980952Y-55561904D02*
X188133333Y-55561904D01*
X188209523Y-55600000D01*
X188285714Y-55676190D01*
X188323809Y-55828571D01*
X188323809Y-56095238D01*
X188285714Y-56247619D01*
X188209523Y-56323809D01*
X188133333Y-56361904D01*
X187980952Y-56361904D01*
X187904761Y-56323809D01*
X187828571Y-56247619D01*
X187790476Y-56095238D01*
X187790476Y-55828571D01*
X187828571Y-55676190D01*
X187904761Y-55600000D01*
X187980952Y-55561904D01*
X188666666Y-56361904D02*
X188666666Y-55561904D01*
X189123809Y-56361904D01*
X189123809Y-55561904D01*
X189504761Y-55942857D02*
X189771428Y-55942857D01*
X189885714Y-56361904D02*
X189504761Y-56361904D01*
X189504761Y-55561904D01*
X189885714Y-55561904D01*
X190685714Y-56285714D02*
X190647619Y-56323809D01*
X190533333Y-56361904D01*
X190457142Y-56361904D01*
X190342857Y-56323809D01*
X190266666Y-56247619D01*
X190228571Y-56171428D01*
X190190476Y-56019047D01*
X190190476Y-55904761D01*
X190228571Y-55752380D01*
X190266666Y-55676190D01*
X190342857Y-55600000D01*
X190457142Y-55561904D01*
X190533333Y-55561904D01*
X190647619Y-55600000D01*
X190685714Y-55638095D01*
X190914285Y-55561904D02*
X191371428Y-55561904D01*
X191142857Y-56361904D02*
X191142857Y-55561904D01*
X191600000Y-56133333D02*
X191980952Y-56133333D01*
X191523809Y-56361904D02*
X191790476Y-55561904D01*
X192057142Y-56361904D01*
X192780952Y-56361904D02*
X192514285Y-55980952D01*
X192323809Y-56361904D02*
X192323809Y-55561904D01*
X192628571Y-55561904D01*
X192704761Y-55600000D01*
X192742857Y-55638095D01*
X192780952Y-55714285D01*
X192780952Y-55828571D01*
X192742857Y-55904761D01*
X192704761Y-55942857D01*
X192628571Y-55980952D01*
X192323809Y-55980952D01*
X186933333Y-56961904D02*
X187085714Y-56961904D01*
X187161904Y-57000000D01*
X187238095Y-57076190D01*
X187276190Y-57228571D01*
X187276190Y-57495238D01*
X187238095Y-57647619D01*
X187161904Y-57723809D01*
X187085714Y-57761904D01*
X186933333Y-57761904D01*
X186857142Y-57723809D01*
X186780952Y-57647619D01*
X186742857Y-57495238D01*
X186742857Y-57228571D01*
X186780952Y-57076190D01*
X186857142Y-57000000D01*
X186933333Y-56961904D01*
X188457142Y-56961904D02*
X188457142Y-57533333D01*
X188419047Y-57647619D01*
X188342857Y-57723809D01*
X188228571Y-57761904D01*
X188152380Y-57761904D01*
X188838095Y-57761904D02*
X188838095Y-56961904D01*
X189142857Y-56961904D01*
X189219047Y-57000000D01*
X189257142Y-57038095D01*
X189295238Y-57114285D01*
X189295238Y-57228571D01*
X189257142Y-57304761D01*
X189219047Y-57342857D01*
X189142857Y-57380952D01*
X188838095Y-57380952D01*
X190057142Y-57761904D02*
X189600000Y-57761904D01*
X189828571Y-57761904D02*
X189828571Y-56961904D01*
X189752380Y-57076190D01*
X189676190Y-57152380D01*
X189600000Y-57190476D01*
X184533333Y-59123809D02*
X184647619Y-59161904D01*
X184838095Y-59161904D01*
X184914285Y-59123809D01*
X184952380Y-59085714D01*
X184990476Y-59009523D01*
X184990476Y-58933333D01*
X184952380Y-58857142D01*
X184914285Y-58819047D01*
X184838095Y-58780952D01*
X184685714Y-58742857D01*
X184609523Y-58704761D01*
X184571428Y-58666666D01*
X184533333Y-58590476D01*
X184533333Y-58514285D01*
X184571428Y-58438095D01*
X184609523Y-58400000D01*
X184685714Y-58361904D01*
X184876190Y-58361904D01*
X184990476Y-58400000D01*
X185333333Y-58742857D02*
X185600000Y-58742857D01*
X185714285Y-59161904D02*
X185333333Y-59161904D01*
X185333333Y-58361904D01*
X185714285Y-58361904D01*
X186552380Y-58361904D02*
X186819047Y-59161904D01*
X187085714Y-58361904D01*
X187809523Y-59085714D02*
X187771428Y-59123809D01*
X187657142Y-59161904D01*
X187580952Y-59161904D01*
X187466666Y-59123809D01*
X187390476Y-59047619D01*
X187352380Y-58971428D01*
X187314285Y-58819047D01*
X187314285Y-58704761D01*
X187352380Y-58552380D01*
X187390476Y-58476190D01*
X187466666Y-58400000D01*
X187580952Y-58361904D01*
X187657142Y-58361904D01*
X187771428Y-58400000D01*
X187809523Y-58438095D01*
X188609523Y-59085714D02*
X188571428Y-59123809D01*
X188457142Y-59161904D01*
X188380952Y-59161904D01*
X188266666Y-59123809D01*
X188190476Y-59047619D01*
X188152380Y-58971428D01*
X188114285Y-58819047D01*
X188114285Y-58704761D01*
X188152380Y-58552380D01*
X188190476Y-58476190D01*
X188266666Y-58400000D01*
X188380952Y-58361904D01*
X188457142Y-58361904D01*
X188571428Y-58400000D01*
X188609523Y-58438095D01*
X189561904Y-58628571D02*
X190171428Y-58857142D01*
X189561904Y-59085714D01*
X191542857Y-58361904D02*
X191161904Y-58361904D01*
X191123809Y-58742857D01*
X191161904Y-58704761D01*
X191238095Y-58666666D01*
X191428571Y-58666666D01*
X191504761Y-58704761D01*
X191542857Y-58742857D01*
X191580952Y-58819047D01*
X191580952Y-59009523D01*
X191542857Y-59085714D01*
X191504761Y-59123809D01*
X191428571Y-59161904D01*
X191238095Y-59161904D01*
X191161904Y-59123809D01*
X191123809Y-59085714D01*
X191809523Y-58361904D02*
X192076190Y-59161904D01*
X192342857Y-58361904D01*
D11*
G04 #@! TO.P,RN4,1*
G04 #@! TO.N,VCC*
X179070000Y-57400000D03*
D12*
G04 #@! TO.P,RN4,2*
G04 #@! TO.N,/OUT1*
X176530000Y-57400000D03*
G04 #@! TO.P,RN4,3*
G04 #@! TO.N,/OUT2*
X173990000Y-57400000D03*
G04 #@! TO.P,RN4,4*
G04 #@! TO.N,/OUT3*
X171450000Y-57400000D03*
G04 #@! TO.P,RN4,5*
G04 #@! TO.N,/OUT4*
X168910000Y-57400000D03*
G04 #@! TD*
D13*
G04 #@! TO.P,REF\002A\002A,1*
G04 #@! TO.N,Earth*
X139500000Y-71750000D03*
G04 #@! TD*
D14*
G04 #@! TO.P,U1,1*
G04 #@! TO.N,+3V3*
X136250000Y-91670000D03*
G04 #@! TO.P,U1,2*
G04 #@! TO.N,Net-(U1-Pad2)*
X138790000Y-91670000D03*
G04 #@! TO.P,U1,3*
G04 #@! TO.N,Net-(U1-Pad3)*
X141330000Y-91670000D03*
G04 #@! TO.P,U1,4*
G04 #@! TO.N,Net-(U1-Pad4)*
X143870000Y-91670000D03*
G04 #@! TO.P,U1,5*
G04 #@! TO.N,/ADC_CH0*
X146410000Y-91670000D03*
G04 #@! TO.P,U1,6*
G04 #@! TO.N,/ADC_CH1*
X148950000Y-91670000D03*
G04 #@! TO.P,U1,7*
G04 #@! TO.N,/ADC_CH2*
X151490000Y-91670000D03*
G04 #@! TO.P,U1,8*
G04 #@! TO.N,/ADC_CH3*
X154030000Y-91670000D03*
G04 #@! TO.P,U1,9*
G04 #@! TO.N,/ADC_CH4*
X156570000Y-91670000D03*
G04 #@! TO.P,U1,10*
G04 #@! TO.N,/ADC_CH5*
X159110000Y-91670000D03*
G04 #@! TO.P,U1,11*
G04 #@! TO.N,/ADC_CH6*
X161650000Y-91670000D03*
G04 #@! TO.P,U1,12*
G04 #@! TO.N,/ADC_CH7*
X164190000Y-91670000D03*
G04 #@! TO.P,U1,13*
G04 #@! TO.N,/ADC_CH8*
X166730000Y-91670000D03*
G04 #@! TO.P,U1,14*
G04 #@! TO.N,/ADC_CH9*
X169270000Y-91670000D03*
G04 #@! TO.P,U1,15*
G04 #@! TO.N,/TX3_SDL2*
X171810000Y-91670000D03*
G04 #@! TO.P,U1,16*
G04 #@! TO.N,/RX3_SDA2*
X174350000Y-91670000D03*
G04 #@! TO.P,U1,17*
G04 #@! TO.N,Net-(U1-Pad17)*
X176890000Y-91670000D03*
G04 #@! TO.P,U1,18*
G04 #@! TO.N,+3V3*
X179430000Y-91670000D03*
G04 #@! TO.P,U1,19*
G04 #@! TO.N,Earth*
X181970000Y-91670000D03*
G04 #@! TO.P,U1,20*
X184510000Y-91670000D03*
G04 #@! TO.P,U1,21*
G04 #@! TO.N,/CH5*
X184510000Y-76430000D03*
G04 #@! TO.P,U1,22*
G04 #@! TO.N,/CH4*
X181970000Y-76430000D03*
G04 #@! TO.P,U1,23*
G04 #@! TO.N,/CH3*
X179430000Y-76430000D03*
G04 #@! TO.P,U1,24*
G04 #@! TO.N,/CH2*
X176890000Y-76430000D03*
G04 #@! TO.P,U1,25*
G04 #@! TO.N,/CH1*
X174350000Y-76430000D03*
G04 #@! TO.P,U1,26*
G04 #@! TO.N,/TX1*
X171810000Y-76430000D03*
G04 #@! TO.P,U1,27*
G04 #@! TO.N,/RX1*
X169270000Y-76430000D03*
G04 #@! TO.P,U1,28*
G04 #@! TO.N,/CANRX_USB-*
X166730000Y-76430000D03*
G04 #@! TO.P,U1,29*
G04 #@! TO.N,/CANTX_USB+*
X164190000Y-76430000D03*
G04 #@! TO.P,U1,30*
G04 #@! TO.N,/CH6*
X161650000Y-76430000D03*
G04 #@! TO.P,U1,31*
G04 #@! TO.N,/PB3*
X159110000Y-76430000D03*
G04 #@! TO.P,U1,32*
G04 #@! TO.N,/PB4*
X156570000Y-76430000D03*
G04 #@! TO.P,U1,33*
G04 #@! TO.N,/PB5*
X154030000Y-76430000D03*
G04 #@! TO.P,U1,34*
G04 #@! TO.N,/PWM_CH1*
X151490000Y-76430000D03*
G04 #@! TO.P,U1,35*
G04 #@! TO.N,/PWM_CH2*
X148950000Y-76430000D03*
G04 #@! TO.P,U1,36*
G04 #@! TO.N,/PWM_CH3*
X146410000Y-76430000D03*
G04 #@! TO.P,U1,37*
G04 #@! TO.N,/PWM_CH4*
X143870000Y-76430000D03*
G04 #@! TO.P,U1,38*
G04 #@! TO.N,+5V*
X141330000Y-76430000D03*
G04 #@! TO.P,U1,39*
G04 #@! TO.N,Earth*
X138790000Y-76430000D03*
G04 #@! TO.P,U1,40*
G04 #@! TO.N,+3V3*
X136250000Y-76430000D03*
G04 #@! TD*
D15*
G04 #@! TO.P,JP1,1*
G04 #@! TO.N,+5V*
X190860000Y-63730000D03*
D16*
G04 #@! TO.P,JP1,2*
G04 #@! TO.N,VCC*
X188320000Y-63730000D03*
G04 #@! TD*
D11*
G04 #@! TO.P,RN1,1*
G04 #@! TO.N,/ADC_CH9*
X169270000Y-96750000D03*
D12*
G04 #@! TO.P,RN1,11*
G04 #@! TO.N,/AI0*
X146410000Y-104370000D03*
G04 #@! TO.P,RN1,2*
G04 #@! TO.N,/ADC_CH8*
X166730000Y-96750000D03*
G04 #@! TO.P,RN1,12*
G04 #@! TO.N,/AI1*
X148950000Y-104370000D03*
G04 #@! TO.P,RN1,3*
G04 #@! TO.N,/ADC_CH7*
X164190000Y-96750000D03*
G04 #@! TO.P,RN1,13*
G04 #@! TO.N,/AI2*
X151490000Y-104370000D03*
G04 #@! TO.P,RN1,4*
G04 #@! TO.N,/ADC_CH6*
X161650000Y-96750000D03*
G04 #@! TO.P,RN1,14*
G04 #@! TO.N,/AI3*
X154030000Y-104370000D03*
G04 #@! TO.P,RN1,5*
G04 #@! TO.N,/ADC_CH5*
X159110000Y-96750000D03*
G04 #@! TO.P,RN1,15*
G04 #@! TO.N,/AI4*
X156570000Y-104370000D03*
G04 #@! TO.P,RN1,6*
G04 #@! TO.N,/ADC_CH4*
X156570000Y-96750000D03*
G04 #@! TO.P,RN1,16*
G04 #@! TO.N,/AI5*
X159110000Y-104370000D03*
G04 #@! TO.P,RN1,7*
G04 #@! TO.N,/ADC_CH3*
X154030000Y-96750000D03*
G04 #@! TO.P,RN1,17*
G04 #@! TO.N,/AI6*
X161650000Y-104370000D03*
G04 #@! TO.P,RN1,8*
G04 #@! TO.N,/ADC_CH2*
X151490000Y-96750000D03*
G04 #@! TO.P,RN1,18*
G04 #@! TO.N,/AI7*
X164190000Y-104370000D03*
G04 #@! TO.P,RN1,9*
G04 #@! TO.N,/ADC_CH1*
X148950000Y-96750000D03*
G04 #@! TO.P,RN1,19*
G04 #@! TO.N,/AI8*
X166730000Y-104370000D03*
G04 #@! TO.P,RN1,10*
G04 #@! TO.N,/ADC_CH0*
X146410000Y-96750000D03*
G04 #@! TO.P,RN1,20*
G04 #@! TO.N,/AI9*
X169270000Y-104370000D03*
G04 #@! TD*
D11*
G04 #@! TO.P,RN2,1*
G04 #@! TO.N,Earth*
X171810000Y-87860000D03*
D12*
G04 #@! TO.P,RN2,2*
G04 #@! TO.N,/ADC_CH9*
X169270000Y-87860000D03*
G04 #@! TO.P,RN2,3*
G04 #@! TO.N,/ADC_CH8*
X166730000Y-87860000D03*
G04 #@! TO.P,RN2,4*
G04 #@! TO.N,/ADC_CH7*
X164190000Y-87860000D03*
G04 #@! TO.P,RN2,5*
G04 #@! TO.N,/ADC_CH6*
X161650000Y-87860000D03*
G04 #@! TO.P,RN2,6*
G04 #@! TO.N,/ADC_CH5*
X159110000Y-87860000D03*
G04 #@! TO.P,RN2,7*
G04 #@! TO.N,/ADC_CH4*
X156570000Y-87860000D03*
G04 #@! TO.P,RN2,8*
G04 #@! TO.N,/ADC_CH3*
X154030000Y-87860000D03*
G04 #@! TO.P,RN2,9*
G04 #@! TO.N,/ADC_CH2*
X151490000Y-87860000D03*
G04 #@! TO.P,RN2,10*
G04 #@! TO.N,/ADC_CH1*
X148950000Y-87860000D03*
G04 #@! TO.P,RN2,11*
G04 #@! TO.N,/ADC_CH0*
X146410000Y-87860000D03*
G04 #@! TD*
D11*
G04 #@! TO.P,RN3,1*
G04 #@! TO.N,VCC*
X136250000Y-57380000D03*
D12*
G04 #@! TO.P,RN3,2*
G04 #@! TO.N,/IN4*
X138790000Y-57380000D03*
G04 #@! TO.P,RN3,3*
G04 #@! TO.N,/IN3*
X141330000Y-57380000D03*
G04 #@! TO.P,RN3,4*
G04 #@! TO.N,/IN2*
X143870000Y-57380000D03*
G04 #@! TO.P,RN3,5*
G04 #@! TO.N,/IN1*
X146410000Y-57380000D03*
G04 #@! TD*
D17*
G04 #@! TO.P,U2,1*
G04 #@! TO.N,/PWM_CH4*
X155680000Y-59920000D03*
G04 #@! TO.P,U2,2*
G04 #@! TO.N,/PWM_CH3*
X155680000Y-61190000D03*
G04 #@! TO.P,U2,3*
G04 #@! TO.N,/PWM_CH2*
X155680000Y-62460000D03*
G04 #@! TO.P,U2,4*
G04 #@! TO.N,/PWM_CH1*
X155680000Y-63730000D03*
G04 #@! TO.P,U2,5*
G04 #@! TO.N,/IN1*
X155680000Y-65000000D03*
G04 #@! TO.P,U2,6*
G04 #@! TO.N,/IN2*
X155680000Y-66270000D03*
G04 #@! TO.P,U2,7*
G04 #@! TO.N,/IN3*
X155680000Y-67540000D03*
G04 #@! TO.P,U2,8*
G04 #@! TO.N,/IN4*
X155680000Y-68810000D03*
G04 #@! TO.P,U2,9*
G04 #@! TO.N,Earth*
X155680000Y-70080000D03*
G04 #@! TO.P,U2,10*
G04 #@! TO.N,VCC*
X165080000Y-70080000D03*
G04 #@! TO.P,U2,11*
G04 #@! TO.N,/CH6*
X165080000Y-68810000D03*
G04 #@! TO.P,U2,12*
G04 #@! TO.N,/PB3*
X165080000Y-67540000D03*
G04 #@! TO.P,U2,13*
G04 #@! TO.N,/PB4*
X165080000Y-66270000D03*
G04 #@! TO.P,U2,14*
G04 #@! TO.N,/PB5*
X165080000Y-65000000D03*
G04 #@! TO.P,U2,15*
G04 #@! TO.N,/OUT4*
X165080000Y-63730000D03*
G04 #@! TO.P,U2,16*
G04 #@! TO.N,/OUT3*
X165080000Y-62460000D03*
G04 #@! TO.P,U2,17*
G04 #@! TO.N,/OUT2*
X165080000Y-61190000D03*
G04 #@! TO.P,U2,18*
G04 #@! TO.N,/OUT1*
X165080000Y-59920000D03*
G04 #@! TD*
D18*
G04 #@! TO.N,+5V*
G04 #@! TO.C,J1*
G36*
X136719603Y-110320963D02*
X136739018Y-110323843D01*
X136758057Y-110328612D01*
X136776537Y-110335224D01*
X136794279Y-110343616D01*
X136811114Y-110353706D01*
X136826879Y-110365398D01*
X136841421Y-110378579D01*
X136854602Y-110393121D01*
X136866294Y-110408886D01*
X136876384Y-110425721D01*
X136884776Y-110443463D01*
X136891388Y-110461943D01*
X136896157Y-110480982D01*
X136899037Y-110500397D01*
X136900000Y-110520000D01*
X136900000Y-110920000D01*
X136899037Y-110939603D01*
X136896157Y-110959018D01*
X136891388Y-110978057D01*
X136884776Y-110996537D01*
X136876384Y-111014279D01*
X136866294Y-111031114D01*
X136854602Y-111046879D01*
X136841421Y-111061421D01*
X136826879Y-111074602D01*
X136811114Y-111086294D01*
X136794279Y-111096384D01*
X136776537Y-111104776D01*
X136758057Y-111111388D01*
X136739018Y-111116157D01*
X136719603Y-111119037D01*
X136700000Y-111120000D01*
X135800000Y-111120000D01*
X135780397Y-111119037D01*
X135760982Y-111116157D01*
X135741943Y-111111388D01*
X135723463Y-111104776D01*
X135705721Y-111096384D01*
X135688886Y-111086294D01*
X135673121Y-111074602D01*
X135658579Y-111061421D01*
X135645398Y-111046879D01*
X135633706Y-111031114D01*
X135623616Y-111014279D01*
X135615224Y-110996537D01*
X135608612Y-110978057D01*
X135603843Y-110959018D01*
X135600963Y-110939603D01*
X135600000Y-110920000D01*
X135600000Y-110520000D01*
X135600963Y-110500397D01*
X135603843Y-110480982D01*
X135608612Y-110461943D01*
X135615224Y-110443463D01*
X135623616Y-110425721D01*
X135633706Y-110408886D01*
X135645398Y-110393121D01*
X135658579Y-110378579D01*
X135673121Y-110365398D01*
X135688886Y-110353706D01*
X135705721Y-110343616D01*
X135723463Y-110335224D01*
X135741943Y-110328612D01*
X135760982Y-110323843D01*
X135780397Y-110320963D01*
X135800000Y-110320000D01*
X136700000Y-110320000D01*
X136719603Y-110320963D01*
X136719603Y-110320963D01*
G37*
D19*
G04 #@! TD*
G04 #@! TO.P,J1,1*
G04 #@! TO.N,+5V*
X136250000Y-110720000D03*
D20*
G04 #@! TO.P,J1,2*
G04 #@! TO.N,Earth*
X136250000Y-109470000D03*
G04 #@! TO.P,J1,3*
G04 #@! TO.N,/AI0*
X136250000Y-108220000D03*
G04 #@! TD*
G04 #@! TO.P,J3,3*
G04 #@! TO.N,/AI1*
X141330000Y-108200000D03*
G04 #@! TO.P,J3,2*
G04 #@! TO.N,Earth*
X141330000Y-109450000D03*
D18*
G04 #@! TD*
G04 #@! TO.N,+5V*
G04 #@! TO.C,J3*
G36*
X141799603Y-110300963D02*
X141819018Y-110303843D01*
X141838057Y-110308612D01*
X141856537Y-110315224D01*
X141874279Y-110323616D01*
X141891114Y-110333706D01*
X141906879Y-110345398D01*
X141921421Y-110358579D01*
X141934602Y-110373121D01*
X141946294Y-110388886D01*
X141956384Y-110405721D01*
X141964776Y-110423463D01*
X141971388Y-110441943D01*
X141976157Y-110460982D01*
X141979037Y-110480397D01*
X141980000Y-110500000D01*
X141980000Y-110900000D01*
X141979037Y-110919603D01*
X141976157Y-110939018D01*
X141971388Y-110958057D01*
X141964776Y-110976537D01*
X141956384Y-110994279D01*
X141946294Y-111011114D01*
X141934602Y-111026879D01*
X141921421Y-111041421D01*
X141906879Y-111054602D01*
X141891114Y-111066294D01*
X141874279Y-111076384D01*
X141856537Y-111084776D01*
X141838057Y-111091388D01*
X141819018Y-111096157D01*
X141799603Y-111099037D01*
X141780000Y-111100000D01*
X140880000Y-111100000D01*
X140860397Y-111099037D01*
X140840982Y-111096157D01*
X140821943Y-111091388D01*
X140803463Y-111084776D01*
X140785721Y-111076384D01*
X140768886Y-111066294D01*
X140753121Y-111054602D01*
X140738579Y-111041421D01*
X140725398Y-111026879D01*
X140713706Y-111011114D01*
X140703616Y-110994279D01*
X140695224Y-110976537D01*
X140688612Y-110958057D01*
X140683843Y-110939018D01*
X140680963Y-110919603D01*
X140680000Y-110900000D01*
X140680000Y-110500000D01*
X140680963Y-110480397D01*
X140683843Y-110460982D01*
X140688612Y-110441943D01*
X140695224Y-110423463D01*
X140703616Y-110405721D01*
X140713706Y-110388886D01*
X140725398Y-110373121D01*
X140738579Y-110358579D01*
X140753121Y-110345398D01*
X140768886Y-110333706D01*
X140785721Y-110323616D01*
X140803463Y-110315224D01*
X140821943Y-110308612D01*
X140840982Y-110303843D01*
X140860397Y-110300963D01*
X140880000Y-110300000D01*
X141780000Y-110300000D01*
X141799603Y-110300963D01*
X141799603Y-110300963D01*
G37*
D19*
G04 #@! TO.P,J3,1*
G04 #@! TO.N,+5V*
X141330000Y-110700000D03*
G04 #@! TD*
D18*
G04 #@! TO.N,+5V*
G04 #@! TO.C,J5*
G36*
X146879603Y-110320963D02*
X146899018Y-110323843D01*
X146918057Y-110328612D01*
X146936537Y-110335224D01*
X146954279Y-110343616D01*
X146971114Y-110353706D01*
X146986879Y-110365398D01*
X147001421Y-110378579D01*
X147014602Y-110393121D01*
X147026294Y-110408886D01*
X147036384Y-110425721D01*
X147044776Y-110443463D01*
X147051388Y-110461943D01*
X147056157Y-110480982D01*
X147059037Y-110500397D01*
X147060000Y-110520000D01*
X147060000Y-110920000D01*
X147059037Y-110939603D01*
X147056157Y-110959018D01*
X147051388Y-110978057D01*
X147044776Y-110996537D01*
X147036384Y-111014279D01*
X147026294Y-111031114D01*
X147014602Y-111046879D01*
X147001421Y-111061421D01*
X146986879Y-111074602D01*
X146971114Y-111086294D01*
X146954279Y-111096384D01*
X146936537Y-111104776D01*
X146918057Y-111111388D01*
X146899018Y-111116157D01*
X146879603Y-111119037D01*
X146860000Y-111120000D01*
X145960000Y-111120000D01*
X145940397Y-111119037D01*
X145920982Y-111116157D01*
X145901943Y-111111388D01*
X145883463Y-111104776D01*
X145865721Y-111096384D01*
X145848886Y-111086294D01*
X145833121Y-111074602D01*
X145818579Y-111061421D01*
X145805398Y-111046879D01*
X145793706Y-111031114D01*
X145783616Y-111014279D01*
X145775224Y-110996537D01*
X145768612Y-110978057D01*
X145763843Y-110959018D01*
X145760963Y-110939603D01*
X145760000Y-110920000D01*
X145760000Y-110520000D01*
X145760963Y-110500397D01*
X145763843Y-110480982D01*
X145768612Y-110461943D01*
X145775224Y-110443463D01*
X145783616Y-110425721D01*
X145793706Y-110408886D01*
X145805398Y-110393121D01*
X145818579Y-110378579D01*
X145833121Y-110365398D01*
X145848886Y-110353706D01*
X145865721Y-110343616D01*
X145883463Y-110335224D01*
X145901943Y-110328612D01*
X145920982Y-110323843D01*
X145940397Y-110320963D01*
X145960000Y-110320000D01*
X146860000Y-110320000D01*
X146879603Y-110320963D01*
X146879603Y-110320963D01*
G37*
D19*
G04 #@! TD*
G04 #@! TO.P,J5,1*
G04 #@! TO.N,+5V*
X146410000Y-110720000D03*
D20*
G04 #@! TO.P,J5,2*
G04 #@! TO.N,Earth*
X146410000Y-109470000D03*
G04 #@! TO.P,J5,3*
G04 #@! TO.N,/AI2*
X146410000Y-108220000D03*
G04 #@! TD*
G04 #@! TO.P,J7,3*
G04 #@! TO.N,/AI3*
X151490000Y-108220000D03*
G04 #@! TO.P,J7,2*
G04 #@! TO.N,Earth*
X151490000Y-109470000D03*
D18*
G04 #@! TD*
G04 #@! TO.N,+5V*
G04 #@! TO.C,J7*
G36*
X151959603Y-110320963D02*
X151979018Y-110323843D01*
X151998057Y-110328612D01*
X152016537Y-110335224D01*
X152034279Y-110343616D01*
X152051114Y-110353706D01*
X152066879Y-110365398D01*
X152081421Y-110378579D01*
X152094602Y-110393121D01*
X152106294Y-110408886D01*
X152116384Y-110425721D01*
X152124776Y-110443463D01*
X152131388Y-110461943D01*
X152136157Y-110480982D01*
X152139037Y-110500397D01*
X152140000Y-110520000D01*
X152140000Y-110920000D01*
X152139037Y-110939603D01*
X152136157Y-110959018D01*
X152131388Y-110978057D01*
X152124776Y-110996537D01*
X152116384Y-111014279D01*
X152106294Y-111031114D01*
X152094602Y-111046879D01*
X152081421Y-111061421D01*
X152066879Y-111074602D01*
X152051114Y-111086294D01*
X152034279Y-111096384D01*
X152016537Y-111104776D01*
X151998057Y-111111388D01*
X151979018Y-111116157D01*
X151959603Y-111119037D01*
X151940000Y-111120000D01*
X151040000Y-111120000D01*
X151020397Y-111119037D01*
X151000982Y-111116157D01*
X150981943Y-111111388D01*
X150963463Y-111104776D01*
X150945721Y-111096384D01*
X150928886Y-111086294D01*
X150913121Y-111074602D01*
X150898579Y-111061421D01*
X150885398Y-111046879D01*
X150873706Y-111031114D01*
X150863616Y-111014279D01*
X150855224Y-110996537D01*
X150848612Y-110978057D01*
X150843843Y-110959018D01*
X150840963Y-110939603D01*
X150840000Y-110920000D01*
X150840000Y-110520000D01*
X150840963Y-110500397D01*
X150843843Y-110480982D01*
X150848612Y-110461943D01*
X150855224Y-110443463D01*
X150863616Y-110425721D01*
X150873706Y-110408886D01*
X150885398Y-110393121D01*
X150898579Y-110378579D01*
X150913121Y-110365398D01*
X150928886Y-110353706D01*
X150945721Y-110343616D01*
X150963463Y-110335224D01*
X150981943Y-110328612D01*
X151000982Y-110323843D01*
X151020397Y-110320963D01*
X151040000Y-110320000D01*
X151940000Y-110320000D01*
X151959603Y-110320963D01*
X151959603Y-110320963D01*
G37*
D19*
G04 #@! TO.P,J7,1*
G04 #@! TO.N,+5V*
X151490000Y-110720000D03*
G04 #@! TD*
D20*
G04 #@! TO.P,J9,3*
G04 #@! TO.N,/AI4*
X156570000Y-108220000D03*
G04 #@! TO.P,J9,2*
G04 #@! TO.N,Earth*
X156570000Y-109470000D03*
D18*
G04 #@! TD*
G04 #@! TO.N,+5V*
G04 #@! TO.C,J9*
G36*
X157039603Y-110320963D02*
X157059018Y-110323843D01*
X157078057Y-110328612D01*
X157096537Y-110335224D01*
X157114279Y-110343616D01*
X157131114Y-110353706D01*
X157146879Y-110365398D01*
X157161421Y-110378579D01*
X157174602Y-110393121D01*
X157186294Y-110408886D01*
X157196384Y-110425721D01*
X157204776Y-110443463D01*
X157211388Y-110461943D01*
X157216157Y-110480982D01*
X157219037Y-110500397D01*
X157220000Y-110520000D01*
X157220000Y-110920000D01*
X157219037Y-110939603D01*
X157216157Y-110959018D01*
X157211388Y-110978057D01*
X157204776Y-110996537D01*
X157196384Y-111014279D01*
X157186294Y-111031114D01*
X157174602Y-111046879D01*
X157161421Y-111061421D01*
X157146879Y-111074602D01*
X157131114Y-111086294D01*
X157114279Y-111096384D01*
X157096537Y-111104776D01*
X157078057Y-111111388D01*
X157059018Y-111116157D01*
X157039603Y-111119037D01*
X157020000Y-111120000D01*
X156120000Y-111120000D01*
X156100397Y-111119037D01*
X156080982Y-111116157D01*
X156061943Y-111111388D01*
X156043463Y-111104776D01*
X156025721Y-111096384D01*
X156008886Y-111086294D01*
X155993121Y-111074602D01*
X155978579Y-111061421D01*
X155965398Y-111046879D01*
X155953706Y-111031114D01*
X155943616Y-111014279D01*
X155935224Y-110996537D01*
X155928612Y-110978057D01*
X155923843Y-110959018D01*
X155920963Y-110939603D01*
X155920000Y-110920000D01*
X155920000Y-110520000D01*
X155920963Y-110500397D01*
X155923843Y-110480982D01*
X155928612Y-110461943D01*
X155935224Y-110443463D01*
X155943616Y-110425721D01*
X155953706Y-110408886D01*
X155965398Y-110393121D01*
X155978579Y-110378579D01*
X155993121Y-110365398D01*
X156008886Y-110353706D01*
X156025721Y-110343616D01*
X156043463Y-110335224D01*
X156061943Y-110328612D01*
X156080982Y-110323843D01*
X156100397Y-110320963D01*
X156120000Y-110320000D01*
X157020000Y-110320000D01*
X157039603Y-110320963D01*
X157039603Y-110320963D01*
G37*
D19*
G04 #@! TO.P,J9,1*
G04 #@! TO.N,+5V*
X156570000Y-110720000D03*
G04 #@! TD*
D18*
G04 #@! TO.N,+5V*
G04 #@! TO.C,J11*
G36*
X162119603Y-110320963D02*
X162139018Y-110323843D01*
X162158057Y-110328612D01*
X162176537Y-110335224D01*
X162194279Y-110343616D01*
X162211114Y-110353706D01*
X162226879Y-110365398D01*
X162241421Y-110378579D01*
X162254602Y-110393121D01*
X162266294Y-110408886D01*
X162276384Y-110425721D01*
X162284776Y-110443463D01*
X162291388Y-110461943D01*
X162296157Y-110480982D01*
X162299037Y-110500397D01*
X162300000Y-110520000D01*
X162300000Y-110920000D01*
X162299037Y-110939603D01*
X162296157Y-110959018D01*
X162291388Y-110978057D01*
X162284776Y-110996537D01*
X162276384Y-111014279D01*
X162266294Y-111031114D01*
X162254602Y-111046879D01*
X162241421Y-111061421D01*
X162226879Y-111074602D01*
X162211114Y-111086294D01*
X162194279Y-111096384D01*
X162176537Y-111104776D01*
X162158057Y-111111388D01*
X162139018Y-111116157D01*
X162119603Y-111119037D01*
X162100000Y-111120000D01*
X161200000Y-111120000D01*
X161180397Y-111119037D01*
X161160982Y-111116157D01*
X161141943Y-111111388D01*
X161123463Y-111104776D01*
X161105721Y-111096384D01*
X161088886Y-111086294D01*
X161073121Y-111074602D01*
X161058579Y-111061421D01*
X161045398Y-111046879D01*
X161033706Y-111031114D01*
X161023616Y-111014279D01*
X161015224Y-110996537D01*
X161008612Y-110978057D01*
X161003843Y-110959018D01*
X161000963Y-110939603D01*
X161000000Y-110920000D01*
X161000000Y-110520000D01*
X161000963Y-110500397D01*
X161003843Y-110480982D01*
X161008612Y-110461943D01*
X161015224Y-110443463D01*
X161023616Y-110425721D01*
X161033706Y-110408886D01*
X161045398Y-110393121D01*
X161058579Y-110378579D01*
X161073121Y-110365398D01*
X161088886Y-110353706D01*
X161105721Y-110343616D01*
X161123463Y-110335224D01*
X161141943Y-110328612D01*
X161160982Y-110323843D01*
X161180397Y-110320963D01*
X161200000Y-110320000D01*
X162100000Y-110320000D01*
X162119603Y-110320963D01*
X162119603Y-110320963D01*
G37*
D19*
G04 #@! TD*
G04 #@! TO.P,J11,1*
G04 #@! TO.N,+5V*
X161650000Y-110720000D03*
D20*
G04 #@! TO.P,J11,2*
G04 #@! TO.N,Earth*
X161650000Y-109470000D03*
G04 #@! TO.P,J11,3*
G04 #@! TO.N,/AI5*
X161650000Y-108220000D03*
G04 #@! TD*
G04 #@! TO.P,J13,3*
G04 #@! TO.N,/AI6*
X166730000Y-108220000D03*
G04 #@! TO.P,J13,2*
G04 #@! TO.N,Earth*
X166730000Y-109470000D03*
D18*
G04 #@! TD*
G04 #@! TO.N,+5V*
G04 #@! TO.C,J13*
G36*
X167199603Y-110320963D02*
X167219018Y-110323843D01*
X167238057Y-110328612D01*
X167256537Y-110335224D01*
X167274279Y-110343616D01*
X167291114Y-110353706D01*
X167306879Y-110365398D01*
X167321421Y-110378579D01*
X167334602Y-110393121D01*
X167346294Y-110408886D01*
X167356384Y-110425721D01*
X167364776Y-110443463D01*
X167371388Y-110461943D01*
X167376157Y-110480982D01*
X167379037Y-110500397D01*
X167380000Y-110520000D01*
X167380000Y-110920000D01*
X167379037Y-110939603D01*
X167376157Y-110959018D01*
X167371388Y-110978057D01*
X167364776Y-110996537D01*
X167356384Y-111014279D01*
X167346294Y-111031114D01*
X167334602Y-111046879D01*
X167321421Y-111061421D01*
X167306879Y-111074602D01*
X167291114Y-111086294D01*
X167274279Y-111096384D01*
X167256537Y-111104776D01*
X167238057Y-111111388D01*
X167219018Y-111116157D01*
X167199603Y-111119037D01*
X167180000Y-111120000D01*
X166280000Y-111120000D01*
X166260397Y-111119037D01*
X166240982Y-111116157D01*
X166221943Y-111111388D01*
X166203463Y-111104776D01*
X166185721Y-111096384D01*
X166168886Y-111086294D01*
X166153121Y-111074602D01*
X166138579Y-111061421D01*
X166125398Y-111046879D01*
X166113706Y-111031114D01*
X166103616Y-111014279D01*
X166095224Y-110996537D01*
X166088612Y-110978057D01*
X166083843Y-110959018D01*
X166080963Y-110939603D01*
X166080000Y-110920000D01*
X166080000Y-110520000D01*
X166080963Y-110500397D01*
X166083843Y-110480982D01*
X166088612Y-110461943D01*
X166095224Y-110443463D01*
X166103616Y-110425721D01*
X166113706Y-110408886D01*
X166125398Y-110393121D01*
X166138579Y-110378579D01*
X166153121Y-110365398D01*
X166168886Y-110353706D01*
X166185721Y-110343616D01*
X166203463Y-110335224D01*
X166221943Y-110328612D01*
X166240982Y-110323843D01*
X166260397Y-110320963D01*
X166280000Y-110320000D01*
X167180000Y-110320000D01*
X167199603Y-110320963D01*
X167199603Y-110320963D01*
G37*
D19*
G04 #@! TO.P,J13,1*
G04 #@! TO.N,+5V*
X166730000Y-110720000D03*
G04 #@! TD*
D18*
G04 #@! TO.N,+5V*
G04 #@! TO.C,J15*
G36*
X172279603Y-110320963D02*
X172299018Y-110323843D01*
X172318057Y-110328612D01*
X172336537Y-110335224D01*
X172354279Y-110343616D01*
X172371114Y-110353706D01*
X172386879Y-110365398D01*
X172401421Y-110378579D01*
X172414602Y-110393121D01*
X172426294Y-110408886D01*
X172436384Y-110425721D01*
X172444776Y-110443463D01*
X172451388Y-110461943D01*
X172456157Y-110480982D01*
X172459037Y-110500397D01*
X172460000Y-110520000D01*
X172460000Y-110920000D01*
X172459037Y-110939603D01*
X172456157Y-110959018D01*
X172451388Y-110978057D01*
X172444776Y-110996537D01*
X172436384Y-111014279D01*
X172426294Y-111031114D01*
X172414602Y-111046879D01*
X172401421Y-111061421D01*
X172386879Y-111074602D01*
X172371114Y-111086294D01*
X172354279Y-111096384D01*
X172336537Y-111104776D01*
X172318057Y-111111388D01*
X172299018Y-111116157D01*
X172279603Y-111119037D01*
X172260000Y-111120000D01*
X171360000Y-111120000D01*
X171340397Y-111119037D01*
X171320982Y-111116157D01*
X171301943Y-111111388D01*
X171283463Y-111104776D01*
X171265721Y-111096384D01*
X171248886Y-111086294D01*
X171233121Y-111074602D01*
X171218579Y-111061421D01*
X171205398Y-111046879D01*
X171193706Y-111031114D01*
X171183616Y-111014279D01*
X171175224Y-110996537D01*
X171168612Y-110978057D01*
X171163843Y-110959018D01*
X171160963Y-110939603D01*
X171160000Y-110920000D01*
X171160000Y-110520000D01*
X171160963Y-110500397D01*
X171163843Y-110480982D01*
X171168612Y-110461943D01*
X171175224Y-110443463D01*
X171183616Y-110425721D01*
X171193706Y-110408886D01*
X171205398Y-110393121D01*
X171218579Y-110378579D01*
X171233121Y-110365398D01*
X171248886Y-110353706D01*
X171265721Y-110343616D01*
X171283463Y-110335224D01*
X171301943Y-110328612D01*
X171320982Y-110323843D01*
X171340397Y-110320963D01*
X171360000Y-110320000D01*
X172260000Y-110320000D01*
X172279603Y-110320963D01*
X172279603Y-110320963D01*
G37*
D19*
G04 #@! TD*
G04 #@! TO.P,J15,1*
G04 #@! TO.N,+5V*
X171810000Y-110720000D03*
D20*
G04 #@! TO.P,J15,2*
G04 #@! TO.N,Earth*
X171810000Y-109470000D03*
G04 #@! TO.P,J15,3*
G04 #@! TO.N,/AI7*
X171810000Y-108220000D03*
G04 #@! TD*
G04 #@! TO.P,J17,3*
G04 #@! TO.N,/AI8*
X176890000Y-108220000D03*
G04 #@! TO.P,J17,2*
G04 #@! TO.N,Earth*
X176890000Y-109470000D03*
D18*
G04 #@! TD*
G04 #@! TO.N,+5V*
G04 #@! TO.C,J17*
G36*
X177359603Y-110320963D02*
X177379018Y-110323843D01*
X177398057Y-110328612D01*
X177416537Y-110335224D01*
X177434279Y-110343616D01*
X177451114Y-110353706D01*
X177466879Y-110365398D01*
X177481421Y-110378579D01*
X177494602Y-110393121D01*
X177506294Y-110408886D01*
X177516384Y-110425721D01*
X177524776Y-110443463D01*
X177531388Y-110461943D01*
X177536157Y-110480982D01*
X177539037Y-110500397D01*
X177540000Y-110520000D01*
X177540000Y-110920000D01*
X177539037Y-110939603D01*
X177536157Y-110959018D01*
X177531388Y-110978057D01*
X177524776Y-110996537D01*
X177516384Y-111014279D01*
X177506294Y-111031114D01*
X177494602Y-111046879D01*
X177481421Y-111061421D01*
X177466879Y-111074602D01*
X177451114Y-111086294D01*
X177434279Y-111096384D01*
X177416537Y-111104776D01*
X177398057Y-111111388D01*
X177379018Y-111116157D01*
X177359603Y-111119037D01*
X177340000Y-111120000D01*
X176440000Y-111120000D01*
X176420397Y-111119037D01*
X176400982Y-111116157D01*
X176381943Y-111111388D01*
X176363463Y-111104776D01*
X176345721Y-111096384D01*
X176328886Y-111086294D01*
X176313121Y-111074602D01*
X176298579Y-111061421D01*
X176285398Y-111046879D01*
X176273706Y-111031114D01*
X176263616Y-111014279D01*
X176255224Y-110996537D01*
X176248612Y-110978057D01*
X176243843Y-110959018D01*
X176240963Y-110939603D01*
X176240000Y-110920000D01*
X176240000Y-110520000D01*
X176240963Y-110500397D01*
X176243843Y-110480982D01*
X176248612Y-110461943D01*
X176255224Y-110443463D01*
X176263616Y-110425721D01*
X176273706Y-110408886D01*
X176285398Y-110393121D01*
X176298579Y-110378579D01*
X176313121Y-110365398D01*
X176328886Y-110353706D01*
X176345721Y-110343616D01*
X176363463Y-110335224D01*
X176381943Y-110328612D01*
X176400982Y-110323843D01*
X176420397Y-110320963D01*
X176440000Y-110320000D01*
X177340000Y-110320000D01*
X177359603Y-110320963D01*
X177359603Y-110320963D01*
G37*
D19*
G04 #@! TO.P,J17,1*
G04 #@! TO.N,+5V*
X176890000Y-110720000D03*
G04 #@! TD*
D18*
G04 #@! TO.N,+5V*
G04 #@! TO.C,J18*
G36*
X182439603Y-110300963D02*
X182459018Y-110303843D01*
X182478057Y-110308612D01*
X182496537Y-110315224D01*
X182514279Y-110323616D01*
X182531114Y-110333706D01*
X182546879Y-110345398D01*
X182561421Y-110358579D01*
X182574602Y-110373121D01*
X182586294Y-110388886D01*
X182596384Y-110405721D01*
X182604776Y-110423463D01*
X182611388Y-110441943D01*
X182616157Y-110460982D01*
X182619037Y-110480397D01*
X182620000Y-110500000D01*
X182620000Y-110900000D01*
X182619037Y-110919603D01*
X182616157Y-110939018D01*
X182611388Y-110958057D01*
X182604776Y-110976537D01*
X182596384Y-110994279D01*
X182586294Y-111011114D01*
X182574602Y-111026879D01*
X182561421Y-111041421D01*
X182546879Y-111054602D01*
X182531114Y-111066294D01*
X182514279Y-111076384D01*
X182496537Y-111084776D01*
X182478057Y-111091388D01*
X182459018Y-111096157D01*
X182439603Y-111099037D01*
X182420000Y-111100000D01*
X181520000Y-111100000D01*
X181500397Y-111099037D01*
X181480982Y-111096157D01*
X181461943Y-111091388D01*
X181443463Y-111084776D01*
X181425721Y-111076384D01*
X181408886Y-111066294D01*
X181393121Y-111054602D01*
X181378579Y-111041421D01*
X181365398Y-111026879D01*
X181353706Y-111011114D01*
X181343616Y-110994279D01*
X181335224Y-110976537D01*
X181328612Y-110958057D01*
X181323843Y-110939018D01*
X181320963Y-110919603D01*
X181320000Y-110900000D01*
X181320000Y-110500000D01*
X181320963Y-110480397D01*
X181323843Y-110460982D01*
X181328612Y-110441943D01*
X181335224Y-110423463D01*
X181343616Y-110405721D01*
X181353706Y-110388886D01*
X181365398Y-110373121D01*
X181378579Y-110358579D01*
X181393121Y-110345398D01*
X181408886Y-110333706D01*
X181425721Y-110323616D01*
X181443463Y-110315224D01*
X181461943Y-110308612D01*
X181480982Y-110303843D01*
X181500397Y-110300963D01*
X181520000Y-110300000D01*
X182420000Y-110300000D01*
X182439603Y-110300963D01*
X182439603Y-110300963D01*
G37*
D19*
G04 #@! TD*
G04 #@! TO.P,J18,1*
G04 #@! TO.N,+5V*
X181970000Y-110700000D03*
D20*
G04 #@! TO.P,J18,2*
G04 #@! TO.N,Earth*
X181970000Y-109450000D03*
G04 #@! TO.P,J18,3*
G04 #@! TO.N,/AI9*
X181970000Y-108200000D03*
G04 #@! TD*
D21*
G04 #@! TO.P,D1,1*
G04 #@! TO.N,+5V*
X181560000Y-101830000D03*
D22*
G04 #@! TO.P,D1,2*
G04 #@! TO.N,Net-(D1-Pad2)*
X174760000Y-101830000D03*
G04 #@! TD*
G04 #@! TO.P,D2,2*
G04 #@! TO.N,Net-(D2-Pad2)*
X174760000Y-98020000D03*
D21*
G04 #@! TO.P,D2,1*
G04 #@! TO.N,VCC*
X181560000Y-98020000D03*
G04 #@! TD*
D18*
G04 #@! TO.N,Earth*
G04 #@! TO.C,J19*
G36*
X191329603Y-93810963D02*
X191349018Y-93813843D01*
X191368057Y-93818612D01*
X191386537Y-93825224D01*
X191404279Y-93833616D01*
X191421114Y-93843706D01*
X191436879Y-93855398D01*
X191451421Y-93868579D01*
X191464602Y-93883121D01*
X191476294Y-93898886D01*
X191486384Y-93915721D01*
X191494776Y-93933463D01*
X191501388Y-93951943D01*
X191506157Y-93970982D01*
X191509037Y-93990397D01*
X191510000Y-94010000D01*
X191510000Y-94410000D01*
X191509037Y-94429603D01*
X191506157Y-94449018D01*
X191501388Y-94468057D01*
X191494776Y-94486537D01*
X191486384Y-94504279D01*
X191476294Y-94521114D01*
X191464602Y-94536879D01*
X191451421Y-94551421D01*
X191436879Y-94564602D01*
X191421114Y-94576294D01*
X191404279Y-94586384D01*
X191386537Y-94594776D01*
X191368057Y-94601388D01*
X191349018Y-94606157D01*
X191329603Y-94609037D01*
X191310000Y-94610000D01*
X190410000Y-94610000D01*
X190390397Y-94609037D01*
X190370982Y-94606157D01*
X190351943Y-94601388D01*
X190333463Y-94594776D01*
X190315721Y-94586384D01*
X190298886Y-94576294D01*
X190283121Y-94564602D01*
X190268579Y-94551421D01*
X190255398Y-94536879D01*
X190243706Y-94521114D01*
X190233616Y-94504279D01*
X190225224Y-94486537D01*
X190218612Y-94468057D01*
X190213843Y-94449018D01*
X190210963Y-94429603D01*
X190210000Y-94410000D01*
X190210000Y-94010000D01*
X190210963Y-93990397D01*
X190213843Y-93970982D01*
X190218612Y-93951943D01*
X190225224Y-93933463D01*
X190233616Y-93915721D01*
X190243706Y-93898886D01*
X190255398Y-93883121D01*
X190268579Y-93868579D01*
X190283121Y-93855398D01*
X190298886Y-93843706D01*
X190315721Y-93833616D01*
X190333463Y-93825224D01*
X190351943Y-93818612D01*
X190370982Y-93813843D01*
X190390397Y-93810963D01*
X190410000Y-93810000D01*
X191310000Y-93810000D01*
X191329603Y-93810963D01*
X191329603Y-93810963D01*
G37*
D19*
G04 #@! TD*
G04 #@! TO.P,J19,1*
G04 #@! TO.N,Earth*
X190860000Y-94210000D03*
D20*
G04 #@! TO.P,J19,2*
G04 #@! TO.N,+5V*
X190860000Y-92960000D03*
G04 #@! TO.P,J19,3*
G04 #@! TO.N,/CH1*
X190860000Y-91710000D03*
G04 #@! TO.P,J19,4*
G04 #@! TO.N,/CH2*
X190860000Y-90460000D03*
G04 #@! TO.P,J19,5*
G04 #@! TO.N,/CH3*
X190860000Y-89210000D03*
G04 #@! TO.P,J19,6*
G04 #@! TO.N,/CH4*
X190860000Y-87960000D03*
G04 #@! TO.P,J19,7*
G04 #@! TO.N,/CH5*
X190860000Y-86710000D03*
G04 #@! TO.P,J19,8*
G04 #@! TO.N,/CH6*
X190860000Y-85460000D03*
G04 #@! TD*
D18*
G04 #@! TO.N,/TX1*
G04 #@! TO.C,J20*
G36*
X191329603Y-70950963D02*
X191349018Y-70953843D01*
X191368057Y-70958612D01*
X191386537Y-70965224D01*
X191404279Y-70973616D01*
X191421114Y-70983706D01*
X191436879Y-70995398D01*
X191451421Y-71008579D01*
X191464602Y-71023121D01*
X191476294Y-71038886D01*
X191486384Y-71055721D01*
X191494776Y-71073463D01*
X191501388Y-71091943D01*
X191506157Y-71110982D01*
X191509037Y-71130397D01*
X191510000Y-71150000D01*
X191510000Y-71550000D01*
X191509037Y-71569603D01*
X191506157Y-71589018D01*
X191501388Y-71608057D01*
X191494776Y-71626537D01*
X191486384Y-71644279D01*
X191476294Y-71661114D01*
X191464602Y-71676879D01*
X191451421Y-71691421D01*
X191436879Y-71704602D01*
X191421114Y-71716294D01*
X191404279Y-71726384D01*
X191386537Y-71734776D01*
X191368057Y-71741388D01*
X191349018Y-71746157D01*
X191329603Y-71749037D01*
X191310000Y-71750000D01*
X190410000Y-71750000D01*
X190390397Y-71749037D01*
X190370982Y-71746157D01*
X190351943Y-71741388D01*
X190333463Y-71734776D01*
X190315721Y-71726384D01*
X190298886Y-71716294D01*
X190283121Y-71704602D01*
X190268579Y-71691421D01*
X190255398Y-71676879D01*
X190243706Y-71661114D01*
X190233616Y-71644279D01*
X190225224Y-71626537D01*
X190218612Y-71608057D01*
X190213843Y-71589018D01*
X190210963Y-71569603D01*
X190210000Y-71550000D01*
X190210000Y-71150000D01*
X190210963Y-71130397D01*
X190213843Y-71110982D01*
X190218612Y-71091943D01*
X190225224Y-71073463D01*
X190233616Y-71055721D01*
X190243706Y-71038886D01*
X190255398Y-71023121D01*
X190268579Y-71008579D01*
X190283121Y-70995398D01*
X190298886Y-70983706D01*
X190315721Y-70973616D01*
X190333463Y-70965224D01*
X190351943Y-70958612D01*
X190370982Y-70953843D01*
X190390397Y-70950963D01*
X190410000Y-70950000D01*
X191310000Y-70950000D01*
X191329603Y-70950963D01*
X191329603Y-70950963D01*
G37*
D19*
G04 #@! TD*
G04 #@! TO.P,J20,1*
G04 #@! TO.N,/TX1*
X190860000Y-71350000D03*
D20*
G04 #@! TO.P,J20,2*
G04 #@! TO.N,/RX1*
X190860000Y-70100000D03*
G04 #@! TO.P,J20,3*
G04 #@! TO.N,Earth*
X190860000Y-68850000D03*
G04 #@! TO.P,J20,4*
G04 #@! TO.N,+5V*
X190860000Y-67600000D03*
G04 #@! TD*
G04 #@! TO.P,J21,4*
G04 #@! TO.N,+5V*
X190860000Y-99350000D03*
G04 #@! TO.P,J21,3*
G04 #@! TO.N,Earth*
X190860000Y-100600000D03*
G04 #@! TO.P,J21,2*
G04 #@! TO.N,/RX3_SDA2*
X190860000Y-101850000D03*
D18*
G04 #@! TD*
G04 #@! TO.N,/TX3_SDL2*
G04 #@! TO.C,J21*
G36*
X191329603Y-102700963D02*
X191349018Y-102703843D01*
X191368057Y-102708612D01*
X191386537Y-102715224D01*
X191404279Y-102723616D01*
X191421114Y-102733706D01*
X191436879Y-102745398D01*
X191451421Y-102758579D01*
X191464602Y-102773121D01*
X191476294Y-102788886D01*
X191486384Y-102805721D01*
X191494776Y-102823463D01*
X191501388Y-102841943D01*
X191506157Y-102860982D01*
X191509037Y-102880397D01*
X191510000Y-102900000D01*
X191510000Y-103300000D01*
X191509037Y-103319603D01*
X191506157Y-103339018D01*
X191501388Y-103358057D01*
X191494776Y-103376537D01*
X191486384Y-103394279D01*
X191476294Y-103411114D01*
X191464602Y-103426879D01*
X191451421Y-103441421D01*
X191436879Y-103454602D01*
X191421114Y-103466294D01*
X191404279Y-103476384D01*
X191386537Y-103484776D01*
X191368057Y-103491388D01*
X191349018Y-103496157D01*
X191329603Y-103499037D01*
X191310000Y-103500000D01*
X190410000Y-103500000D01*
X190390397Y-103499037D01*
X190370982Y-103496157D01*
X190351943Y-103491388D01*
X190333463Y-103484776D01*
X190315721Y-103476384D01*
X190298886Y-103466294D01*
X190283121Y-103454602D01*
X190268579Y-103441421D01*
X190255398Y-103426879D01*
X190243706Y-103411114D01*
X190233616Y-103394279D01*
X190225224Y-103376537D01*
X190218612Y-103358057D01*
X190213843Y-103339018D01*
X190210963Y-103319603D01*
X190210000Y-103300000D01*
X190210000Y-102900000D01*
X190210963Y-102880397D01*
X190213843Y-102860982D01*
X190218612Y-102841943D01*
X190225224Y-102823463D01*
X190233616Y-102805721D01*
X190243706Y-102788886D01*
X190255398Y-102773121D01*
X190268579Y-102758579D01*
X190283121Y-102745398D01*
X190298886Y-102733706D01*
X190315721Y-102723616D01*
X190333463Y-102715224D01*
X190351943Y-102708612D01*
X190370982Y-102703843D01*
X190390397Y-102700963D01*
X190410000Y-102700000D01*
X191310000Y-102700000D01*
X191329603Y-102700963D01*
X191329603Y-102700963D01*
G37*
D19*
G04 #@! TO.P,J21,1*
G04 #@! TO.N,/TX3_SDL2*
X190860000Y-103100000D03*
G04 #@! TD*
D18*
G04 #@! TO.N,/CANTX_USB+*
G04 #@! TO.C,J22*
G36*
X191329603Y-79840963D02*
X191349018Y-79843843D01*
X191368057Y-79848612D01*
X191386537Y-79855224D01*
X191404279Y-79863616D01*
X191421114Y-79873706D01*
X191436879Y-79885398D01*
X191451421Y-79898579D01*
X191464602Y-79913121D01*
X191476294Y-79928886D01*
X191486384Y-79945721D01*
X191494776Y-79963463D01*
X191501388Y-79981943D01*
X191506157Y-80000982D01*
X191509037Y-80020397D01*
X191510000Y-80040000D01*
X191510000Y-80440000D01*
X191509037Y-80459603D01*
X191506157Y-80479018D01*
X191501388Y-80498057D01*
X191494776Y-80516537D01*
X191486384Y-80534279D01*
X191476294Y-80551114D01*
X191464602Y-80566879D01*
X191451421Y-80581421D01*
X191436879Y-80594602D01*
X191421114Y-80606294D01*
X191404279Y-80616384D01*
X191386537Y-80624776D01*
X191368057Y-80631388D01*
X191349018Y-80636157D01*
X191329603Y-80639037D01*
X191310000Y-80640000D01*
X190410000Y-80640000D01*
X190390397Y-80639037D01*
X190370982Y-80636157D01*
X190351943Y-80631388D01*
X190333463Y-80624776D01*
X190315721Y-80616384D01*
X190298886Y-80606294D01*
X190283121Y-80594602D01*
X190268579Y-80581421D01*
X190255398Y-80566879D01*
X190243706Y-80551114D01*
X190233616Y-80534279D01*
X190225224Y-80516537D01*
X190218612Y-80498057D01*
X190213843Y-80479018D01*
X190210963Y-80459603D01*
X190210000Y-80440000D01*
X190210000Y-80040000D01*
X190210963Y-80020397D01*
X190213843Y-80000982D01*
X190218612Y-79981943D01*
X190225224Y-79963463D01*
X190233616Y-79945721D01*
X190243706Y-79928886D01*
X190255398Y-79913121D01*
X190268579Y-79898579D01*
X190283121Y-79885398D01*
X190298886Y-79873706D01*
X190315721Y-79863616D01*
X190333463Y-79855224D01*
X190351943Y-79848612D01*
X190370982Y-79843843D01*
X190390397Y-79840963D01*
X190410000Y-79840000D01*
X191310000Y-79840000D01*
X191329603Y-79840963D01*
X191329603Y-79840963D01*
G37*
D19*
G04 #@! TD*
G04 #@! TO.P,J22,1*
G04 #@! TO.N,/CANTX_USB+*
X190860000Y-80240000D03*
D20*
G04 #@! TO.P,J22,2*
G04 #@! TO.N,/CANRX_USB-*
X190860000Y-78990000D03*
G04 #@! TO.P,J22,3*
G04 #@! TO.N,Earth*
X190860000Y-77740000D03*
G04 #@! TO.P,J22,4*
G04 #@! TO.N,+5V*
X190860000Y-76490000D03*
G04 #@! TD*
G04 #@! TO.P,J2,3*
G04 #@! TO.N,/IN1*
X151490000Y-63690000D03*
G04 #@! TO.P,J2,2*
G04 #@! TO.N,Earth*
X151490000Y-62440000D03*
D18*
G04 #@! TD*
G04 #@! TO.N,VCC*
G04 #@! TO.C,J2*
G36*
X151959603Y-60790963D02*
X151979018Y-60793843D01*
X151998057Y-60798612D01*
X152016537Y-60805224D01*
X152034279Y-60813616D01*
X152051114Y-60823706D01*
X152066879Y-60835398D01*
X152081421Y-60848579D01*
X152094602Y-60863121D01*
X152106294Y-60878886D01*
X152116384Y-60895721D01*
X152124776Y-60913463D01*
X152131388Y-60931943D01*
X152136157Y-60950982D01*
X152139037Y-60970397D01*
X152140000Y-60990000D01*
X152140000Y-61390000D01*
X152139037Y-61409603D01*
X152136157Y-61429018D01*
X152131388Y-61448057D01*
X152124776Y-61466537D01*
X152116384Y-61484279D01*
X152106294Y-61501114D01*
X152094602Y-61516879D01*
X152081421Y-61531421D01*
X152066879Y-61544602D01*
X152051114Y-61556294D01*
X152034279Y-61566384D01*
X152016537Y-61574776D01*
X151998057Y-61581388D01*
X151979018Y-61586157D01*
X151959603Y-61589037D01*
X151940000Y-61590000D01*
X151040000Y-61590000D01*
X151020397Y-61589037D01*
X151000982Y-61586157D01*
X150981943Y-61581388D01*
X150963463Y-61574776D01*
X150945721Y-61566384D01*
X150928886Y-61556294D01*
X150913121Y-61544602D01*
X150898579Y-61531421D01*
X150885398Y-61516879D01*
X150873706Y-61501114D01*
X150863616Y-61484279D01*
X150855224Y-61466537D01*
X150848612Y-61448057D01*
X150843843Y-61429018D01*
X150840963Y-61409603D01*
X150840000Y-61390000D01*
X150840000Y-60990000D01*
X150840963Y-60970397D01*
X150843843Y-60950982D01*
X150848612Y-60931943D01*
X150855224Y-60913463D01*
X150863616Y-60895721D01*
X150873706Y-60878886D01*
X150885398Y-60863121D01*
X150898579Y-60848579D01*
X150913121Y-60835398D01*
X150928886Y-60823706D01*
X150945721Y-60813616D01*
X150963463Y-60805224D01*
X150981943Y-60798612D01*
X151000982Y-60793843D01*
X151020397Y-60790963D01*
X151040000Y-60790000D01*
X151940000Y-60790000D01*
X151959603Y-60790963D01*
X151959603Y-60790963D01*
G37*
D19*
G04 #@! TO.P,J2,1*
G04 #@! TO.N,VCC*
X151490000Y-61190000D03*
G04 #@! TD*
D18*
G04 #@! TO.N,VCC*
G04 #@! TO.C,J4*
G36*
X146879603Y-60830963D02*
X146899018Y-60833843D01*
X146918057Y-60838612D01*
X146936537Y-60845224D01*
X146954279Y-60853616D01*
X146971114Y-60863706D01*
X146986879Y-60875398D01*
X147001421Y-60888579D01*
X147014602Y-60903121D01*
X147026294Y-60918886D01*
X147036384Y-60935721D01*
X147044776Y-60953463D01*
X147051388Y-60971943D01*
X147056157Y-60990982D01*
X147059037Y-61010397D01*
X147060000Y-61030000D01*
X147060000Y-61430000D01*
X147059037Y-61449603D01*
X147056157Y-61469018D01*
X147051388Y-61488057D01*
X147044776Y-61506537D01*
X147036384Y-61524279D01*
X147026294Y-61541114D01*
X147014602Y-61556879D01*
X147001421Y-61571421D01*
X146986879Y-61584602D01*
X146971114Y-61596294D01*
X146954279Y-61606384D01*
X146936537Y-61614776D01*
X146918057Y-61621388D01*
X146899018Y-61626157D01*
X146879603Y-61629037D01*
X146860000Y-61630000D01*
X145960000Y-61630000D01*
X145940397Y-61629037D01*
X145920982Y-61626157D01*
X145901943Y-61621388D01*
X145883463Y-61614776D01*
X145865721Y-61606384D01*
X145848886Y-61596294D01*
X145833121Y-61584602D01*
X145818579Y-61571421D01*
X145805398Y-61556879D01*
X145793706Y-61541114D01*
X145783616Y-61524279D01*
X145775224Y-61506537D01*
X145768612Y-61488057D01*
X145763843Y-61469018D01*
X145760963Y-61449603D01*
X145760000Y-61430000D01*
X145760000Y-61030000D01*
X145760963Y-61010397D01*
X145763843Y-60990982D01*
X145768612Y-60971943D01*
X145775224Y-60953463D01*
X145783616Y-60935721D01*
X145793706Y-60918886D01*
X145805398Y-60903121D01*
X145818579Y-60888579D01*
X145833121Y-60875398D01*
X145848886Y-60863706D01*
X145865721Y-60853616D01*
X145883463Y-60845224D01*
X145901943Y-60838612D01*
X145920982Y-60833843D01*
X145940397Y-60830963D01*
X145960000Y-60830000D01*
X146860000Y-60830000D01*
X146879603Y-60830963D01*
X146879603Y-60830963D01*
G37*
D19*
G04 #@! TD*
G04 #@! TO.P,J4,1*
G04 #@! TO.N,VCC*
X146410000Y-61230000D03*
D20*
G04 #@! TO.P,J4,2*
G04 #@! TO.N,Earth*
X146410000Y-62480000D03*
G04 #@! TO.P,J4,3*
G04 #@! TO.N,/IN2*
X146410000Y-63730000D03*
G04 #@! TD*
G04 #@! TO.P,J6,3*
G04 #@! TO.N,/IN3*
X141330000Y-63690000D03*
G04 #@! TO.P,J6,2*
G04 #@! TO.N,Earth*
X141330000Y-62440000D03*
D18*
G04 #@! TD*
G04 #@! TO.N,VCC*
G04 #@! TO.C,J6*
G36*
X141799603Y-60790963D02*
X141819018Y-60793843D01*
X141838057Y-60798612D01*
X141856537Y-60805224D01*
X141874279Y-60813616D01*
X141891114Y-60823706D01*
X141906879Y-60835398D01*
X141921421Y-60848579D01*
X141934602Y-60863121D01*
X141946294Y-60878886D01*
X141956384Y-60895721D01*
X141964776Y-60913463D01*
X141971388Y-60931943D01*
X141976157Y-60950982D01*
X141979037Y-60970397D01*
X141980000Y-60990000D01*
X141980000Y-61390000D01*
X141979037Y-61409603D01*
X141976157Y-61429018D01*
X141971388Y-61448057D01*
X141964776Y-61466537D01*
X141956384Y-61484279D01*
X141946294Y-61501114D01*
X141934602Y-61516879D01*
X141921421Y-61531421D01*
X141906879Y-61544602D01*
X141891114Y-61556294D01*
X141874279Y-61566384D01*
X141856537Y-61574776D01*
X141838057Y-61581388D01*
X141819018Y-61586157D01*
X141799603Y-61589037D01*
X141780000Y-61590000D01*
X140880000Y-61590000D01*
X140860397Y-61589037D01*
X140840982Y-61586157D01*
X140821943Y-61581388D01*
X140803463Y-61574776D01*
X140785721Y-61566384D01*
X140768886Y-61556294D01*
X140753121Y-61544602D01*
X140738579Y-61531421D01*
X140725398Y-61516879D01*
X140713706Y-61501114D01*
X140703616Y-61484279D01*
X140695224Y-61466537D01*
X140688612Y-61448057D01*
X140683843Y-61429018D01*
X140680963Y-61409603D01*
X140680000Y-61390000D01*
X140680000Y-60990000D01*
X140680963Y-60970397D01*
X140683843Y-60950982D01*
X140688612Y-60931943D01*
X140695224Y-60913463D01*
X140703616Y-60895721D01*
X140713706Y-60878886D01*
X140725398Y-60863121D01*
X140738579Y-60848579D01*
X140753121Y-60835398D01*
X140768886Y-60823706D01*
X140785721Y-60813616D01*
X140803463Y-60805224D01*
X140821943Y-60798612D01*
X140840982Y-60793843D01*
X140860397Y-60790963D01*
X140880000Y-60790000D01*
X141780000Y-60790000D01*
X141799603Y-60790963D01*
X141799603Y-60790963D01*
G37*
D19*
G04 #@! TO.P,J6,1*
G04 #@! TO.N,VCC*
X141330000Y-61190000D03*
G04 #@! TD*
D18*
G04 #@! TO.N,VCC*
G04 #@! TO.C,J8*
G36*
X136719603Y-60790963D02*
X136739018Y-60793843D01*
X136758057Y-60798612D01*
X136776537Y-60805224D01*
X136794279Y-60813616D01*
X136811114Y-60823706D01*
X136826879Y-60835398D01*
X136841421Y-60848579D01*
X136854602Y-60863121D01*
X136866294Y-60878886D01*
X136876384Y-60895721D01*
X136884776Y-60913463D01*
X136891388Y-60931943D01*
X136896157Y-60950982D01*
X136899037Y-60970397D01*
X136900000Y-60990000D01*
X136900000Y-61390000D01*
X136899037Y-61409603D01*
X136896157Y-61429018D01*
X136891388Y-61448057D01*
X136884776Y-61466537D01*
X136876384Y-61484279D01*
X136866294Y-61501114D01*
X136854602Y-61516879D01*
X136841421Y-61531421D01*
X136826879Y-61544602D01*
X136811114Y-61556294D01*
X136794279Y-61566384D01*
X136776537Y-61574776D01*
X136758057Y-61581388D01*
X136739018Y-61586157D01*
X136719603Y-61589037D01*
X136700000Y-61590000D01*
X135800000Y-61590000D01*
X135780397Y-61589037D01*
X135760982Y-61586157D01*
X135741943Y-61581388D01*
X135723463Y-61574776D01*
X135705721Y-61566384D01*
X135688886Y-61556294D01*
X135673121Y-61544602D01*
X135658579Y-61531421D01*
X135645398Y-61516879D01*
X135633706Y-61501114D01*
X135623616Y-61484279D01*
X135615224Y-61466537D01*
X135608612Y-61448057D01*
X135603843Y-61429018D01*
X135600963Y-61409603D01*
X135600000Y-61390000D01*
X135600000Y-60990000D01*
X135600963Y-60970397D01*
X135603843Y-60950982D01*
X135608612Y-60931943D01*
X135615224Y-60913463D01*
X135623616Y-60895721D01*
X135633706Y-60878886D01*
X135645398Y-60863121D01*
X135658579Y-60848579D01*
X135673121Y-60835398D01*
X135688886Y-60823706D01*
X135705721Y-60813616D01*
X135723463Y-60805224D01*
X135741943Y-60798612D01*
X135760982Y-60793843D01*
X135780397Y-60790963D01*
X135800000Y-60790000D01*
X136700000Y-60790000D01*
X136719603Y-60790963D01*
X136719603Y-60790963D01*
G37*
D19*
G04 #@! TD*
G04 #@! TO.P,J8,1*
G04 #@! TO.N,VCC*
X136250000Y-61190000D03*
D20*
G04 #@! TO.P,J8,2*
G04 #@! TO.N,Earth*
X136250000Y-62440000D03*
G04 #@! TO.P,J8,3*
G04 #@! TO.N,/IN4*
X136250000Y-63690000D03*
G04 #@! TD*
D18*
G04 #@! TO.N,VCC*
G04 #@! TO.C,J10*
G36*
X184979603Y-68410963D02*
X184999018Y-68413843D01*
X185018057Y-68418612D01*
X185036537Y-68425224D01*
X185054279Y-68433616D01*
X185071114Y-68443706D01*
X185086879Y-68455398D01*
X185101421Y-68468579D01*
X185114602Y-68483121D01*
X185126294Y-68498886D01*
X185136384Y-68515721D01*
X185144776Y-68533463D01*
X185151388Y-68551943D01*
X185156157Y-68570982D01*
X185159037Y-68590397D01*
X185160000Y-68610000D01*
X185160000Y-69010000D01*
X185159037Y-69029603D01*
X185156157Y-69049018D01*
X185151388Y-69068057D01*
X185144776Y-69086537D01*
X185136384Y-69104279D01*
X185126294Y-69121114D01*
X185114602Y-69136879D01*
X185101421Y-69151421D01*
X185086879Y-69164602D01*
X185071114Y-69176294D01*
X185054279Y-69186384D01*
X185036537Y-69194776D01*
X185018057Y-69201388D01*
X184999018Y-69206157D01*
X184979603Y-69209037D01*
X184960000Y-69210000D01*
X184060000Y-69210000D01*
X184040397Y-69209037D01*
X184020982Y-69206157D01*
X184001943Y-69201388D01*
X183983463Y-69194776D01*
X183965721Y-69186384D01*
X183948886Y-69176294D01*
X183933121Y-69164602D01*
X183918579Y-69151421D01*
X183905398Y-69136879D01*
X183893706Y-69121114D01*
X183883616Y-69104279D01*
X183875224Y-69086537D01*
X183868612Y-69068057D01*
X183863843Y-69049018D01*
X183860963Y-69029603D01*
X183860000Y-69010000D01*
X183860000Y-68610000D01*
X183860963Y-68590397D01*
X183863843Y-68570982D01*
X183868612Y-68551943D01*
X183875224Y-68533463D01*
X183883616Y-68515721D01*
X183893706Y-68498886D01*
X183905398Y-68483121D01*
X183918579Y-68468579D01*
X183933121Y-68455398D01*
X183948886Y-68443706D01*
X183965721Y-68433616D01*
X183983463Y-68425224D01*
X184001943Y-68418612D01*
X184020982Y-68413843D01*
X184040397Y-68410963D01*
X184060000Y-68410000D01*
X184960000Y-68410000D01*
X184979603Y-68410963D01*
X184979603Y-68410963D01*
G37*
D19*
G04 #@! TD*
G04 #@! TO.P,J10,1*
G04 #@! TO.N,VCC*
X184510000Y-68810000D03*
D20*
G04 #@! TO.P,J10,2*
G04 #@! TO.N,Earth*
X184510000Y-67560000D03*
G04 #@! TO.P,J10,3*
G04 #@! TO.N,/OUT1*
X184510000Y-66310000D03*
G04 #@! TD*
G04 #@! TO.P,J12,3*
G04 #@! TO.N,/OUT2*
X179430000Y-66310000D03*
G04 #@! TO.P,J12,2*
G04 #@! TO.N,Earth*
X179430000Y-67560000D03*
D18*
G04 #@! TD*
G04 #@! TO.N,VCC*
G04 #@! TO.C,J12*
G36*
X179899603Y-68410963D02*
X179919018Y-68413843D01*
X179938057Y-68418612D01*
X179956537Y-68425224D01*
X179974279Y-68433616D01*
X179991114Y-68443706D01*
X180006879Y-68455398D01*
X180021421Y-68468579D01*
X180034602Y-68483121D01*
X180046294Y-68498886D01*
X180056384Y-68515721D01*
X180064776Y-68533463D01*
X180071388Y-68551943D01*
X180076157Y-68570982D01*
X180079037Y-68590397D01*
X180080000Y-68610000D01*
X180080000Y-69010000D01*
X180079037Y-69029603D01*
X180076157Y-69049018D01*
X180071388Y-69068057D01*
X180064776Y-69086537D01*
X180056384Y-69104279D01*
X180046294Y-69121114D01*
X180034602Y-69136879D01*
X180021421Y-69151421D01*
X180006879Y-69164602D01*
X179991114Y-69176294D01*
X179974279Y-69186384D01*
X179956537Y-69194776D01*
X179938057Y-69201388D01*
X179919018Y-69206157D01*
X179899603Y-69209037D01*
X179880000Y-69210000D01*
X178980000Y-69210000D01*
X178960397Y-69209037D01*
X178940982Y-69206157D01*
X178921943Y-69201388D01*
X178903463Y-69194776D01*
X178885721Y-69186384D01*
X178868886Y-69176294D01*
X178853121Y-69164602D01*
X178838579Y-69151421D01*
X178825398Y-69136879D01*
X178813706Y-69121114D01*
X178803616Y-69104279D01*
X178795224Y-69086537D01*
X178788612Y-69068057D01*
X178783843Y-69049018D01*
X178780963Y-69029603D01*
X178780000Y-69010000D01*
X178780000Y-68610000D01*
X178780963Y-68590397D01*
X178783843Y-68570982D01*
X178788612Y-68551943D01*
X178795224Y-68533463D01*
X178803616Y-68515721D01*
X178813706Y-68498886D01*
X178825398Y-68483121D01*
X178838579Y-68468579D01*
X178853121Y-68455398D01*
X178868886Y-68443706D01*
X178885721Y-68433616D01*
X178903463Y-68425224D01*
X178921943Y-68418612D01*
X178940982Y-68413843D01*
X178960397Y-68410963D01*
X178980000Y-68410000D01*
X179880000Y-68410000D01*
X179899603Y-68410963D01*
X179899603Y-68410963D01*
G37*
D19*
G04 #@! TO.P,J12,1*
G04 #@! TO.N,VCC*
X179430000Y-68810000D03*
G04 #@! TD*
D18*
G04 #@! TO.N,VCC*
G04 #@! TO.C,J14*
G36*
X174819603Y-68410963D02*
X174839018Y-68413843D01*
X174858057Y-68418612D01*
X174876537Y-68425224D01*
X174894279Y-68433616D01*
X174911114Y-68443706D01*
X174926879Y-68455398D01*
X174941421Y-68468579D01*
X174954602Y-68483121D01*
X174966294Y-68498886D01*
X174976384Y-68515721D01*
X174984776Y-68533463D01*
X174991388Y-68551943D01*
X174996157Y-68570982D01*
X174999037Y-68590397D01*
X175000000Y-68610000D01*
X175000000Y-69010000D01*
X174999037Y-69029603D01*
X174996157Y-69049018D01*
X174991388Y-69068057D01*
X174984776Y-69086537D01*
X174976384Y-69104279D01*
X174966294Y-69121114D01*
X174954602Y-69136879D01*
X174941421Y-69151421D01*
X174926879Y-69164602D01*
X174911114Y-69176294D01*
X174894279Y-69186384D01*
X174876537Y-69194776D01*
X174858057Y-69201388D01*
X174839018Y-69206157D01*
X174819603Y-69209037D01*
X174800000Y-69210000D01*
X173900000Y-69210000D01*
X173880397Y-69209037D01*
X173860982Y-69206157D01*
X173841943Y-69201388D01*
X173823463Y-69194776D01*
X173805721Y-69186384D01*
X173788886Y-69176294D01*
X173773121Y-69164602D01*
X173758579Y-69151421D01*
X173745398Y-69136879D01*
X173733706Y-69121114D01*
X173723616Y-69104279D01*
X173715224Y-69086537D01*
X173708612Y-69068057D01*
X173703843Y-69049018D01*
X173700963Y-69029603D01*
X173700000Y-69010000D01*
X173700000Y-68610000D01*
X173700963Y-68590397D01*
X173703843Y-68570982D01*
X173708612Y-68551943D01*
X173715224Y-68533463D01*
X173723616Y-68515721D01*
X173733706Y-68498886D01*
X173745398Y-68483121D01*
X173758579Y-68468579D01*
X173773121Y-68455398D01*
X173788886Y-68443706D01*
X173805721Y-68433616D01*
X173823463Y-68425224D01*
X173841943Y-68418612D01*
X173860982Y-68413843D01*
X173880397Y-68410963D01*
X173900000Y-68410000D01*
X174800000Y-68410000D01*
X174819603Y-68410963D01*
X174819603Y-68410963D01*
G37*
D19*
G04 #@! TD*
G04 #@! TO.P,J14,1*
G04 #@! TO.N,VCC*
X174350000Y-68810000D03*
D20*
G04 #@! TO.P,J14,2*
G04 #@! TO.N,Earth*
X174350000Y-67560000D03*
G04 #@! TO.P,J14,3*
G04 #@! TO.N,/OUT3*
X174350000Y-66310000D03*
G04 #@! TD*
G04 #@! TO.P,J16,3*
G04 #@! TO.N,/OUT4*
X169270000Y-66310000D03*
G04 #@! TO.P,J16,2*
G04 #@! TO.N,Earth*
X169270000Y-67560000D03*
D18*
G04 #@! TD*
G04 #@! TO.N,VCC*
G04 #@! TO.C,J16*
G36*
X169739603Y-68410963D02*
X169759018Y-68413843D01*
X169778057Y-68418612D01*
X169796537Y-68425224D01*
X169814279Y-68433616D01*
X169831114Y-68443706D01*
X169846879Y-68455398D01*
X169861421Y-68468579D01*
X169874602Y-68483121D01*
X169886294Y-68498886D01*
X169896384Y-68515721D01*
X169904776Y-68533463D01*
X169911388Y-68551943D01*
X169916157Y-68570982D01*
X169919037Y-68590397D01*
X169920000Y-68610000D01*
X169920000Y-69010000D01*
X169919037Y-69029603D01*
X169916157Y-69049018D01*
X169911388Y-69068057D01*
X169904776Y-69086537D01*
X169896384Y-69104279D01*
X169886294Y-69121114D01*
X169874602Y-69136879D01*
X169861421Y-69151421D01*
X169846879Y-69164602D01*
X169831114Y-69176294D01*
X169814279Y-69186384D01*
X169796537Y-69194776D01*
X169778057Y-69201388D01*
X169759018Y-69206157D01*
X169739603Y-69209037D01*
X169720000Y-69210000D01*
X168820000Y-69210000D01*
X168800397Y-69209037D01*
X168780982Y-69206157D01*
X168761943Y-69201388D01*
X168743463Y-69194776D01*
X168725721Y-69186384D01*
X168708886Y-69176294D01*
X168693121Y-69164602D01*
X168678579Y-69151421D01*
X168665398Y-69136879D01*
X168653706Y-69121114D01*
X168643616Y-69104279D01*
X168635224Y-69086537D01*
X168628612Y-69068057D01*
X168623843Y-69049018D01*
X168620963Y-69029603D01*
X168620000Y-69010000D01*
X168620000Y-68610000D01*
X168620963Y-68590397D01*
X168623843Y-68570982D01*
X168628612Y-68551943D01*
X168635224Y-68533463D01*
X168643616Y-68515721D01*
X168653706Y-68498886D01*
X168665398Y-68483121D01*
X168678579Y-68468579D01*
X168693121Y-68455398D01*
X168708886Y-68443706D01*
X168725721Y-68433616D01*
X168743463Y-68425224D01*
X168761943Y-68418612D01*
X168780982Y-68413843D01*
X168800397Y-68410963D01*
X168820000Y-68410000D01*
X169720000Y-68410000D01*
X169739603Y-68410963D01*
X169739603Y-68410963D01*
G37*
D19*
G04 #@! TO.P,J16,1*
G04 #@! TO.N,VCC*
X169270000Y-68810000D03*
G04 #@! TD*
D18*
G04 #@! TO.N,Net-(D1-Pad2)*
G04 #@! TO.C,J23*
G36*
X139259603Y-100160963D02*
X139279018Y-100163843D01*
X139298057Y-100168612D01*
X139316537Y-100175224D01*
X139334279Y-100183616D01*
X139351114Y-100193706D01*
X139366879Y-100205398D01*
X139381421Y-100218579D01*
X139394602Y-100233121D01*
X139406294Y-100248886D01*
X139416384Y-100265721D01*
X139424776Y-100283463D01*
X139431388Y-100301943D01*
X139436157Y-100320982D01*
X139439037Y-100340397D01*
X139440000Y-100360000D01*
X139440000Y-100760000D01*
X139439037Y-100779603D01*
X139436157Y-100799018D01*
X139431388Y-100818057D01*
X139424776Y-100836537D01*
X139416384Y-100854279D01*
X139406294Y-100871114D01*
X139394602Y-100886879D01*
X139381421Y-100901421D01*
X139366879Y-100914602D01*
X139351114Y-100926294D01*
X139334279Y-100936384D01*
X139316537Y-100944776D01*
X139298057Y-100951388D01*
X139279018Y-100956157D01*
X139259603Y-100959037D01*
X139240000Y-100960000D01*
X138340000Y-100960000D01*
X138320397Y-100959037D01*
X138300982Y-100956157D01*
X138281943Y-100951388D01*
X138263463Y-100944776D01*
X138245721Y-100936384D01*
X138228886Y-100926294D01*
X138213121Y-100914602D01*
X138198579Y-100901421D01*
X138185398Y-100886879D01*
X138173706Y-100871114D01*
X138163616Y-100854279D01*
X138155224Y-100836537D01*
X138148612Y-100818057D01*
X138143843Y-100799018D01*
X138140963Y-100779603D01*
X138140000Y-100760000D01*
X138140000Y-100360000D01*
X138140963Y-100340397D01*
X138143843Y-100320982D01*
X138148612Y-100301943D01*
X138155224Y-100283463D01*
X138163616Y-100265721D01*
X138173706Y-100248886D01*
X138185398Y-100233121D01*
X138198579Y-100218579D01*
X138213121Y-100205398D01*
X138228886Y-100193706D01*
X138245721Y-100183616D01*
X138263463Y-100175224D01*
X138281943Y-100168612D01*
X138300982Y-100163843D01*
X138320397Y-100160963D01*
X138340000Y-100160000D01*
X139240000Y-100160000D01*
X139259603Y-100160963D01*
X139259603Y-100160963D01*
G37*
D19*
G04 #@! TD*
G04 #@! TO.P,J23,1*
G04 #@! TO.N,Net-(D1-Pad2)*
X138790000Y-100560000D03*
D20*
G04 #@! TO.P,J23,2*
G04 #@! TO.N,Earth*
X138790000Y-99310000D03*
G04 #@! TO.P,J23,3*
G04 #@! TO.N,Net-(D2-Pad2)*
X138790000Y-98060000D03*
G04 #@! TD*
D13*
G04 #@! TO.P,REF\002A\002A,1*
G04 #@! TO.N,Earth*
X189590000Y-109450000D03*
G04 #@! TD*
D23*
G04 #@! TO.N,VCC*
X181560000Y-98020000D03*
G04 #@! TO.N,Earth*
X167250000Y-73150000D03*
G04 #@! TO.N,/PWM_CH1*
X157900000Y-63750000D03*
G04 #@! TO.N,/PWM_CH2*
X157700000Y-62350000D03*
G04 #@! TO.N,/PWM_CH3*
X153900000Y-61150000D03*
G04 #@! TO.N,/PWM_CH4*
X152900000Y-59950000D03*
G04 #@! TD*
D24*
G04 #@! TO.N,+5V*
X151510000Y-110700000D02*
X151490000Y-110720000D01*
X181970000Y-110700000D02*
X151510000Y-110700000D01*
X151490000Y-110720000D02*
X136250000Y-110720000D01*
D25*
X190860000Y-67600000D02*
X192110000Y-67600000D01*
X192110000Y-67600000D02*
X192500000Y-67990000D01*
X192500000Y-92570000D02*
X192110000Y-92960000D01*
X192500000Y-91150000D02*
X192500000Y-92570000D01*
X191110000Y-99350000D02*
X190860000Y-99350000D01*
X192500000Y-97960000D02*
X191110000Y-99350000D01*
X192110000Y-92960000D02*
X192500000Y-93350000D01*
X190860000Y-92960000D02*
X192110000Y-92960000D01*
X192500000Y-91150000D02*
X192500000Y-93550000D01*
X192500000Y-93350000D02*
X192500000Y-93550000D01*
X192500000Y-93550000D02*
X192500000Y-97960000D01*
X190860000Y-76490000D02*
X192160000Y-76490000D01*
X192160000Y-76490000D02*
X192500000Y-76150000D01*
X192500000Y-67990000D02*
X192500000Y-76150000D01*
X192500000Y-76880000D02*
X192500000Y-76950000D01*
X190860000Y-76490000D02*
X192110000Y-76490000D01*
X192110000Y-76490000D02*
X192500000Y-76880000D01*
X192500000Y-76150000D02*
X192500000Y-76950000D01*
X192500000Y-76950000D02*
X192500000Y-91150000D01*
D24*
X181960000Y-101830000D02*
X181560000Y-101830000D01*
X184900000Y-108520000D02*
X184900000Y-104770000D01*
X182720000Y-110700000D02*
X184900000Y-108520000D01*
X184900000Y-104770000D02*
X181960000Y-101830000D01*
X181970000Y-110700000D02*
X182720000Y-110700000D01*
X182700000Y-110720000D02*
X176890000Y-110720000D01*
X182720000Y-110700000D02*
X182700000Y-110720000D01*
G04 #@! TO.N,Net-(D1-Pad2)*
X140060000Y-101830000D02*
X138790000Y-100560000D01*
X174760000Y-101830000D02*
X140060000Y-101830000D01*
D26*
G04 #@! TO.N,VCC*
X168000000Y-70080000D02*
X169270000Y-68810000D01*
X165080000Y-70080000D02*
X168000000Y-70080000D01*
X169270000Y-68810000D02*
X184510000Y-68810000D01*
X146370000Y-61190000D02*
X146410000Y-61230000D01*
X136250000Y-61190000D02*
X146370000Y-61190000D01*
X151450000Y-61230000D02*
X151490000Y-61190000D01*
X146410000Y-61230000D02*
X151450000Y-61230000D01*
D25*
X146410000Y-61230000D02*
X150020000Y-61230000D01*
X137290000Y-61190000D02*
X136250000Y-60150000D01*
X141330000Y-61190000D02*
X137290000Y-61190000D01*
X136250000Y-60150000D02*
X136250000Y-57380000D01*
X136250000Y-61190000D02*
X136250000Y-60150000D01*
X188320000Y-64932081D02*
X188320000Y-63730000D01*
X185260000Y-68810000D02*
X188320000Y-65750000D01*
X188320000Y-65750000D02*
X188320000Y-64932081D01*
X184510000Y-68810000D02*
X185260000Y-68810000D01*
D24*
G04 #@! TO.N,Net-(D2-Pad2)*
X140240000Y-98060000D02*
X142740000Y-100560000D01*
X138790000Y-98060000D02*
X140240000Y-98060000D01*
X142740000Y-100560000D02*
X169270000Y-100560000D01*
X169270000Y-100560000D02*
X170540000Y-100560000D01*
X174360000Y-98020000D02*
X174760000Y-98020000D01*
X171820000Y-100560000D02*
X174360000Y-98020000D01*
X169270000Y-100560000D02*
X171820000Y-100560000D01*
G04 #@! TO.N,/AI0*
X145278630Y-104370000D02*
X146410000Y-104370000D01*
X138900000Y-104370000D02*
X145278630Y-104370000D01*
X136250000Y-107020000D02*
X138900000Y-104370000D01*
X136250000Y-108220000D02*
X136250000Y-107020000D01*
D25*
G04 #@! TO.N,/IN1*
X152800000Y-65000000D02*
X151490000Y-63690000D01*
X155680000Y-65000000D02*
X152800000Y-65000000D01*
D24*
G04 #@! TO.N,/AI1*
X148150001Y-105169999D02*
X148950000Y-104370000D01*
X146320000Y-107000000D02*
X148150001Y-105169999D01*
X142780000Y-107000000D02*
X146320000Y-107000000D01*
X141580000Y-108200000D02*
X142780000Y-107000000D01*
X141330000Y-108200000D02*
X141580000Y-108200000D01*
D25*
G04 #@! TO.N,/IN2*
X146660000Y-63730000D02*
X146410000Y-63730000D01*
X149200000Y-66270000D02*
X146660000Y-63730000D01*
X155680000Y-66270000D02*
X149200000Y-66270000D01*
D24*
G04 #@! TO.N,/AI2*
X147640000Y-108220000D02*
X151490000Y-104370000D01*
X146410000Y-108220000D02*
X147640000Y-108220000D01*
D25*
G04 #@! TO.N,/IN3*
X141580000Y-63690000D02*
X141330000Y-63690000D01*
X145430000Y-67540000D02*
X141580000Y-63690000D01*
X155680000Y-67540000D02*
X145430000Y-67540000D01*
D24*
G04 #@! TO.N,/AI3*
X151490000Y-106910000D02*
X154030000Y-104370000D01*
X151490000Y-108220000D02*
X151490000Y-106910000D01*
D25*
G04 #@! TO.N,/IN4*
X141620000Y-68810000D02*
X136500000Y-63690000D01*
X136500000Y-63690000D02*
X136250000Y-63690000D01*
X155680000Y-68810000D02*
X141620000Y-68810000D01*
D24*
G04 #@! TO.N,/AI4*
X156570000Y-108220000D02*
X156570000Y-104370000D01*
D25*
G04 #@! TO.N,/OUT1*
X184510000Y-66310000D02*
X184260000Y-66310000D01*
X177870000Y-59920000D02*
X175700000Y-59920000D01*
X184260000Y-66310000D02*
X177870000Y-59920000D01*
X165080000Y-59920000D02*
X175700000Y-59920000D01*
D24*
G04 #@! TO.N,/AI5*
X159110000Y-105680000D02*
X161650000Y-108220000D01*
X159110000Y-104370000D02*
X159110000Y-105680000D01*
D25*
G04 #@! TO.N,/OUT2*
X179180000Y-66310000D02*
X179430000Y-66310000D01*
X174060000Y-61190000D02*
X179180000Y-66310000D01*
X165080000Y-61190000D02*
X174060000Y-61190000D01*
D24*
G04 #@! TO.N,/AI6*
X165500000Y-108220000D02*
X161650000Y-104370000D01*
X166730000Y-108220000D02*
X165500000Y-108220000D01*
D25*
G04 #@! TO.N,/OUT3*
X166680000Y-62460000D02*
X165080000Y-62460000D01*
X170410000Y-62460000D02*
X166680000Y-62460000D01*
X174260000Y-66310000D02*
X170410000Y-62460000D01*
X174350000Y-66310000D02*
X174260000Y-66310000D01*
D24*
G04 #@! TO.N,/AI7*
X170360000Y-108220000D02*
X171810000Y-108220000D01*
X169050000Y-106910000D02*
X170360000Y-108220000D01*
X166730000Y-106910000D02*
X169050000Y-106910000D01*
X164190000Y-104370000D02*
X166730000Y-106910000D01*
D25*
G04 #@! TO.N,/OUT4*
X166690000Y-63730000D02*
X165080000Y-63730000D01*
X169270000Y-66310000D02*
X166690000Y-63730000D01*
D24*
G04 #@! TO.N,/AI9*
X170401370Y-104370000D02*
X169270000Y-104370000D01*
X179340000Y-104370000D02*
X170401370Y-104370000D01*
X181970000Y-107000000D02*
X179340000Y-104370000D01*
X181970000Y-108200000D02*
X181970000Y-107000000D01*
D25*
G04 #@! TO.N,/CH6*
X163240000Y-68810000D02*
X165080000Y-68810000D01*
X161650000Y-70400000D02*
X163240000Y-68810000D01*
X161650000Y-76430000D02*
X161650000Y-70400000D01*
X165570000Y-80350000D02*
X161650000Y-76430000D01*
X190860000Y-85460000D02*
X190610000Y-85460000D01*
X166570000Y-81350000D02*
X165570000Y-80350000D01*
X190610000Y-85460000D02*
X186500000Y-81350000D01*
X186500000Y-81350000D02*
X166570000Y-81350000D01*
G04 #@! TO.N,/TX1*
X176890000Y-71350000D02*
X171810000Y-76430000D01*
X190860000Y-71350000D02*
X176890000Y-71350000D01*
G04 #@! TO.N,/RX1*
X175600000Y-70100000D02*
X190860000Y-70100000D01*
X169270000Y-76430000D02*
X175600000Y-70100000D01*
D24*
G04 #@! TO.N,/RX3_SDA2*
X188900000Y-100650000D02*
X190100000Y-101850000D01*
X174350000Y-91670000D02*
X176230000Y-93550000D01*
X184700000Y-93550000D02*
X188900000Y-97750000D01*
X188900000Y-97750000D02*
X188900000Y-100650000D01*
X190100000Y-101850000D02*
X190860000Y-101850000D01*
X176230000Y-93550000D02*
X184700000Y-93550000D01*
G04 #@! TO.N,/TX3_SDL2*
X190860000Y-103100000D02*
X189650000Y-103100000D01*
X189650000Y-103100000D02*
X187700000Y-101150000D01*
X187700000Y-101150000D02*
X187700000Y-98350000D01*
X187700000Y-98350000D02*
X184100000Y-94750000D01*
X174890000Y-94750000D02*
X171810000Y-91670000D01*
X184100000Y-94750000D02*
X174890000Y-94750000D01*
D25*
G04 #@! TO.N,/CANTX_USB+*
X168000000Y-80240000D02*
X190860000Y-80240000D01*
X164190000Y-76430000D02*
X168000000Y-80240000D01*
D27*
G04 #@! TO.N,/ADC_CH9*
X169270000Y-96750000D02*
X169270000Y-87860000D01*
G04 #@! TO.N,/ADC_CH8*
X166730000Y-96750000D02*
X166730000Y-87860000D01*
G04 #@! TO.N,/ADC_CH7*
X164190000Y-87860000D02*
X164190000Y-96750000D01*
G04 #@! TO.N,/ADC_CH6*
X161650000Y-96750000D02*
X161650000Y-87860000D01*
G04 #@! TO.N,/ADC_CH5*
X159110000Y-91670000D02*
X159110000Y-96750000D01*
X159110000Y-87860000D02*
X159110000Y-96750000D01*
G04 #@! TO.N,/ADC_CH4*
X156570000Y-96750000D02*
X156570000Y-91670000D01*
X156570000Y-87860000D02*
X156570000Y-96750000D01*
G04 #@! TO.N,/ADC_CH3*
X154030000Y-91670000D02*
X154030000Y-96750000D01*
X154030000Y-87860000D02*
X154030000Y-96750000D01*
G04 #@! TO.N,/ADC_CH2*
X151490000Y-96750000D02*
X151490000Y-91670000D01*
X151490000Y-96750000D02*
X151490000Y-87860000D01*
G04 #@! TO.N,/ADC_CH1*
X148950000Y-91670000D02*
X148950000Y-96750000D01*
X148950000Y-87860000D02*
X148950000Y-96750000D01*
G04 #@! TO.N,/ADC_CH0*
X146410000Y-96750000D02*
X146410000Y-91670000D01*
X146410000Y-96750000D02*
X146410000Y-87860000D01*
D24*
G04 #@! TO.N,+3V3*
X136250000Y-91670000D02*
X136250000Y-76430000D01*
D25*
G04 #@! TO.N,/PB3*
X160300000Y-75240000D02*
X159110000Y-76430000D01*
X160300000Y-68800000D02*
X160300000Y-75240000D01*
X161560000Y-67540000D02*
X160300000Y-68800000D01*
X165080000Y-67540000D02*
X161560000Y-67540000D01*
G04 #@! TO.N,/PB4*
X159100000Y-73900000D02*
X156570000Y-76430000D01*
X159100000Y-68350000D02*
X159100000Y-73900000D01*
X161180000Y-66270000D02*
X159100000Y-68350000D01*
X165080000Y-66270000D02*
X161180000Y-66270000D01*
G04 #@! TO.N,/PB5*
X160850000Y-65000000D02*
X165080000Y-65000000D01*
X157900000Y-67950000D02*
X160850000Y-65000000D01*
X154030000Y-76430000D02*
X154791999Y-75668001D01*
X154791999Y-75668001D02*
X154791999Y-75658001D01*
X154791999Y-75658001D02*
X157900000Y-72550000D01*
X157900000Y-72550000D02*
X157900000Y-67950000D01*
G04 #@! TO.N,/PWM_CH1*
X155700000Y-63750000D02*
X155680000Y-63730000D01*
X157900000Y-63750000D02*
X155700000Y-63750000D01*
G04 #@! TO.N,/PWM_CH2*
X157590000Y-62460000D02*
X157700000Y-62350000D01*
X155680000Y-62460000D02*
X157590000Y-62460000D01*
G04 #@! TO.N,/PWM_CH3*
X153940000Y-61190000D02*
X153900000Y-61150000D01*
X155680000Y-61190000D02*
X153940000Y-61190000D01*
G04 #@! TO.N,/PWM_CH4*
X155650000Y-59950000D02*
X155680000Y-59920000D01*
X152900000Y-59950000D02*
X155650000Y-59950000D01*
G04 #@! TO.N,/CANRX_USB-*
X169290000Y-78990000D02*
X166730000Y-76430000D01*
X190860000Y-78990000D02*
X169290000Y-78990000D01*
G04 #@! TD*
D28*
G04 #@! TO.N,Earth*
G36*
X152453095Y-57409000D02*
X161046905Y-57409000D01*
X161046905Y-57400000D01*
X167446887Y-57400000D01*
X167558260Y-57959909D01*
X167875423Y-58434577D01*
X168350091Y-58751740D01*
X168768667Y-58835000D01*
X169051333Y-58835000D01*
X169469909Y-58751740D01*
X169944577Y-58434577D01*
X170180000Y-58082242D01*
X170415423Y-58434577D01*
X170890091Y-58751740D01*
X171308667Y-58835000D01*
X171591333Y-58835000D01*
X172009909Y-58751740D01*
X172484577Y-58434577D01*
X172720000Y-58082242D01*
X172955423Y-58434577D01*
X173430091Y-58751740D01*
X173848667Y-58835000D01*
X174131333Y-58835000D01*
X174549909Y-58751740D01*
X175024577Y-58434577D01*
X175260000Y-58082242D01*
X175495423Y-58434577D01*
X175970091Y-58751740D01*
X176388667Y-58835000D01*
X176671333Y-58835000D01*
X177089909Y-58751740D01*
X177564577Y-58434577D01*
X177645215Y-58313894D01*
X177671843Y-58447765D01*
X177812191Y-58657809D01*
X178022235Y-58798157D01*
X178270000Y-58847440D01*
X179870000Y-58847440D01*
X180117765Y-58798157D01*
X180327809Y-58657809D01*
X180468157Y-58447765D01*
X180517440Y-58200000D01*
X180517440Y-56600000D01*
X180468157Y-56352235D01*
X180327809Y-56142191D01*
X180117765Y-56001843D01*
X179870000Y-55952560D01*
X178270000Y-55952560D01*
X178022235Y-56001843D01*
X177812191Y-56142191D01*
X177671843Y-56352235D01*
X177645215Y-56486106D01*
X177564577Y-56365423D01*
X177089909Y-56048260D01*
X176671333Y-55965000D01*
X176388667Y-55965000D01*
X175970091Y-56048260D01*
X175495423Y-56365423D01*
X175260000Y-56717758D01*
X175024577Y-56365423D01*
X174549909Y-56048260D01*
X174131333Y-55965000D01*
X173848667Y-55965000D01*
X173430091Y-56048260D01*
X172955423Y-56365423D01*
X172720000Y-56717758D01*
X172484577Y-56365423D01*
X172009909Y-56048260D01*
X171591333Y-55965000D01*
X171308667Y-55965000D01*
X170890091Y-56048260D01*
X170415423Y-56365423D01*
X170180000Y-56717758D01*
X169944577Y-56365423D01*
X169469909Y-56048260D01*
X169051333Y-55965000D01*
X168768667Y-55965000D01*
X168350091Y-56048260D01*
X167875423Y-56365423D01*
X167558260Y-56840091D01*
X167446887Y-57400000D01*
X161046905Y-57400000D01*
X161046905Y-55550000D01*
X183131667Y-55550000D01*
X183131667Y-60209000D01*
X192690001Y-60209000D01*
X192690001Y-66863030D01*
X192474819Y-66719250D01*
X192202086Y-66665000D01*
X192110000Y-66646683D01*
X192017914Y-66665000D01*
X191573623Y-66665000D01*
X191513837Y-66625052D01*
X191211935Y-66565000D01*
X190508065Y-66565000D01*
X190206163Y-66625052D01*
X189863807Y-66853807D01*
X189635052Y-67196163D01*
X189554724Y-67600000D01*
X189635052Y-68003837D01*
X189784198Y-68227050D01*
X189625013Y-68487031D01*
X189615334Y-68563877D01*
X189743002Y-68723000D01*
X190733000Y-68723000D01*
X190733000Y-68703000D01*
X190987000Y-68703000D01*
X190987000Y-68723000D01*
X191007000Y-68723000D01*
X191007000Y-68977000D01*
X190987000Y-68977000D01*
X190987000Y-68997000D01*
X190733000Y-68997000D01*
X190733000Y-68977000D01*
X189743002Y-68977000D01*
X189615334Y-69136123D01*
X189618971Y-69165000D01*
X186227289Y-69165000D01*
X188916028Y-66476261D01*
X188994097Y-66424097D01*
X189200750Y-66114819D01*
X189255000Y-65842086D01*
X189255000Y-65842085D01*
X189273317Y-65750000D01*
X189255000Y-65657914D01*
X189255000Y-64891247D01*
X189390625Y-64800625D01*
X189402816Y-64782381D01*
X189411843Y-64827765D01*
X189552191Y-65037809D01*
X189762235Y-65178157D01*
X190010000Y-65227440D01*
X191710000Y-65227440D01*
X191957765Y-65178157D01*
X192167809Y-65037809D01*
X192308157Y-64827765D01*
X192357440Y-64580000D01*
X192357440Y-62880000D01*
X192308157Y-62632235D01*
X192167809Y-62422191D01*
X191957765Y-62281843D01*
X191710000Y-62232560D01*
X190010000Y-62232560D01*
X189762235Y-62281843D01*
X189552191Y-62422191D01*
X189411843Y-62632235D01*
X189402816Y-62677619D01*
X189390625Y-62659375D01*
X188899418Y-62331161D01*
X188466256Y-62245000D01*
X188173744Y-62245000D01*
X187740582Y-62331161D01*
X187249375Y-62659375D01*
X186921161Y-63150582D01*
X186805908Y-63730000D01*
X186921161Y-64309418D01*
X187249375Y-64800625D01*
X187385000Y-64891247D01*
X187385000Y-65362711D01*
X185671196Y-67076515D01*
X185585802Y-66937050D01*
X185734948Y-66713837D01*
X185815276Y-66310000D01*
X185734948Y-65906163D01*
X185506193Y-65563807D01*
X185163837Y-65335052D01*
X184861935Y-65275000D01*
X184547289Y-65275000D01*
X178596261Y-59323972D01*
X178544097Y-59245903D01*
X178234819Y-59039250D01*
X177962086Y-58985000D01*
X177870000Y-58966683D01*
X177777914Y-58985000D01*
X166142541Y-58985000D01*
X166080000Y-58972560D01*
X164080000Y-58972560D01*
X163832235Y-59021843D01*
X163622191Y-59162191D01*
X163481843Y-59372235D01*
X163432560Y-59620000D01*
X163432560Y-60220000D01*
X163481843Y-60467765D01*
X163540132Y-60555000D01*
X163481843Y-60642235D01*
X163432560Y-60890000D01*
X163432560Y-61490000D01*
X163481843Y-61737765D01*
X163540132Y-61825000D01*
X163481843Y-61912235D01*
X163432560Y-62160000D01*
X163432560Y-62760000D01*
X163481843Y-63007765D01*
X163540132Y-63095000D01*
X163481843Y-63182235D01*
X163432560Y-63430000D01*
X163432560Y-64030000D01*
X163439522Y-64065000D01*
X160942085Y-64065000D01*
X160849999Y-64046683D01*
X160608009Y-64094818D01*
X160485181Y-64119250D01*
X160175903Y-64325903D01*
X160123741Y-64403969D01*
X157320849Y-67206862D01*
X157278157Y-66992235D01*
X157219868Y-66905000D01*
X157278157Y-66817765D01*
X157327440Y-66570000D01*
X157327440Y-65970000D01*
X157278157Y-65722235D01*
X157219868Y-65635000D01*
X157278157Y-65547765D01*
X157327440Y-65300000D01*
X157327440Y-64700000D01*
X157324456Y-64685000D01*
X157583361Y-64685000D01*
X157704071Y-64735000D01*
X158095929Y-64735000D01*
X158457958Y-64585042D01*
X158735042Y-64307958D01*
X158885000Y-63945929D01*
X158885000Y-63554071D01*
X158735042Y-63192042D01*
X158493000Y-62950000D01*
X158535042Y-62907958D01*
X158685000Y-62545929D01*
X158685000Y-62154071D01*
X158535042Y-61792042D01*
X158257958Y-61514958D01*
X157895929Y-61365000D01*
X157504071Y-61365000D01*
X157327440Y-61438163D01*
X157327440Y-60890000D01*
X157278157Y-60642235D01*
X157219868Y-60555000D01*
X157278157Y-60467765D01*
X157327440Y-60220000D01*
X157327440Y-59620000D01*
X157278157Y-59372235D01*
X157137809Y-59162191D01*
X156927765Y-59021843D01*
X156680000Y-58972560D01*
X155709540Y-58972560D01*
X155679999Y-58966684D01*
X155650459Y-58972560D01*
X154680000Y-58972560D01*
X154466637Y-59015000D01*
X153216639Y-59015000D01*
X153095929Y-58965000D01*
X152704071Y-58965000D01*
X152342042Y-59114958D01*
X152064958Y-59392042D01*
X151915000Y-59754071D01*
X151915000Y-60142560D01*
X151040000Y-60142560D01*
X150715699Y-60207068D01*
X150658929Y-60245000D01*
X147173905Y-60245000D01*
X146860000Y-60182560D01*
X145960000Y-60182560D01*
X145847187Y-60205000D01*
X142093905Y-60205000D01*
X141780000Y-60142560D01*
X140880000Y-60142560D01*
X140566095Y-60205000D01*
X137627290Y-60205000D01*
X137185000Y-59762711D01*
X137185000Y-58800587D01*
X137297765Y-58778157D01*
X137507809Y-58637809D01*
X137648157Y-58427765D01*
X137674785Y-58293894D01*
X137755423Y-58414577D01*
X138230091Y-58731740D01*
X138648667Y-58815000D01*
X138931333Y-58815000D01*
X139349909Y-58731740D01*
X139824577Y-58414577D01*
X140060000Y-58062242D01*
X140295423Y-58414577D01*
X140770091Y-58731740D01*
X141188667Y-58815000D01*
X141471333Y-58815000D01*
X141889909Y-58731740D01*
X142364577Y-58414577D01*
X142600000Y-58062242D01*
X142835423Y-58414577D01*
X143310091Y-58731740D01*
X143728667Y-58815000D01*
X144011333Y-58815000D01*
X144429909Y-58731740D01*
X144904577Y-58414577D01*
X145140000Y-58062242D01*
X145375423Y-58414577D01*
X145850091Y-58731740D01*
X146268667Y-58815000D01*
X146551333Y-58815000D01*
X146969909Y-58731740D01*
X147444577Y-58414577D01*
X147761740Y-57939909D01*
X147873113Y-57380000D01*
X147761740Y-56820091D01*
X147444577Y-56345423D01*
X146969909Y-56028260D01*
X146551333Y-55945000D01*
X146268667Y-55945000D01*
X145850091Y-56028260D01*
X145375423Y-56345423D01*
X145140000Y-56697758D01*
X144904577Y-56345423D01*
X144429909Y-56028260D01*
X144011333Y-55945000D01*
X143728667Y-55945000D01*
X143310091Y-56028260D01*
X142835423Y-56345423D01*
X142600000Y-56697758D01*
X142364577Y-56345423D01*
X141889909Y-56028260D01*
X141471333Y-55945000D01*
X141188667Y-55945000D01*
X140770091Y-56028260D01*
X140295423Y-56345423D01*
X140060000Y-56697758D01*
X139824577Y-56345423D01*
X139349909Y-56028260D01*
X138931333Y-55945000D01*
X138648667Y-55945000D01*
X138230091Y-56028260D01*
X137755423Y-56345423D01*
X137674785Y-56466106D01*
X137648157Y-56332235D01*
X137507809Y-56122191D01*
X137297765Y-55981843D01*
X137050000Y-55932560D01*
X135450000Y-55932560D01*
X135202235Y-55981843D01*
X134992191Y-56122191D01*
X134851843Y-56332235D01*
X134802560Y-56580000D01*
X134802560Y-58180000D01*
X134851843Y-58427765D01*
X134992191Y-58637809D01*
X135202235Y-58778157D01*
X135315000Y-58800587D01*
X135315000Y-60057914D01*
X135296683Y-60150000D01*
X135315001Y-60242090D01*
X135315001Y-60314442D01*
X135200769Y-60390769D01*
X135017068Y-60665699D01*
X134952560Y-60990000D01*
X134952560Y-61390000D01*
X135017068Y-61714301D01*
X135131891Y-61886146D01*
X135015013Y-62077031D01*
X135005334Y-62153877D01*
X135133002Y-62313000D01*
X136123000Y-62313000D01*
X136123000Y-62293000D01*
X136377000Y-62293000D01*
X136377000Y-62313000D01*
X137366998Y-62313000D01*
X137477719Y-62175000D01*
X140102281Y-62175000D01*
X140213002Y-62313000D01*
X141203000Y-62313000D01*
X141203000Y-62293000D01*
X141457000Y-62293000D01*
X141457000Y-62313000D01*
X142446998Y-62313000D01*
X142557719Y-62175000D01*
X145167712Y-62175000D01*
X145165334Y-62193877D01*
X145293002Y-62353000D01*
X146283000Y-62353000D01*
X146283000Y-62333000D01*
X146537000Y-62333000D01*
X146537000Y-62353000D01*
X147526998Y-62353000D01*
X147637719Y-62215000D01*
X150294374Y-62215000D01*
X150373002Y-62313000D01*
X151363000Y-62313000D01*
X151363000Y-62293000D01*
X151617000Y-62293000D01*
X151617000Y-62313000D01*
X152606998Y-62313000D01*
X152734666Y-62153877D01*
X152724987Y-62077031D01*
X152608109Y-61886146D01*
X152722932Y-61714301D01*
X152787440Y-61390000D01*
X152787440Y-60990000D01*
X152776500Y-60935000D01*
X152922900Y-60935000D01*
X152915000Y-60954071D01*
X152915000Y-61345929D01*
X153064958Y-61707958D01*
X153342042Y-61985042D01*
X153704071Y-62135000D01*
X153898188Y-62135000D01*
X153940000Y-62143317D01*
X153981812Y-62135000D01*
X154037533Y-62135000D01*
X154032560Y-62160000D01*
X154032560Y-62760000D01*
X154081843Y-63007765D01*
X154140132Y-63095000D01*
X154081843Y-63182235D01*
X154032560Y-63430000D01*
X154032560Y-64030000D01*
X154039522Y-64065000D01*
X153187290Y-64065000D01*
X152791052Y-63668762D01*
X152714948Y-63286163D01*
X152565802Y-63062950D01*
X152724987Y-62802969D01*
X152734666Y-62726123D01*
X152606998Y-62567000D01*
X151617000Y-62567000D01*
X151617000Y-62587000D01*
X151363000Y-62587000D01*
X151363000Y-62567000D01*
X150373002Y-62567000D01*
X150245334Y-62726123D01*
X150255013Y-62802969D01*
X150414198Y-63062950D01*
X150265052Y-63286163D01*
X150184724Y-63690000D01*
X150265052Y-64093837D01*
X150493807Y-64436193D01*
X150836163Y-64664948D01*
X151138065Y-64725000D01*
X151202711Y-64725000D01*
X151812710Y-65335000D01*
X149587290Y-65335000D01*
X147648976Y-63396687D01*
X147634948Y-63326163D01*
X147485802Y-63102950D01*
X147644987Y-62842969D01*
X147654666Y-62766123D01*
X147526998Y-62607000D01*
X146537000Y-62607000D01*
X146537000Y-62627000D01*
X146283000Y-62627000D01*
X146283000Y-62607000D01*
X145293002Y-62607000D01*
X145165334Y-62766123D01*
X145175013Y-62842969D01*
X145334198Y-63102950D01*
X145185052Y-63326163D01*
X145104724Y-63730000D01*
X145185052Y-64133837D01*
X145413807Y-64476193D01*
X145756163Y-64704948D01*
X146058065Y-64765000D01*
X146372711Y-64765000D01*
X148212710Y-66605000D01*
X145817290Y-66605000D01*
X142568976Y-63356687D01*
X142554948Y-63286163D01*
X142405802Y-63062950D01*
X142564987Y-62802969D01*
X142574666Y-62726123D01*
X142446998Y-62567000D01*
X141457000Y-62567000D01*
X141457000Y-62587000D01*
X141203000Y-62587000D01*
X141203000Y-62567000D01*
X140213002Y-62567000D01*
X140085334Y-62726123D01*
X140095013Y-62802969D01*
X140254198Y-63062950D01*
X140105052Y-63286163D01*
X140024724Y-63690000D01*
X140105052Y-64093837D01*
X140333807Y-64436193D01*
X140676163Y-64664948D01*
X140978065Y-64725000D01*
X141292711Y-64725000D01*
X144442710Y-67875000D01*
X142007290Y-67875000D01*
X137488976Y-63356687D01*
X137474948Y-63286163D01*
X137325802Y-63062950D01*
X137484987Y-62802969D01*
X137494666Y-62726123D01*
X137366998Y-62567000D01*
X136377000Y-62567000D01*
X136377000Y-62587000D01*
X136123000Y-62587000D01*
X136123000Y-62567000D01*
X135133002Y-62567000D01*
X135005334Y-62726123D01*
X135015013Y-62802969D01*
X135174198Y-63062950D01*
X135025052Y-63286163D01*
X134944724Y-63690000D01*
X135025052Y-64093837D01*
X135253807Y-64436193D01*
X135596163Y-64664948D01*
X135898065Y-64725000D01*
X136212711Y-64725000D01*
X140641684Y-69153974D01*
X140050640Y-68912391D01*
X138922819Y-68917670D01*
X137905368Y-69339112D01*
X137660223Y-69730618D01*
X139500000Y-71570395D01*
X139514143Y-71556253D01*
X139693748Y-71735858D01*
X139679605Y-71750000D01*
X141519382Y-73589777D01*
X141910888Y-73344632D01*
X142337609Y-72300640D01*
X142332330Y-71172819D01*
X141998032Y-70365750D01*
X154045000Y-70365750D01*
X154045000Y-70506310D01*
X154141673Y-70739699D01*
X154320302Y-70918327D01*
X154553691Y-71015000D01*
X155394250Y-71015000D01*
X155553000Y-70856250D01*
X155553000Y-70207000D01*
X154203750Y-70207000D01*
X154045000Y-70365750D01*
X141998032Y-70365750D01*
X141910888Y-70155368D01*
X141519384Y-69910224D01*
X141631966Y-69797642D01*
X141592088Y-69757764D01*
X141619999Y-69763316D01*
X141712080Y-69745000D01*
X154045000Y-69745000D01*
X154045000Y-69794250D01*
X154203750Y-69953000D01*
X155553000Y-69953000D01*
X155553000Y-69933000D01*
X155807000Y-69933000D01*
X155807000Y-69953000D01*
X155827000Y-69953000D01*
X155827000Y-70207000D01*
X155807000Y-70207000D01*
X155807000Y-70856250D01*
X155965750Y-71015000D01*
X156806309Y-71015000D01*
X156965000Y-70949268D01*
X156965000Y-72162710D01*
X154195971Y-74931740D01*
X154117902Y-74983904D01*
X154085097Y-75033000D01*
X153752119Y-75033000D01*
X153238663Y-75245680D01*
X152845680Y-75638663D01*
X152760000Y-75845513D01*
X152674320Y-75638663D01*
X152281337Y-75245680D01*
X151767881Y-75033000D01*
X151212119Y-75033000D01*
X150698663Y-75245680D01*
X150305680Y-75638663D01*
X150220000Y-75845513D01*
X150134320Y-75638663D01*
X149741337Y-75245680D01*
X149227881Y-75033000D01*
X148672119Y-75033000D01*
X148158663Y-75245680D01*
X147765680Y-75638663D01*
X147680000Y-75845513D01*
X147594320Y-75638663D01*
X147201337Y-75245680D01*
X146687881Y-75033000D01*
X146132119Y-75033000D01*
X145618663Y-75245680D01*
X145225680Y-75638663D01*
X145140000Y-75845513D01*
X145054320Y-75638663D01*
X144661337Y-75245680D01*
X144147881Y-75033000D01*
X143592119Y-75033000D01*
X143078663Y-75245680D01*
X142685680Y-75638663D01*
X142600000Y-75845513D01*
X142514320Y-75638663D01*
X142121337Y-75245680D01*
X141607881Y-75033000D01*
X141052119Y-75033000D01*
X140538663Y-75245680D01*
X140145680Y-75638663D01*
X140066572Y-75829647D01*
X140012397Y-75698857D01*
X139770213Y-75629392D01*
X138969605Y-76430000D01*
X139770213Y-77230608D01*
X140012397Y-77161143D01*
X140062535Y-77020607D01*
X140145680Y-77221337D01*
X140538663Y-77614320D01*
X141052119Y-77827000D01*
X141607881Y-77827000D01*
X142121337Y-77614320D01*
X142514320Y-77221337D01*
X142600000Y-77014487D01*
X142685680Y-77221337D01*
X143078663Y-77614320D01*
X143592119Y-77827000D01*
X144147881Y-77827000D01*
X144661337Y-77614320D01*
X145054320Y-77221337D01*
X145140000Y-77014487D01*
X145225680Y-77221337D01*
X145618663Y-77614320D01*
X146132119Y-77827000D01*
X146687881Y-77827000D01*
X147201337Y-77614320D01*
X147594320Y-77221337D01*
X147680000Y-77014487D01*
X147765680Y-77221337D01*
X148158663Y-77614320D01*
X148672119Y-77827000D01*
X149227881Y-77827000D01*
X149741337Y-77614320D01*
X150134320Y-77221337D01*
X150220000Y-77014487D01*
X150305680Y-77221337D01*
X150698663Y-77614320D01*
X151212119Y-77827000D01*
X151767881Y-77827000D01*
X152281337Y-77614320D01*
X152674320Y-77221337D01*
X152760000Y-77014487D01*
X152845680Y-77221337D01*
X153238663Y-77614320D01*
X153752119Y-77827000D01*
X154307881Y-77827000D01*
X154821337Y-77614320D01*
X155214320Y-77221337D01*
X155300000Y-77014487D01*
X155385680Y-77221337D01*
X155778663Y-77614320D01*
X156292119Y-77827000D01*
X156847881Y-77827000D01*
X157361337Y-77614320D01*
X157754320Y-77221337D01*
X157840000Y-77014487D01*
X157925680Y-77221337D01*
X158318663Y-77614320D01*
X158832119Y-77827000D01*
X159387881Y-77827000D01*
X159901337Y-77614320D01*
X160294320Y-77221337D01*
X160380000Y-77014487D01*
X160465680Y-77221337D01*
X160858663Y-77614320D01*
X161372119Y-77827000D01*
X161724711Y-77827000D01*
X164973969Y-81076259D01*
X164973972Y-81076261D01*
X165843739Y-81946028D01*
X165895903Y-82024097D01*
X166205181Y-82230750D01*
X166477914Y-82285000D01*
X166570000Y-82303317D01*
X166662086Y-82285000D01*
X186112711Y-82285000D01*
X189621024Y-85793314D01*
X189635052Y-85863837D01*
X189782828Y-86085000D01*
X189635052Y-86306163D01*
X189554724Y-86710000D01*
X189635052Y-87113837D01*
X189782828Y-87335000D01*
X189635052Y-87556163D01*
X189554724Y-87960000D01*
X189635052Y-88363837D01*
X189782828Y-88585000D01*
X189635052Y-88806163D01*
X189554724Y-89210000D01*
X189635052Y-89613837D01*
X189782828Y-89835000D01*
X189635052Y-90056163D01*
X189554724Y-90460000D01*
X189635052Y-90863837D01*
X189782828Y-91085000D01*
X189635052Y-91306163D01*
X189554724Y-91710000D01*
X189635052Y-92113837D01*
X189782828Y-92335000D01*
X189635052Y-92556163D01*
X189554724Y-92960000D01*
X189635052Y-93363837D01*
X189684353Y-93437622D01*
X189671673Y-93450302D01*
X189575000Y-93683691D01*
X189575000Y-93924250D01*
X189733750Y-94083000D01*
X190733000Y-94083000D01*
X190733000Y-94063000D01*
X190987000Y-94063000D01*
X190987000Y-94083000D01*
X191007000Y-94083000D01*
X191007000Y-94337000D01*
X190987000Y-94337000D01*
X190987000Y-95086250D01*
X191145750Y-95245000D01*
X191565000Y-95245000D01*
X191565001Y-97572709D01*
X190822711Y-98315000D01*
X190508065Y-98315000D01*
X190206163Y-98375052D01*
X189935000Y-98556237D01*
X189935000Y-97851934D01*
X189955276Y-97750000D01*
X189928655Y-97616164D01*
X189874948Y-97346163D01*
X189646193Y-97003807D01*
X189559776Y-96946065D01*
X187109461Y-94495750D01*
X189575000Y-94495750D01*
X189575000Y-94736309D01*
X189671673Y-94969698D01*
X189850301Y-95148327D01*
X190083690Y-95245000D01*
X190574250Y-95245000D01*
X190733000Y-95086250D01*
X190733000Y-94337000D01*
X189733750Y-94337000D01*
X189575000Y-94495750D01*
X187109461Y-94495750D01*
X185503937Y-92890227D01*
X185446193Y-92803807D01*
X185295444Y-92703080D01*
X185310608Y-92650213D01*
X184510000Y-91849605D01*
X184495858Y-91863748D01*
X184316253Y-91684143D01*
X184330395Y-91670000D01*
X184689605Y-91670000D01*
X185490213Y-92470608D01*
X185732397Y-92401143D01*
X185919144Y-91877698D01*
X185891362Y-91322632D01*
X185732397Y-90938857D01*
X185490213Y-90869392D01*
X184689605Y-91670000D01*
X184330395Y-91670000D01*
X183529787Y-90869392D01*
X183287603Y-90938857D01*
X183243547Y-91062344D01*
X183192397Y-90938857D01*
X182950213Y-90869392D01*
X182149605Y-91670000D01*
X182163748Y-91684143D01*
X181984143Y-91863748D01*
X181970000Y-91849605D01*
X181955858Y-91863748D01*
X181776253Y-91684143D01*
X181790395Y-91670000D01*
X180989787Y-90869392D01*
X180747603Y-90938857D01*
X180697465Y-91079393D01*
X180614320Y-90878663D01*
X180425444Y-90689787D01*
X181169392Y-90689787D01*
X181970000Y-91490395D01*
X182770608Y-90689787D01*
X183709392Y-90689787D01*
X184510000Y-91490395D01*
X185310608Y-90689787D01*
X185241143Y-90447603D01*
X184717698Y-90260856D01*
X184162632Y-90288638D01*
X183778857Y-90447603D01*
X183709392Y-90689787D01*
X182770608Y-90689787D01*
X182701143Y-90447603D01*
X182177698Y-90260856D01*
X181622632Y-90288638D01*
X181238857Y-90447603D01*
X181169392Y-90689787D01*
X180425444Y-90689787D01*
X180221337Y-90485680D01*
X179707881Y-90273000D01*
X179152119Y-90273000D01*
X178638663Y-90485680D01*
X178245680Y-90878663D01*
X178160000Y-91085513D01*
X178074320Y-90878663D01*
X177681337Y-90485680D01*
X177167881Y-90273000D01*
X176612119Y-90273000D01*
X176098663Y-90485680D01*
X175705680Y-90878663D01*
X175620000Y-91085513D01*
X175534320Y-90878663D01*
X175141337Y-90485680D01*
X174627881Y-90273000D01*
X174072119Y-90273000D01*
X173558663Y-90485680D01*
X173165680Y-90878663D01*
X173080000Y-91085513D01*
X172994320Y-90878663D01*
X172601337Y-90485680D01*
X172087881Y-90273000D01*
X171532119Y-90273000D01*
X171018663Y-90485680D01*
X170625680Y-90878663D01*
X170540000Y-91085513D01*
X170454320Y-90878663D01*
X170405000Y-90829343D01*
X170405000Y-88858736D01*
X170471673Y-89019699D01*
X170650302Y-89198327D01*
X170883691Y-89295000D01*
X171524250Y-89295000D01*
X171683000Y-89136250D01*
X171683000Y-87987000D01*
X171937000Y-87987000D01*
X171937000Y-89136250D01*
X172095750Y-89295000D01*
X172736309Y-89295000D01*
X172969698Y-89198327D01*
X173148327Y-89019699D01*
X173245000Y-88786310D01*
X173245000Y-88145750D01*
X173086250Y-87987000D01*
X171937000Y-87987000D01*
X171683000Y-87987000D01*
X171663000Y-87987000D01*
X171663000Y-87733000D01*
X171683000Y-87733000D01*
X171683000Y-86583750D01*
X171937000Y-86583750D01*
X171937000Y-87733000D01*
X173086250Y-87733000D01*
X173245000Y-87574250D01*
X173245000Y-86933690D01*
X173148327Y-86700301D01*
X172969698Y-86521673D01*
X172736309Y-86425000D01*
X172095750Y-86425000D01*
X171937000Y-86583750D01*
X171683000Y-86583750D01*
X171524250Y-86425000D01*
X170883691Y-86425000D01*
X170650302Y-86521673D01*
X170471673Y-86700301D01*
X170375734Y-86931917D01*
X170304577Y-86825423D01*
X169829909Y-86508260D01*
X169411333Y-86425000D01*
X169128667Y-86425000D01*
X168710091Y-86508260D01*
X168235423Y-86825423D01*
X168000000Y-87177758D01*
X167764577Y-86825423D01*
X167289909Y-86508260D01*
X166871333Y-86425000D01*
X166588667Y-86425000D01*
X166170091Y-86508260D01*
X165695423Y-86825423D01*
X165460000Y-87177758D01*
X165224577Y-86825423D01*
X164749909Y-86508260D01*
X164331333Y-86425000D01*
X164048667Y-86425000D01*
X163630091Y-86508260D01*
X163155423Y-86825423D01*
X162920000Y-87177758D01*
X162684577Y-86825423D01*
X162209909Y-86508260D01*
X161791333Y-86425000D01*
X161508667Y-86425000D01*
X161090091Y-86508260D01*
X160615423Y-86825423D01*
X160380000Y-87177758D01*
X160144577Y-86825423D01*
X159669909Y-86508260D01*
X159251333Y-86425000D01*
X158968667Y-86425000D01*
X158550091Y-86508260D01*
X158075423Y-86825423D01*
X157840000Y-87177758D01*
X157604577Y-86825423D01*
X157129909Y-86508260D01*
X156711333Y-86425000D01*
X156428667Y-86425000D01*
X156010091Y-86508260D01*
X155535423Y-86825423D01*
X155300000Y-87177758D01*
X155064577Y-86825423D01*
X154589909Y-86508260D01*
X154171333Y-86425000D01*
X153888667Y-86425000D01*
X153470091Y-86508260D01*
X152995423Y-86825423D01*
X152760000Y-87177758D01*
X152524577Y-86825423D01*
X152049909Y-86508260D01*
X151631333Y-86425000D01*
X151348667Y-86425000D01*
X150930091Y-86508260D01*
X150455423Y-86825423D01*
X150220000Y-87177758D01*
X149984577Y-86825423D01*
X149509909Y-86508260D01*
X149091333Y-86425000D01*
X148808667Y-86425000D01*
X148390091Y-86508260D01*
X147915423Y-86825423D01*
X147680000Y-87177758D01*
X147444577Y-86825423D01*
X146969909Y-86508260D01*
X146551333Y-86425000D01*
X146268667Y-86425000D01*
X145850091Y-86508260D01*
X145375423Y-86825423D01*
X145058260Y-87300091D01*
X144946887Y-87860000D01*
X145058260Y-88419909D01*
X145275001Y-88744285D01*
X145275001Y-90829342D01*
X145225680Y-90878663D01*
X145140000Y-91085513D01*
X145054320Y-90878663D01*
X144661337Y-90485680D01*
X144147881Y-90273000D01*
X143592119Y-90273000D01*
X143078663Y-90485680D01*
X142685680Y-90878663D01*
X142600000Y-91085513D01*
X142514320Y-90878663D01*
X142121337Y-90485680D01*
X141607881Y-90273000D01*
X141052119Y-90273000D01*
X140538663Y-90485680D01*
X140145680Y-90878663D01*
X140060000Y-91085513D01*
X139974320Y-90878663D01*
X139581337Y-90485680D01*
X139067881Y-90273000D01*
X138512119Y-90273000D01*
X137998663Y-90485680D01*
X137605680Y-90878663D01*
X137520000Y-91085513D01*
X137434320Y-90878663D01*
X137285000Y-90729343D01*
X137285000Y-77410213D01*
X137989392Y-77410213D01*
X138058857Y-77652397D01*
X138582302Y-77839144D01*
X139137368Y-77811362D01*
X139521143Y-77652397D01*
X139590608Y-77410213D01*
X138790000Y-76609605D01*
X137989392Y-77410213D01*
X137285000Y-77410213D01*
X137285000Y-77370657D01*
X137434320Y-77221337D01*
X137513428Y-77030353D01*
X137567603Y-77161143D01*
X137809787Y-77230608D01*
X138610395Y-76430000D01*
X137809787Y-75629392D01*
X137567603Y-75698857D01*
X137517465Y-75839393D01*
X137434320Y-75638663D01*
X137245444Y-75449787D01*
X137989392Y-75449787D01*
X138790000Y-76250395D01*
X139590608Y-75449787D01*
X139521143Y-75207603D01*
X138997698Y-75020856D01*
X138442632Y-75048638D01*
X138058857Y-75207603D01*
X137989392Y-75449787D01*
X137245444Y-75449787D01*
X137041337Y-75245680D01*
X136527881Y-75033000D01*
X135972119Y-75033000D01*
X135458663Y-75245680D01*
X135065680Y-75638663D01*
X134853000Y-76152119D01*
X134853000Y-76707881D01*
X135065680Y-77221337D01*
X135215001Y-77370658D01*
X135215000Y-90729343D01*
X135065680Y-90878663D01*
X134853000Y-91392119D01*
X134853000Y-91947881D01*
X135065680Y-92461337D01*
X135458663Y-92854320D01*
X135972119Y-93067000D01*
X136527881Y-93067000D01*
X137041337Y-92854320D01*
X137434320Y-92461337D01*
X137520000Y-92254487D01*
X137605680Y-92461337D01*
X137998663Y-92854320D01*
X138512119Y-93067000D01*
X139067881Y-93067000D01*
X139581337Y-92854320D01*
X139974320Y-92461337D01*
X140060000Y-92254487D01*
X140145680Y-92461337D01*
X140538663Y-92854320D01*
X141052119Y-93067000D01*
X141607881Y-93067000D01*
X142121337Y-92854320D01*
X142514320Y-92461337D01*
X142600000Y-92254487D01*
X142685680Y-92461337D01*
X143078663Y-92854320D01*
X143592119Y-93067000D01*
X144147881Y-93067000D01*
X144661337Y-92854320D01*
X145054320Y-92461337D01*
X145140000Y-92254487D01*
X145225680Y-92461337D01*
X145275000Y-92510657D01*
X145275000Y-95865716D01*
X145058260Y-96190091D01*
X144946887Y-96750000D01*
X145058260Y-97309909D01*
X145375423Y-97784577D01*
X145850091Y-98101740D01*
X146268667Y-98185000D01*
X146551333Y-98185000D01*
X146969909Y-98101740D01*
X147444577Y-97784577D01*
X147680000Y-97432242D01*
X147915423Y-97784577D01*
X148390091Y-98101740D01*
X148808667Y-98185000D01*
X149091333Y-98185000D01*
X149509909Y-98101740D01*
X149984577Y-97784577D01*
X150220000Y-97432242D01*
X150455423Y-97784577D01*
X150930091Y-98101740D01*
X151348667Y-98185000D01*
X151631333Y-98185000D01*
X152049909Y-98101740D01*
X152524577Y-97784577D01*
X152760000Y-97432242D01*
X152995423Y-97784577D01*
X153470091Y-98101740D01*
X153888667Y-98185000D01*
X154171333Y-98185000D01*
X154589909Y-98101740D01*
X155064577Y-97784577D01*
X155300000Y-97432242D01*
X155535423Y-97784577D01*
X156010091Y-98101740D01*
X156428667Y-98185000D01*
X156711333Y-98185000D01*
X157129909Y-98101740D01*
X157604577Y-97784577D01*
X157840000Y-97432242D01*
X158075423Y-97784577D01*
X158550091Y-98101740D01*
X158968667Y-98185000D01*
X159251333Y-98185000D01*
X159669909Y-98101740D01*
X160144577Y-97784577D01*
X160380000Y-97432242D01*
X160615423Y-97784577D01*
X161090091Y-98101740D01*
X161508667Y-98185000D01*
X161791333Y-98185000D01*
X162209909Y-98101740D01*
X162684577Y-97784577D01*
X162920000Y-97432242D01*
X163155423Y-97784577D01*
X163630091Y-98101740D01*
X164048667Y-98185000D01*
X164331333Y-98185000D01*
X164749909Y-98101740D01*
X165224577Y-97784577D01*
X165460000Y-97432242D01*
X165695423Y-97784577D01*
X166170091Y-98101740D01*
X166588667Y-98185000D01*
X166871333Y-98185000D01*
X167289909Y-98101740D01*
X167764577Y-97784577D01*
X167845215Y-97663894D01*
X167871843Y-97797765D01*
X168012191Y-98007809D01*
X168222235Y-98148157D01*
X168470000Y-98197440D01*
X170070000Y-98197440D01*
X170317765Y-98148157D01*
X170527809Y-98007809D01*
X170668157Y-97797765D01*
X170717440Y-97550000D01*
X170717440Y-95950000D01*
X170668157Y-95702235D01*
X170527809Y-95492191D01*
X170405000Y-95410132D01*
X170405000Y-92510657D01*
X170454320Y-92461337D01*
X170540000Y-92254487D01*
X170625680Y-92461337D01*
X171018663Y-92854320D01*
X171532119Y-93067000D01*
X171743290Y-93067000D01*
X174086065Y-95409776D01*
X174143807Y-95496193D01*
X174230223Y-95553934D01*
X174486163Y-95724948D01*
X174890000Y-95805276D01*
X174991934Y-95785000D01*
X183671290Y-95785000D01*
X186665001Y-98778712D01*
X186665000Y-101048065D01*
X186644724Y-101150000D01*
X186665000Y-101251934D01*
X186725052Y-101553836D01*
X186953807Y-101896193D01*
X187040227Y-101953937D01*
X188846065Y-103759776D01*
X188903807Y-103846193D01*
X189246163Y-104074948D01*
X189548065Y-104135000D01*
X189548070Y-104135000D01*
X189649999Y-104155275D01*
X189751929Y-104135000D01*
X190347460Y-104135000D01*
X190410000Y-104147440D01*
X191310000Y-104147440D01*
X191634301Y-104082932D01*
X191909231Y-103899231D01*
X192092932Y-103624301D01*
X192157440Y-103300000D01*
X192157440Y-102900000D01*
X192092932Y-102575699D01*
X191981410Y-102408793D01*
X192084948Y-102253837D01*
X192165276Y-101850000D01*
X192084948Y-101446163D01*
X191935802Y-101222950D01*
X192094987Y-100962969D01*
X192104666Y-100886123D01*
X191976998Y-100727000D01*
X190987000Y-100727000D01*
X190987000Y-100747000D01*
X190733000Y-100747000D01*
X190733000Y-100727000D01*
X190713000Y-100727000D01*
X190713000Y-100473000D01*
X190733000Y-100473000D01*
X190733000Y-100453000D01*
X190987000Y-100453000D01*
X190987000Y-100473000D01*
X191976998Y-100473000D01*
X192104666Y-100313877D01*
X192094987Y-100237031D01*
X191935802Y-99977050D01*
X192084948Y-99753837D01*
X192098976Y-99683313D01*
X192690000Y-99092289D01*
X192690000Y-112550000D01*
X134420000Y-112550000D01*
X134420000Y-108220000D01*
X134944724Y-108220000D01*
X135025052Y-108623837D01*
X135174198Y-108847050D01*
X135015013Y-109107031D01*
X135005334Y-109183877D01*
X135133002Y-109343000D01*
X136123000Y-109343000D01*
X136123000Y-109323000D01*
X136377000Y-109323000D01*
X136377000Y-109343000D01*
X137366998Y-109343000D01*
X137494666Y-109183877D01*
X137484987Y-109107031D01*
X137325802Y-108847050D01*
X137474948Y-108623837D01*
X137555276Y-108220000D01*
X137474948Y-107816163D01*
X137285000Y-107531886D01*
X137285000Y-107448710D01*
X139328711Y-105405000D01*
X145376056Y-105405000D01*
X145850091Y-105721740D01*
X146087355Y-105768935D01*
X145891290Y-105965000D01*
X142881934Y-105965000D01*
X142779999Y-105944724D01*
X142376163Y-106025052D01*
X142033807Y-106253807D01*
X141976066Y-106340223D01*
X141151290Y-107165000D01*
X140978065Y-107165000D01*
X140676163Y-107225052D01*
X140333807Y-107453807D01*
X140105052Y-107796163D01*
X140024724Y-108200000D01*
X140105052Y-108603837D01*
X140254198Y-108827050D01*
X140095013Y-109087031D01*
X140085334Y-109163877D01*
X140213002Y-109323000D01*
X141203000Y-109323000D01*
X141203000Y-109303000D01*
X141457000Y-109303000D01*
X141457000Y-109323000D01*
X142446998Y-109323000D01*
X142574666Y-109163877D01*
X142564987Y-109087031D01*
X142409926Y-108833785D01*
X143208711Y-108035000D01*
X145141523Y-108035000D01*
X145104724Y-108220000D01*
X145185052Y-108623837D01*
X145334198Y-108847050D01*
X145175013Y-109107031D01*
X145165334Y-109183877D01*
X145293002Y-109343000D01*
X146283000Y-109343000D01*
X146283000Y-109323000D01*
X146537000Y-109323000D01*
X146537000Y-109343000D01*
X147526998Y-109343000D01*
X147589409Y-109265213D01*
X147640000Y-109275276D01*
X147741934Y-109255000D01*
X147741935Y-109255000D01*
X148043837Y-109194948D01*
X148386193Y-108966193D01*
X148443937Y-108879773D01*
X150439942Y-106883769D01*
X150434724Y-106910000D01*
X150455001Y-107011939D01*
X150455001Y-107531885D01*
X150265052Y-107816163D01*
X150184724Y-108220000D01*
X150265052Y-108623837D01*
X150414198Y-108847050D01*
X150255013Y-109107031D01*
X150245334Y-109183877D01*
X150373002Y-109343000D01*
X151363000Y-109343000D01*
X151363000Y-109323000D01*
X151617000Y-109323000D01*
X151617000Y-109343000D01*
X152606998Y-109343000D01*
X152734666Y-109183877D01*
X152724987Y-109107031D01*
X152565802Y-108847050D01*
X152714948Y-108623837D01*
X152795276Y-108220000D01*
X152714948Y-107816163D01*
X152525000Y-107531886D01*
X152525000Y-107338710D01*
X154058711Y-105805000D01*
X154171333Y-105805000D01*
X154589909Y-105721740D01*
X155064577Y-105404577D01*
X155300000Y-105052242D01*
X155535001Y-105403945D01*
X155535000Y-107531885D01*
X155345052Y-107816163D01*
X155264724Y-108220000D01*
X155345052Y-108623837D01*
X155494198Y-108847050D01*
X155335013Y-109107031D01*
X155325334Y-109183877D01*
X155453002Y-109343000D01*
X156443000Y-109343000D01*
X156443000Y-109323000D01*
X156697000Y-109323000D01*
X156697000Y-109343000D01*
X157686998Y-109343000D01*
X157814666Y-109183877D01*
X157804987Y-109107031D01*
X157645802Y-108847050D01*
X157794948Y-108623837D01*
X157875276Y-108220000D01*
X157794948Y-107816163D01*
X157605000Y-107531886D01*
X157605000Y-105403944D01*
X157840000Y-105052242D01*
X158075001Y-105403945D01*
X158075001Y-105578061D01*
X158054724Y-105680000D01*
X158135052Y-106083836D01*
X158246229Y-106250224D01*
X158363808Y-106426193D01*
X158450225Y-106483935D01*
X160384064Y-108417774D01*
X160425052Y-108623837D01*
X160574198Y-108847050D01*
X160415013Y-109107031D01*
X160405334Y-109183877D01*
X160533002Y-109343000D01*
X161523000Y-109343000D01*
X161523000Y-109323000D01*
X161777000Y-109323000D01*
X161777000Y-109343000D01*
X162766998Y-109343000D01*
X162894666Y-109183877D01*
X162884987Y-109107031D01*
X162725802Y-108847050D01*
X162874948Y-108623837D01*
X162955276Y-108220000D01*
X162874948Y-107816163D01*
X162646193Y-107473807D01*
X162303837Y-107245052D01*
X162097775Y-107204064D01*
X160206145Y-105312434D01*
X160380000Y-105052242D01*
X160615423Y-105404577D01*
X161090091Y-105721740D01*
X161508667Y-105805000D01*
X161621290Y-105805000D01*
X164696065Y-108879776D01*
X164753807Y-108966193D01*
X164840223Y-109023934D01*
X165096163Y-109194948D01*
X165499999Y-109275276D01*
X165550591Y-109265213D01*
X165613002Y-109343000D01*
X166603000Y-109343000D01*
X166603000Y-109323000D01*
X166857000Y-109323000D01*
X166857000Y-109343000D01*
X167846998Y-109343000D01*
X167974666Y-109183877D01*
X167964987Y-109107031D01*
X167805802Y-108847050D01*
X167954948Y-108623837D01*
X168035276Y-108220000D01*
X167980575Y-107945000D01*
X168621290Y-107945000D01*
X169556065Y-108879776D01*
X169613807Y-108966193D01*
X169700223Y-109023934D01*
X169956163Y-109194948D01*
X170360000Y-109275276D01*
X170461934Y-109255000D01*
X170622398Y-109255000D01*
X170693002Y-109343000D01*
X171683000Y-109343000D01*
X171683000Y-109323000D01*
X171937000Y-109323000D01*
X171937000Y-109343000D01*
X172926998Y-109343000D01*
X173054666Y-109183877D01*
X173044987Y-109107031D01*
X172885802Y-108847050D01*
X173034948Y-108623837D01*
X173115276Y-108220000D01*
X175584724Y-108220000D01*
X175665052Y-108623837D01*
X175814198Y-108847050D01*
X175655013Y-109107031D01*
X175645334Y-109183877D01*
X175773002Y-109343000D01*
X176763000Y-109343000D01*
X176763000Y-109323000D01*
X177017000Y-109323000D01*
X177017000Y-109343000D01*
X178006998Y-109343000D01*
X178134666Y-109183877D01*
X178124987Y-109107031D01*
X177965802Y-108847050D01*
X178114948Y-108623837D01*
X178195276Y-108220000D01*
X178114948Y-107816163D01*
X177886193Y-107473807D01*
X177543837Y-107245052D01*
X177241935Y-107185000D01*
X176538065Y-107185000D01*
X176236163Y-107245052D01*
X175893807Y-107473807D01*
X175665052Y-107816163D01*
X175584724Y-108220000D01*
X173115276Y-108220000D01*
X173034948Y-107816163D01*
X172806193Y-107473807D01*
X172463837Y-107245052D01*
X172161935Y-107185000D01*
X170788711Y-107185000D01*
X169853937Y-106250227D01*
X169796193Y-106163807D01*
X169453837Y-105935052D01*
X169151935Y-105875000D01*
X169151934Y-105875000D01*
X169050000Y-105854724D01*
X168948066Y-105875000D01*
X167158711Y-105875000D01*
X167052645Y-105768935D01*
X167289909Y-105721740D01*
X167764577Y-105404577D01*
X168000000Y-105052242D01*
X168235423Y-105404577D01*
X168710091Y-105721740D01*
X169128667Y-105805000D01*
X169411333Y-105805000D01*
X169829909Y-105721740D01*
X170303944Y-105405000D01*
X178911290Y-105405000D01*
X180935001Y-107428711D01*
X180935001Y-107511885D01*
X180745052Y-107796163D01*
X180664724Y-108200000D01*
X180745052Y-108603837D01*
X180894198Y-108827050D01*
X180735013Y-109087031D01*
X180725334Y-109163877D01*
X180853002Y-109323000D01*
X181843000Y-109323000D01*
X181843000Y-109303000D01*
X182097000Y-109303000D01*
X182097000Y-109323000D01*
X182117000Y-109323000D01*
X182117000Y-109577000D01*
X182097000Y-109577000D01*
X182097000Y-109597000D01*
X181843000Y-109597000D01*
X181843000Y-109577000D01*
X180853002Y-109577000D01*
X180782398Y-109665000D01*
X178061556Y-109665000D01*
X178006998Y-109597000D01*
X177017000Y-109597000D01*
X177017000Y-109617000D01*
X176763000Y-109617000D01*
X176763000Y-109597000D01*
X175773002Y-109597000D01*
X175718444Y-109665000D01*
X172981556Y-109665000D01*
X172926998Y-109597000D01*
X171937000Y-109597000D01*
X171937000Y-109617000D01*
X171683000Y-109617000D01*
X171683000Y-109597000D01*
X170693002Y-109597000D01*
X170638444Y-109665000D01*
X167901556Y-109665000D01*
X167846998Y-109597000D01*
X166857000Y-109597000D01*
X166857000Y-109617000D01*
X166603000Y-109617000D01*
X166603000Y-109597000D01*
X165613002Y-109597000D01*
X165558444Y-109665000D01*
X162821556Y-109665000D01*
X162766998Y-109597000D01*
X161777000Y-109597000D01*
X161777000Y-109617000D01*
X161523000Y-109617000D01*
X161523000Y-109597000D01*
X160533002Y-109597000D01*
X160478444Y-109665000D01*
X157741556Y-109665000D01*
X157686998Y-109597000D01*
X156697000Y-109597000D01*
X156697000Y-109617000D01*
X156443000Y-109617000D01*
X156443000Y-109597000D01*
X155453002Y-109597000D01*
X155398444Y-109665000D01*
X152661556Y-109665000D01*
X152606998Y-109597000D01*
X151617000Y-109597000D01*
X151617000Y-109617000D01*
X151363000Y-109617000D01*
X151363000Y-109597000D01*
X150373002Y-109597000D01*
X150302398Y-109685000D01*
X147597602Y-109685000D01*
X147526998Y-109597000D01*
X146537000Y-109597000D01*
X146537000Y-109617000D01*
X146283000Y-109617000D01*
X146283000Y-109597000D01*
X145293002Y-109597000D01*
X145222398Y-109685000D01*
X142533649Y-109685000D01*
X142446998Y-109577000D01*
X141457000Y-109577000D01*
X141457000Y-109597000D01*
X141203000Y-109597000D01*
X141203000Y-109577000D01*
X140213002Y-109577000D01*
X140126351Y-109685000D01*
X137437602Y-109685000D01*
X137366998Y-109597000D01*
X136377000Y-109597000D01*
X136377000Y-109617000D01*
X136123000Y-109617000D01*
X136123000Y-109597000D01*
X135133002Y-109597000D01*
X135005334Y-109756123D01*
X135015013Y-109832969D01*
X135131891Y-110023854D01*
X135017068Y-110195699D01*
X134952560Y-110520000D01*
X134952560Y-110920000D01*
X135017068Y-111244301D01*
X135200769Y-111519231D01*
X135475699Y-111702932D01*
X135800000Y-111767440D01*
X136700000Y-111767440D01*
X136762540Y-111755000D01*
X145897460Y-111755000D01*
X145960000Y-111767440D01*
X146860000Y-111767440D01*
X146922540Y-111755000D01*
X150977460Y-111755000D01*
X151040000Y-111767440D01*
X151450606Y-111767440D01*
X151490000Y-111775276D01*
X151529394Y-111767440D01*
X151940000Y-111767440D01*
X152103086Y-111735000D01*
X155956914Y-111735000D01*
X156120000Y-111767440D01*
X157020000Y-111767440D01*
X157183086Y-111735000D01*
X161036914Y-111735000D01*
X161200000Y-111767440D01*
X162100000Y-111767440D01*
X162263086Y-111735000D01*
X166116914Y-111735000D01*
X166280000Y-111767440D01*
X167180000Y-111767440D01*
X167343086Y-111735000D01*
X171196914Y-111735000D01*
X171360000Y-111767440D01*
X172260000Y-111767440D01*
X172423086Y-111735000D01*
X176276914Y-111735000D01*
X176440000Y-111767440D01*
X177340000Y-111767440D01*
X177402540Y-111755000D01*
X182598066Y-111755000D01*
X182700000Y-111775276D01*
X182801934Y-111755000D01*
X182801935Y-111755000D01*
X183103837Y-111694948D01*
X183441420Y-111469382D01*
X187750223Y-111469382D01*
X187995368Y-111860888D01*
X189039360Y-112287609D01*
X190167181Y-112282330D01*
X191184632Y-111860888D01*
X191429777Y-111469382D01*
X189590000Y-109629605D01*
X187750223Y-111469382D01*
X183441420Y-111469382D01*
X183446193Y-111466193D01*
X183454204Y-111454204D01*
X183466193Y-111446193D01*
X183523937Y-111359773D01*
X185559776Y-109323935D01*
X185646193Y-109266193D01*
X185874948Y-108923837D01*
X185879816Y-108899360D01*
X186752391Y-108899360D01*
X186757670Y-110027181D01*
X187179112Y-111044632D01*
X187570618Y-111289777D01*
X189410395Y-109450000D01*
X189769605Y-109450000D01*
X191609382Y-111289777D01*
X192000888Y-111044632D01*
X192427609Y-110000640D01*
X192422330Y-108872819D01*
X192000888Y-107855368D01*
X191609382Y-107610223D01*
X189769605Y-109450000D01*
X189410395Y-109450000D01*
X187570618Y-107610223D01*
X187179112Y-107855368D01*
X186752391Y-108899360D01*
X185879816Y-108899360D01*
X185935000Y-108621935D01*
X185935000Y-108621934D01*
X185955276Y-108520000D01*
X185935000Y-108418066D01*
X185935000Y-107430618D01*
X187750223Y-107430618D01*
X189590000Y-109270395D01*
X191429777Y-107430618D01*
X191184632Y-107039112D01*
X190140640Y-106612391D01*
X189012819Y-106617670D01*
X187995368Y-107039112D01*
X187750223Y-107430618D01*
X185935000Y-107430618D01*
X185935000Y-104871934D01*
X185955276Y-104770000D01*
X185874948Y-104366163D01*
X185809401Y-104268065D01*
X185646193Y-104023807D01*
X185559776Y-103966065D01*
X183957440Y-102363730D01*
X183957440Y-100480000D01*
X183908157Y-100232235D01*
X183767809Y-100022191D01*
X183622354Y-99925000D01*
X183767809Y-99827809D01*
X183908157Y-99617765D01*
X183957440Y-99370000D01*
X183957440Y-96670000D01*
X183908157Y-96422235D01*
X183767809Y-96212191D01*
X183557765Y-96071843D01*
X183310000Y-96022560D01*
X179810000Y-96022560D01*
X179562235Y-96071843D01*
X179352191Y-96212191D01*
X179211843Y-96422235D01*
X179162560Y-96670000D01*
X179162560Y-99370000D01*
X179211843Y-99617765D01*
X179352191Y-99827809D01*
X179497646Y-99925000D01*
X179352191Y-100022191D01*
X179211843Y-100232235D01*
X179162560Y-100480000D01*
X179162560Y-103180000D01*
X179193391Y-103335000D01*
X176480513Y-103335000D01*
X176591105Y-103261105D01*
X177029829Y-102604508D01*
X177183888Y-101830000D01*
X177029829Y-101055492D01*
X176591105Y-100398895D01*
X175934508Y-99960171D01*
X175757691Y-99925000D01*
X175934508Y-99889829D01*
X176591105Y-99451105D01*
X177029829Y-98794508D01*
X177183888Y-98020000D01*
X177029829Y-97245492D01*
X176591105Y-96588895D01*
X175934508Y-96150171D01*
X175355503Y-96035000D01*
X174164497Y-96035000D01*
X173585492Y-96150171D01*
X172928895Y-96588895D01*
X172490171Y-97245492D01*
X172336112Y-98020000D01*
X172429051Y-98487238D01*
X171391290Y-99525000D01*
X143168711Y-99525000D01*
X141043937Y-97400227D01*
X140986193Y-97313807D01*
X140643837Y-97085052D01*
X140341935Y-97025000D01*
X140341934Y-97025000D01*
X140240000Y-97004724D01*
X140138066Y-97025000D01*
X138438065Y-97025000D01*
X138136163Y-97085052D01*
X137793807Y-97313807D01*
X137565052Y-97656163D01*
X137484724Y-98060000D01*
X137565052Y-98463837D01*
X137714198Y-98687050D01*
X137555013Y-98947031D01*
X137545334Y-99023877D01*
X137673002Y-99183000D01*
X138663000Y-99183000D01*
X138663000Y-99163000D01*
X138917000Y-99163000D01*
X138917000Y-99183000D01*
X138937000Y-99183000D01*
X138937000Y-99437000D01*
X138917000Y-99437000D01*
X138917000Y-99457000D01*
X138663000Y-99457000D01*
X138663000Y-99437000D01*
X137673002Y-99437000D01*
X137545334Y-99596123D01*
X137555013Y-99672969D01*
X137671891Y-99863854D01*
X137557068Y-100035699D01*
X137492560Y-100360000D01*
X137492560Y-100760000D01*
X137557068Y-101084301D01*
X137740769Y-101359231D01*
X138015699Y-101542932D01*
X138340000Y-101607440D01*
X138373730Y-101607440D01*
X139256065Y-102489776D01*
X139313807Y-102576193D01*
X139400223Y-102633934D01*
X139656163Y-102804948D01*
X140059999Y-102885276D01*
X140161934Y-102865000D01*
X172664226Y-102865000D01*
X172928895Y-103261105D01*
X173039487Y-103335000D01*
X170303944Y-103335000D01*
X169829909Y-103018260D01*
X169411333Y-102935000D01*
X169128667Y-102935000D01*
X168710091Y-103018260D01*
X168235423Y-103335423D01*
X168000000Y-103687758D01*
X167764577Y-103335423D01*
X167289909Y-103018260D01*
X166871333Y-102935000D01*
X166588667Y-102935000D01*
X166170091Y-103018260D01*
X165695423Y-103335423D01*
X165460000Y-103687758D01*
X165224577Y-103335423D01*
X164749909Y-103018260D01*
X164331333Y-102935000D01*
X164048667Y-102935000D01*
X163630091Y-103018260D01*
X163155423Y-103335423D01*
X162920000Y-103687758D01*
X162684577Y-103335423D01*
X162209909Y-103018260D01*
X161791333Y-102935000D01*
X161508667Y-102935000D01*
X161090091Y-103018260D01*
X160615423Y-103335423D01*
X160380000Y-103687758D01*
X160144577Y-103335423D01*
X159669909Y-103018260D01*
X159251333Y-102935000D01*
X158968667Y-102935000D01*
X158550091Y-103018260D01*
X158075423Y-103335423D01*
X157840000Y-103687758D01*
X157604577Y-103335423D01*
X157129909Y-103018260D01*
X156711333Y-102935000D01*
X156428667Y-102935000D01*
X156010091Y-103018260D01*
X155535423Y-103335423D01*
X155300000Y-103687758D01*
X155064577Y-103335423D01*
X154589909Y-103018260D01*
X154171333Y-102935000D01*
X153888667Y-102935000D01*
X153470091Y-103018260D01*
X152995423Y-103335423D01*
X152760000Y-103687758D01*
X152524577Y-103335423D01*
X152049909Y-103018260D01*
X151631333Y-102935000D01*
X151348667Y-102935000D01*
X150930091Y-103018260D01*
X150455423Y-103335423D01*
X150220000Y-103687758D01*
X149984577Y-103335423D01*
X149509909Y-103018260D01*
X149091333Y-102935000D01*
X148808667Y-102935000D01*
X148390091Y-103018260D01*
X147915423Y-103335423D01*
X147680000Y-103687758D01*
X147444577Y-103335423D01*
X146969909Y-103018260D01*
X146551333Y-102935000D01*
X146268667Y-102935000D01*
X145850091Y-103018260D01*
X145376056Y-103335000D01*
X139001934Y-103335000D01*
X138900000Y-103314724D01*
X138798065Y-103335000D01*
X138496163Y-103395052D01*
X138153807Y-103623807D01*
X138096065Y-103710224D01*
X135590225Y-106216065D01*
X135503808Y-106273807D01*
X135446066Y-106360224D01*
X135275052Y-106616164D01*
X135194724Y-107020000D01*
X135215001Y-107121939D01*
X135215001Y-107531885D01*
X135025052Y-107816163D01*
X134944724Y-108220000D01*
X134420000Y-108220000D01*
X134420000Y-73769382D01*
X137660223Y-73769382D01*
X137905368Y-74160888D01*
X138949360Y-74587609D01*
X140077181Y-74582330D01*
X141094632Y-74160888D01*
X141339777Y-73769382D01*
X139500000Y-71929605D01*
X137660223Y-73769382D01*
X134420000Y-73769382D01*
X134420000Y-71199360D01*
X136662391Y-71199360D01*
X136667670Y-72327181D01*
X137089112Y-73344632D01*
X137480618Y-73589777D01*
X139320395Y-71750000D01*
X137480618Y-69910223D01*
X137089112Y-70155368D01*
X136662391Y-71199360D01*
X134420000Y-71199360D01*
X134420000Y-55550000D01*
X152453095Y-55550000D01*
X152453095Y-57409000D01*
X152453095Y-57409000D01*
G37*
X152453095Y-57409000D02*
X161046905Y-57409000D01*
X161046905Y-57400000D01*
X167446887Y-57400000D01*
X167558260Y-57959909D01*
X167875423Y-58434577D01*
X168350091Y-58751740D01*
X168768667Y-58835000D01*
X169051333Y-58835000D01*
X169469909Y-58751740D01*
X169944577Y-58434577D01*
X170180000Y-58082242D01*
X170415423Y-58434577D01*
X170890091Y-58751740D01*
X171308667Y-58835000D01*
X171591333Y-58835000D01*
X172009909Y-58751740D01*
X172484577Y-58434577D01*
X172720000Y-58082242D01*
X172955423Y-58434577D01*
X173430091Y-58751740D01*
X173848667Y-58835000D01*
X174131333Y-58835000D01*
X174549909Y-58751740D01*
X175024577Y-58434577D01*
X175260000Y-58082242D01*
X175495423Y-58434577D01*
X175970091Y-58751740D01*
X176388667Y-58835000D01*
X176671333Y-58835000D01*
X177089909Y-58751740D01*
X177564577Y-58434577D01*
X177645215Y-58313894D01*
X177671843Y-58447765D01*
X177812191Y-58657809D01*
X178022235Y-58798157D01*
X178270000Y-58847440D01*
X179870000Y-58847440D01*
X180117765Y-58798157D01*
X180327809Y-58657809D01*
X180468157Y-58447765D01*
X180517440Y-58200000D01*
X180517440Y-56600000D01*
X180468157Y-56352235D01*
X180327809Y-56142191D01*
X180117765Y-56001843D01*
X179870000Y-55952560D01*
X178270000Y-55952560D01*
X178022235Y-56001843D01*
X177812191Y-56142191D01*
X177671843Y-56352235D01*
X177645215Y-56486106D01*
X177564577Y-56365423D01*
X177089909Y-56048260D01*
X176671333Y-55965000D01*
X176388667Y-55965000D01*
X175970091Y-56048260D01*
X175495423Y-56365423D01*
X175260000Y-56717758D01*
X175024577Y-56365423D01*
X174549909Y-56048260D01*
X174131333Y-55965000D01*
X173848667Y-55965000D01*
X173430091Y-56048260D01*
X172955423Y-56365423D01*
X172720000Y-56717758D01*
X172484577Y-56365423D01*
X172009909Y-56048260D01*
X171591333Y-55965000D01*
X171308667Y-55965000D01*
X170890091Y-56048260D01*
X170415423Y-56365423D01*
X170180000Y-56717758D01*
X169944577Y-56365423D01*
X169469909Y-56048260D01*
X169051333Y-55965000D01*
X168768667Y-55965000D01*
X168350091Y-56048260D01*
X167875423Y-56365423D01*
X167558260Y-56840091D01*
X167446887Y-57400000D01*
X161046905Y-57400000D01*
X161046905Y-55550000D01*
X183131667Y-55550000D01*
X183131667Y-60209000D01*
X192690001Y-60209000D01*
X192690001Y-66863030D01*
X192474819Y-66719250D01*
X192202086Y-66665000D01*
X192110000Y-66646683D01*
X192017914Y-66665000D01*
X191573623Y-66665000D01*
X191513837Y-66625052D01*
X191211935Y-66565000D01*
X190508065Y-66565000D01*
X190206163Y-66625052D01*
X189863807Y-66853807D01*
X189635052Y-67196163D01*
X189554724Y-67600000D01*
X189635052Y-68003837D01*
X189784198Y-68227050D01*
X189625013Y-68487031D01*
X189615334Y-68563877D01*
X189743002Y-68723000D01*
X190733000Y-68723000D01*
X190733000Y-68703000D01*
X190987000Y-68703000D01*
X190987000Y-68723000D01*
X191007000Y-68723000D01*
X191007000Y-68977000D01*
X190987000Y-68977000D01*
X190987000Y-68997000D01*
X190733000Y-68997000D01*
X190733000Y-68977000D01*
X189743002Y-68977000D01*
X189615334Y-69136123D01*
X189618971Y-69165000D01*
X186227289Y-69165000D01*
X188916028Y-66476261D01*
X188994097Y-66424097D01*
X189200750Y-66114819D01*
X189255000Y-65842086D01*
X189255000Y-65842085D01*
X189273317Y-65750000D01*
X189255000Y-65657914D01*
X189255000Y-64891247D01*
X189390625Y-64800625D01*
X189402816Y-64782381D01*
X189411843Y-64827765D01*
X189552191Y-65037809D01*
X189762235Y-65178157D01*
X190010000Y-65227440D01*
X191710000Y-65227440D01*
X191957765Y-65178157D01*
X192167809Y-65037809D01*
X192308157Y-64827765D01*
X192357440Y-64580000D01*
X192357440Y-62880000D01*
X192308157Y-62632235D01*
X192167809Y-62422191D01*
X191957765Y-62281843D01*
X191710000Y-62232560D01*
X190010000Y-62232560D01*
X189762235Y-62281843D01*
X189552191Y-62422191D01*
X189411843Y-62632235D01*
X189402816Y-62677619D01*
X189390625Y-62659375D01*
X188899418Y-62331161D01*
X188466256Y-62245000D01*
X188173744Y-62245000D01*
X187740582Y-62331161D01*
X187249375Y-62659375D01*
X186921161Y-63150582D01*
X186805908Y-63730000D01*
X186921161Y-64309418D01*
X187249375Y-64800625D01*
X187385000Y-64891247D01*
X187385000Y-65362711D01*
X185671196Y-67076515D01*
X185585802Y-66937050D01*
X185734948Y-66713837D01*
X185815276Y-66310000D01*
X185734948Y-65906163D01*
X185506193Y-65563807D01*
X185163837Y-65335052D01*
X184861935Y-65275000D01*
X184547289Y-65275000D01*
X178596261Y-59323972D01*
X178544097Y-59245903D01*
X178234819Y-59039250D01*
X177962086Y-58985000D01*
X177870000Y-58966683D01*
X177777914Y-58985000D01*
X166142541Y-58985000D01*
X166080000Y-58972560D01*
X164080000Y-58972560D01*
X163832235Y-59021843D01*
X163622191Y-59162191D01*
X163481843Y-59372235D01*
X163432560Y-59620000D01*
X163432560Y-60220000D01*
X163481843Y-60467765D01*
X163540132Y-60555000D01*
X163481843Y-60642235D01*
X163432560Y-60890000D01*
X163432560Y-61490000D01*
X163481843Y-61737765D01*
X163540132Y-61825000D01*
X163481843Y-61912235D01*
X163432560Y-62160000D01*
X163432560Y-62760000D01*
X163481843Y-63007765D01*
X163540132Y-63095000D01*
X163481843Y-63182235D01*
X163432560Y-63430000D01*
X163432560Y-64030000D01*
X163439522Y-64065000D01*
X160942085Y-64065000D01*
X160849999Y-64046683D01*
X160608009Y-64094818D01*
X160485181Y-64119250D01*
X160175903Y-64325903D01*
X160123741Y-64403969D01*
X157320849Y-67206862D01*
X157278157Y-66992235D01*
X157219868Y-66905000D01*
X157278157Y-66817765D01*
X157327440Y-66570000D01*
X157327440Y-65970000D01*
X157278157Y-65722235D01*
X157219868Y-65635000D01*
X157278157Y-65547765D01*
X157327440Y-65300000D01*
X157327440Y-64700000D01*
X157324456Y-64685000D01*
X157583361Y-64685000D01*
X157704071Y-64735000D01*
X158095929Y-64735000D01*
X158457958Y-64585042D01*
X158735042Y-64307958D01*
X158885000Y-63945929D01*
X158885000Y-63554071D01*
X158735042Y-63192042D01*
X158493000Y-62950000D01*
X158535042Y-62907958D01*
X158685000Y-62545929D01*
X158685000Y-62154071D01*
X158535042Y-61792042D01*
X158257958Y-61514958D01*
X157895929Y-61365000D01*
X157504071Y-61365000D01*
X157327440Y-61438163D01*
X157327440Y-60890000D01*
X157278157Y-60642235D01*
X157219868Y-60555000D01*
X157278157Y-60467765D01*
X157327440Y-60220000D01*
X157327440Y-59620000D01*
X157278157Y-59372235D01*
X157137809Y-59162191D01*
X156927765Y-59021843D01*
X156680000Y-58972560D01*
X155709540Y-58972560D01*
X155679999Y-58966684D01*
X155650459Y-58972560D01*
X154680000Y-58972560D01*
X154466637Y-59015000D01*
X153216639Y-59015000D01*
X153095929Y-58965000D01*
X152704071Y-58965000D01*
X152342042Y-59114958D01*
X152064958Y-59392042D01*
X151915000Y-59754071D01*
X151915000Y-60142560D01*
X151040000Y-60142560D01*
X150715699Y-60207068D01*
X150658929Y-60245000D01*
X147173905Y-60245000D01*
X146860000Y-60182560D01*
X145960000Y-60182560D01*
X145847187Y-60205000D01*
X142093905Y-60205000D01*
X141780000Y-60142560D01*
X140880000Y-60142560D01*
X140566095Y-60205000D01*
X137627290Y-60205000D01*
X137185000Y-59762711D01*
X137185000Y-58800587D01*
X137297765Y-58778157D01*
X137507809Y-58637809D01*
X137648157Y-58427765D01*
X137674785Y-58293894D01*
X137755423Y-58414577D01*
X138230091Y-58731740D01*
X138648667Y-58815000D01*
X138931333Y-58815000D01*
X139349909Y-58731740D01*
X139824577Y-58414577D01*
X140060000Y-58062242D01*
X140295423Y-58414577D01*
X140770091Y-58731740D01*
X141188667Y-58815000D01*
X141471333Y-58815000D01*
X141889909Y-58731740D01*
X142364577Y-58414577D01*
X142600000Y-58062242D01*
X142835423Y-58414577D01*
X143310091Y-58731740D01*
X143728667Y-58815000D01*
X144011333Y-58815000D01*
X144429909Y-58731740D01*
X144904577Y-58414577D01*
X145140000Y-58062242D01*
X145375423Y-58414577D01*
X145850091Y-58731740D01*
X146268667Y-58815000D01*
X146551333Y-58815000D01*
X146969909Y-58731740D01*
X147444577Y-58414577D01*
X147761740Y-57939909D01*
X147873113Y-57380000D01*
X147761740Y-56820091D01*
X147444577Y-56345423D01*
X146969909Y-56028260D01*
X146551333Y-55945000D01*
X146268667Y-55945000D01*
X145850091Y-56028260D01*
X145375423Y-56345423D01*
X145140000Y-56697758D01*
X144904577Y-56345423D01*
X144429909Y-56028260D01*
X144011333Y-55945000D01*
X143728667Y-55945000D01*
X143310091Y-56028260D01*
X142835423Y-56345423D01*
X142600000Y-56697758D01*
X142364577Y-56345423D01*
X141889909Y-56028260D01*
X141471333Y-55945000D01*
X141188667Y-55945000D01*
X140770091Y-56028260D01*
X140295423Y-56345423D01*
X140060000Y-56697758D01*
X139824577Y-56345423D01*
X139349909Y-56028260D01*
X138931333Y-55945000D01*
X138648667Y-55945000D01*
X138230091Y-56028260D01*
X137755423Y-56345423D01*
X137674785Y-56466106D01*
X137648157Y-56332235D01*
X137507809Y-56122191D01*
X137297765Y-55981843D01*
X137050000Y-55932560D01*
X135450000Y-55932560D01*
X135202235Y-55981843D01*
X134992191Y-56122191D01*
X134851843Y-56332235D01*
X134802560Y-56580000D01*
X134802560Y-58180000D01*
X134851843Y-58427765D01*
X134992191Y-58637809D01*
X135202235Y-58778157D01*
X135315000Y-58800587D01*
X135315000Y-60057914D01*
X135296683Y-60150000D01*
X135315001Y-60242090D01*
X135315001Y-60314442D01*
X135200769Y-60390769D01*
X135017068Y-60665699D01*
X134952560Y-60990000D01*
X134952560Y-61390000D01*
X135017068Y-61714301D01*
X135131891Y-61886146D01*
X135015013Y-62077031D01*
X135005334Y-62153877D01*
X135133002Y-62313000D01*
X136123000Y-62313000D01*
X136123000Y-62293000D01*
X136377000Y-62293000D01*
X136377000Y-62313000D01*
X137366998Y-62313000D01*
X137477719Y-62175000D01*
X140102281Y-62175000D01*
X140213002Y-62313000D01*
X141203000Y-62313000D01*
X141203000Y-62293000D01*
X141457000Y-62293000D01*
X141457000Y-62313000D01*
X142446998Y-62313000D01*
X142557719Y-62175000D01*
X145167712Y-62175000D01*
X145165334Y-62193877D01*
X145293002Y-62353000D01*
X146283000Y-62353000D01*
X146283000Y-62333000D01*
X146537000Y-62333000D01*
X146537000Y-62353000D01*
X147526998Y-62353000D01*
X147637719Y-62215000D01*
X150294374Y-62215000D01*
X150373002Y-62313000D01*
X151363000Y-62313000D01*
X151363000Y-62293000D01*
X151617000Y-62293000D01*
X151617000Y-62313000D01*
X152606998Y-62313000D01*
X152734666Y-62153877D01*
X152724987Y-62077031D01*
X152608109Y-61886146D01*
X152722932Y-61714301D01*
X152787440Y-61390000D01*
X152787440Y-60990000D01*
X152776500Y-60935000D01*
X152922900Y-60935000D01*
X152915000Y-60954071D01*
X152915000Y-61345929D01*
X153064958Y-61707958D01*
X153342042Y-61985042D01*
X153704071Y-62135000D01*
X153898188Y-62135000D01*
X153940000Y-62143317D01*
X153981812Y-62135000D01*
X154037533Y-62135000D01*
X154032560Y-62160000D01*
X154032560Y-62760000D01*
X154081843Y-63007765D01*
X154140132Y-63095000D01*
X154081843Y-63182235D01*
X154032560Y-63430000D01*
X154032560Y-64030000D01*
X154039522Y-64065000D01*
X153187290Y-64065000D01*
X152791052Y-63668762D01*
X152714948Y-63286163D01*
X152565802Y-63062950D01*
X152724987Y-62802969D01*
X152734666Y-62726123D01*
X152606998Y-62567000D01*
X151617000Y-62567000D01*
X151617000Y-62587000D01*
X151363000Y-62587000D01*
X151363000Y-62567000D01*
X150373002Y-62567000D01*
X150245334Y-62726123D01*
X150255013Y-62802969D01*
X150414198Y-63062950D01*
X150265052Y-63286163D01*
X150184724Y-63690000D01*
X150265052Y-64093837D01*
X150493807Y-64436193D01*
X150836163Y-64664948D01*
X151138065Y-64725000D01*
X151202711Y-64725000D01*
X151812710Y-65335000D01*
X149587290Y-65335000D01*
X147648976Y-63396687D01*
X147634948Y-63326163D01*
X147485802Y-63102950D01*
X147644987Y-62842969D01*
X147654666Y-62766123D01*
X147526998Y-62607000D01*
X146537000Y-62607000D01*
X146537000Y-62627000D01*
X146283000Y-62627000D01*
X146283000Y-62607000D01*
X145293002Y-62607000D01*
X145165334Y-62766123D01*
X145175013Y-62842969D01*
X145334198Y-63102950D01*
X145185052Y-63326163D01*
X145104724Y-63730000D01*
X145185052Y-64133837D01*
X145413807Y-64476193D01*
X145756163Y-64704948D01*
X146058065Y-64765000D01*
X146372711Y-64765000D01*
X148212710Y-66605000D01*
X145817290Y-66605000D01*
X142568976Y-63356687D01*
X142554948Y-63286163D01*
X142405802Y-63062950D01*
X142564987Y-62802969D01*
X142574666Y-62726123D01*
X142446998Y-62567000D01*
X141457000Y-62567000D01*
X141457000Y-62587000D01*
X141203000Y-62587000D01*
X141203000Y-62567000D01*
X140213002Y-62567000D01*
X140085334Y-62726123D01*
X140095013Y-62802969D01*
X140254198Y-63062950D01*
X140105052Y-63286163D01*
X140024724Y-63690000D01*
X140105052Y-64093837D01*
X140333807Y-64436193D01*
X140676163Y-64664948D01*
X140978065Y-64725000D01*
X141292711Y-64725000D01*
X144442710Y-67875000D01*
X142007290Y-67875000D01*
X137488976Y-63356687D01*
X137474948Y-63286163D01*
X137325802Y-63062950D01*
X137484987Y-62802969D01*
X137494666Y-62726123D01*
X137366998Y-62567000D01*
X136377000Y-62567000D01*
X136377000Y-62587000D01*
X136123000Y-62587000D01*
X136123000Y-62567000D01*
X135133002Y-62567000D01*
X135005334Y-62726123D01*
X135015013Y-62802969D01*
X135174198Y-63062950D01*
X135025052Y-63286163D01*
X134944724Y-63690000D01*
X135025052Y-64093837D01*
X135253807Y-64436193D01*
X135596163Y-64664948D01*
X135898065Y-64725000D01*
X136212711Y-64725000D01*
X140641684Y-69153974D01*
X140050640Y-68912391D01*
X138922819Y-68917670D01*
X137905368Y-69339112D01*
X137660223Y-69730618D01*
X139500000Y-71570395D01*
X139514143Y-71556253D01*
X139693748Y-71735858D01*
X139679605Y-71750000D01*
X141519382Y-73589777D01*
X141910888Y-73344632D01*
X142337609Y-72300640D01*
X142332330Y-71172819D01*
X141998032Y-70365750D01*
X154045000Y-70365750D01*
X154045000Y-70506310D01*
X154141673Y-70739699D01*
X154320302Y-70918327D01*
X154553691Y-71015000D01*
X155394250Y-71015000D01*
X155553000Y-70856250D01*
X155553000Y-70207000D01*
X154203750Y-70207000D01*
X154045000Y-70365750D01*
X141998032Y-70365750D01*
X141910888Y-70155368D01*
X141519384Y-69910224D01*
X141631966Y-69797642D01*
X141592088Y-69757764D01*
X141619999Y-69763316D01*
X141712080Y-69745000D01*
X154045000Y-69745000D01*
X154045000Y-69794250D01*
X154203750Y-69953000D01*
X155553000Y-69953000D01*
X155553000Y-69933000D01*
X155807000Y-69933000D01*
X155807000Y-69953000D01*
X155827000Y-69953000D01*
X155827000Y-70207000D01*
X155807000Y-70207000D01*
X155807000Y-70856250D01*
X155965750Y-71015000D01*
X156806309Y-71015000D01*
X156965000Y-70949268D01*
X156965000Y-72162710D01*
X154195971Y-74931740D01*
X154117902Y-74983904D01*
X154085097Y-75033000D01*
X153752119Y-75033000D01*
X153238663Y-75245680D01*
X152845680Y-75638663D01*
X152760000Y-75845513D01*
X152674320Y-75638663D01*
X152281337Y-75245680D01*
X151767881Y-75033000D01*
X151212119Y-75033000D01*
X150698663Y-75245680D01*
X150305680Y-75638663D01*
X150220000Y-75845513D01*
X150134320Y-75638663D01*
X149741337Y-75245680D01*
X149227881Y-75033000D01*
X148672119Y-75033000D01*
X148158663Y-75245680D01*
X147765680Y-75638663D01*
X147680000Y-75845513D01*
X147594320Y-75638663D01*
X147201337Y-75245680D01*
X146687881Y-75033000D01*
X146132119Y-75033000D01*
X145618663Y-75245680D01*
X145225680Y-75638663D01*
X145140000Y-75845513D01*
X145054320Y-75638663D01*
X144661337Y-75245680D01*
X144147881Y-75033000D01*
X143592119Y-75033000D01*
X143078663Y-75245680D01*
X142685680Y-75638663D01*
X142600000Y-75845513D01*
X142514320Y-75638663D01*
X142121337Y-75245680D01*
X141607881Y-75033000D01*
X141052119Y-75033000D01*
X140538663Y-75245680D01*
X140145680Y-75638663D01*
X140066572Y-75829647D01*
X140012397Y-75698857D01*
X139770213Y-75629392D01*
X138969605Y-76430000D01*
X139770213Y-77230608D01*
X140012397Y-77161143D01*
X140062535Y-77020607D01*
X140145680Y-77221337D01*
X140538663Y-77614320D01*
X141052119Y-77827000D01*
X141607881Y-77827000D01*
X142121337Y-77614320D01*
X142514320Y-77221337D01*
X142600000Y-77014487D01*
X142685680Y-77221337D01*
X143078663Y-77614320D01*
X143592119Y-77827000D01*
X144147881Y-77827000D01*
X144661337Y-77614320D01*
X145054320Y-77221337D01*
X145140000Y-77014487D01*
X145225680Y-77221337D01*
X145618663Y-77614320D01*
X146132119Y-77827000D01*
X146687881Y-77827000D01*
X147201337Y-77614320D01*
X147594320Y-77221337D01*
X147680000Y-77014487D01*
X147765680Y-77221337D01*
X148158663Y-77614320D01*
X148672119Y-77827000D01*
X149227881Y-77827000D01*
X149741337Y-77614320D01*
X150134320Y-77221337D01*
X150220000Y-77014487D01*
X150305680Y-77221337D01*
X150698663Y-77614320D01*
X151212119Y-77827000D01*
X151767881Y-77827000D01*
X152281337Y-77614320D01*
X152674320Y-77221337D01*
X152760000Y-77014487D01*
X152845680Y-77221337D01*
X153238663Y-77614320D01*
X153752119Y-77827000D01*
X154307881Y-77827000D01*
X154821337Y-77614320D01*
X155214320Y-77221337D01*
X155300000Y-77014487D01*
X155385680Y-77221337D01*
X155778663Y-77614320D01*
X156292119Y-77827000D01*
X156847881Y-77827000D01*
X157361337Y-77614320D01*
X157754320Y-77221337D01*
X157840000Y-77014487D01*
X157925680Y-77221337D01*
X158318663Y-77614320D01*
X158832119Y-77827000D01*
X159387881Y-77827000D01*
X159901337Y-77614320D01*
X160294320Y-77221337D01*
X160380000Y-77014487D01*
X160465680Y-77221337D01*
X160858663Y-77614320D01*
X161372119Y-77827000D01*
X161724711Y-77827000D01*
X164973969Y-81076259D01*
X164973972Y-81076261D01*
X165843739Y-81946028D01*
X165895903Y-82024097D01*
X166205181Y-82230750D01*
X166477914Y-82285000D01*
X166570000Y-82303317D01*
X166662086Y-82285000D01*
X186112711Y-82285000D01*
X189621024Y-85793314D01*
X189635052Y-85863837D01*
X189782828Y-86085000D01*
X189635052Y-86306163D01*
X189554724Y-86710000D01*
X189635052Y-87113837D01*
X189782828Y-87335000D01*
X189635052Y-87556163D01*
X189554724Y-87960000D01*
X189635052Y-88363837D01*
X189782828Y-88585000D01*
X189635052Y-88806163D01*
X189554724Y-89210000D01*
X189635052Y-89613837D01*
X189782828Y-89835000D01*
X189635052Y-90056163D01*
X189554724Y-90460000D01*
X189635052Y-90863837D01*
X189782828Y-91085000D01*
X189635052Y-91306163D01*
X189554724Y-91710000D01*
X189635052Y-92113837D01*
X189782828Y-92335000D01*
X189635052Y-92556163D01*
X189554724Y-92960000D01*
X189635052Y-93363837D01*
X189684353Y-93437622D01*
X189671673Y-93450302D01*
X189575000Y-93683691D01*
X189575000Y-93924250D01*
X189733750Y-94083000D01*
X190733000Y-94083000D01*
X190733000Y-94063000D01*
X190987000Y-94063000D01*
X190987000Y-94083000D01*
X191007000Y-94083000D01*
X191007000Y-94337000D01*
X190987000Y-94337000D01*
X190987000Y-95086250D01*
X191145750Y-95245000D01*
X191565000Y-95245000D01*
X191565001Y-97572709D01*
X190822711Y-98315000D01*
X190508065Y-98315000D01*
X190206163Y-98375052D01*
X189935000Y-98556237D01*
X189935000Y-97851934D01*
X189955276Y-97750000D01*
X189928655Y-97616164D01*
X189874948Y-97346163D01*
X189646193Y-97003807D01*
X189559776Y-96946065D01*
X187109461Y-94495750D01*
X189575000Y-94495750D01*
X189575000Y-94736309D01*
X189671673Y-94969698D01*
X189850301Y-95148327D01*
X190083690Y-95245000D01*
X190574250Y-95245000D01*
X190733000Y-95086250D01*
X190733000Y-94337000D01*
X189733750Y-94337000D01*
X189575000Y-94495750D01*
X187109461Y-94495750D01*
X185503937Y-92890227D01*
X185446193Y-92803807D01*
X185295444Y-92703080D01*
X185310608Y-92650213D01*
X184510000Y-91849605D01*
X184495858Y-91863748D01*
X184316253Y-91684143D01*
X184330395Y-91670000D01*
X184689605Y-91670000D01*
X185490213Y-92470608D01*
X185732397Y-92401143D01*
X185919144Y-91877698D01*
X185891362Y-91322632D01*
X185732397Y-90938857D01*
X185490213Y-90869392D01*
X184689605Y-91670000D01*
X184330395Y-91670000D01*
X183529787Y-90869392D01*
X183287603Y-90938857D01*
X183243547Y-91062344D01*
X183192397Y-90938857D01*
X182950213Y-90869392D01*
X182149605Y-91670000D01*
X182163748Y-91684143D01*
X181984143Y-91863748D01*
X181970000Y-91849605D01*
X181955858Y-91863748D01*
X181776253Y-91684143D01*
X181790395Y-91670000D01*
X180989787Y-90869392D01*
X180747603Y-90938857D01*
X180697465Y-91079393D01*
X180614320Y-90878663D01*
X180425444Y-90689787D01*
X181169392Y-90689787D01*
X181970000Y-91490395D01*
X182770608Y-90689787D01*
X183709392Y-90689787D01*
X184510000Y-91490395D01*
X185310608Y-90689787D01*
X185241143Y-90447603D01*
X184717698Y-90260856D01*
X184162632Y-90288638D01*
X183778857Y-90447603D01*
X183709392Y-90689787D01*
X182770608Y-90689787D01*
X182701143Y-90447603D01*
X182177698Y-90260856D01*
X181622632Y-90288638D01*
X181238857Y-90447603D01*
X181169392Y-90689787D01*
X180425444Y-90689787D01*
X180221337Y-90485680D01*
X179707881Y-90273000D01*
X179152119Y-90273000D01*
X178638663Y-90485680D01*
X178245680Y-90878663D01*
X178160000Y-91085513D01*
X178074320Y-90878663D01*
X177681337Y-90485680D01*
X177167881Y-90273000D01*
X176612119Y-90273000D01*
X176098663Y-90485680D01*
X175705680Y-90878663D01*
X175620000Y-91085513D01*
X175534320Y-90878663D01*
X175141337Y-90485680D01*
X174627881Y-90273000D01*
X174072119Y-90273000D01*
X173558663Y-90485680D01*
X173165680Y-90878663D01*
X173080000Y-91085513D01*
X172994320Y-90878663D01*
X172601337Y-90485680D01*
X172087881Y-90273000D01*
X171532119Y-90273000D01*
X171018663Y-90485680D01*
X170625680Y-90878663D01*
X170540000Y-91085513D01*
X170454320Y-90878663D01*
X170405000Y-90829343D01*
X170405000Y-88858736D01*
X170471673Y-89019699D01*
X170650302Y-89198327D01*
X170883691Y-89295000D01*
X171524250Y-89295000D01*
X171683000Y-89136250D01*
X171683000Y-87987000D01*
X171937000Y-87987000D01*
X171937000Y-89136250D01*
X172095750Y-89295000D01*
X172736309Y-89295000D01*
X172969698Y-89198327D01*
X173148327Y-89019699D01*
X173245000Y-88786310D01*
X173245000Y-88145750D01*
X173086250Y-87987000D01*
X171937000Y-87987000D01*
X171683000Y-87987000D01*
X171663000Y-87987000D01*
X171663000Y-87733000D01*
X171683000Y-87733000D01*
X171683000Y-86583750D01*
X171937000Y-86583750D01*
X171937000Y-87733000D01*
X173086250Y-87733000D01*
X173245000Y-87574250D01*
X173245000Y-86933690D01*
X173148327Y-86700301D01*
X172969698Y-86521673D01*
X172736309Y-86425000D01*
X172095750Y-86425000D01*
X171937000Y-86583750D01*
X171683000Y-86583750D01*
X171524250Y-86425000D01*
X170883691Y-86425000D01*
X170650302Y-86521673D01*
X170471673Y-86700301D01*
X170375734Y-86931917D01*
X170304577Y-86825423D01*
X169829909Y-86508260D01*
X169411333Y-86425000D01*
X169128667Y-86425000D01*
X168710091Y-86508260D01*
X168235423Y-86825423D01*
X168000000Y-87177758D01*
X167764577Y-86825423D01*
X167289909Y-86508260D01*
X166871333Y-86425000D01*
X166588667Y-86425000D01*
X166170091Y-86508260D01*
X165695423Y-86825423D01*
X165460000Y-87177758D01*
X165224577Y-86825423D01*
X164749909Y-86508260D01*
X164331333Y-86425000D01*
X164048667Y-86425000D01*
X163630091Y-86508260D01*
X163155423Y-86825423D01*
X162920000Y-87177758D01*
X162684577Y-86825423D01*
X162209909Y-86508260D01*
X161791333Y-86425000D01*
X161508667Y-86425000D01*
X161090091Y-86508260D01*
X160615423Y-86825423D01*
X160380000Y-87177758D01*
X160144577Y-86825423D01*
X159669909Y-86508260D01*
X159251333Y-86425000D01*
X158968667Y-86425000D01*
X158550091Y-86508260D01*
X158075423Y-86825423D01*
X157840000Y-87177758D01*
X157604577Y-86825423D01*
X157129909Y-86508260D01*
X156711333Y-86425000D01*
X156428667Y-86425000D01*
X156010091Y-86508260D01*
X155535423Y-86825423D01*
X155300000Y-87177758D01*
X155064577Y-86825423D01*
X154589909Y-86508260D01*
X154171333Y-86425000D01*
X153888667Y-86425000D01*
X153470091Y-86508260D01*
X152995423Y-86825423D01*
X152760000Y-87177758D01*
X152524577Y-86825423D01*
X152049909Y-86508260D01*
X151631333Y-86425000D01*
X151348667Y-86425000D01*
X150930091Y-86508260D01*
X150455423Y-86825423D01*
X150220000Y-87177758D01*
X149984577Y-86825423D01*
X149509909Y-86508260D01*
X149091333Y-86425000D01*
X148808667Y-86425000D01*
X148390091Y-86508260D01*
X147915423Y-86825423D01*
X147680000Y-87177758D01*
X147444577Y-86825423D01*
X146969909Y-86508260D01*
X146551333Y-86425000D01*
X146268667Y-86425000D01*
X145850091Y-86508260D01*
X145375423Y-86825423D01*
X145058260Y-87300091D01*
X144946887Y-87860000D01*
X145058260Y-88419909D01*
X145275001Y-88744285D01*
X145275001Y-90829342D01*
X145225680Y-90878663D01*
X145140000Y-91085513D01*
X145054320Y-90878663D01*
X144661337Y-90485680D01*
X144147881Y-90273000D01*
X143592119Y-90273000D01*
X143078663Y-90485680D01*
X142685680Y-90878663D01*
X142600000Y-91085513D01*
X142514320Y-90878663D01*
X142121337Y-90485680D01*
X141607881Y-90273000D01*
X141052119Y-90273000D01*
X140538663Y-90485680D01*
X140145680Y-90878663D01*
X140060000Y-91085513D01*
X139974320Y-90878663D01*
X139581337Y-90485680D01*
X139067881Y-90273000D01*
X138512119Y-90273000D01*
X137998663Y-90485680D01*
X137605680Y-90878663D01*
X137520000Y-91085513D01*
X137434320Y-90878663D01*
X137285000Y-90729343D01*
X137285000Y-77410213D01*
X137989392Y-77410213D01*
X138058857Y-77652397D01*
X138582302Y-77839144D01*
X139137368Y-77811362D01*
X139521143Y-77652397D01*
X139590608Y-77410213D01*
X138790000Y-76609605D01*
X137989392Y-77410213D01*
X137285000Y-77410213D01*
X137285000Y-77370657D01*
X137434320Y-77221337D01*
X137513428Y-77030353D01*
X137567603Y-77161143D01*
X137809787Y-77230608D01*
X138610395Y-76430000D01*
X137809787Y-75629392D01*
X137567603Y-75698857D01*
X137517465Y-75839393D01*
X137434320Y-75638663D01*
X137245444Y-75449787D01*
X137989392Y-75449787D01*
X138790000Y-76250395D01*
X139590608Y-75449787D01*
X139521143Y-75207603D01*
X138997698Y-75020856D01*
X138442632Y-75048638D01*
X138058857Y-75207603D01*
X137989392Y-75449787D01*
X137245444Y-75449787D01*
X137041337Y-75245680D01*
X136527881Y-75033000D01*
X135972119Y-75033000D01*
X135458663Y-75245680D01*
X135065680Y-75638663D01*
X134853000Y-76152119D01*
X134853000Y-76707881D01*
X135065680Y-77221337D01*
X135215001Y-77370658D01*
X135215000Y-90729343D01*
X135065680Y-90878663D01*
X134853000Y-91392119D01*
X134853000Y-91947881D01*
X135065680Y-92461337D01*
X135458663Y-92854320D01*
X135972119Y-93067000D01*
X136527881Y-93067000D01*
X137041337Y-92854320D01*
X137434320Y-92461337D01*
X137520000Y-92254487D01*
X137605680Y-92461337D01*
X137998663Y-92854320D01*
X138512119Y-93067000D01*
X139067881Y-93067000D01*
X139581337Y-92854320D01*
X139974320Y-92461337D01*
X140060000Y-92254487D01*
X140145680Y-92461337D01*
X140538663Y-92854320D01*
X141052119Y-93067000D01*
X141607881Y-93067000D01*
X142121337Y-92854320D01*
X142514320Y-92461337D01*
X142600000Y-92254487D01*
X142685680Y-92461337D01*
X143078663Y-92854320D01*
X143592119Y-93067000D01*
X144147881Y-93067000D01*
X144661337Y-92854320D01*
X145054320Y-92461337D01*
X145140000Y-92254487D01*
X145225680Y-92461337D01*
X145275000Y-92510657D01*
X145275000Y-95865716D01*
X145058260Y-96190091D01*
X144946887Y-96750000D01*
X145058260Y-97309909D01*
X145375423Y-97784577D01*
X145850091Y-98101740D01*
X146268667Y-98185000D01*
X146551333Y-98185000D01*
X146969909Y-98101740D01*
X147444577Y-97784577D01*
X147680000Y-97432242D01*
X147915423Y-97784577D01*
X148390091Y-98101740D01*
X148808667Y-98185000D01*
X149091333Y-98185000D01*
X149509909Y-98101740D01*
X149984577Y-97784577D01*
X150220000Y-97432242D01*
X150455423Y-97784577D01*
X150930091Y-98101740D01*
X151348667Y-98185000D01*
X151631333Y-98185000D01*
X152049909Y-98101740D01*
X152524577Y-97784577D01*
X152760000Y-97432242D01*
X152995423Y-97784577D01*
X153470091Y-98101740D01*
X153888667Y-98185000D01*
X154171333Y-98185000D01*
X154589909Y-98101740D01*
X155064577Y-97784577D01*
X155300000Y-97432242D01*
X155535423Y-97784577D01*
X156010091Y-98101740D01*
X156428667Y-98185000D01*
X156711333Y-98185000D01*
X157129909Y-98101740D01*
X157604577Y-97784577D01*
X157840000Y-97432242D01*
X158075423Y-97784577D01*
X158550091Y-98101740D01*
X158968667Y-98185000D01*
X159251333Y-98185000D01*
X159669909Y-98101740D01*
X160144577Y-97784577D01*
X160380000Y-97432242D01*
X160615423Y-97784577D01*
X161090091Y-98101740D01*
X161508667Y-98185000D01*
X161791333Y-98185000D01*
X162209909Y-98101740D01*
X162684577Y-97784577D01*
X162920000Y-97432242D01*
X163155423Y-97784577D01*
X163630091Y-98101740D01*
X164048667Y-98185000D01*
X164331333Y-98185000D01*
X164749909Y-98101740D01*
X165224577Y-97784577D01*
X165460000Y-97432242D01*
X165695423Y-97784577D01*
X166170091Y-98101740D01*
X166588667Y-98185000D01*
X166871333Y-98185000D01*
X167289909Y-98101740D01*
X167764577Y-97784577D01*
X167845215Y-97663894D01*
X167871843Y-97797765D01*
X168012191Y-98007809D01*
X168222235Y-98148157D01*
X168470000Y-98197440D01*
X170070000Y-98197440D01*
X170317765Y-98148157D01*
X170527809Y-98007809D01*
X170668157Y-97797765D01*
X170717440Y-97550000D01*
X170717440Y-95950000D01*
X170668157Y-95702235D01*
X170527809Y-95492191D01*
X170405000Y-95410132D01*
X170405000Y-92510657D01*
X170454320Y-92461337D01*
X170540000Y-92254487D01*
X170625680Y-92461337D01*
X171018663Y-92854320D01*
X171532119Y-93067000D01*
X171743290Y-93067000D01*
X174086065Y-95409776D01*
X174143807Y-95496193D01*
X174230223Y-95553934D01*
X174486163Y-95724948D01*
X174890000Y-95805276D01*
X174991934Y-95785000D01*
X183671290Y-95785000D01*
X186665001Y-98778712D01*
X186665000Y-101048065D01*
X186644724Y-101150000D01*
X186665000Y-101251934D01*
X186725052Y-101553836D01*
X186953807Y-101896193D01*
X187040227Y-101953937D01*
X188846065Y-103759776D01*
X188903807Y-103846193D01*
X189246163Y-104074948D01*
X189548065Y-104135000D01*
X189548070Y-104135000D01*
X189649999Y-104155275D01*
X189751929Y-104135000D01*
X190347460Y-104135000D01*
X190410000Y-104147440D01*
X191310000Y-104147440D01*
X191634301Y-104082932D01*
X191909231Y-103899231D01*
X192092932Y-103624301D01*
X192157440Y-103300000D01*
X192157440Y-102900000D01*
X192092932Y-102575699D01*
X191981410Y-102408793D01*
X192084948Y-102253837D01*
X192165276Y-101850000D01*
X192084948Y-101446163D01*
X191935802Y-101222950D01*
X192094987Y-100962969D01*
X192104666Y-100886123D01*
X191976998Y-100727000D01*
X190987000Y-100727000D01*
X190987000Y-100747000D01*
X190733000Y-100747000D01*
X190733000Y-100727000D01*
X190713000Y-100727000D01*
X190713000Y-100473000D01*
X190733000Y-100473000D01*
X190733000Y-100453000D01*
X190987000Y-100453000D01*
X190987000Y-100473000D01*
X191976998Y-100473000D01*
X192104666Y-100313877D01*
X192094987Y-100237031D01*
X191935802Y-99977050D01*
X192084948Y-99753837D01*
X192098976Y-99683313D01*
X192690000Y-99092289D01*
X192690000Y-112550000D01*
X134420000Y-112550000D01*
X134420000Y-108220000D01*
X134944724Y-108220000D01*
X135025052Y-108623837D01*
X135174198Y-108847050D01*
X135015013Y-109107031D01*
X135005334Y-109183877D01*
X135133002Y-109343000D01*
X136123000Y-109343000D01*
X136123000Y-109323000D01*
X136377000Y-109323000D01*
X136377000Y-109343000D01*
X137366998Y-109343000D01*
X137494666Y-109183877D01*
X137484987Y-109107031D01*
X137325802Y-108847050D01*
X137474948Y-108623837D01*
X137555276Y-108220000D01*
X137474948Y-107816163D01*
X137285000Y-107531886D01*
X137285000Y-107448710D01*
X139328711Y-105405000D01*
X145376056Y-105405000D01*
X145850091Y-105721740D01*
X146087355Y-105768935D01*
X145891290Y-105965000D01*
X142881934Y-105965000D01*
X142779999Y-105944724D01*
X142376163Y-106025052D01*
X142033807Y-106253807D01*
X141976066Y-106340223D01*
X141151290Y-107165000D01*
X140978065Y-107165000D01*
X140676163Y-107225052D01*
X140333807Y-107453807D01*
X140105052Y-107796163D01*
X140024724Y-108200000D01*
X140105052Y-108603837D01*
X140254198Y-108827050D01*
X140095013Y-109087031D01*
X140085334Y-109163877D01*
X140213002Y-109323000D01*
X141203000Y-109323000D01*
X141203000Y-109303000D01*
X141457000Y-109303000D01*
X141457000Y-109323000D01*
X142446998Y-109323000D01*
X142574666Y-109163877D01*
X142564987Y-109087031D01*
X142409926Y-108833785D01*
X143208711Y-108035000D01*
X145141523Y-108035000D01*
X145104724Y-108220000D01*
X145185052Y-108623837D01*
X145334198Y-108847050D01*
X145175013Y-109107031D01*
X145165334Y-109183877D01*
X145293002Y-109343000D01*
X146283000Y-109343000D01*
X146283000Y-109323000D01*
X146537000Y-109323000D01*
X146537000Y-109343000D01*
X147526998Y-109343000D01*
X147589409Y-109265213D01*
X147640000Y-109275276D01*
X147741934Y-109255000D01*
X147741935Y-109255000D01*
X148043837Y-109194948D01*
X148386193Y-108966193D01*
X148443937Y-108879773D01*
X150439942Y-106883769D01*
X150434724Y-106910000D01*
X150455001Y-107011939D01*
X150455001Y-107531885D01*
X150265052Y-107816163D01*
X150184724Y-108220000D01*
X150265052Y-108623837D01*
X150414198Y-108847050D01*
X150255013Y-109107031D01*
X150245334Y-109183877D01*
X150373002Y-109343000D01*
X151363000Y-109343000D01*
X151363000Y-109323000D01*
X151617000Y-109323000D01*
X151617000Y-109343000D01*
X152606998Y-109343000D01*
X152734666Y-109183877D01*
X152724987Y-109107031D01*
X152565802Y-108847050D01*
X152714948Y-108623837D01*
X152795276Y-108220000D01*
X152714948Y-107816163D01*
X152525000Y-107531886D01*
X152525000Y-107338710D01*
X154058711Y-105805000D01*
X154171333Y-105805000D01*
X154589909Y-105721740D01*
X155064577Y-105404577D01*
X155300000Y-105052242D01*
X155535001Y-105403945D01*
X155535000Y-107531885D01*
X155345052Y-107816163D01*
X155264724Y-108220000D01*
X155345052Y-108623837D01*
X155494198Y-108847050D01*
X155335013Y-109107031D01*
X155325334Y-109183877D01*
X155453002Y-109343000D01*
X156443000Y-109343000D01*
X156443000Y-109323000D01*
X156697000Y-109323000D01*
X156697000Y-109343000D01*
X157686998Y-109343000D01*
X157814666Y-109183877D01*
X157804987Y-109107031D01*
X157645802Y-108847050D01*
X157794948Y-108623837D01*
X157875276Y-108220000D01*
X157794948Y-107816163D01*
X157605000Y-107531886D01*
X157605000Y-105403944D01*
X157840000Y-105052242D01*
X158075001Y-105403945D01*
X158075001Y-105578061D01*
X158054724Y-105680000D01*
X158135052Y-106083836D01*
X158246229Y-106250224D01*
X158363808Y-106426193D01*
X158450225Y-106483935D01*
X160384064Y-108417774D01*
X160425052Y-108623837D01*
X160574198Y-108847050D01*
X160415013Y-109107031D01*
X160405334Y-109183877D01*
X160533002Y-109343000D01*
X161523000Y-109343000D01*
X161523000Y-109323000D01*
X161777000Y-109323000D01*
X161777000Y-109343000D01*
X162766998Y-109343000D01*
X162894666Y-109183877D01*
X162884987Y-109107031D01*
X162725802Y-108847050D01*
X162874948Y-108623837D01*
X162955276Y-108220000D01*
X162874948Y-107816163D01*
X162646193Y-107473807D01*
X162303837Y-107245052D01*
X162097775Y-107204064D01*
X160206145Y-105312434D01*
X160380000Y-105052242D01*
X160615423Y-105404577D01*
X161090091Y-105721740D01*
X161508667Y-105805000D01*
X161621290Y-105805000D01*
X164696065Y-108879776D01*
X164753807Y-108966193D01*
X164840223Y-109023934D01*
X165096163Y-109194948D01*
X165499999Y-109275276D01*
X165550591Y-109265213D01*
X165613002Y-109343000D01*
X166603000Y-109343000D01*
X166603000Y-109323000D01*
X166857000Y-109323000D01*
X166857000Y-109343000D01*
X167846998Y-109343000D01*
X167974666Y-109183877D01*
X167964987Y-109107031D01*
X167805802Y-108847050D01*
X167954948Y-108623837D01*
X168035276Y-108220000D01*
X167980575Y-107945000D01*
X168621290Y-107945000D01*
X169556065Y-108879776D01*
X169613807Y-108966193D01*
X169700223Y-109023934D01*
X169956163Y-109194948D01*
X170360000Y-109275276D01*
X170461934Y-109255000D01*
X170622398Y-109255000D01*
X170693002Y-109343000D01*
X171683000Y-109343000D01*
X171683000Y-109323000D01*
X171937000Y-109323000D01*
X171937000Y-109343000D01*
X172926998Y-109343000D01*
X173054666Y-109183877D01*
X173044987Y-109107031D01*
X172885802Y-108847050D01*
X173034948Y-108623837D01*
X173115276Y-108220000D01*
X175584724Y-108220000D01*
X175665052Y-108623837D01*
X175814198Y-108847050D01*
X175655013Y-109107031D01*
X175645334Y-109183877D01*
X175773002Y-109343000D01*
X176763000Y-109343000D01*
X176763000Y-109323000D01*
X177017000Y-109323000D01*
X177017000Y-109343000D01*
X178006998Y-109343000D01*
X178134666Y-109183877D01*
X178124987Y-109107031D01*
X177965802Y-108847050D01*
X178114948Y-108623837D01*
X178195276Y-108220000D01*
X178114948Y-107816163D01*
X177886193Y-107473807D01*
X177543837Y-107245052D01*
X177241935Y-107185000D01*
X176538065Y-107185000D01*
X176236163Y-107245052D01*
X175893807Y-107473807D01*
X175665052Y-107816163D01*
X175584724Y-108220000D01*
X173115276Y-108220000D01*
X173034948Y-107816163D01*
X172806193Y-107473807D01*
X172463837Y-107245052D01*
X172161935Y-107185000D01*
X170788711Y-107185000D01*
X169853937Y-106250227D01*
X169796193Y-106163807D01*
X169453837Y-105935052D01*
X169151935Y-105875000D01*
X169151934Y-105875000D01*
X169050000Y-105854724D01*
X168948066Y-105875000D01*
X167158711Y-105875000D01*
X167052645Y-105768935D01*
X167289909Y-105721740D01*
X167764577Y-105404577D01*
X168000000Y-105052242D01*
X168235423Y-105404577D01*
X168710091Y-105721740D01*
X169128667Y-105805000D01*
X169411333Y-105805000D01*
X169829909Y-105721740D01*
X170303944Y-105405000D01*
X178911290Y-105405000D01*
X180935001Y-107428711D01*
X180935001Y-107511885D01*
X180745052Y-107796163D01*
X180664724Y-108200000D01*
X180745052Y-108603837D01*
X180894198Y-108827050D01*
X180735013Y-109087031D01*
X180725334Y-109163877D01*
X180853002Y-109323000D01*
X181843000Y-109323000D01*
X181843000Y-109303000D01*
X182097000Y-109303000D01*
X182097000Y-109323000D01*
X182117000Y-109323000D01*
X182117000Y-109577000D01*
X182097000Y-109577000D01*
X182097000Y-109597000D01*
X181843000Y-109597000D01*
X181843000Y-109577000D01*
X180853002Y-109577000D01*
X180782398Y-109665000D01*
X178061556Y-109665000D01*
X178006998Y-109597000D01*
X177017000Y-109597000D01*
X177017000Y-109617000D01*
X176763000Y-109617000D01*
X176763000Y-109597000D01*
X175773002Y-109597000D01*
X175718444Y-109665000D01*
X172981556Y-109665000D01*
X172926998Y-109597000D01*
X171937000Y-109597000D01*
X171937000Y-109617000D01*
X171683000Y-109617000D01*
X171683000Y-109597000D01*
X170693002Y-109597000D01*
X170638444Y-109665000D01*
X167901556Y-109665000D01*
X167846998Y-109597000D01*
X166857000Y-109597000D01*
X166857000Y-109617000D01*
X166603000Y-109617000D01*
X166603000Y-109597000D01*
X165613002Y-109597000D01*
X165558444Y-109665000D01*
X162821556Y-109665000D01*
X162766998Y-109597000D01*
X161777000Y-109597000D01*
X161777000Y-109617000D01*
X161523000Y-109617000D01*
X161523000Y-109597000D01*
X160533002Y-109597000D01*
X160478444Y-109665000D01*
X157741556Y-109665000D01*
X157686998Y-109597000D01*
X156697000Y-109597000D01*
X156697000Y-109617000D01*
X156443000Y-109617000D01*
X156443000Y-109597000D01*
X155453002Y-109597000D01*
X155398444Y-109665000D01*
X152661556Y-109665000D01*
X152606998Y-109597000D01*
X151617000Y-109597000D01*
X151617000Y-109617000D01*
X151363000Y-109617000D01*
X151363000Y-109597000D01*
X150373002Y-109597000D01*
X150302398Y-109685000D01*
X147597602Y-109685000D01*
X147526998Y-109597000D01*
X146537000Y-109597000D01*
X146537000Y-109617000D01*
X146283000Y-109617000D01*
X146283000Y-109597000D01*
X145293002Y-109597000D01*
X145222398Y-109685000D01*
X142533649Y-109685000D01*
X142446998Y-109577000D01*
X141457000Y-109577000D01*
X141457000Y-109597000D01*
X141203000Y-109597000D01*
X141203000Y-109577000D01*
X140213002Y-109577000D01*
X140126351Y-109685000D01*
X137437602Y-109685000D01*
X137366998Y-109597000D01*
X136377000Y-109597000D01*
X136377000Y-109617000D01*
X136123000Y-109617000D01*
X136123000Y-109597000D01*
X135133002Y-109597000D01*
X135005334Y-109756123D01*
X135015013Y-109832969D01*
X135131891Y-110023854D01*
X135017068Y-110195699D01*
X134952560Y-110520000D01*
X134952560Y-110920000D01*
X135017068Y-111244301D01*
X135200769Y-111519231D01*
X135475699Y-111702932D01*
X135800000Y-111767440D01*
X136700000Y-111767440D01*
X136762540Y-111755000D01*
X145897460Y-111755000D01*
X145960000Y-111767440D01*
X146860000Y-111767440D01*
X146922540Y-111755000D01*
X150977460Y-111755000D01*
X151040000Y-111767440D01*
X151450606Y-111767440D01*
X151490000Y-111775276D01*
X151529394Y-111767440D01*
X151940000Y-111767440D01*
X152103086Y-111735000D01*
X155956914Y-111735000D01*
X156120000Y-111767440D01*
X157020000Y-111767440D01*
X157183086Y-111735000D01*
X161036914Y-111735000D01*
X161200000Y-111767440D01*
X162100000Y-111767440D01*
X162263086Y-111735000D01*
X166116914Y-111735000D01*
X166280000Y-111767440D01*
X167180000Y-111767440D01*
X167343086Y-111735000D01*
X171196914Y-111735000D01*
X171360000Y-111767440D01*
X172260000Y-111767440D01*
X172423086Y-111735000D01*
X176276914Y-111735000D01*
X176440000Y-111767440D01*
X177340000Y-111767440D01*
X177402540Y-111755000D01*
X182598066Y-111755000D01*
X182700000Y-111775276D01*
X182801934Y-111755000D01*
X182801935Y-111755000D01*
X183103837Y-111694948D01*
X183441420Y-111469382D01*
X187750223Y-111469382D01*
X187995368Y-111860888D01*
X189039360Y-112287609D01*
X190167181Y-112282330D01*
X191184632Y-111860888D01*
X191429777Y-111469382D01*
X189590000Y-109629605D01*
X187750223Y-111469382D01*
X183441420Y-111469382D01*
X183446193Y-111466193D01*
X183454204Y-111454204D01*
X183466193Y-111446193D01*
X183523937Y-111359773D01*
X185559776Y-109323935D01*
X185646193Y-109266193D01*
X185874948Y-108923837D01*
X185879816Y-108899360D01*
X186752391Y-108899360D01*
X186757670Y-110027181D01*
X187179112Y-111044632D01*
X187570618Y-111289777D01*
X189410395Y-109450000D01*
X189769605Y-109450000D01*
X191609382Y-111289777D01*
X192000888Y-111044632D01*
X192427609Y-110000640D01*
X192422330Y-108872819D01*
X192000888Y-107855368D01*
X191609382Y-107610223D01*
X189769605Y-109450000D01*
X189410395Y-109450000D01*
X187570618Y-107610223D01*
X187179112Y-107855368D01*
X186752391Y-108899360D01*
X185879816Y-108899360D01*
X185935000Y-108621935D01*
X185935000Y-108621934D01*
X185955276Y-108520000D01*
X185935000Y-108418066D01*
X185935000Y-107430618D01*
X187750223Y-107430618D01*
X189590000Y-109270395D01*
X191429777Y-107430618D01*
X191184632Y-107039112D01*
X190140640Y-106612391D01*
X189012819Y-106617670D01*
X187995368Y-107039112D01*
X187750223Y-107430618D01*
X185935000Y-107430618D01*
X185935000Y-104871934D01*
X185955276Y-104770000D01*
X185874948Y-104366163D01*
X185809401Y-104268065D01*
X185646193Y-104023807D01*
X185559776Y-103966065D01*
X183957440Y-102363730D01*
X183957440Y-100480000D01*
X183908157Y-100232235D01*
X183767809Y-100022191D01*
X183622354Y-99925000D01*
X183767809Y-99827809D01*
X183908157Y-99617765D01*
X183957440Y-99370000D01*
X183957440Y-96670000D01*
X183908157Y-96422235D01*
X183767809Y-96212191D01*
X183557765Y-96071843D01*
X183310000Y-96022560D01*
X179810000Y-96022560D01*
X179562235Y-96071843D01*
X179352191Y-96212191D01*
X179211843Y-96422235D01*
X179162560Y-96670000D01*
X179162560Y-99370000D01*
X179211843Y-99617765D01*
X179352191Y-99827809D01*
X179497646Y-99925000D01*
X179352191Y-100022191D01*
X179211843Y-100232235D01*
X179162560Y-100480000D01*
X179162560Y-103180000D01*
X179193391Y-103335000D01*
X176480513Y-103335000D01*
X176591105Y-103261105D01*
X177029829Y-102604508D01*
X177183888Y-101830000D01*
X177029829Y-101055492D01*
X176591105Y-100398895D01*
X175934508Y-99960171D01*
X175757691Y-99925000D01*
X175934508Y-99889829D01*
X176591105Y-99451105D01*
X177029829Y-98794508D01*
X177183888Y-98020000D01*
X177029829Y-97245492D01*
X176591105Y-96588895D01*
X175934508Y-96150171D01*
X175355503Y-96035000D01*
X174164497Y-96035000D01*
X173585492Y-96150171D01*
X172928895Y-96588895D01*
X172490171Y-97245492D01*
X172336112Y-98020000D01*
X172429051Y-98487238D01*
X171391290Y-99525000D01*
X143168711Y-99525000D01*
X141043937Y-97400227D01*
X140986193Y-97313807D01*
X140643837Y-97085052D01*
X140341935Y-97025000D01*
X140341934Y-97025000D01*
X140240000Y-97004724D01*
X140138066Y-97025000D01*
X138438065Y-97025000D01*
X138136163Y-97085052D01*
X137793807Y-97313807D01*
X137565052Y-97656163D01*
X137484724Y-98060000D01*
X137565052Y-98463837D01*
X137714198Y-98687050D01*
X137555013Y-98947031D01*
X137545334Y-99023877D01*
X137673002Y-99183000D01*
X138663000Y-99183000D01*
X138663000Y-99163000D01*
X138917000Y-99163000D01*
X138917000Y-99183000D01*
X138937000Y-99183000D01*
X138937000Y-99437000D01*
X138917000Y-99437000D01*
X138917000Y-99457000D01*
X138663000Y-99457000D01*
X138663000Y-99437000D01*
X137673002Y-99437000D01*
X137545334Y-99596123D01*
X137555013Y-99672969D01*
X137671891Y-99863854D01*
X137557068Y-100035699D01*
X137492560Y-100360000D01*
X137492560Y-100760000D01*
X137557068Y-101084301D01*
X137740769Y-101359231D01*
X138015699Y-101542932D01*
X138340000Y-101607440D01*
X138373730Y-101607440D01*
X139256065Y-102489776D01*
X139313807Y-102576193D01*
X139400223Y-102633934D01*
X139656163Y-102804948D01*
X140059999Y-102885276D01*
X140161934Y-102865000D01*
X172664226Y-102865000D01*
X172928895Y-103261105D01*
X173039487Y-103335000D01*
X170303944Y-103335000D01*
X169829909Y-103018260D01*
X169411333Y-102935000D01*
X169128667Y-102935000D01*
X168710091Y-103018260D01*
X168235423Y-103335423D01*
X168000000Y-103687758D01*
X167764577Y-103335423D01*
X167289909Y-103018260D01*
X166871333Y-102935000D01*
X166588667Y-102935000D01*
X166170091Y-103018260D01*
X165695423Y-103335423D01*
X165460000Y-103687758D01*
X165224577Y-103335423D01*
X164749909Y-103018260D01*
X164331333Y-102935000D01*
X164048667Y-102935000D01*
X163630091Y-103018260D01*
X163155423Y-103335423D01*
X162920000Y-103687758D01*
X162684577Y-103335423D01*
X162209909Y-103018260D01*
X161791333Y-102935000D01*
X161508667Y-102935000D01*
X161090091Y-103018260D01*
X160615423Y-103335423D01*
X160380000Y-103687758D01*
X160144577Y-103335423D01*
X159669909Y-103018260D01*
X159251333Y-102935000D01*
X158968667Y-102935000D01*
X158550091Y-103018260D01*
X158075423Y-103335423D01*
X157840000Y-103687758D01*
X157604577Y-103335423D01*
X157129909Y-103018260D01*
X156711333Y-102935000D01*
X156428667Y-102935000D01*
X156010091Y-103018260D01*
X155535423Y-103335423D01*
X155300000Y-103687758D01*
X155064577Y-103335423D01*
X154589909Y-103018260D01*
X154171333Y-102935000D01*
X153888667Y-102935000D01*
X153470091Y-103018260D01*
X152995423Y-103335423D01*
X152760000Y-103687758D01*
X152524577Y-103335423D01*
X152049909Y-103018260D01*
X151631333Y-102935000D01*
X151348667Y-102935000D01*
X150930091Y-103018260D01*
X150455423Y-103335423D01*
X150220000Y-103687758D01*
X149984577Y-103335423D01*
X149509909Y-103018260D01*
X149091333Y-102935000D01*
X148808667Y-102935000D01*
X148390091Y-103018260D01*
X147915423Y-103335423D01*
X147680000Y-103687758D01*
X147444577Y-103335423D01*
X146969909Y-103018260D01*
X146551333Y-102935000D01*
X146268667Y-102935000D01*
X145850091Y-103018260D01*
X145376056Y-103335000D01*
X139001934Y-103335000D01*
X138900000Y-103314724D01*
X138798065Y-103335000D01*
X138496163Y-103395052D01*
X138153807Y-103623807D01*
X138096065Y-103710224D01*
X135590225Y-106216065D01*
X135503808Y-106273807D01*
X135446066Y-106360224D01*
X135275052Y-106616164D01*
X135194724Y-107020000D01*
X135215001Y-107121939D01*
X135215001Y-107531885D01*
X135025052Y-107816163D01*
X134944724Y-108220000D01*
X134420000Y-108220000D01*
X134420000Y-73769382D01*
X137660223Y-73769382D01*
X137905368Y-74160888D01*
X138949360Y-74587609D01*
X140077181Y-74582330D01*
X141094632Y-74160888D01*
X141339777Y-73769382D01*
X139500000Y-71929605D01*
X137660223Y-73769382D01*
X134420000Y-73769382D01*
X134420000Y-71199360D01*
X136662391Y-71199360D01*
X136667670Y-72327181D01*
X137089112Y-73344632D01*
X137480618Y-73589777D01*
X139320395Y-71750000D01*
X137480618Y-69910223D01*
X137089112Y-70155368D01*
X136662391Y-71199360D01*
X134420000Y-71199360D01*
X134420000Y-55550000D01*
X152453095Y-55550000D01*
X152453095Y-57409000D01*
G36*
X190085699Y-72332932D02*
X190410000Y-72397440D01*
X191310000Y-72397440D01*
X191565001Y-72346717D01*
X191565001Y-75549239D01*
X191513837Y-75515052D01*
X191211935Y-75455000D01*
X190508065Y-75455000D01*
X190206163Y-75515052D01*
X189863807Y-75743807D01*
X189635052Y-76086163D01*
X189554724Y-76490000D01*
X189635052Y-76893837D01*
X189784198Y-77117050D01*
X189625013Y-77377031D01*
X189615334Y-77453877D01*
X189743002Y-77613000D01*
X190733000Y-77613000D01*
X190733000Y-77593000D01*
X190987000Y-77593000D01*
X190987000Y-77613000D01*
X191007000Y-77613000D01*
X191007000Y-77867000D01*
X190987000Y-77867000D01*
X190987000Y-77887000D01*
X190733000Y-77887000D01*
X190733000Y-77867000D01*
X189743002Y-77867000D01*
X189615334Y-78026123D01*
X189618971Y-78055000D01*
X169677290Y-78055000D01*
X169449290Y-77827000D01*
X169547881Y-77827000D01*
X170061337Y-77614320D01*
X170454320Y-77221337D01*
X170540000Y-77014487D01*
X170625680Y-77221337D01*
X171018663Y-77614320D01*
X171532119Y-77827000D01*
X172087881Y-77827000D01*
X172601337Y-77614320D01*
X172994320Y-77221337D01*
X173080000Y-77014487D01*
X173165680Y-77221337D01*
X173558663Y-77614320D01*
X174072119Y-77827000D01*
X174627881Y-77827000D01*
X175141337Y-77614320D01*
X175534320Y-77221337D01*
X175620000Y-77014487D01*
X175705680Y-77221337D01*
X176098663Y-77614320D01*
X176612119Y-77827000D01*
X177167881Y-77827000D01*
X177681337Y-77614320D01*
X178074320Y-77221337D01*
X178160000Y-77014487D01*
X178245680Y-77221337D01*
X178638663Y-77614320D01*
X179152119Y-77827000D01*
X179707881Y-77827000D01*
X180221337Y-77614320D01*
X180614320Y-77221337D01*
X180700000Y-77014487D01*
X180785680Y-77221337D01*
X181178663Y-77614320D01*
X181692119Y-77827000D01*
X182247881Y-77827000D01*
X182761337Y-77614320D01*
X183154320Y-77221337D01*
X183240000Y-77014487D01*
X183325680Y-77221337D01*
X183718663Y-77614320D01*
X184232119Y-77827000D01*
X184787881Y-77827000D01*
X185301337Y-77614320D01*
X185694320Y-77221337D01*
X185907000Y-76707881D01*
X185907000Y-76152119D01*
X185694320Y-75638663D01*
X185301337Y-75245680D01*
X184787881Y-75033000D01*
X184232119Y-75033000D01*
X183718663Y-75245680D01*
X183325680Y-75638663D01*
X183240000Y-75845513D01*
X183154320Y-75638663D01*
X182761337Y-75245680D01*
X182247881Y-75033000D01*
X181692119Y-75033000D01*
X181178663Y-75245680D01*
X180785680Y-75638663D01*
X180700000Y-75845513D01*
X180614320Y-75638663D01*
X180221337Y-75245680D01*
X179707881Y-75033000D01*
X179152119Y-75033000D01*
X178638663Y-75245680D01*
X178245680Y-75638663D01*
X178160000Y-75845513D01*
X178074320Y-75638663D01*
X177681337Y-75245680D01*
X177167881Y-75033000D01*
X176612119Y-75033000D01*
X176098663Y-75245680D01*
X175705680Y-75638663D01*
X175620000Y-75845513D01*
X175534320Y-75638663D01*
X175141337Y-75245680D01*
X174627881Y-75033000D01*
X174529289Y-75033000D01*
X177277290Y-72285000D01*
X190013963Y-72285000D01*
X190085699Y-72332932D01*
X190085699Y-72332932D01*
G37*
X190085699Y-72332932D02*
X190410000Y-72397440D01*
X191310000Y-72397440D01*
X191565001Y-72346717D01*
X191565001Y-75549239D01*
X191513837Y-75515052D01*
X191211935Y-75455000D01*
X190508065Y-75455000D01*
X190206163Y-75515052D01*
X189863807Y-75743807D01*
X189635052Y-76086163D01*
X189554724Y-76490000D01*
X189635052Y-76893837D01*
X189784198Y-77117050D01*
X189625013Y-77377031D01*
X189615334Y-77453877D01*
X189743002Y-77613000D01*
X190733000Y-77613000D01*
X190733000Y-77593000D01*
X190987000Y-77593000D01*
X190987000Y-77613000D01*
X191007000Y-77613000D01*
X191007000Y-77867000D01*
X190987000Y-77867000D01*
X190987000Y-77887000D01*
X190733000Y-77887000D01*
X190733000Y-77867000D01*
X189743002Y-77867000D01*
X189615334Y-78026123D01*
X189618971Y-78055000D01*
X169677290Y-78055000D01*
X169449290Y-77827000D01*
X169547881Y-77827000D01*
X170061337Y-77614320D01*
X170454320Y-77221337D01*
X170540000Y-77014487D01*
X170625680Y-77221337D01*
X171018663Y-77614320D01*
X171532119Y-77827000D01*
X172087881Y-77827000D01*
X172601337Y-77614320D01*
X172994320Y-77221337D01*
X173080000Y-77014487D01*
X173165680Y-77221337D01*
X173558663Y-77614320D01*
X174072119Y-77827000D01*
X174627881Y-77827000D01*
X175141337Y-77614320D01*
X175534320Y-77221337D01*
X175620000Y-77014487D01*
X175705680Y-77221337D01*
X176098663Y-77614320D01*
X176612119Y-77827000D01*
X177167881Y-77827000D01*
X177681337Y-77614320D01*
X178074320Y-77221337D01*
X178160000Y-77014487D01*
X178245680Y-77221337D01*
X178638663Y-77614320D01*
X179152119Y-77827000D01*
X179707881Y-77827000D01*
X180221337Y-77614320D01*
X180614320Y-77221337D01*
X180700000Y-77014487D01*
X180785680Y-77221337D01*
X181178663Y-77614320D01*
X181692119Y-77827000D01*
X182247881Y-77827000D01*
X182761337Y-77614320D01*
X183154320Y-77221337D01*
X183240000Y-77014487D01*
X183325680Y-77221337D01*
X183718663Y-77614320D01*
X184232119Y-77827000D01*
X184787881Y-77827000D01*
X185301337Y-77614320D01*
X185694320Y-77221337D01*
X185907000Y-76707881D01*
X185907000Y-76152119D01*
X185694320Y-75638663D01*
X185301337Y-75245680D01*
X184787881Y-75033000D01*
X184232119Y-75033000D01*
X183718663Y-75245680D01*
X183325680Y-75638663D01*
X183240000Y-75845513D01*
X183154320Y-75638663D01*
X182761337Y-75245680D01*
X182247881Y-75033000D01*
X181692119Y-75033000D01*
X181178663Y-75245680D01*
X180785680Y-75638663D01*
X180700000Y-75845513D01*
X180614320Y-75638663D01*
X180221337Y-75245680D01*
X179707881Y-75033000D01*
X179152119Y-75033000D01*
X178638663Y-75245680D01*
X178245680Y-75638663D01*
X178160000Y-75845513D01*
X178074320Y-75638663D01*
X177681337Y-75245680D01*
X177167881Y-75033000D01*
X176612119Y-75033000D01*
X176098663Y-75245680D01*
X175705680Y-75638663D01*
X175620000Y-75845513D01*
X175534320Y-75638663D01*
X175141337Y-75245680D01*
X174627881Y-75033000D01*
X174529289Y-75033000D01*
X177277290Y-72285000D01*
X190013963Y-72285000D01*
X190085699Y-72332932D01*
G36*
X173900000Y-69857440D02*
X174520270Y-69857440D01*
X169344711Y-75033000D01*
X168992119Y-75033000D01*
X168478663Y-75245680D01*
X168085680Y-75638663D01*
X168000000Y-75845513D01*
X167914320Y-75638663D01*
X167521337Y-75245680D01*
X167007881Y-75033000D01*
X166452119Y-75033000D01*
X165938663Y-75245680D01*
X165545680Y-75638663D01*
X165460000Y-75845513D01*
X165374320Y-75638663D01*
X164981337Y-75245680D01*
X164467881Y-75033000D01*
X163912119Y-75033000D01*
X163398663Y-75245680D01*
X163005680Y-75638663D01*
X162920000Y-75845513D01*
X162834320Y-75638663D01*
X162585000Y-75389343D01*
X162585000Y-70787289D01*
X163432560Y-69939729D01*
X163432560Y-70380000D01*
X163481843Y-70627765D01*
X163622191Y-70837809D01*
X163832235Y-70978157D01*
X164080000Y-71027440D01*
X164794162Y-71027440D01*
X164982988Y-71065000D01*
X167902992Y-71065000D01*
X168000000Y-71084296D01*
X168097008Y-71065000D01*
X168097012Y-71065000D01*
X168384328Y-71007849D01*
X168710145Y-70790145D01*
X168765098Y-70707902D01*
X169615560Y-69857440D01*
X169720000Y-69857440D01*
X170033905Y-69795000D01*
X173586095Y-69795000D01*
X173900000Y-69857440D01*
X173900000Y-69857440D01*
G37*
X173900000Y-69857440D02*
X174520270Y-69857440D01*
X169344711Y-75033000D01*
X168992119Y-75033000D01*
X168478663Y-75245680D01*
X168085680Y-75638663D01*
X168000000Y-75845513D01*
X167914320Y-75638663D01*
X167521337Y-75245680D01*
X167007881Y-75033000D01*
X166452119Y-75033000D01*
X165938663Y-75245680D01*
X165545680Y-75638663D01*
X165460000Y-75845513D01*
X165374320Y-75638663D01*
X164981337Y-75245680D01*
X164467881Y-75033000D01*
X163912119Y-75033000D01*
X163398663Y-75245680D01*
X163005680Y-75638663D01*
X162920000Y-75845513D01*
X162834320Y-75638663D01*
X162585000Y-75389343D01*
X162585000Y-70787289D01*
X163432560Y-69939729D01*
X163432560Y-70380000D01*
X163481843Y-70627765D01*
X163622191Y-70837809D01*
X163832235Y-70978157D01*
X164080000Y-71027440D01*
X164794162Y-71027440D01*
X164982988Y-71065000D01*
X167902992Y-71065000D01*
X168000000Y-71084296D01*
X168097008Y-71065000D01*
X168097012Y-71065000D01*
X168384328Y-71007849D01*
X168710145Y-70790145D01*
X168765098Y-70707902D01*
X169615560Y-69857440D01*
X169720000Y-69857440D01*
X170033905Y-69795000D01*
X173586095Y-69795000D01*
X173900000Y-69857440D01*
G36*
X183271024Y-66643313D02*
X183285052Y-66713837D01*
X183434198Y-66937050D01*
X183275013Y-67197031D01*
X183265334Y-67273877D01*
X183393002Y-67433000D01*
X184383000Y-67433000D01*
X184383000Y-67413000D01*
X184637000Y-67413000D01*
X184637000Y-67433000D01*
X184657000Y-67433000D01*
X184657000Y-67687000D01*
X184637000Y-67687000D01*
X184637000Y-67707000D01*
X184383000Y-67707000D01*
X184383000Y-67687000D01*
X183393002Y-67687000D01*
X183282281Y-67825000D01*
X180657719Y-67825000D01*
X180546998Y-67687000D01*
X179557000Y-67687000D01*
X179557000Y-67707000D01*
X179303000Y-67707000D01*
X179303000Y-67687000D01*
X178313002Y-67687000D01*
X178202281Y-67825000D01*
X175577719Y-67825000D01*
X175466998Y-67687000D01*
X174477000Y-67687000D01*
X174477000Y-67707000D01*
X174223000Y-67707000D01*
X174223000Y-67687000D01*
X173233002Y-67687000D01*
X173122281Y-67825000D01*
X170497719Y-67825000D01*
X170386998Y-67687000D01*
X169397000Y-67687000D01*
X169397000Y-67707000D01*
X169143000Y-67707000D01*
X169143000Y-67687000D01*
X168153002Y-67687000D01*
X168025334Y-67846123D01*
X168035013Y-67922969D01*
X168151891Y-68113854D01*
X168037068Y-68285699D01*
X167972560Y-68610000D01*
X167972560Y-68714440D01*
X167592000Y-69095000D01*
X166727440Y-69095000D01*
X166727440Y-68510000D01*
X166678157Y-68262235D01*
X166619868Y-68175000D01*
X166678157Y-68087765D01*
X166727440Y-67840000D01*
X166727440Y-67240000D01*
X166678157Y-66992235D01*
X166619868Y-66905000D01*
X166678157Y-66817765D01*
X166727440Y-66570000D01*
X166727440Y-65970000D01*
X166678157Y-65722235D01*
X166619868Y-65635000D01*
X166678157Y-65547765D01*
X166727440Y-65300000D01*
X166727440Y-65089729D01*
X167968949Y-66331238D01*
X168045052Y-66713837D01*
X168194198Y-66937050D01*
X168035013Y-67197031D01*
X168025334Y-67273877D01*
X168153002Y-67433000D01*
X169143000Y-67433000D01*
X169143000Y-67413000D01*
X169397000Y-67413000D01*
X169397000Y-67433000D01*
X170386998Y-67433000D01*
X170514666Y-67273877D01*
X170504987Y-67197031D01*
X170345802Y-66937050D01*
X170494948Y-66713837D01*
X170575276Y-66310000D01*
X170494948Y-65906163D01*
X170266193Y-65563807D01*
X169923837Y-65335052D01*
X169621935Y-65275000D01*
X169557290Y-65275000D01*
X167677289Y-63395000D01*
X170022711Y-63395000D01*
X173071296Y-66443586D01*
X173125052Y-66713837D01*
X173274198Y-66937050D01*
X173115013Y-67197031D01*
X173105334Y-67273877D01*
X173233002Y-67433000D01*
X174223000Y-67433000D01*
X174223000Y-67413000D01*
X174477000Y-67413000D01*
X174477000Y-67433000D01*
X175466998Y-67433000D01*
X175594666Y-67273877D01*
X175584987Y-67197031D01*
X175425802Y-66937050D01*
X175574948Y-66713837D01*
X175655276Y-66310000D01*
X175574948Y-65906163D01*
X175346193Y-65563807D01*
X175003837Y-65335052D01*
X174701935Y-65275000D01*
X174547290Y-65275000D01*
X171397289Y-62125000D01*
X173672711Y-62125000D01*
X178191024Y-66643314D01*
X178205052Y-66713837D01*
X178354198Y-66937050D01*
X178195013Y-67197031D01*
X178185334Y-67273877D01*
X178313002Y-67433000D01*
X179303000Y-67433000D01*
X179303000Y-67413000D01*
X179557000Y-67413000D01*
X179557000Y-67433000D01*
X180546998Y-67433000D01*
X180674666Y-67273877D01*
X180664987Y-67197031D01*
X180505802Y-66937050D01*
X180654948Y-66713837D01*
X180735276Y-66310000D01*
X180654948Y-65906163D01*
X180426193Y-65563807D01*
X180083837Y-65335052D01*
X179781935Y-65275000D01*
X179467290Y-65275000D01*
X175047289Y-60855000D01*
X177482711Y-60855000D01*
X183271024Y-66643313D01*
X183271024Y-66643313D01*
G37*
X183271024Y-66643313D02*
X183285052Y-66713837D01*
X183434198Y-66937050D01*
X183275013Y-67197031D01*
X183265334Y-67273877D01*
X183393002Y-67433000D01*
X184383000Y-67433000D01*
X184383000Y-67413000D01*
X184637000Y-67413000D01*
X184637000Y-67433000D01*
X184657000Y-67433000D01*
X184657000Y-67687000D01*
X184637000Y-67687000D01*
X184637000Y-67707000D01*
X184383000Y-67707000D01*
X184383000Y-67687000D01*
X183393002Y-67687000D01*
X183282281Y-67825000D01*
X180657719Y-67825000D01*
X180546998Y-67687000D01*
X179557000Y-67687000D01*
X179557000Y-67707000D01*
X179303000Y-67707000D01*
X179303000Y-67687000D01*
X178313002Y-67687000D01*
X178202281Y-67825000D01*
X175577719Y-67825000D01*
X175466998Y-67687000D01*
X174477000Y-67687000D01*
X174477000Y-67707000D01*
X174223000Y-67707000D01*
X174223000Y-67687000D01*
X173233002Y-67687000D01*
X173122281Y-67825000D01*
X170497719Y-67825000D01*
X170386998Y-67687000D01*
X169397000Y-67687000D01*
X169397000Y-67707000D01*
X169143000Y-67707000D01*
X169143000Y-67687000D01*
X168153002Y-67687000D01*
X168025334Y-67846123D01*
X168035013Y-67922969D01*
X168151891Y-68113854D01*
X168037068Y-68285699D01*
X167972560Y-68610000D01*
X167972560Y-68714440D01*
X167592000Y-69095000D01*
X166727440Y-69095000D01*
X166727440Y-68510000D01*
X166678157Y-68262235D01*
X166619868Y-68175000D01*
X166678157Y-68087765D01*
X166727440Y-67840000D01*
X166727440Y-67240000D01*
X166678157Y-66992235D01*
X166619868Y-66905000D01*
X166678157Y-66817765D01*
X166727440Y-66570000D01*
X166727440Y-65970000D01*
X166678157Y-65722235D01*
X166619868Y-65635000D01*
X166678157Y-65547765D01*
X166727440Y-65300000D01*
X166727440Y-65089729D01*
X167968949Y-66331238D01*
X168045052Y-66713837D01*
X168194198Y-66937050D01*
X168035013Y-67197031D01*
X168025334Y-67273877D01*
X168153002Y-67433000D01*
X169143000Y-67433000D01*
X169143000Y-67413000D01*
X169397000Y-67413000D01*
X169397000Y-67433000D01*
X170386998Y-67433000D01*
X170514666Y-67273877D01*
X170504987Y-67197031D01*
X170345802Y-66937050D01*
X170494948Y-66713837D01*
X170575276Y-66310000D01*
X170494948Y-65906163D01*
X170266193Y-65563807D01*
X169923837Y-65335052D01*
X169621935Y-65275000D01*
X169557290Y-65275000D01*
X167677289Y-63395000D01*
X170022711Y-63395000D01*
X173071296Y-66443586D01*
X173125052Y-66713837D01*
X173274198Y-66937050D01*
X173115013Y-67197031D01*
X173105334Y-67273877D01*
X173233002Y-67433000D01*
X174223000Y-67433000D01*
X174223000Y-67413000D01*
X174477000Y-67413000D01*
X174477000Y-67433000D01*
X175466998Y-67433000D01*
X175594666Y-67273877D01*
X175584987Y-67197031D01*
X175425802Y-66937050D01*
X175574948Y-66713837D01*
X175655276Y-66310000D01*
X175574948Y-65906163D01*
X175346193Y-65563807D01*
X175003837Y-65335052D01*
X174701935Y-65275000D01*
X174547290Y-65275000D01*
X171397289Y-62125000D01*
X173672711Y-62125000D01*
X178191024Y-66643314D01*
X178205052Y-66713837D01*
X178354198Y-66937050D01*
X178195013Y-67197031D01*
X178185334Y-67273877D01*
X178313002Y-67433000D01*
X179303000Y-67433000D01*
X179303000Y-67413000D01*
X179557000Y-67413000D01*
X179557000Y-67433000D01*
X180546998Y-67433000D01*
X180674666Y-67273877D01*
X180664987Y-67197031D01*
X180505802Y-66937050D01*
X180654948Y-66713837D01*
X180735276Y-66310000D01*
X180654948Y-65906163D01*
X180426193Y-65563807D01*
X180083837Y-65335052D01*
X179781935Y-65275000D01*
X179467290Y-65275000D01*
X175047289Y-60855000D01*
X177482711Y-60855000D01*
X183271024Y-66643313D01*
G04 #@! TD*
M02*
