G04 #@! TF.GenerationSoftware,KiCad,Pcbnew,5.0.2*
G04 #@! TF.CreationDate,2019-09-26T16:07:35-03:00*
G04 #@! TF.ProjectId,ControleMix,436f6e74-726f-46c6-954d-69782e6b6963,rev?*
G04 #@! TF.SameCoordinates,Original*
G04 #@! TF.FileFunction,Legend,Top*
G04 #@! TF.FilePolarity,Positive*
%FSLAX46Y46*%
G04 Gerber Fmt 4.6, Leading zero omitted, Abs format (unit mm)*
G04 Created by KiCad (PCBNEW 5.0.2) date qui 26 set 2019 16:07:35 -03*
%MOMM*%
%LPD*%
G01*
G04 APERTURE LIST*
%ADD10C,0.200000*%
%ADD11C,0.300000*%
%ADD12C,0.150000*%
%ADD13C,0.250000*%
%ADD14C,0.120000*%
%ADD15C,0.075000*%
G04 APERTURE END LIST*
D10*
X183795238Y-74692857D02*
X183909523Y-74730952D01*
X183947619Y-74769047D01*
X183985714Y-74845238D01*
X183985714Y-74959523D01*
X183947619Y-75035714D01*
X183909523Y-75073809D01*
X183833333Y-75111904D01*
X183528571Y-75111904D01*
X183528571Y-74311904D01*
X183795238Y-74311904D01*
X183871428Y-74350000D01*
X183909523Y-74388095D01*
X183947619Y-74464285D01*
X183947619Y-74540476D01*
X183909523Y-74616666D01*
X183871428Y-74654761D01*
X183795238Y-74692857D01*
X183528571Y-74692857D01*
X184747619Y-75111904D02*
X184290476Y-75111904D01*
X184519047Y-75111904D02*
X184519047Y-74311904D01*
X184442857Y-74426190D01*
X184366666Y-74502380D01*
X184290476Y-74540476D01*
X185052380Y-74388095D02*
X185090476Y-74350000D01*
X185166666Y-74311904D01*
X185357142Y-74311904D01*
X185433333Y-74350000D01*
X185471428Y-74388095D01*
X185509523Y-74464285D01*
X185509523Y-74540476D01*
X185471428Y-74654761D01*
X185014285Y-75111904D01*
X185509523Y-75111904D01*
X135259523Y-93311904D02*
X135754761Y-93311904D01*
X135488095Y-93616666D01*
X135602380Y-93616666D01*
X135678571Y-93654761D01*
X135716666Y-93692857D01*
X135754761Y-93769047D01*
X135754761Y-93959523D01*
X135716666Y-94035714D01*
X135678571Y-94073809D01*
X135602380Y-94111904D01*
X135373809Y-94111904D01*
X135297619Y-94073809D01*
X135259523Y-94035714D01*
X135983333Y-93311904D02*
X136250000Y-94111904D01*
X136516666Y-93311904D01*
X136707142Y-93311904D02*
X137202380Y-93311904D01*
X136935714Y-93616666D01*
X137050000Y-93616666D01*
X137126190Y-93654761D01*
X137164285Y-93692857D01*
X137202380Y-93769047D01*
X137202380Y-93959523D01*
X137164285Y-94035714D01*
X137126190Y-94073809D01*
X137050000Y-94111904D01*
X136821428Y-94111904D01*
X136745238Y-94073809D01*
X136707142Y-94035714D01*
D11*
X136250000Y-79735714D02*
X136178571Y-79807142D01*
X135964285Y-79878571D01*
X135821428Y-79878571D01*
X135607142Y-79807142D01*
X135464285Y-79664285D01*
X135392857Y-79521428D01*
X135321428Y-79235714D01*
X135321428Y-79021428D01*
X135392857Y-78735714D01*
X135464285Y-78592857D01*
X135607142Y-78450000D01*
X135821428Y-78378571D01*
X135964285Y-78378571D01*
X136178571Y-78450000D01*
X136250000Y-78521428D01*
X137107142Y-79878571D02*
X136964285Y-79807142D01*
X136892857Y-79735714D01*
X136821428Y-79592857D01*
X136821428Y-79164285D01*
X136892857Y-79021428D01*
X136964285Y-78950000D01*
X137107142Y-78878571D01*
X137321428Y-78878571D01*
X137464285Y-78950000D01*
X137535714Y-79021428D01*
X137607142Y-79164285D01*
X137607142Y-79592857D01*
X137535714Y-79735714D01*
X137464285Y-79807142D01*
X137321428Y-79878571D01*
X137107142Y-79878571D01*
X138250000Y-78878571D02*
X138250000Y-79878571D01*
X138250000Y-79021428D02*
X138321428Y-78950000D01*
X138464285Y-78878571D01*
X138678571Y-78878571D01*
X138821428Y-78950000D01*
X138892857Y-79092857D01*
X138892857Y-79878571D01*
X139392857Y-78878571D02*
X139964285Y-78878571D01*
X139607142Y-78378571D02*
X139607142Y-79664285D01*
X139678571Y-79807142D01*
X139821428Y-79878571D01*
X139964285Y-79878571D01*
X140464285Y-79878571D02*
X140464285Y-78878571D01*
X140464285Y-79164285D02*
X140535714Y-79021428D01*
X140607142Y-78950000D01*
X140750000Y-78878571D01*
X140892857Y-78878571D01*
X141607142Y-79878571D02*
X141464285Y-79807142D01*
X141392857Y-79735714D01*
X141321428Y-79592857D01*
X141321428Y-79164285D01*
X141392857Y-79021428D01*
X141464285Y-78950000D01*
X141607142Y-78878571D01*
X141821428Y-78878571D01*
X141964285Y-78950000D01*
X142035714Y-79021428D01*
X142107142Y-79164285D01*
X142107142Y-79592857D01*
X142035714Y-79735714D01*
X141964285Y-79807142D01*
X141821428Y-79878571D01*
X141607142Y-79878571D01*
X142964285Y-79878571D02*
X142821428Y-79807142D01*
X142750000Y-79664285D01*
X142750000Y-78378571D01*
X144107142Y-79807142D02*
X143964285Y-79878571D01*
X143678571Y-79878571D01*
X143535714Y-79807142D01*
X143464285Y-79664285D01*
X143464285Y-79092857D01*
X143535714Y-78950000D01*
X143678571Y-78878571D01*
X143964285Y-78878571D01*
X144107142Y-78950000D01*
X144178571Y-79092857D01*
X144178571Y-79235714D01*
X143464285Y-79378571D01*
X144821428Y-79878571D02*
X144821428Y-78378571D01*
X145321428Y-79450000D01*
X145821428Y-78378571D01*
X145821428Y-79878571D01*
X146535714Y-79878571D02*
X146535714Y-78878571D01*
X146535714Y-78378571D02*
X146464285Y-78450000D01*
X146535714Y-78521428D01*
X146607142Y-78450000D01*
X146535714Y-78378571D01*
X146535714Y-78521428D01*
X147107142Y-79878571D02*
X147892857Y-78878571D01*
X147107142Y-78878571D02*
X147892857Y-79878571D01*
X149535714Y-78521428D02*
X149607142Y-78450000D01*
X149750000Y-78378571D01*
X150107142Y-78378571D01*
X150250000Y-78450000D01*
X150321428Y-78521428D01*
X150392857Y-78664285D01*
X150392857Y-78807142D01*
X150321428Y-79021428D01*
X149464285Y-79878571D01*
X150392857Y-79878571D01*
X151321428Y-78378571D02*
X151464285Y-78378571D01*
X151607142Y-78450000D01*
X151678571Y-78521428D01*
X151750000Y-78664285D01*
X151821428Y-78950000D01*
X151821428Y-79307142D01*
X151750000Y-79592857D01*
X151678571Y-79735714D01*
X151607142Y-79807142D01*
X151464285Y-79878571D01*
X151321428Y-79878571D01*
X151178571Y-79807142D01*
X151107142Y-79735714D01*
X151035714Y-79592857D01*
X150964285Y-79307142D01*
X150964285Y-78950000D01*
X151035714Y-78664285D01*
X151107142Y-78521428D01*
X151178571Y-78450000D01*
X151321428Y-78378571D01*
X153250000Y-79878571D02*
X152392857Y-79878571D01*
X152821428Y-79878571D02*
X152821428Y-78378571D01*
X152678571Y-78592857D01*
X152535714Y-78735714D01*
X152392857Y-78807142D01*
X153964285Y-79878571D02*
X154250000Y-79878571D01*
X154392857Y-79807142D01*
X154464285Y-79735714D01*
X154607142Y-79521428D01*
X154678571Y-79235714D01*
X154678571Y-78664285D01*
X154607142Y-78521428D01*
X154535714Y-78450000D01*
X154392857Y-78378571D01*
X154107142Y-78378571D01*
X153964285Y-78450000D01*
X153892857Y-78521428D01*
X153821428Y-78664285D01*
X153821428Y-79021428D01*
X153892857Y-79164285D01*
X153964285Y-79235714D01*
X154107142Y-79307142D01*
X154392857Y-79307142D01*
X154535714Y-79235714D01*
X154607142Y-79164285D01*
X154678571Y-79021428D01*
X141071428Y-82428571D02*
X140571428Y-81714285D01*
X140214285Y-82428571D02*
X140214285Y-80928571D01*
X140785714Y-80928571D01*
X140928571Y-81000000D01*
X141000000Y-81071428D01*
X141071428Y-81214285D01*
X141071428Y-81428571D01*
X141000000Y-81571428D01*
X140928571Y-81642857D01*
X140785714Y-81714285D01*
X140214285Y-81714285D01*
X141714285Y-81642857D02*
X142214285Y-81642857D01*
X142428571Y-82428571D02*
X141714285Y-82428571D01*
X141714285Y-80928571D01*
X142428571Y-80928571D01*
X142857142Y-80928571D02*
X143357142Y-82428571D01*
X143857142Y-80928571D01*
X146285714Y-82428571D02*
X145428571Y-82428571D01*
X145857142Y-82428571D02*
X145857142Y-80928571D01*
X145714285Y-81142857D01*
X145571428Y-81285714D01*
X145428571Y-81357142D01*
X146928571Y-82285714D02*
X147000000Y-82357142D01*
X146928571Y-82428571D01*
X146857142Y-82357142D01*
X146928571Y-82285714D01*
X146928571Y-82428571D01*
X147928571Y-80928571D02*
X148071428Y-80928571D01*
X148214285Y-81000000D01*
X148285714Y-81071428D01*
X148357142Y-81214285D01*
X148428571Y-81500000D01*
X148428571Y-81857142D01*
X148357142Y-82142857D01*
X148285714Y-82285714D01*
X148214285Y-82357142D01*
X148071428Y-82428571D01*
X147928571Y-82428571D01*
X147785714Y-82357142D01*
X147714285Y-82285714D01*
X147642857Y-82142857D01*
X147571428Y-81857142D01*
X147571428Y-81500000D01*
X147642857Y-81214285D01*
X147714285Y-81071428D01*
X147785714Y-81000000D01*
X147928571Y-80928571D01*
X149357142Y-80928571D02*
X149500000Y-80928571D01*
X149642857Y-81000000D01*
X149714285Y-81071428D01*
X149785714Y-81214285D01*
X149857142Y-81500000D01*
X149857142Y-81857142D01*
X149785714Y-82142857D01*
X149714285Y-82285714D01*
X149642857Y-82357142D01*
X149500000Y-82428571D01*
X149357142Y-82428571D01*
X149214285Y-82357142D01*
X149142857Y-82285714D01*
X149071428Y-82142857D01*
X149000000Y-81857142D01*
X149000000Y-81500000D01*
X149071428Y-81214285D01*
X149142857Y-81071428D01*
X149214285Y-81000000D01*
X149357142Y-80928571D01*
X142571428Y-83550000D02*
X142428571Y-83478571D01*
X142214285Y-83478571D01*
X142000000Y-83550000D01*
X141857142Y-83692857D01*
X141785714Y-83835714D01*
X141714285Y-84121428D01*
X141714285Y-84335714D01*
X141785714Y-84621428D01*
X141857142Y-84764285D01*
X142000000Y-84907142D01*
X142214285Y-84978571D01*
X142357142Y-84978571D01*
X142571428Y-84907142D01*
X142642857Y-84835714D01*
X142642857Y-84335714D01*
X142357142Y-84335714D01*
X143285714Y-84192857D02*
X143785714Y-84192857D01*
X144000000Y-84978571D02*
X143285714Y-84978571D01*
X143285714Y-83478571D01*
X144000000Y-83478571D01*
X145500000Y-84978571D02*
X145000000Y-84264285D01*
X144642857Y-84978571D02*
X144642857Y-83478571D01*
X145214285Y-83478571D01*
X145357142Y-83550000D01*
X145428571Y-83621428D01*
X145500000Y-83764285D01*
X145500000Y-83978571D01*
X145428571Y-84121428D01*
X145357142Y-84192857D01*
X145214285Y-84264285D01*
X144642857Y-84264285D01*
X146071428Y-84907142D02*
X146285714Y-84978571D01*
X146642857Y-84978571D01*
X146785714Y-84907142D01*
X146857142Y-84835714D01*
X146928571Y-84692857D01*
X146928571Y-84550000D01*
X146857142Y-84407142D01*
X146785714Y-84335714D01*
X146642857Y-84264285D01*
X146357142Y-84192857D01*
X146214285Y-84121428D01*
X146142857Y-84050000D01*
X146071428Y-83907142D01*
X146071428Y-83764285D01*
X146142857Y-83621428D01*
X146214285Y-83550000D01*
X146357142Y-83478571D01*
X146714285Y-83478571D01*
X146928571Y-83550000D01*
X147571428Y-84192857D02*
X148071428Y-84192857D01*
X148285714Y-84978571D02*
X147571428Y-84978571D01*
X147571428Y-83478571D01*
X148285714Y-83478571D01*
D12*
X188250000Y-84883333D02*
X188283333Y-84916666D01*
X188316666Y-85016666D01*
X188316666Y-85083333D01*
X188283333Y-85183333D01*
X188216666Y-85250000D01*
X188150000Y-85283333D01*
X188016666Y-85316666D01*
X187916666Y-85316666D01*
X187783333Y-85283333D01*
X187716666Y-85250000D01*
X187650000Y-85183333D01*
X187616666Y-85083333D01*
X187616666Y-85016666D01*
X187650000Y-84916666D01*
X187683333Y-84883333D01*
X187616666Y-84283333D02*
X187616666Y-84416666D01*
X187650000Y-84483333D01*
X187683333Y-84516666D01*
X187783333Y-84583333D01*
X187916666Y-84616666D01*
X188183333Y-84616666D01*
X188250000Y-84583333D01*
X188283333Y-84550000D01*
X188316666Y-84483333D01*
X188316666Y-84350000D01*
X188283333Y-84283333D01*
X188250000Y-84250000D01*
X188183333Y-84216666D01*
X188016666Y-84216666D01*
X187950000Y-84250000D01*
X187916666Y-84283333D01*
X187883333Y-84350000D01*
X187883333Y-84483333D01*
X187916666Y-84550000D01*
X187950000Y-84583333D01*
X188016666Y-84616666D01*
X187616666Y-83816666D02*
X187783333Y-83816666D01*
X187716666Y-83983333D02*
X187783333Y-83816666D01*
X187716666Y-83650000D01*
X187916666Y-83916666D02*
X187783333Y-83816666D01*
X187916666Y-83716666D01*
X187883333Y-86750000D02*
X187850000Y-86783333D01*
X187750000Y-86816666D01*
X187683333Y-86816666D01*
X187583333Y-86783333D01*
X187516666Y-86716666D01*
X187483333Y-86650000D01*
X187450000Y-86516666D01*
X187450000Y-86416666D01*
X187483333Y-86283333D01*
X187516666Y-86216666D01*
X187583333Y-86150000D01*
X187683333Y-86116666D01*
X187750000Y-86116666D01*
X187850000Y-86150000D01*
X187883333Y-86183333D01*
X188516666Y-86116666D02*
X188183333Y-86116666D01*
X188150000Y-86450000D01*
X188183333Y-86416666D01*
X188250000Y-86383333D01*
X188416666Y-86383333D01*
X188483333Y-86416666D01*
X188516666Y-86450000D01*
X188550000Y-86516666D01*
X188550000Y-86683333D01*
X188516666Y-86750000D01*
X188483333Y-86783333D01*
X188416666Y-86816666D01*
X188250000Y-86816666D01*
X188183333Y-86783333D01*
X188150000Y-86750000D01*
X187883333Y-88000000D02*
X187850000Y-88033333D01*
X187750000Y-88066666D01*
X187683333Y-88066666D01*
X187583333Y-88033333D01*
X187516666Y-87966666D01*
X187483333Y-87900000D01*
X187450000Y-87766666D01*
X187450000Y-87666666D01*
X187483333Y-87533333D01*
X187516666Y-87466666D01*
X187583333Y-87400000D01*
X187683333Y-87366666D01*
X187750000Y-87366666D01*
X187850000Y-87400000D01*
X187883333Y-87433333D01*
X188483333Y-87600000D02*
X188483333Y-88066666D01*
X188316666Y-87333333D02*
X188150000Y-87833333D01*
X188583333Y-87833333D01*
X187883333Y-89250000D02*
X187850000Y-89283333D01*
X187750000Y-89316666D01*
X187683333Y-89316666D01*
X187583333Y-89283333D01*
X187516666Y-89216666D01*
X187483333Y-89150000D01*
X187450000Y-89016666D01*
X187450000Y-88916666D01*
X187483333Y-88783333D01*
X187516666Y-88716666D01*
X187583333Y-88650000D01*
X187683333Y-88616666D01*
X187750000Y-88616666D01*
X187850000Y-88650000D01*
X187883333Y-88683333D01*
X188116666Y-88616666D02*
X188550000Y-88616666D01*
X188316666Y-88883333D01*
X188416666Y-88883333D01*
X188483333Y-88916666D01*
X188516666Y-88950000D01*
X188550000Y-89016666D01*
X188550000Y-89183333D01*
X188516666Y-89250000D01*
X188483333Y-89283333D01*
X188416666Y-89316666D01*
X188216666Y-89316666D01*
X188150000Y-89283333D01*
X188116666Y-89250000D01*
X187883333Y-90500000D02*
X187850000Y-90533333D01*
X187750000Y-90566666D01*
X187683333Y-90566666D01*
X187583333Y-90533333D01*
X187516666Y-90466666D01*
X187483333Y-90400000D01*
X187450000Y-90266666D01*
X187450000Y-90166666D01*
X187483333Y-90033333D01*
X187516666Y-89966666D01*
X187583333Y-89900000D01*
X187683333Y-89866666D01*
X187750000Y-89866666D01*
X187850000Y-89900000D01*
X187883333Y-89933333D01*
X188150000Y-89933333D02*
X188183333Y-89900000D01*
X188250000Y-89866666D01*
X188416666Y-89866666D01*
X188483333Y-89900000D01*
X188516666Y-89933333D01*
X188550000Y-90000000D01*
X188550000Y-90066666D01*
X188516666Y-90166666D01*
X188116666Y-90566666D01*
X188550000Y-90566666D01*
X187883333Y-91750000D02*
X187850000Y-91783333D01*
X187750000Y-91816666D01*
X187683333Y-91816666D01*
X187583333Y-91783333D01*
X187516666Y-91716666D01*
X187483333Y-91650000D01*
X187450000Y-91516666D01*
X187450000Y-91416666D01*
X187483333Y-91283333D01*
X187516666Y-91216666D01*
X187583333Y-91150000D01*
X187683333Y-91116666D01*
X187750000Y-91116666D01*
X187850000Y-91150000D01*
X187883333Y-91183333D01*
X188550000Y-91816666D02*
X188150000Y-91816666D01*
X188350000Y-91816666D02*
X188350000Y-91116666D01*
X188283333Y-91216666D01*
X188216666Y-91283333D01*
X188150000Y-91316666D01*
D10*
X187600000Y-94290476D02*
X187561904Y-94366666D01*
X187561904Y-94480952D01*
X187600000Y-94595238D01*
X187676190Y-94671428D01*
X187752380Y-94709523D01*
X187904761Y-94747619D01*
X188019047Y-94747619D01*
X188171428Y-94709523D01*
X188247619Y-94671428D01*
X188323809Y-94595238D01*
X188361904Y-94480952D01*
X188361904Y-94404761D01*
X188323809Y-94290476D01*
X188285714Y-94252380D01*
X188019047Y-94252380D01*
X188019047Y-94404761D01*
X187561904Y-93152380D02*
X187561904Y-93533333D01*
X187942857Y-93571428D01*
X187904761Y-93533333D01*
X187866666Y-93457142D01*
X187866666Y-93266666D01*
X187904761Y-93190476D01*
X187942857Y-93152380D01*
X188019047Y-93114285D01*
X188209523Y-93114285D01*
X188285714Y-93152380D01*
X188323809Y-93190476D01*
X188361904Y-93266666D01*
X188361904Y-93457142D01*
X188323809Y-93533333D01*
X188285714Y-93571428D01*
X187561904Y-92885714D02*
X188361904Y-92619047D01*
X187561904Y-92352380D01*
X187600000Y-77040476D02*
X187561904Y-77116666D01*
X187561904Y-77230952D01*
X187600000Y-77345238D01*
X187676190Y-77421428D01*
X187752380Y-77459523D01*
X187904761Y-77497619D01*
X188019047Y-77497619D01*
X188171428Y-77459523D01*
X188247619Y-77421428D01*
X188323809Y-77345238D01*
X188361904Y-77230952D01*
X188361904Y-77154761D01*
X188323809Y-77040476D01*
X188285714Y-77002380D01*
X188019047Y-77002380D01*
X188019047Y-77154761D01*
X188361904Y-79247619D02*
X187980952Y-79514285D01*
X188361904Y-79704761D02*
X187561904Y-79704761D01*
X187561904Y-79400000D01*
X187600000Y-79323809D01*
X187638095Y-79285714D01*
X187714285Y-79247619D01*
X187828571Y-79247619D01*
X187904761Y-79285714D01*
X187942857Y-79323809D01*
X187980952Y-79400000D01*
X187980952Y-79704761D01*
X188057142Y-78904761D02*
X188057142Y-78295238D01*
X187561904Y-81973809D02*
X187561904Y-81516666D01*
X188361904Y-81745238D02*
X187561904Y-81745238D01*
X188057142Y-81250000D02*
X188057142Y-80640476D01*
X188361904Y-80945238D02*
X187752380Y-80945238D01*
X187561904Y-67402380D02*
X187561904Y-67783333D01*
X187942857Y-67821428D01*
X187904761Y-67783333D01*
X187866666Y-67707142D01*
X187866666Y-67516666D01*
X187904761Y-67440476D01*
X187942857Y-67402380D01*
X188019047Y-67364285D01*
X188209523Y-67364285D01*
X188285714Y-67402380D01*
X188323809Y-67440476D01*
X188361904Y-67516666D01*
X188361904Y-67707142D01*
X188323809Y-67783333D01*
X188285714Y-67821428D01*
X187561904Y-67135714D02*
X188361904Y-66869047D01*
X187561904Y-66602380D01*
X187561904Y-75902380D02*
X187561904Y-76283333D01*
X187942857Y-76321428D01*
X187904761Y-76283333D01*
X187866666Y-76207142D01*
X187866666Y-76016666D01*
X187904761Y-75940476D01*
X187942857Y-75902380D01*
X188019047Y-75864285D01*
X188209523Y-75864285D01*
X188285714Y-75902380D01*
X188323809Y-75940476D01*
X188361904Y-76016666D01*
X188361904Y-76207142D01*
X188323809Y-76283333D01*
X188285714Y-76321428D01*
X187561904Y-75635714D02*
X188361904Y-75369047D01*
X187561904Y-75102380D01*
X187600000Y-68790476D02*
X187561904Y-68866666D01*
X187561904Y-68980952D01*
X187600000Y-69095238D01*
X187676190Y-69171428D01*
X187752380Y-69209523D01*
X187904761Y-69247619D01*
X188019047Y-69247619D01*
X188171428Y-69209523D01*
X188247619Y-69171428D01*
X188323809Y-69095238D01*
X188361904Y-68980952D01*
X188361904Y-68904761D01*
X188323809Y-68790476D01*
X188285714Y-68752380D01*
X188019047Y-68752380D01*
X188019047Y-68904761D01*
X188361904Y-70002380D02*
X187980952Y-70269047D01*
X188361904Y-70459523D02*
X187561904Y-70459523D01*
X187561904Y-70154761D01*
X187600000Y-70078571D01*
X187638095Y-70040476D01*
X187714285Y-70002380D01*
X187828571Y-70002380D01*
X187904761Y-70040476D01*
X187942857Y-70078571D01*
X187980952Y-70154761D01*
X187980952Y-70459523D01*
X187586904Y-71728571D02*
X187586904Y-71271428D01*
X188386904Y-71500000D02*
X187586904Y-71500000D01*
X187597619Y-98811904D02*
X187216666Y-98811904D01*
X187178571Y-99192857D01*
X187216666Y-99154761D01*
X187292857Y-99116666D01*
X187483333Y-99116666D01*
X187559523Y-99154761D01*
X187597619Y-99192857D01*
X187635714Y-99269047D01*
X187635714Y-99459523D01*
X187597619Y-99535714D01*
X187559523Y-99573809D01*
X187483333Y-99611904D01*
X187292857Y-99611904D01*
X187216666Y-99573809D01*
X187178571Y-99535714D01*
X187864285Y-98811904D02*
X188130952Y-99611904D01*
X188397619Y-98811904D01*
X187959523Y-100100000D02*
X187883333Y-100061904D01*
X187769047Y-100061904D01*
X187654761Y-100100000D01*
X187578571Y-100176190D01*
X187540476Y-100252380D01*
X187502380Y-100404761D01*
X187502380Y-100519047D01*
X187540476Y-100671428D01*
X187578571Y-100747619D01*
X187654761Y-100823809D01*
X187769047Y-100861904D01*
X187845238Y-100861904D01*
X187959523Y-100823809D01*
X187997619Y-100785714D01*
X187997619Y-100519047D01*
X187845238Y-100519047D01*
X187654761Y-102111904D02*
X187388095Y-101730952D01*
X187197619Y-102111904D02*
X187197619Y-101311904D01*
X187502380Y-101311904D01*
X187578571Y-101350000D01*
X187616666Y-101388095D01*
X187654761Y-101464285D01*
X187654761Y-101578571D01*
X187616666Y-101654761D01*
X187578571Y-101692857D01*
X187502380Y-101730952D01*
X187197619Y-101730952D01*
X187959523Y-101883333D02*
X188340476Y-101883333D01*
X187883333Y-102111904D02*
X188150000Y-101311904D01*
X188416666Y-102111904D01*
X187197619Y-103061904D02*
X187654761Y-103061904D01*
X187426190Y-103861904D02*
X187426190Y-103061904D01*
X188302380Y-103861904D02*
X187921428Y-103861904D01*
X187921428Y-103061904D01*
D12*
X137520000Y-91670000D02*
G75*
G03X137520000Y-91670000I-1270000J0D01*
G01*
D10*
X134183333Y-97561904D02*
X134450000Y-98361904D01*
X134716666Y-97561904D01*
X135440476Y-98285714D02*
X135402380Y-98323809D01*
X135288095Y-98361904D01*
X135211904Y-98361904D01*
X135097619Y-98323809D01*
X135021428Y-98247619D01*
X134983333Y-98171428D01*
X134945238Y-98019047D01*
X134945238Y-97904761D01*
X134983333Y-97752380D01*
X135021428Y-97676190D01*
X135097619Y-97600000D01*
X135211904Y-97561904D01*
X135288095Y-97561904D01*
X135402380Y-97600000D01*
X135440476Y-97638095D01*
X136240476Y-98285714D02*
X136202380Y-98323809D01*
X136088095Y-98361904D01*
X136011904Y-98361904D01*
X135897619Y-98323809D01*
X135821428Y-98247619D01*
X135783333Y-98171428D01*
X135745238Y-98019047D01*
X135745238Y-97904761D01*
X135783333Y-97752380D01*
X135821428Y-97676190D01*
X135897619Y-97600000D01*
X136011904Y-97561904D01*
X136088095Y-97561904D01*
X136202380Y-97600000D01*
X136240476Y-97638095D01*
X134597619Y-100311904D02*
X134216666Y-100311904D01*
X134178571Y-100692857D01*
X134216666Y-100654761D01*
X134292857Y-100616666D01*
X134483333Y-100616666D01*
X134559523Y-100654761D01*
X134597619Y-100692857D01*
X134635714Y-100769047D01*
X134635714Y-100959523D01*
X134597619Y-101035714D01*
X134559523Y-101073809D01*
X134483333Y-101111904D01*
X134292857Y-101111904D01*
X134216666Y-101073809D01*
X134178571Y-101035714D01*
X134864285Y-100311904D02*
X135130952Y-101111904D01*
X135397619Y-100311904D01*
X134640476Y-98850000D02*
X134564285Y-98811904D01*
X134450000Y-98811904D01*
X134335714Y-98850000D01*
X134259523Y-98926190D01*
X134221428Y-99002380D01*
X134183333Y-99154761D01*
X134183333Y-99269047D01*
X134221428Y-99421428D01*
X134259523Y-99497619D01*
X134335714Y-99573809D01*
X134450000Y-99611904D01*
X134526190Y-99611904D01*
X134640476Y-99573809D01*
X134678571Y-99535714D01*
X134678571Y-99269047D01*
X134526190Y-99269047D01*
X135021428Y-99611904D02*
X135021428Y-98811904D01*
X135478571Y-99611904D01*
X135478571Y-98811904D01*
X135859523Y-99611904D02*
X135859523Y-98811904D01*
X136050000Y-98811904D01*
X136164285Y-98850000D01*
X136240476Y-98926190D01*
X136278571Y-99002380D01*
X136316666Y-99154761D01*
X136316666Y-99269047D01*
X136278571Y-99421428D01*
X136240476Y-99497619D01*
X136164285Y-99573809D01*
X136050000Y-99611904D01*
X135859523Y-99611904D01*
X179819047Y-106133333D02*
X180200000Y-106133333D01*
X179742857Y-106361904D02*
X180009523Y-105561904D01*
X180276190Y-106361904D01*
X180542857Y-106361904D02*
X180542857Y-105561904D01*
X180923809Y-106361904D02*
X180923809Y-105561904D01*
X181380952Y-106361904D01*
X181380952Y-105561904D01*
X181800000Y-106361904D02*
X181952380Y-106361904D01*
X182028571Y-106323809D01*
X182066666Y-106285714D01*
X182142857Y-106171428D01*
X182180952Y-106019047D01*
X182180952Y-105714285D01*
X182142857Y-105638095D01*
X182104761Y-105600000D01*
X182028571Y-105561904D01*
X181876190Y-105561904D01*
X181800000Y-105600000D01*
X181761904Y-105638095D01*
X181723809Y-105714285D01*
X181723809Y-105904761D01*
X181761904Y-105980952D01*
X181800000Y-106019047D01*
X181876190Y-106057142D01*
X182028571Y-106057142D01*
X182104761Y-106019047D01*
X182142857Y-105980952D01*
X182180952Y-105904761D01*
X174819047Y-106133333D02*
X175200000Y-106133333D01*
X174742857Y-106361904D02*
X175009523Y-105561904D01*
X175276190Y-106361904D01*
X175542857Y-106361904D02*
X175542857Y-105561904D01*
X175923809Y-106361904D02*
X175923809Y-105561904D01*
X176380952Y-106361904D01*
X176380952Y-105561904D01*
X176876190Y-105904761D02*
X176800000Y-105866666D01*
X176761904Y-105828571D01*
X176723809Y-105752380D01*
X176723809Y-105714285D01*
X176761904Y-105638095D01*
X176800000Y-105600000D01*
X176876190Y-105561904D01*
X177028571Y-105561904D01*
X177104761Y-105600000D01*
X177142857Y-105638095D01*
X177180952Y-105714285D01*
X177180952Y-105752380D01*
X177142857Y-105828571D01*
X177104761Y-105866666D01*
X177028571Y-105904761D01*
X176876190Y-105904761D01*
X176800000Y-105942857D01*
X176761904Y-105980952D01*
X176723809Y-106057142D01*
X176723809Y-106209523D01*
X176761904Y-106285714D01*
X176800000Y-106323809D01*
X176876190Y-106361904D01*
X177028571Y-106361904D01*
X177104761Y-106323809D01*
X177142857Y-106285714D01*
X177180952Y-106209523D01*
X177180952Y-106057142D01*
X177142857Y-105980952D01*
X177104761Y-105942857D01*
X177028571Y-105904761D01*
X169819047Y-106133333D02*
X170200000Y-106133333D01*
X169742857Y-106361904D02*
X170009523Y-105561904D01*
X170276190Y-106361904D01*
X170542857Y-106361904D02*
X170542857Y-105561904D01*
X170923809Y-106361904D02*
X170923809Y-105561904D01*
X171380952Y-106361904D01*
X171380952Y-105561904D01*
X171685714Y-105561904D02*
X172219047Y-105561904D01*
X171876190Y-106361904D01*
X164819047Y-106133333D02*
X165200000Y-106133333D01*
X164742857Y-106361904D02*
X165009523Y-105561904D01*
X165276190Y-106361904D01*
X165542857Y-106361904D02*
X165542857Y-105561904D01*
X165923809Y-106361904D02*
X165923809Y-105561904D01*
X166380952Y-106361904D01*
X166380952Y-105561904D01*
X167104761Y-105561904D02*
X166952380Y-105561904D01*
X166876190Y-105600000D01*
X166838095Y-105638095D01*
X166761904Y-105752380D01*
X166723809Y-105904761D01*
X166723809Y-106209523D01*
X166761904Y-106285714D01*
X166800000Y-106323809D01*
X166876190Y-106361904D01*
X167028571Y-106361904D01*
X167104761Y-106323809D01*
X167142857Y-106285714D01*
X167180952Y-106209523D01*
X167180952Y-106019047D01*
X167142857Y-105942857D01*
X167104761Y-105904761D01*
X167028571Y-105866666D01*
X166876190Y-105866666D01*
X166800000Y-105904761D01*
X166761904Y-105942857D01*
X166723809Y-106019047D01*
X159569047Y-106133333D02*
X159950000Y-106133333D01*
X159492857Y-106361904D02*
X159759523Y-105561904D01*
X160026190Y-106361904D01*
X160292857Y-106361904D02*
X160292857Y-105561904D01*
X160673809Y-106361904D02*
X160673809Y-105561904D01*
X161130952Y-106361904D01*
X161130952Y-105561904D01*
X161892857Y-105561904D02*
X161511904Y-105561904D01*
X161473809Y-105942857D01*
X161511904Y-105904761D01*
X161588095Y-105866666D01*
X161778571Y-105866666D01*
X161854761Y-105904761D01*
X161892857Y-105942857D01*
X161930952Y-106019047D01*
X161930952Y-106209523D01*
X161892857Y-106285714D01*
X161854761Y-106323809D01*
X161778571Y-106361904D01*
X161588095Y-106361904D01*
X161511904Y-106323809D01*
X161473809Y-106285714D01*
X154569047Y-106133333D02*
X154950000Y-106133333D01*
X154492857Y-106361904D02*
X154759523Y-105561904D01*
X155026190Y-106361904D01*
X155292857Y-106361904D02*
X155292857Y-105561904D01*
X155673809Y-106361904D02*
X155673809Y-105561904D01*
X156130952Y-106361904D01*
X156130952Y-105561904D01*
X156854761Y-105828571D02*
X156854761Y-106361904D01*
X156664285Y-105523809D02*
X156473809Y-106095238D01*
X156969047Y-106095238D01*
X149569047Y-106133333D02*
X149950000Y-106133333D01*
X149492857Y-106361904D02*
X149759523Y-105561904D01*
X150026190Y-106361904D01*
X150292857Y-106361904D02*
X150292857Y-105561904D01*
X150673809Y-106361904D02*
X150673809Y-105561904D01*
X151130952Y-106361904D01*
X151130952Y-105561904D01*
X151435714Y-105561904D02*
X151930952Y-105561904D01*
X151664285Y-105866666D01*
X151778571Y-105866666D01*
X151854761Y-105904761D01*
X151892857Y-105942857D01*
X151930952Y-106019047D01*
X151930952Y-106209523D01*
X151892857Y-106285714D01*
X151854761Y-106323809D01*
X151778571Y-106361904D01*
X151550000Y-106361904D01*
X151473809Y-106323809D01*
X151435714Y-106285714D01*
X144319047Y-106133333D02*
X144700000Y-106133333D01*
X144242857Y-106361904D02*
X144509523Y-105561904D01*
X144776190Y-106361904D01*
X145042857Y-106361904D02*
X145042857Y-105561904D01*
X145423809Y-106361904D02*
X145423809Y-105561904D01*
X145880952Y-106361904D01*
X145880952Y-105561904D01*
X146223809Y-105638095D02*
X146261904Y-105600000D01*
X146338095Y-105561904D01*
X146528571Y-105561904D01*
X146604761Y-105600000D01*
X146642857Y-105638095D01*
X146680952Y-105714285D01*
X146680952Y-105790476D01*
X146642857Y-105904761D01*
X146185714Y-106361904D01*
X146680952Y-106361904D01*
X139319047Y-106133333D02*
X139700000Y-106133333D01*
X139242857Y-106361904D02*
X139509523Y-105561904D01*
X139776190Y-106361904D01*
X140042857Y-106361904D02*
X140042857Y-105561904D01*
X140423809Y-106361904D02*
X140423809Y-105561904D01*
X140880952Y-106361904D01*
X140880952Y-105561904D01*
X141680952Y-106361904D02*
X141223809Y-106361904D01*
X141452380Y-106361904D02*
X141452380Y-105561904D01*
X141376190Y-105676190D01*
X141300000Y-105752380D01*
X141223809Y-105790476D01*
X134319047Y-106133333D02*
X134700000Y-106133333D01*
X134242857Y-106361904D02*
X134509523Y-105561904D01*
X134776190Y-106361904D01*
X135042857Y-106361904D02*
X135042857Y-105561904D01*
X135423809Y-106361904D02*
X135423809Y-105561904D01*
X135880952Y-106361904D01*
X135880952Y-105561904D01*
X136414285Y-105561904D02*
X136490476Y-105561904D01*
X136566666Y-105600000D01*
X136604761Y-105638095D01*
X136642857Y-105714285D01*
X136680952Y-105866666D01*
X136680952Y-106057142D01*
X136642857Y-106209523D01*
X136604761Y-106285714D01*
X136566666Y-106323809D01*
X136490476Y-106361904D01*
X136414285Y-106361904D01*
X136338095Y-106323809D01*
X136300000Y-106285714D01*
X136261904Y-106209523D01*
X136223809Y-106057142D01*
X136223809Y-105866666D01*
X136261904Y-105714285D01*
X136300000Y-105638095D01*
X136338095Y-105600000D01*
X136414285Y-105561904D01*
D13*
X183702380Y-63706190D02*
X183702380Y-63515714D01*
X183750000Y-63420476D01*
X183845238Y-63325238D01*
X184035714Y-63277619D01*
X184369047Y-63277619D01*
X184559523Y-63325238D01*
X184654761Y-63420476D01*
X184702380Y-63515714D01*
X184702380Y-63706190D01*
X184654761Y-63801428D01*
X184559523Y-63896666D01*
X184369047Y-63944285D01*
X184035714Y-63944285D01*
X183845238Y-63896666D01*
X183750000Y-63801428D01*
X183702380Y-63706190D01*
X183702380Y-62849047D02*
X184511904Y-62849047D01*
X184607142Y-62801428D01*
X184654761Y-62753809D01*
X184702380Y-62658571D01*
X184702380Y-62468095D01*
X184654761Y-62372857D01*
X184607142Y-62325238D01*
X184511904Y-62277619D01*
X183702380Y-62277619D01*
X183702380Y-61944285D02*
X183702380Y-61372857D01*
X184702380Y-61658571D02*
X183702380Y-61658571D01*
X184702380Y-60515714D02*
X184702380Y-61087142D01*
X184702380Y-60801428D02*
X183702380Y-60801428D01*
X183845238Y-60896666D01*
X183940476Y-60991904D01*
X183988095Y-61087142D01*
X178522380Y-63706190D02*
X178522380Y-63515714D01*
X178570000Y-63420476D01*
X178665238Y-63325238D01*
X178855714Y-63277619D01*
X179189047Y-63277619D01*
X179379523Y-63325238D01*
X179474761Y-63420476D01*
X179522380Y-63515714D01*
X179522380Y-63706190D01*
X179474761Y-63801428D01*
X179379523Y-63896666D01*
X179189047Y-63944285D01*
X178855714Y-63944285D01*
X178665238Y-63896666D01*
X178570000Y-63801428D01*
X178522380Y-63706190D01*
X178522380Y-62849047D02*
X179331904Y-62849047D01*
X179427142Y-62801428D01*
X179474761Y-62753809D01*
X179522380Y-62658571D01*
X179522380Y-62468095D01*
X179474761Y-62372857D01*
X179427142Y-62325238D01*
X179331904Y-62277619D01*
X178522380Y-62277619D01*
X178522380Y-61944285D02*
X178522380Y-61372857D01*
X179522380Y-61658571D02*
X178522380Y-61658571D01*
X178617619Y-61087142D02*
X178570000Y-61039523D01*
X178522380Y-60944285D01*
X178522380Y-60706190D01*
X178570000Y-60610952D01*
X178617619Y-60563333D01*
X178712857Y-60515714D01*
X178808095Y-60515714D01*
X178950952Y-60563333D01*
X179522380Y-61134761D01*
X179522380Y-60515714D01*
X173442380Y-63706190D02*
X173442380Y-63515714D01*
X173490000Y-63420476D01*
X173585238Y-63325238D01*
X173775714Y-63277619D01*
X174109047Y-63277619D01*
X174299523Y-63325238D01*
X174394761Y-63420476D01*
X174442380Y-63515714D01*
X174442380Y-63706190D01*
X174394761Y-63801428D01*
X174299523Y-63896666D01*
X174109047Y-63944285D01*
X173775714Y-63944285D01*
X173585238Y-63896666D01*
X173490000Y-63801428D01*
X173442380Y-63706190D01*
X173442380Y-62849047D02*
X174251904Y-62849047D01*
X174347142Y-62801428D01*
X174394761Y-62753809D01*
X174442380Y-62658571D01*
X174442380Y-62468095D01*
X174394761Y-62372857D01*
X174347142Y-62325238D01*
X174251904Y-62277619D01*
X173442380Y-62277619D01*
X173442380Y-61944285D02*
X173442380Y-61372857D01*
X174442380Y-61658571D02*
X173442380Y-61658571D01*
X173442380Y-61134761D02*
X173442380Y-60515714D01*
X173823333Y-60849047D01*
X173823333Y-60706190D01*
X173870952Y-60610952D01*
X173918571Y-60563333D01*
X174013809Y-60515714D01*
X174251904Y-60515714D01*
X174347142Y-60563333D01*
X174394761Y-60610952D01*
X174442380Y-60706190D01*
X174442380Y-60991904D01*
X174394761Y-61087142D01*
X174347142Y-61134761D01*
X168362380Y-63706190D02*
X168362380Y-63515714D01*
X168410000Y-63420476D01*
X168505238Y-63325238D01*
X168695714Y-63277619D01*
X169029047Y-63277619D01*
X169219523Y-63325238D01*
X169314761Y-63420476D01*
X169362380Y-63515714D01*
X169362380Y-63706190D01*
X169314761Y-63801428D01*
X169219523Y-63896666D01*
X169029047Y-63944285D01*
X168695714Y-63944285D01*
X168505238Y-63896666D01*
X168410000Y-63801428D01*
X168362380Y-63706190D01*
X168362380Y-62849047D02*
X169171904Y-62849047D01*
X169267142Y-62801428D01*
X169314761Y-62753809D01*
X169362380Y-62658571D01*
X169362380Y-62468095D01*
X169314761Y-62372857D01*
X169267142Y-62325238D01*
X169171904Y-62277619D01*
X168362380Y-62277619D01*
X168362380Y-61944285D02*
X168362380Y-61372857D01*
X169362380Y-61658571D02*
X168362380Y-61658571D01*
X168695714Y-60610952D02*
X169362380Y-60610952D01*
X168314761Y-60849047D02*
X169029047Y-61087142D01*
X169029047Y-60468095D01*
D11*
X153678571Y-69000000D02*
X152178571Y-69000000D01*
X153678571Y-68285714D02*
X152178571Y-68285714D01*
X153678571Y-67428571D01*
X152178571Y-67428571D01*
X153678571Y-65928571D02*
X153678571Y-66785714D01*
X153678571Y-66357142D02*
X152178571Y-66357142D01*
X152392857Y-66500000D01*
X152535714Y-66642857D01*
X152607142Y-66785714D01*
X148428571Y-69000000D02*
X146928571Y-69000000D01*
X148428571Y-68285714D02*
X146928571Y-68285714D01*
X148428571Y-67428571D01*
X146928571Y-67428571D01*
X147071428Y-66785714D02*
X147000000Y-66714285D01*
X146928571Y-66571428D01*
X146928571Y-66214285D01*
X147000000Y-66071428D01*
X147071428Y-66000000D01*
X147214285Y-65928571D01*
X147357142Y-65928571D01*
X147571428Y-66000000D01*
X148428571Y-66857142D01*
X148428571Y-65928571D01*
X143278571Y-69040000D02*
X141778571Y-69040000D01*
X143278571Y-68325714D02*
X141778571Y-68325714D01*
X143278571Y-67468571D01*
X141778571Y-67468571D01*
X141778571Y-66897142D02*
X141778571Y-65968571D01*
X142350000Y-66468571D01*
X142350000Y-66254285D01*
X142421428Y-66111428D01*
X142492857Y-66040000D01*
X142635714Y-65968571D01*
X142992857Y-65968571D01*
X143135714Y-66040000D01*
X143207142Y-66111428D01*
X143278571Y-66254285D01*
X143278571Y-66682857D01*
X143207142Y-66825714D01*
X143135714Y-66897142D01*
X138178571Y-69000000D02*
X136678571Y-69000000D01*
X138178571Y-68285714D02*
X136678571Y-68285714D01*
X138178571Y-67428571D01*
X136678571Y-67428571D01*
X137178571Y-66071428D02*
X138178571Y-66071428D01*
X136607142Y-66428571D02*
X137678571Y-66785714D01*
X137678571Y-65857142D01*
D14*
G04 #@! TO.C,RN4*
X180510000Y-58800000D02*
X180510000Y-56000000D01*
X180510000Y-56000000D02*
X167470000Y-56000000D01*
X167470000Y-56000000D02*
X167470000Y-58800000D01*
X167470000Y-58800000D02*
X180510000Y-58800000D01*
X177800000Y-58800000D02*
X177800000Y-56000000D01*
D15*
G04 #@! TO.C,REF\002A\002A*
X142000000Y-71750000D02*
G75*
G03X142000000Y-71750000I-2500000J0D01*
G01*
D12*
G04 #@! TO.C,U1*
X133710000Y-95480000D02*
X187050000Y-95480000D01*
X187050000Y-72620000D02*
X133710000Y-72620000D01*
X187050000Y-95480000D02*
X187050000Y-72620000D01*
X133710000Y-72620000D02*
X133710000Y-95480000D01*
D14*
G04 #@! TO.C,JP1*
X189590000Y-62400000D02*
X189590000Y-65060000D01*
X189590000Y-62400000D02*
X186990000Y-62400000D01*
X186990000Y-62400000D02*
X186990000Y-65060000D01*
X189590000Y-65060000D02*
X186990000Y-65060000D01*
X192190000Y-65060000D02*
X190860000Y-65060000D01*
X192190000Y-63730000D02*
X192190000Y-65060000D01*
G04 #@! TO.C,RN1*
X170600000Y-101560000D02*
G75*
G02X170600000Y-99560000I0J1000000D01*
G01*
X170600000Y-99560000D02*
X170600000Y-97910000D01*
X170600000Y-97910000D02*
X145080000Y-97910000D01*
X145080000Y-97910000D02*
X145080000Y-103210000D01*
X145080000Y-103210000D02*
X170600000Y-103210000D01*
X170600000Y-103210000D02*
X170600000Y-101560000D01*
G04 #@! TO.C,RN2*
X173250000Y-89260000D02*
X173250000Y-86460000D01*
X173250000Y-86460000D02*
X144970000Y-86460000D01*
X144970000Y-86460000D02*
X144970000Y-89260000D01*
X144970000Y-89260000D02*
X173250000Y-89260000D01*
X170540000Y-89260000D02*
X170540000Y-86460000D01*
G04 #@! TO.C,RN3*
X134810000Y-55980000D02*
X134810000Y-58780000D01*
X134810000Y-58780000D02*
X147850000Y-58780000D01*
X147850000Y-58780000D02*
X147850000Y-55980000D01*
X147850000Y-55980000D02*
X134810000Y-55980000D01*
X137520000Y-55980000D02*
X137520000Y-58780000D01*
D12*
G04 #@! TO.C,U2*
X156505000Y-59050000D02*
X156505000Y-59300000D01*
X164255000Y-59050000D02*
X164255000Y-59395000D01*
X164255000Y-70950000D02*
X164255000Y-70605000D01*
X156505000Y-70950000D02*
X156505000Y-70605000D01*
X156505000Y-59050000D02*
X164255000Y-59050000D01*
X156505000Y-70950000D02*
X164255000Y-70950000D01*
X156505000Y-59300000D02*
X154680000Y-59300000D01*
D14*
G04 #@! TO.C,J1*
X134090000Y-112330000D02*
X137510000Y-112330000D01*
X137510000Y-112330000D02*
X137510000Y-106610000D01*
X137510000Y-106610000D02*
X134090000Y-106610000D01*
X134090000Y-106610000D02*
X134090000Y-112330000D01*
X137000000Y-109470000D02*
X137000000Y-111820000D01*
X137000000Y-111820000D02*
X136250000Y-111820000D01*
X136250000Y-111820000D02*
X136250000Y-112020000D01*
X136250000Y-112020000D02*
X135450000Y-112020000D01*
X135450000Y-112020000D02*
X135450000Y-111820000D01*
X135450000Y-111820000D02*
X134600000Y-111820000D01*
X134600000Y-111820000D02*
X134600000Y-109470000D01*
X137000000Y-109470000D02*
X137000000Y-107120000D01*
X137000000Y-107120000D02*
X136250000Y-107120000D01*
X136250000Y-107120000D02*
X136250000Y-106920000D01*
X136250000Y-106920000D02*
X135450000Y-106920000D01*
X135450000Y-106920000D02*
X135450000Y-107120000D01*
X135450000Y-107120000D02*
X134600000Y-107120000D01*
X134600000Y-107120000D02*
X134600000Y-109470000D01*
X137800000Y-112620000D02*
X136800000Y-112620000D01*
X137800000Y-112620000D02*
X137800000Y-111620000D01*
G04 #@! TO.C,J3*
X142880000Y-112600000D02*
X142880000Y-111600000D01*
X142880000Y-112600000D02*
X141880000Y-112600000D01*
X139680000Y-107100000D02*
X139680000Y-109450000D01*
X140530000Y-107100000D02*
X139680000Y-107100000D01*
X140530000Y-106900000D02*
X140530000Y-107100000D01*
X141330000Y-106900000D02*
X140530000Y-106900000D01*
X141330000Y-107100000D02*
X141330000Y-106900000D01*
X142080000Y-107100000D02*
X141330000Y-107100000D01*
X142080000Y-109450000D02*
X142080000Y-107100000D01*
X139680000Y-111800000D02*
X139680000Y-109450000D01*
X140530000Y-111800000D02*
X139680000Y-111800000D01*
X140530000Y-112000000D02*
X140530000Y-111800000D01*
X141330000Y-112000000D02*
X140530000Y-112000000D01*
X141330000Y-111800000D02*
X141330000Y-112000000D01*
X142080000Y-111800000D02*
X141330000Y-111800000D01*
X142080000Y-109450000D02*
X142080000Y-111800000D01*
X139170000Y-106590000D02*
X139170000Y-112310000D01*
X142590000Y-106590000D02*
X139170000Y-106590000D01*
X142590000Y-112310000D02*
X142590000Y-106590000D01*
X139170000Y-112310000D02*
X142590000Y-112310000D01*
G04 #@! TO.C,J5*
X144250000Y-112330000D02*
X147670000Y-112330000D01*
X147670000Y-112330000D02*
X147670000Y-106610000D01*
X147670000Y-106610000D02*
X144250000Y-106610000D01*
X144250000Y-106610000D02*
X144250000Y-112330000D01*
X147160000Y-109470000D02*
X147160000Y-111820000D01*
X147160000Y-111820000D02*
X146410000Y-111820000D01*
X146410000Y-111820000D02*
X146410000Y-112020000D01*
X146410000Y-112020000D02*
X145610000Y-112020000D01*
X145610000Y-112020000D02*
X145610000Y-111820000D01*
X145610000Y-111820000D02*
X144760000Y-111820000D01*
X144760000Y-111820000D02*
X144760000Y-109470000D01*
X147160000Y-109470000D02*
X147160000Y-107120000D01*
X147160000Y-107120000D02*
X146410000Y-107120000D01*
X146410000Y-107120000D02*
X146410000Y-106920000D01*
X146410000Y-106920000D02*
X145610000Y-106920000D01*
X145610000Y-106920000D02*
X145610000Y-107120000D01*
X145610000Y-107120000D02*
X144760000Y-107120000D01*
X144760000Y-107120000D02*
X144760000Y-109470000D01*
X147960000Y-112620000D02*
X146960000Y-112620000D01*
X147960000Y-112620000D02*
X147960000Y-111620000D01*
G04 #@! TO.C,J7*
X153040000Y-112620000D02*
X153040000Y-111620000D01*
X153040000Y-112620000D02*
X152040000Y-112620000D01*
X149840000Y-107120000D02*
X149840000Y-109470000D01*
X150690000Y-107120000D02*
X149840000Y-107120000D01*
X150690000Y-106920000D02*
X150690000Y-107120000D01*
X151490000Y-106920000D02*
X150690000Y-106920000D01*
X151490000Y-107120000D02*
X151490000Y-106920000D01*
X152240000Y-107120000D02*
X151490000Y-107120000D01*
X152240000Y-109470000D02*
X152240000Y-107120000D01*
X149840000Y-111820000D02*
X149840000Y-109470000D01*
X150690000Y-111820000D02*
X149840000Y-111820000D01*
X150690000Y-112020000D02*
X150690000Y-111820000D01*
X151490000Y-112020000D02*
X150690000Y-112020000D01*
X151490000Y-111820000D02*
X151490000Y-112020000D01*
X152240000Y-111820000D02*
X151490000Y-111820000D01*
X152240000Y-109470000D02*
X152240000Y-111820000D01*
X149330000Y-106610000D02*
X149330000Y-112330000D01*
X152750000Y-106610000D02*
X149330000Y-106610000D01*
X152750000Y-112330000D02*
X152750000Y-106610000D01*
X149330000Y-112330000D02*
X152750000Y-112330000D01*
G04 #@! TO.C,J9*
X158120000Y-112620000D02*
X158120000Y-111620000D01*
X158120000Y-112620000D02*
X157120000Y-112620000D01*
X154920000Y-107120000D02*
X154920000Y-109470000D01*
X155770000Y-107120000D02*
X154920000Y-107120000D01*
X155770000Y-106920000D02*
X155770000Y-107120000D01*
X156570000Y-106920000D02*
X155770000Y-106920000D01*
X156570000Y-107120000D02*
X156570000Y-106920000D01*
X157320000Y-107120000D02*
X156570000Y-107120000D01*
X157320000Y-109470000D02*
X157320000Y-107120000D01*
X154920000Y-111820000D02*
X154920000Y-109470000D01*
X155770000Y-111820000D02*
X154920000Y-111820000D01*
X155770000Y-112020000D02*
X155770000Y-111820000D01*
X156570000Y-112020000D02*
X155770000Y-112020000D01*
X156570000Y-111820000D02*
X156570000Y-112020000D01*
X157320000Y-111820000D02*
X156570000Y-111820000D01*
X157320000Y-109470000D02*
X157320000Y-111820000D01*
X154410000Y-106610000D02*
X154410000Y-112330000D01*
X157830000Y-106610000D02*
X154410000Y-106610000D01*
X157830000Y-112330000D02*
X157830000Y-106610000D01*
X154410000Y-112330000D02*
X157830000Y-112330000D01*
G04 #@! TO.C,J11*
X159490000Y-112330000D02*
X162910000Y-112330000D01*
X162910000Y-112330000D02*
X162910000Y-106610000D01*
X162910000Y-106610000D02*
X159490000Y-106610000D01*
X159490000Y-106610000D02*
X159490000Y-112330000D01*
X162400000Y-109470000D02*
X162400000Y-111820000D01*
X162400000Y-111820000D02*
X161650000Y-111820000D01*
X161650000Y-111820000D02*
X161650000Y-112020000D01*
X161650000Y-112020000D02*
X160850000Y-112020000D01*
X160850000Y-112020000D02*
X160850000Y-111820000D01*
X160850000Y-111820000D02*
X160000000Y-111820000D01*
X160000000Y-111820000D02*
X160000000Y-109470000D01*
X162400000Y-109470000D02*
X162400000Y-107120000D01*
X162400000Y-107120000D02*
X161650000Y-107120000D01*
X161650000Y-107120000D02*
X161650000Y-106920000D01*
X161650000Y-106920000D02*
X160850000Y-106920000D01*
X160850000Y-106920000D02*
X160850000Y-107120000D01*
X160850000Y-107120000D02*
X160000000Y-107120000D01*
X160000000Y-107120000D02*
X160000000Y-109470000D01*
X163200000Y-112620000D02*
X162200000Y-112620000D01*
X163200000Y-112620000D02*
X163200000Y-111620000D01*
G04 #@! TO.C,J13*
X168280000Y-112620000D02*
X168280000Y-111620000D01*
X168280000Y-112620000D02*
X167280000Y-112620000D01*
X165080000Y-107120000D02*
X165080000Y-109470000D01*
X165930000Y-107120000D02*
X165080000Y-107120000D01*
X165930000Y-106920000D02*
X165930000Y-107120000D01*
X166730000Y-106920000D02*
X165930000Y-106920000D01*
X166730000Y-107120000D02*
X166730000Y-106920000D01*
X167480000Y-107120000D02*
X166730000Y-107120000D01*
X167480000Y-109470000D02*
X167480000Y-107120000D01*
X165080000Y-111820000D02*
X165080000Y-109470000D01*
X165930000Y-111820000D02*
X165080000Y-111820000D01*
X165930000Y-112020000D02*
X165930000Y-111820000D01*
X166730000Y-112020000D02*
X165930000Y-112020000D01*
X166730000Y-111820000D02*
X166730000Y-112020000D01*
X167480000Y-111820000D02*
X166730000Y-111820000D01*
X167480000Y-109470000D02*
X167480000Y-111820000D01*
X164570000Y-106610000D02*
X164570000Y-112330000D01*
X167990000Y-106610000D02*
X164570000Y-106610000D01*
X167990000Y-112330000D02*
X167990000Y-106610000D01*
X164570000Y-112330000D02*
X167990000Y-112330000D01*
G04 #@! TO.C,J15*
X169650000Y-112330000D02*
X173070000Y-112330000D01*
X173070000Y-112330000D02*
X173070000Y-106610000D01*
X173070000Y-106610000D02*
X169650000Y-106610000D01*
X169650000Y-106610000D02*
X169650000Y-112330000D01*
X172560000Y-109470000D02*
X172560000Y-111820000D01*
X172560000Y-111820000D02*
X171810000Y-111820000D01*
X171810000Y-111820000D02*
X171810000Y-112020000D01*
X171810000Y-112020000D02*
X171010000Y-112020000D01*
X171010000Y-112020000D02*
X171010000Y-111820000D01*
X171010000Y-111820000D02*
X170160000Y-111820000D01*
X170160000Y-111820000D02*
X170160000Y-109470000D01*
X172560000Y-109470000D02*
X172560000Y-107120000D01*
X172560000Y-107120000D02*
X171810000Y-107120000D01*
X171810000Y-107120000D02*
X171810000Y-106920000D01*
X171810000Y-106920000D02*
X171010000Y-106920000D01*
X171010000Y-106920000D02*
X171010000Y-107120000D01*
X171010000Y-107120000D02*
X170160000Y-107120000D01*
X170160000Y-107120000D02*
X170160000Y-109470000D01*
X173360000Y-112620000D02*
X172360000Y-112620000D01*
X173360000Y-112620000D02*
X173360000Y-111620000D01*
G04 #@! TO.C,J17*
X178440000Y-112620000D02*
X178440000Y-111620000D01*
X178440000Y-112620000D02*
X177440000Y-112620000D01*
X175240000Y-107120000D02*
X175240000Y-109470000D01*
X176090000Y-107120000D02*
X175240000Y-107120000D01*
X176090000Y-106920000D02*
X176090000Y-107120000D01*
X176890000Y-106920000D02*
X176090000Y-106920000D01*
X176890000Y-107120000D02*
X176890000Y-106920000D01*
X177640000Y-107120000D02*
X176890000Y-107120000D01*
X177640000Y-109470000D02*
X177640000Y-107120000D01*
X175240000Y-111820000D02*
X175240000Y-109470000D01*
X176090000Y-111820000D02*
X175240000Y-111820000D01*
X176090000Y-112020000D02*
X176090000Y-111820000D01*
X176890000Y-112020000D02*
X176090000Y-112020000D01*
X176890000Y-111820000D02*
X176890000Y-112020000D01*
X177640000Y-111820000D02*
X176890000Y-111820000D01*
X177640000Y-109470000D02*
X177640000Y-111820000D01*
X174730000Y-106610000D02*
X174730000Y-112330000D01*
X178150000Y-106610000D02*
X174730000Y-106610000D01*
X178150000Y-112330000D02*
X178150000Y-106610000D01*
X174730000Y-112330000D02*
X178150000Y-112330000D01*
G04 #@! TO.C,J18*
X179810000Y-112310000D02*
X183230000Y-112310000D01*
X183230000Y-112310000D02*
X183230000Y-106590000D01*
X183230000Y-106590000D02*
X179810000Y-106590000D01*
X179810000Y-106590000D02*
X179810000Y-112310000D01*
X182720000Y-109450000D02*
X182720000Y-111800000D01*
X182720000Y-111800000D02*
X181970000Y-111800000D01*
X181970000Y-111800000D02*
X181970000Y-112000000D01*
X181970000Y-112000000D02*
X181170000Y-112000000D01*
X181170000Y-112000000D02*
X181170000Y-111800000D01*
X181170000Y-111800000D02*
X180320000Y-111800000D01*
X180320000Y-111800000D02*
X180320000Y-109450000D01*
X182720000Y-109450000D02*
X182720000Y-107100000D01*
X182720000Y-107100000D02*
X181970000Y-107100000D01*
X181970000Y-107100000D02*
X181970000Y-106900000D01*
X181970000Y-106900000D02*
X181170000Y-106900000D01*
X181170000Y-106900000D02*
X181170000Y-107100000D01*
X181170000Y-107100000D02*
X180320000Y-107100000D01*
X180320000Y-107100000D02*
X180320000Y-109450000D01*
X183520000Y-112600000D02*
X182520000Y-112600000D01*
X183520000Y-112600000D02*
X183520000Y-111600000D01*
G04 #@! TO.C,D1*
X174760000Y-103330000D02*
X183460000Y-103330000D01*
X183460000Y-103330000D02*
X183460000Y-100330000D01*
X183460000Y-100330000D02*
X174760000Y-100330000D01*
G04 #@! TO.C,D2*
X183460000Y-96520000D02*
X174760000Y-96520000D01*
X183460000Y-99520000D02*
X183460000Y-96520000D01*
X174760000Y-99520000D02*
X183460000Y-99520000D01*
G04 #@! TO.C,J19*
X188700000Y-95820000D02*
X192120000Y-95820000D01*
X192120000Y-95820000D02*
X192120000Y-83850000D01*
X192120000Y-83850000D02*
X188700000Y-83850000D01*
X188700000Y-83850000D02*
X188700000Y-95820000D01*
X191610000Y-89835000D02*
X191610000Y-95310000D01*
X191610000Y-95310000D02*
X190860000Y-95310000D01*
X190860000Y-95310000D02*
X190860000Y-95510000D01*
X190860000Y-95510000D02*
X190060000Y-95510000D01*
X190060000Y-95510000D02*
X190060000Y-95310000D01*
X190060000Y-95310000D02*
X189210000Y-95310000D01*
X189210000Y-95310000D02*
X189210000Y-89835000D01*
X191610000Y-89835000D02*
X191610000Y-84360000D01*
X191610000Y-84360000D02*
X190860000Y-84360000D01*
X190860000Y-84360000D02*
X190860000Y-84160000D01*
X190860000Y-84160000D02*
X190060000Y-84160000D01*
X190060000Y-84160000D02*
X190060000Y-84360000D01*
X190060000Y-84360000D02*
X189210000Y-84360000D01*
X189210000Y-84360000D02*
X189210000Y-89835000D01*
X192410000Y-96110000D02*
X191410000Y-96110000D01*
X192410000Y-96110000D02*
X192410000Y-95110000D01*
G04 #@! TO.C,J20*
X188700000Y-72960000D02*
X192120000Y-72960000D01*
X192120000Y-72960000D02*
X192120000Y-65990000D01*
X192120000Y-65990000D02*
X188700000Y-65990000D01*
X188700000Y-65990000D02*
X188700000Y-72960000D01*
X191610000Y-69475000D02*
X191610000Y-72450000D01*
X191610000Y-72450000D02*
X190860000Y-72450000D01*
X190860000Y-72450000D02*
X190860000Y-72650000D01*
X190860000Y-72650000D02*
X190060000Y-72650000D01*
X190060000Y-72650000D02*
X190060000Y-72450000D01*
X190060000Y-72450000D02*
X189210000Y-72450000D01*
X189210000Y-72450000D02*
X189210000Y-69475000D01*
X191610000Y-69475000D02*
X191610000Y-66500000D01*
X191610000Y-66500000D02*
X190860000Y-66500000D01*
X190860000Y-66500000D02*
X190860000Y-66300000D01*
X190860000Y-66300000D02*
X190060000Y-66300000D01*
X190060000Y-66300000D02*
X190060000Y-66500000D01*
X190060000Y-66500000D02*
X189210000Y-66500000D01*
X189210000Y-66500000D02*
X189210000Y-69475000D01*
X192410000Y-73250000D02*
X191410000Y-73250000D01*
X192410000Y-73250000D02*
X192410000Y-72250000D01*
G04 #@! TO.C,J21*
X192410000Y-105000000D02*
X192410000Y-104000000D01*
X192410000Y-105000000D02*
X191410000Y-105000000D01*
X189210000Y-98250000D02*
X189210000Y-101225000D01*
X190060000Y-98250000D02*
X189210000Y-98250000D01*
X190060000Y-98050000D02*
X190060000Y-98250000D01*
X190860000Y-98050000D02*
X190060000Y-98050000D01*
X190860000Y-98250000D02*
X190860000Y-98050000D01*
X191610000Y-98250000D02*
X190860000Y-98250000D01*
X191610000Y-101225000D02*
X191610000Y-98250000D01*
X189210000Y-104200000D02*
X189210000Y-101225000D01*
X190060000Y-104200000D02*
X189210000Y-104200000D01*
X190060000Y-104400000D02*
X190060000Y-104200000D01*
X190860000Y-104400000D02*
X190060000Y-104400000D01*
X190860000Y-104200000D02*
X190860000Y-104400000D01*
X191610000Y-104200000D02*
X190860000Y-104200000D01*
X191610000Y-101225000D02*
X191610000Y-104200000D01*
X188700000Y-97740000D02*
X188700000Y-104710000D01*
X192120000Y-97740000D02*
X188700000Y-97740000D01*
X192120000Y-104710000D02*
X192120000Y-97740000D01*
X188700000Y-104710000D02*
X192120000Y-104710000D01*
G04 #@! TO.C,J22*
X188700000Y-81850000D02*
X192120000Y-81850000D01*
X192120000Y-81850000D02*
X192120000Y-74880000D01*
X192120000Y-74880000D02*
X188700000Y-74880000D01*
X188700000Y-74880000D02*
X188700000Y-81850000D01*
X191610000Y-78365000D02*
X191610000Y-81340000D01*
X191610000Y-81340000D02*
X190860000Y-81340000D01*
X190860000Y-81340000D02*
X190860000Y-81540000D01*
X190860000Y-81540000D02*
X190060000Y-81540000D01*
X190060000Y-81540000D02*
X190060000Y-81340000D01*
X190060000Y-81340000D02*
X189210000Y-81340000D01*
X189210000Y-81340000D02*
X189210000Y-78365000D01*
X191610000Y-78365000D02*
X191610000Y-75390000D01*
X191610000Y-75390000D02*
X190860000Y-75390000D01*
X190860000Y-75390000D02*
X190860000Y-75190000D01*
X190860000Y-75190000D02*
X190060000Y-75190000D01*
X190060000Y-75190000D02*
X190060000Y-75390000D01*
X190060000Y-75390000D02*
X189210000Y-75390000D01*
X189210000Y-75390000D02*
X189210000Y-78365000D01*
X192410000Y-82140000D02*
X191410000Y-82140000D01*
X192410000Y-82140000D02*
X192410000Y-81140000D01*
G04 #@! TO.C,J2*
X149940000Y-59290000D02*
X149940000Y-60290000D01*
X149940000Y-59290000D02*
X150940000Y-59290000D01*
X153140000Y-64790000D02*
X153140000Y-62440000D01*
X152290000Y-64790000D02*
X153140000Y-64790000D01*
X152290000Y-64990000D02*
X152290000Y-64790000D01*
X151490000Y-64990000D02*
X152290000Y-64990000D01*
X151490000Y-64790000D02*
X151490000Y-64990000D01*
X150740000Y-64790000D02*
X151490000Y-64790000D01*
X150740000Y-62440000D02*
X150740000Y-64790000D01*
X153140000Y-60090000D02*
X153140000Y-62440000D01*
X152290000Y-60090000D02*
X153140000Y-60090000D01*
X152290000Y-59890000D02*
X152290000Y-60090000D01*
X151490000Y-59890000D02*
X152290000Y-59890000D01*
X151490000Y-60090000D02*
X151490000Y-59890000D01*
X150740000Y-60090000D02*
X151490000Y-60090000D01*
X150740000Y-62440000D02*
X150740000Y-60090000D01*
X153650000Y-65300000D02*
X153650000Y-59580000D01*
X150230000Y-65300000D02*
X153650000Y-65300000D01*
X150230000Y-59580000D02*
X150230000Y-65300000D01*
X153650000Y-59580000D02*
X150230000Y-59580000D01*
G04 #@! TO.C,J4*
X148570000Y-59620000D02*
X145150000Y-59620000D01*
X145150000Y-59620000D02*
X145150000Y-65340000D01*
X145150000Y-65340000D02*
X148570000Y-65340000D01*
X148570000Y-65340000D02*
X148570000Y-59620000D01*
X145660000Y-62480000D02*
X145660000Y-60130000D01*
X145660000Y-60130000D02*
X146410000Y-60130000D01*
X146410000Y-60130000D02*
X146410000Y-59930000D01*
X146410000Y-59930000D02*
X147210000Y-59930000D01*
X147210000Y-59930000D02*
X147210000Y-60130000D01*
X147210000Y-60130000D02*
X148060000Y-60130000D01*
X148060000Y-60130000D02*
X148060000Y-62480000D01*
X145660000Y-62480000D02*
X145660000Y-64830000D01*
X145660000Y-64830000D02*
X146410000Y-64830000D01*
X146410000Y-64830000D02*
X146410000Y-65030000D01*
X146410000Y-65030000D02*
X147210000Y-65030000D01*
X147210000Y-65030000D02*
X147210000Y-64830000D01*
X147210000Y-64830000D02*
X148060000Y-64830000D01*
X148060000Y-64830000D02*
X148060000Y-62480000D01*
X144860000Y-59330000D02*
X145860000Y-59330000D01*
X144860000Y-59330000D02*
X144860000Y-60330000D01*
G04 #@! TO.C,J6*
X139780000Y-59290000D02*
X139780000Y-60290000D01*
X139780000Y-59290000D02*
X140780000Y-59290000D01*
X142980000Y-64790000D02*
X142980000Y-62440000D01*
X142130000Y-64790000D02*
X142980000Y-64790000D01*
X142130000Y-64990000D02*
X142130000Y-64790000D01*
X141330000Y-64990000D02*
X142130000Y-64990000D01*
X141330000Y-64790000D02*
X141330000Y-64990000D01*
X140580000Y-64790000D02*
X141330000Y-64790000D01*
X140580000Y-62440000D02*
X140580000Y-64790000D01*
X142980000Y-60090000D02*
X142980000Y-62440000D01*
X142130000Y-60090000D02*
X142980000Y-60090000D01*
X142130000Y-59890000D02*
X142130000Y-60090000D01*
X141330000Y-59890000D02*
X142130000Y-59890000D01*
X141330000Y-60090000D02*
X141330000Y-59890000D01*
X140580000Y-60090000D02*
X141330000Y-60090000D01*
X140580000Y-62440000D02*
X140580000Y-60090000D01*
X143490000Y-65300000D02*
X143490000Y-59580000D01*
X140070000Y-65300000D02*
X143490000Y-65300000D01*
X140070000Y-59580000D02*
X140070000Y-65300000D01*
X143490000Y-59580000D02*
X140070000Y-59580000D01*
G04 #@! TO.C,J8*
X138410000Y-59580000D02*
X134990000Y-59580000D01*
X134990000Y-59580000D02*
X134990000Y-65300000D01*
X134990000Y-65300000D02*
X138410000Y-65300000D01*
X138410000Y-65300000D02*
X138410000Y-59580000D01*
X135500000Y-62440000D02*
X135500000Y-60090000D01*
X135500000Y-60090000D02*
X136250000Y-60090000D01*
X136250000Y-60090000D02*
X136250000Y-59890000D01*
X136250000Y-59890000D02*
X137050000Y-59890000D01*
X137050000Y-59890000D02*
X137050000Y-60090000D01*
X137050000Y-60090000D02*
X137900000Y-60090000D01*
X137900000Y-60090000D02*
X137900000Y-62440000D01*
X135500000Y-62440000D02*
X135500000Y-64790000D01*
X135500000Y-64790000D02*
X136250000Y-64790000D01*
X136250000Y-64790000D02*
X136250000Y-64990000D01*
X136250000Y-64990000D02*
X137050000Y-64990000D01*
X137050000Y-64990000D02*
X137050000Y-64790000D01*
X137050000Y-64790000D02*
X137900000Y-64790000D01*
X137900000Y-64790000D02*
X137900000Y-62440000D01*
X134700000Y-59290000D02*
X135700000Y-59290000D01*
X134700000Y-59290000D02*
X134700000Y-60290000D01*
G04 #@! TO.C,J10*
X182350000Y-70420000D02*
X185770000Y-70420000D01*
X185770000Y-70420000D02*
X185770000Y-64700000D01*
X185770000Y-64700000D02*
X182350000Y-64700000D01*
X182350000Y-64700000D02*
X182350000Y-70420000D01*
X185260000Y-67560000D02*
X185260000Y-69910000D01*
X185260000Y-69910000D02*
X184510000Y-69910000D01*
X184510000Y-69910000D02*
X184510000Y-70110000D01*
X184510000Y-70110000D02*
X183710000Y-70110000D01*
X183710000Y-70110000D02*
X183710000Y-69910000D01*
X183710000Y-69910000D02*
X182860000Y-69910000D01*
X182860000Y-69910000D02*
X182860000Y-67560000D01*
X185260000Y-67560000D02*
X185260000Y-65210000D01*
X185260000Y-65210000D02*
X184510000Y-65210000D01*
X184510000Y-65210000D02*
X184510000Y-65010000D01*
X184510000Y-65010000D02*
X183710000Y-65010000D01*
X183710000Y-65010000D02*
X183710000Y-65210000D01*
X183710000Y-65210000D02*
X182860000Y-65210000D01*
X182860000Y-65210000D02*
X182860000Y-67560000D01*
X186060000Y-70710000D02*
X185060000Y-70710000D01*
X186060000Y-70710000D02*
X186060000Y-69710000D01*
G04 #@! TO.C,J12*
X180980000Y-70710000D02*
X180980000Y-69710000D01*
X180980000Y-70710000D02*
X179980000Y-70710000D01*
X177780000Y-65210000D02*
X177780000Y-67560000D01*
X178630000Y-65210000D02*
X177780000Y-65210000D01*
X178630000Y-65010000D02*
X178630000Y-65210000D01*
X179430000Y-65010000D02*
X178630000Y-65010000D01*
X179430000Y-65210000D02*
X179430000Y-65010000D01*
X180180000Y-65210000D02*
X179430000Y-65210000D01*
X180180000Y-67560000D02*
X180180000Y-65210000D01*
X177780000Y-69910000D02*
X177780000Y-67560000D01*
X178630000Y-69910000D02*
X177780000Y-69910000D01*
X178630000Y-70110000D02*
X178630000Y-69910000D01*
X179430000Y-70110000D02*
X178630000Y-70110000D01*
X179430000Y-69910000D02*
X179430000Y-70110000D01*
X180180000Y-69910000D02*
X179430000Y-69910000D01*
X180180000Y-67560000D02*
X180180000Y-69910000D01*
X177270000Y-64700000D02*
X177270000Y-70420000D01*
X180690000Y-64700000D02*
X177270000Y-64700000D01*
X180690000Y-70420000D02*
X180690000Y-64700000D01*
X177270000Y-70420000D02*
X180690000Y-70420000D01*
G04 #@! TO.C,J14*
X172190000Y-70420000D02*
X175610000Y-70420000D01*
X175610000Y-70420000D02*
X175610000Y-64700000D01*
X175610000Y-64700000D02*
X172190000Y-64700000D01*
X172190000Y-64700000D02*
X172190000Y-70420000D01*
X175100000Y-67560000D02*
X175100000Y-69910000D01*
X175100000Y-69910000D02*
X174350000Y-69910000D01*
X174350000Y-69910000D02*
X174350000Y-70110000D01*
X174350000Y-70110000D02*
X173550000Y-70110000D01*
X173550000Y-70110000D02*
X173550000Y-69910000D01*
X173550000Y-69910000D02*
X172700000Y-69910000D01*
X172700000Y-69910000D02*
X172700000Y-67560000D01*
X175100000Y-67560000D02*
X175100000Y-65210000D01*
X175100000Y-65210000D02*
X174350000Y-65210000D01*
X174350000Y-65210000D02*
X174350000Y-65010000D01*
X174350000Y-65010000D02*
X173550000Y-65010000D01*
X173550000Y-65010000D02*
X173550000Y-65210000D01*
X173550000Y-65210000D02*
X172700000Y-65210000D01*
X172700000Y-65210000D02*
X172700000Y-67560000D01*
X175900000Y-70710000D02*
X174900000Y-70710000D01*
X175900000Y-70710000D02*
X175900000Y-69710000D01*
G04 #@! TO.C,J16*
X170820000Y-70710000D02*
X170820000Y-69710000D01*
X170820000Y-70710000D02*
X169820000Y-70710000D01*
X167620000Y-65210000D02*
X167620000Y-67560000D01*
X168470000Y-65210000D02*
X167620000Y-65210000D01*
X168470000Y-65010000D02*
X168470000Y-65210000D01*
X169270000Y-65010000D02*
X168470000Y-65010000D01*
X169270000Y-65210000D02*
X169270000Y-65010000D01*
X170020000Y-65210000D02*
X169270000Y-65210000D01*
X170020000Y-67560000D02*
X170020000Y-65210000D01*
X167620000Y-69910000D02*
X167620000Y-67560000D01*
X168470000Y-69910000D02*
X167620000Y-69910000D01*
X168470000Y-70110000D02*
X168470000Y-69910000D01*
X169270000Y-70110000D02*
X168470000Y-70110000D01*
X169270000Y-69910000D02*
X169270000Y-70110000D01*
X170020000Y-69910000D02*
X169270000Y-69910000D01*
X170020000Y-67560000D02*
X170020000Y-69910000D01*
X167110000Y-64700000D02*
X167110000Y-70420000D01*
X170530000Y-64700000D02*
X167110000Y-64700000D01*
X170530000Y-70420000D02*
X170530000Y-64700000D01*
X167110000Y-70420000D02*
X170530000Y-70420000D01*
G04 #@! TO.C,J23*
X136630000Y-102170000D02*
X140050000Y-102170000D01*
X140050000Y-102170000D02*
X140050000Y-96450000D01*
X140050000Y-96450000D02*
X136630000Y-96450000D01*
X136630000Y-96450000D02*
X136630000Y-102170000D01*
X139540000Y-99310000D02*
X139540000Y-101660000D01*
X139540000Y-101660000D02*
X138790000Y-101660000D01*
X138790000Y-101660000D02*
X138790000Y-101860000D01*
X138790000Y-101860000D02*
X137990000Y-101860000D01*
X137990000Y-101860000D02*
X137990000Y-101660000D01*
X137990000Y-101660000D02*
X137140000Y-101660000D01*
X137140000Y-101660000D02*
X137140000Y-99310000D01*
X139540000Y-99310000D02*
X139540000Y-96960000D01*
X139540000Y-96960000D02*
X138790000Y-96960000D01*
X138790000Y-96960000D02*
X138790000Y-96760000D01*
X138790000Y-96760000D02*
X137990000Y-96760000D01*
X137990000Y-96760000D02*
X137990000Y-96960000D01*
X137990000Y-96960000D02*
X137140000Y-96960000D01*
X137140000Y-96960000D02*
X137140000Y-99310000D01*
X140340000Y-102460000D02*
X139340000Y-102460000D01*
X140340000Y-102460000D02*
X140340000Y-101460000D01*
D15*
G04 #@! TO.C,REF\002A\002A*
X192090000Y-109450000D02*
G75*
G03X192090000Y-109450000I-2500000J0D01*
G01*
G04 #@! TO.C,RN4*
D12*
X164409523Y-57852380D02*
X164076190Y-57376190D01*
X163838095Y-57852380D02*
X163838095Y-56852380D01*
X164219047Y-56852380D01*
X164314285Y-56900000D01*
X164361904Y-56947619D01*
X164409523Y-57042857D01*
X164409523Y-57185714D01*
X164361904Y-57280952D01*
X164314285Y-57328571D01*
X164219047Y-57376190D01*
X163838095Y-57376190D01*
X164838095Y-57852380D02*
X164838095Y-56852380D01*
X165409523Y-57852380D01*
X165409523Y-56852380D01*
X166314285Y-57185714D02*
X166314285Y-57852380D01*
X166076190Y-56804761D02*
X165838095Y-57519047D01*
X166457142Y-57519047D01*
G04 #@! TO.C,U1*
X134218095Y-73342380D02*
X134218095Y-74151904D01*
X134265714Y-74247142D01*
X134313333Y-74294761D01*
X134408571Y-74342380D01*
X134599047Y-74342380D01*
X134694285Y-74294761D01*
X134741904Y-74247142D01*
X134789523Y-74151904D01*
X134789523Y-73342380D01*
X135789523Y-74342380D02*
X135218095Y-74342380D01*
X135503809Y-74342380D02*
X135503809Y-73342380D01*
X135408571Y-73485238D01*
X135313333Y-73580476D01*
X135218095Y-73628095D01*
G04 #@! TO.C,RN1*
X172052380Y-101250476D02*
X171576190Y-101583809D01*
X172052380Y-101821904D02*
X171052380Y-101821904D01*
X171052380Y-101440952D01*
X171100000Y-101345714D01*
X171147619Y-101298095D01*
X171242857Y-101250476D01*
X171385714Y-101250476D01*
X171480952Y-101298095D01*
X171528571Y-101345714D01*
X171576190Y-101440952D01*
X171576190Y-101821904D01*
X172052380Y-100821904D02*
X171052380Y-100821904D01*
X172052380Y-100250476D01*
X171052380Y-100250476D01*
X172052380Y-99250476D02*
X172052380Y-99821904D01*
X172052380Y-99536190D02*
X171052380Y-99536190D01*
X171195238Y-99631428D01*
X171290476Y-99726666D01*
X171338095Y-99821904D01*
G04 #@! TO.C,RN2*
X174209523Y-88402380D02*
X173876190Y-87926190D01*
X173638095Y-88402380D02*
X173638095Y-87402380D01*
X174019047Y-87402380D01*
X174114285Y-87450000D01*
X174161904Y-87497619D01*
X174209523Y-87592857D01*
X174209523Y-87735714D01*
X174161904Y-87830952D01*
X174114285Y-87878571D01*
X174019047Y-87926190D01*
X173638095Y-87926190D01*
X174638095Y-88402380D02*
X174638095Y-87402380D01*
X175209523Y-88402380D01*
X175209523Y-87402380D01*
X175638095Y-87497619D02*
X175685714Y-87450000D01*
X175780952Y-87402380D01*
X176019047Y-87402380D01*
X176114285Y-87450000D01*
X176161904Y-87497619D01*
X176209523Y-87592857D01*
X176209523Y-87688095D01*
X176161904Y-87830952D01*
X175590476Y-88402380D01*
X176209523Y-88402380D01*
G04 #@! TO.C,RN3*
X148809523Y-57832380D02*
X148476190Y-57356190D01*
X148238095Y-57832380D02*
X148238095Y-56832380D01*
X148619047Y-56832380D01*
X148714285Y-56880000D01*
X148761904Y-56927619D01*
X148809523Y-57022857D01*
X148809523Y-57165714D01*
X148761904Y-57260952D01*
X148714285Y-57308571D01*
X148619047Y-57356190D01*
X148238095Y-57356190D01*
X149238095Y-57832380D02*
X149238095Y-56832380D01*
X149809523Y-57832380D01*
X149809523Y-56832380D01*
X150190476Y-56832380D02*
X150809523Y-56832380D01*
X150476190Y-57213333D01*
X150619047Y-57213333D01*
X150714285Y-57260952D01*
X150761904Y-57308571D01*
X150809523Y-57403809D01*
X150809523Y-57641904D01*
X150761904Y-57737142D01*
X150714285Y-57784761D01*
X150619047Y-57832380D01*
X150333333Y-57832380D01*
X150238095Y-57784761D01*
X150190476Y-57737142D01*
G04 #@! TO.C,U2*
X159618095Y-57577380D02*
X159618095Y-58386904D01*
X159665714Y-58482142D01*
X159713333Y-58529761D01*
X159808571Y-58577380D01*
X159999047Y-58577380D01*
X160094285Y-58529761D01*
X160141904Y-58482142D01*
X160189523Y-58386904D01*
X160189523Y-57577380D01*
X160618095Y-57672619D02*
X160665714Y-57625000D01*
X160760952Y-57577380D01*
X160999047Y-57577380D01*
X161094285Y-57625000D01*
X161141904Y-57672619D01*
X161189523Y-57767857D01*
X161189523Y-57863095D01*
X161141904Y-58005952D01*
X160570476Y-58577380D01*
X161189523Y-58577380D01*
G04 #@! TO.C,D1*
X177421904Y-102282380D02*
X177421904Y-101282380D01*
X177660000Y-101282380D01*
X177802857Y-101330000D01*
X177898095Y-101425238D01*
X177945714Y-101520476D01*
X177993333Y-101710952D01*
X177993333Y-101853809D01*
X177945714Y-102044285D01*
X177898095Y-102139523D01*
X177802857Y-102234761D01*
X177660000Y-102282380D01*
X177421904Y-102282380D01*
X178945714Y-102282380D02*
X178374285Y-102282380D01*
X178660000Y-102282380D02*
X178660000Y-101282380D01*
X178564761Y-101425238D01*
X178469523Y-101520476D01*
X178374285Y-101568095D01*
G04 #@! TO.C,D2*
X177421904Y-98472380D02*
X177421904Y-97472380D01*
X177660000Y-97472380D01*
X177802857Y-97520000D01*
X177898095Y-97615238D01*
X177945714Y-97710476D01*
X177993333Y-97900952D01*
X177993333Y-98043809D01*
X177945714Y-98234285D01*
X177898095Y-98329523D01*
X177802857Y-98424761D01*
X177660000Y-98472380D01*
X177421904Y-98472380D01*
X178374285Y-97567619D02*
X178421904Y-97520000D01*
X178517142Y-97472380D01*
X178755238Y-97472380D01*
X178850476Y-97520000D01*
X178898095Y-97567619D01*
X178945714Y-97662857D01*
X178945714Y-97758095D01*
X178898095Y-97900952D01*
X178326666Y-98472380D01*
X178945714Y-98472380D01*
G04 #@! TD*
M02*
