M48
;DRILL file {KiCad 5.0.2} date qui 26 set 2019 12:34:12 -03
;FORMAT={-:-/ absolute / inch / decimal}
FMAT,2
INCH,TZ
T1C0.0157
T2C0.0197
T3C0.0315
T4C0.0394
T5C0.0400
T6C0.1378
%
G90
G05
T1
X6.0197Y-2.3602
X6.0591Y-2.4075
X6.2087Y-2.4547
X6.2165Y-2.5098
X6.5846Y-2.8799
X7.148Y-3.8591
T2
X5.3642Y-4.2606
X5.3642Y-4.3098
X5.3642Y-4.3591
X5.9642Y-2.4091
X5.9642Y-2.4583
X5.9642Y-2.5075
X7.0642Y-2.6106
X7.0642Y-2.6598
X7.0642Y-2.7091
X7.5142Y-3.9114
X7.5142Y-3.9606
X7.5142Y-4.0098
X7.5142Y-4.0591
X5.7642Y-2.4106
X5.7642Y-2.4598
X5.7642Y-2.5091
X6.7642Y-4.2606
X6.7642Y-4.3098
X6.7642Y-4.3591
X6.9642Y-4.2606
X6.9642Y-4.3098
X6.9642Y-4.3591
X5.4642Y-3.8606
X5.4642Y-3.9098
X5.4642Y-3.9591
X7.5142Y-3.3646
X7.5142Y-3.4138
X7.5142Y-3.463
X7.5142Y-3.5122
X7.5142Y-3.5614
X7.5142Y-3.6106
X7.5142Y-3.6598
X7.5142Y-3.7091
X7.2642Y-2.6106
X7.2642Y-2.6598
X7.2642Y-2.7091
X7.5142Y-2.6614
X7.5142Y-2.7106
X7.5142Y-2.7598
X7.5142Y-2.8091
X5.7642Y-4.2606
X5.7642Y-4.3098
X5.7642Y-4.3591
X5.5642Y-2.4091
X5.5642Y-2.4583
X5.5642Y-2.5075
X6.5642Y-4.2606
X6.5642Y-4.3098
X6.5642Y-4.3591
X5.3642Y-2.4091
X5.3642Y-2.4583
X5.3642Y-2.5075
X6.8642Y-2.6106
X6.8642Y-2.6598
X6.8642Y-2.7091
X6.6642Y-2.6106
X6.6642Y-2.6598
X6.6642Y-2.7091
X7.5142Y-3.0114
X7.5142Y-3.0606
X7.5142Y-3.1098
X7.5142Y-3.1591
X6.3642Y-4.2606
X6.3642Y-4.3098
X6.3642Y-4.3591
X5.9642Y-4.2606
X5.9642Y-4.3098
X5.9642Y-4.3591
X6.1642Y-4.2606
X6.1642Y-4.3098
X6.1642Y-4.3591
X5.5642Y-4.2598
X5.5642Y-4.3091
X5.5642Y-4.3583
X7.1642Y-4.2598
X7.1642Y-4.3091
X7.1642Y-4.3583
T3
X5.7642Y-3.8091
X5.7642Y-4.1091
X5.8642Y-3.8091
X5.8642Y-4.1091
X5.9642Y-3.8091
X5.9642Y-4.1091
X6.0642Y-3.8091
X6.0642Y-4.1091
X6.1642Y-3.8091
X6.1642Y-4.1091
X6.2642Y-3.8091
X6.2642Y-4.1091
X6.3642Y-3.8091
X6.3642Y-4.1091
X6.4642Y-3.8091
X6.4642Y-4.1091
X6.5642Y-3.8091
X6.5642Y-4.1091
X6.6642Y-3.8091
X6.6642Y-4.1091
X5.3642Y-2.2591
X5.4642Y-2.2591
X5.5642Y-2.2591
X5.6642Y-2.2591
X5.7642Y-2.2591
X5.7642Y-3.4591
X5.8642Y-3.4591
X5.9642Y-3.4591
X6.0642Y-3.4591
X6.1642Y-3.4591
X6.2642Y-3.4591
X6.3642Y-3.4591
X6.4642Y-3.4591
X6.5642Y-3.4591
X6.6642Y-3.4591
X6.7642Y-3.4591
T4
X7.4142Y-2.5091
X7.5142Y-2.5091
T5
X5.3642Y-3.0091
X5.3642Y-3.6091
X5.4642Y-3.0091
X5.4642Y-3.6091
X5.5642Y-3.0091
X5.5642Y-3.6091
X5.6642Y-3.0091
X5.6642Y-3.6091
X5.7642Y-3.0091
X5.7642Y-3.6091
X5.8642Y-3.0091
X5.8642Y-3.6091
X5.9642Y-3.0091
X5.9642Y-3.6091
X6.0642Y-3.0091
X6.0642Y-3.6091
X6.1642Y-3.0091
X6.1642Y-3.6091
X6.2642Y-3.0091
X6.2642Y-3.6091
X6.3642Y-3.0091
X6.3642Y-3.6091
X6.4642Y-3.0091
X6.4642Y-3.6091
X6.5642Y-3.0091
X6.5642Y-3.6091
X6.6642Y-3.0091
X6.6642Y-3.6091
X6.7642Y-3.0091
X6.7642Y-3.6091
X6.8642Y-3.0091
X6.8642Y-3.6091
X6.9642Y-3.0091
X6.9642Y-3.6091
X7.0642Y-3.0091
X7.0642Y-3.6091
X7.1642Y-3.0091
X7.1642Y-3.6091
X7.2642Y-3.0091
X7.2642Y-3.6091
T6
X7.4642Y-4.3091
X5.4921Y-2.8248
T0
M30
