G04 #@! TF.GenerationSoftware,KiCad,Pcbnew,5.0.2*
G04 #@! TF.CreationDate,2019-09-26T12:35:43-03:00*
G04 #@! TF.ProjectId,ControleMix,436f6e74-726f-46c6-954d-69782e6b6963,rev?*
G04 #@! TF.SameCoordinates,Original*
G04 #@! TF.FileFunction,Copper,L2,Bot*
G04 #@! TF.FilePolarity,Positive*
%FSLAX46Y46*%
G04 Gerber Fmt 4.6, Leading zero omitted, Abs format (unit mm)*
G04 Created by KiCad (PCBNEW 5.0.2) date qui 26 set 2019 12:35:43 -03*
%MOMM*%
%LPD*%
G01*
G04 APERTURE LIST*
G04 #@! TA.AperFunction,ComponentPad*
%ADD10C,4.400000*%
G04 #@! TD*
G04 #@! TA.AperFunction,ComponentPad*
%ADD11C,1.524000*%
G04 #@! TD*
G04 #@! TA.AperFunction,ComponentPad*
%ADD12R,1.700000X1.700000*%
G04 #@! TD*
G04 #@! TA.AperFunction,ComponentPad*
%ADD13O,1.700000X1.700000*%
G04 #@! TD*
G04 #@! TA.AperFunction,ComponentPad*
%ADD14R,1.600000X1.600000*%
G04 #@! TD*
G04 #@! TA.AperFunction,ComponentPad*
%ADD15O,1.600000X1.600000*%
G04 #@! TD*
G04 #@! TA.AperFunction,Conductor*
%ADD16C,0.100000*%
G04 #@! TD*
G04 #@! TA.AperFunction,ComponentPad*
%ADD17C,0.800000*%
G04 #@! TD*
G04 #@! TA.AperFunction,ComponentPad*
%ADD18O,1.300000X0.800000*%
G04 #@! TD*
G04 #@! TA.AperFunction,ViaPad*
%ADD19C,0.700000*%
G04 #@! TD*
G04 #@! TA.AperFunction,Conductor*
%ADD20C,0.800000*%
G04 #@! TD*
G04 #@! TA.AperFunction,Conductor*
%ADD21C,0.600000*%
G04 #@! TD*
G04 #@! TA.AperFunction,Conductor*
%ADD22C,0.254000*%
G04 #@! TD*
G04 APERTURE END LIST*
D10*
G04 #@! TO.P,REF\002A\002A,1*
G04 #@! TO.N,Earth*
X139500000Y-71750000D03*
G04 #@! TD*
D11*
G04 #@! TO.P,U1,1*
G04 #@! TO.N,+3V3*
X136250000Y-91670000D03*
G04 #@! TO.P,U1,2*
G04 #@! TO.N,Net-(U1-Pad2)*
X138790000Y-91670000D03*
G04 #@! TO.P,U1,3*
G04 #@! TO.N,Net-(U1-Pad3)*
X141330000Y-91670000D03*
G04 #@! TO.P,U1,4*
G04 #@! TO.N,Net-(U1-Pad4)*
X143870000Y-91670000D03*
G04 #@! TO.P,U1,5*
G04 #@! TO.N,/ADC_CH0*
X146410000Y-91670000D03*
G04 #@! TO.P,U1,6*
G04 #@! TO.N,/ADC_CH1*
X148950000Y-91670000D03*
G04 #@! TO.P,U1,7*
G04 #@! TO.N,/ADC_CH2*
X151490000Y-91670000D03*
G04 #@! TO.P,U1,8*
G04 #@! TO.N,/ADC_CH3*
X154030000Y-91670000D03*
G04 #@! TO.P,U1,9*
G04 #@! TO.N,/ADC_CH4*
X156570000Y-91670000D03*
G04 #@! TO.P,U1,10*
G04 #@! TO.N,/ADC_CH5*
X159110000Y-91670000D03*
G04 #@! TO.P,U1,11*
G04 #@! TO.N,/ADC_CH6*
X161650000Y-91670000D03*
G04 #@! TO.P,U1,12*
G04 #@! TO.N,/ADC_CH7*
X164190000Y-91670000D03*
G04 #@! TO.P,U1,13*
G04 #@! TO.N,/ADC_CH8*
X166730000Y-91670000D03*
G04 #@! TO.P,U1,14*
G04 #@! TO.N,/ADC_CH9*
X169270000Y-91670000D03*
G04 #@! TO.P,U1,15*
G04 #@! TO.N,/TX3_SDL2*
X171810000Y-91670000D03*
G04 #@! TO.P,U1,16*
G04 #@! TO.N,/RX3_SDA2*
X174350000Y-91670000D03*
G04 #@! TO.P,U1,17*
G04 #@! TO.N,Net-(U1-Pad17)*
X176890000Y-91670000D03*
G04 #@! TO.P,U1,18*
G04 #@! TO.N,+3V3*
X179430000Y-91670000D03*
G04 #@! TO.P,U1,19*
G04 #@! TO.N,Earth*
X181970000Y-91670000D03*
G04 #@! TO.P,U1,20*
X184510000Y-91670000D03*
G04 #@! TO.P,U1,21*
G04 #@! TO.N,/CH5*
X184510000Y-76430000D03*
G04 #@! TO.P,U1,22*
G04 #@! TO.N,/CH4*
X181970000Y-76430000D03*
G04 #@! TO.P,U1,23*
G04 #@! TO.N,/CH3*
X179430000Y-76430000D03*
G04 #@! TO.P,U1,24*
G04 #@! TO.N,/CH2*
X176890000Y-76430000D03*
G04 #@! TO.P,U1,25*
G04 #@! TO.N,/CH1*
X174350000Y-76430000D03*
G04 #@! TO.P,U1,26*
G04 #@! TO.N,/TX1*
X171810000Y-76430000D03*
G04 #@! TO.P,U1,27*
G04 #@! TO.N,/RX1*
X169270000Y-76430000D03*
G04 #@! TO.P,U1,28*
G04 #@! TO.N,/CANRX_USB-*
X166730000Y-76430000D03*
G04 #@! TO.P,U1,29*
G04 #@! TO.N,/CANTX_USB+*
X164190000Y-76430000D03*
G04 #@! TO.P,U1,30*
G04 #@! TO.N,/CH6*
X161650000Y-76430000D03*
G04 #@! TO.P,U1,31*
G04 #@! TO.N,/PB3*
X159110000Y-76430000D03*
G04 #@! TO.P,U1,32*
G04 #@! TO.N,/PB4*
X156570000Y-76430000D03*
G04 #@! TO.P,U1,33*
G04 #@! TO.N,/PB5*
X154030000Y-76430000D03*
G04 #@! TO.P,U1,34*
G04 #@! TO.N,/PWM_CH1*
X151490000Y-76430000D03*
G04 #@! TO.P,U1,35*
G04 #@! TO.N,/PWM_CH2*
X148950000Y-76430000D03*
G04 #@! TO.P,U1,36*
G04 #@! TO.N,/PWM_CH3*
X146410000Y-76430000D03*
G04 #@! TO.P,U1,37*
G04 #@! TO.N,/PWM_CH4*
X143870000Y-76430000D03*
G04 #@! TO.P,U1,38*
G04 #@! TO.N,+5V*
X141330000Y-76430000D03*
G04 #@! TO.P,U1,39*
G04 #@! TO.N,Earth*
X138790000Y-76430000D03*
G04 #@! TO.P,U1,40*
G04 #@! TO.N,+3V3*
X136250000Y-76430000D03*
G04 #@! TD*
D12*
G04 #@! TO.P,JP1,1*
G04 #@! TO.N,+5V*
X190860000Y-63730000D03*
D13*
G04 #@! TO.P,JP1,2*
G04 #@! TO.N,VCC*
X188320000Y-63730000D03*
G04 #@! TD*
D14*
G04 #@! TO.P,RN1,1*
G04 #@! TO.N,/ADC_CH9*
X169270000Y-96750000D03*
D15*
G04 #@! TO.P,RN1,11*
G04 #@! TO.N,/AI0*
X146410000Y-104370000D03*
G04 #@! TO.P,RN1,2*
G04 #@! TO.N,/ADC_CH8*
X166730000Y-96750000D03*
G04 #@! TO.P,RN1,12*
G04 #@! TO.N,/AI1*
X148950000Y-104370000D03*
G04 #@! TO.P,RN1,3*
G04 #@! TO.N,/ADC_CH7*
X164190000Y-96750000D03*
G04 #@! TO.P,RN1,13*
G04 #@! TO.N,/AI2*
X151490000Y-104370000D03*
G04 #@! TO.P,RN1,4*
G04 #@! TO.N,/ADC_CH6*
X161650000Y-96750000D03*
G04 #@! TO.P,RN1,14*
G04 #@! TO.N,/AI3*
X154030000Y-104370000D03*
G04 #@! TO.P,RN1,5*
G04 #@! TO.N,/ADC_CH5*
X159110000Y-96750000D03*
G04 #@! TO.P,RN1,15*
G04 #@! TO.N,/AI4*
X156570000Y-104370000D03*
G04 #@! TO.P,RN1,6*
G04 #@! TO.N,/ADC_CH4*
X156570000Y-96750000D03*
G04 #@! TO.P,RN1,16*
G04 #@! TO.N,/AI5*
X159110000Y-104370000D03*
G04 #@! TO.P,RN1,7*
G04 #@! TO.N,/ADC_CH3*
X154030000Y-96750000D03*
G04 #@! TO.P,RN1,17*
G04 #@! TO.N,/AI6*
X161650000Y-104370000D03*
G04 #@! TO.P,RN1,8*
G04 #@! TO.N,/ADC_CH2*
X151490000Y-96750000D03*
G04 #@! TO.P,RN1,18*
G04 #@! TO.N,/AI7*
X164190000Y-104370000D03*
G04 #@! TO.P,RN1,9*
G04 #@! TO.N,/ADC_CH1*
X148950000Y-96750000D03*
G04 #@! TO.P,RN1,19*
G04 #@! TO.N,/AI8*
X166730000Y-104370000D03*
G04 #@! TO.P,RN1,10*
G04 #@! TO.N,/ADC_CH0*
X146410000Y-96750000D03*
G04 #@! TO.P,RN1,20*
G04 #@! TO.N,/AI9*
X169270000Y-104370000D03*
G04 #@! TD*
D14*
G04 #@! TO.P,RN2,1*
G04 #@! TO.N,Earth*
X171810000Y-87860000D03*
D15*
G04 #@! TO.P,RN2,2*
G04 #@! TO.N,/ADC_CH9*
X169270000Y-87860000D03*
G04 #@! TO.P,RN2,3*
G04 #@! TO.N,/ADC_CH8*
X166730000Y-87860000D03*
G04 #@! TO.P,RN2,4*
G04 #@! TO.N,/ADC_CH7*
X164190000Y-87860000D03*
G04 #@! TO.P,RN2,5*
G04 #@! TO.N,/ADC_CH6*
X161650000Y-87860000D03*
G04 #@! TO.P,RN2,6*
G04 #@! TO.N,/ADC_CH5*
X159110000Y-87860000D03*
G04 #@! TO.P,RN2,7*
G04 #@! TO.N,/ADC_CH4*
X156570000Y-87860000D03*
G04 #@! TO.P,RN2,8*
G04 #@! TO.N,/ADC_CH3*
X154030000Y-87860000D03*
G04 #@! TO.P,RN2,9*
G04 #@! TO.N,/ADC_CH2*
X151490000Y-87860000D03*
G04 #@! TO.P,RN2,10*
G04 #@! TO.N,/ADC_CH1*
X148950000Y-87860000D03*
G04 #@! TO.P,RN2,11*
G04 #@! TO.N,/ADC_CH0*
X146410000Y-87860000D03*
G04 #@! TD*
D14*
G04 #@! TO.P,RN3,1*
G04 #@! TO.N,VCC*
X136250000Y-57380000D03*
D15*
G04 #@! TO.P,RN3,2*
G04 #@! TO.N,/IN4*
X138790000Y-57380000D03*
G04 #@! TO.P,RN3,3*
G04 #@! TO.N,/IN3*
X141330000Y-57380000D03*
G04 #@! TO.P,RN3,4*
G04 #@! TO.N,/IN2*
X143870000Y-57380000D03*
G04 #@! TO.P,RN3,5*
G04 #@! TO.N,/IN1*
X146410000Y-57380000D03*
G04 #@! TD*
D16*
G04 #@! TO.N,+5V*
G04 #@! TO.C,J1*
G36*
X136719603Y-110320963D02*
X136739018Y-110323843D01*
X136758057Y-110328612D01*
X136776537Y-110335224D01*
X136794279Y-110343616D01*
X136811114Y-110353706D01*
X136826879Y-110365398D01*
X136841421Y-110378579D01*
X136854602Y-110393121D01*
X136866294Y-110408886D01*
X136876384Y-110425721D01*
X136884776Y-110443463D01*
X136891388Y-110461943D01*
X136896157Y-110480982D01*
X136899037Y-110500397D01*
X136900000Y-110520000D01*
X136900000Y-110920000D01*
X136899037Y-110939603D01*
X136896157Y-110959018D01*
X136891388Y-110978057D01*
X136884776Y-110996537D01*
X136876384Y-111014279D01*
X136866294Y-111031114D01*
X136854602Y-111046879D01*
X136841421Y-111061421D01*
X136826879Y-111074602D01*
X136811114Y-111086294D01*
X136794279Y-111096384D01*
X136776537Y-111104776D01*
X136758057Y-111111388D01*
X136739018Y-111116157D01*
X136719603Y-111119037D01*
X136700000Y-111120000D01*
X135800000Y-111120000D01*
X135780397Y-111119037D01*
X135760982Y-111116157D01*
X135741943Y-111111388D01*
X135723463Y-111104776D01*
X135705721Y-111096384D01*
X135688886Y-111086294D01*
X135673121Y-111074602D01*
X135658579Y-111061421D01*
X135645398Y-111046879D01*
X135633706Y-111031114D01*
X135623616Y-111014279D01*
X135615224Y-110996537D01*
X135608612Y-110978057D01*
X135603843Y-110959018D01*
X135600963Y-110939603D01*
X135600000Y-110920000D01*
X135600000Y-110520000D01*
X135600963Y-110500397D01*
X135603843Y-110480982D01*
X135608612Y-110461943D01*
X135615224Y-110443463D01*
X135623616Y-110425721D01*
X135633706Y-110408886D01*
X135645398Y-110393121D01*
X135658579Y-110378579D01*
X135673121Y-110365398D01*
X135688886Y-110353706D01*
X135705721Y-110343616D01*
X135723463Y-110335224D01*
X135741943Y-110328612D01*
X135760982Y-110323843D01*
X135780397Y-110320963D01*
X135800000Y-110320000D01*
X136700000Y-110320000D01*
X136719603Y-110320963D01*
X136719603Y-110320963D01*
G37*
D17*
G04 #@! TD*
G04 #@! TO.P,J1,1*
G04 #@! TO.N,+5V*
X136250000Y-110720000D03*
D18*
G04 #@! TO.P,J1,2*
G04 #@! TO.N,Earth*
X136250000Y-109470000D03*
G04 #@! TO.P,J1,3*
G04 #@! TO.N,/AI0*
X136250000Y-108220000D03*
G04 #@! TD*
G04 #@! TO.P,J3,3*
G04 #@! TO.N,/AI1*
X141330000Y-108200000D03*
G04 #@! TO.P,J3,2*
G04 #@! TO.N,Earth*
X141330000Y-109450000D03*
D16*
G04 #@! TD*
G04 #@! TO.N,+5V*
G04 #@! TO.C,J3*
G36*
X141799603Y-110300963D02*
X141819018Y-110303843D01*
X141838057Y-110308612D01*
X141856537Y-110315224D01*
X141874279Y-110323616D01*
X141891114Y-110333706D01*
X141906879Y-110345398D01*
X141921421Y-110358579D01*
X141934602Y-110373121D01*
X141946294Y-110388886D01*
X141956384Y-110405721D01*
X141964776Y-110423463D01*
X141971388Y-110441943D01*
X141976157Y-110460982D01*
X141979037Y-110480397D01*
X141980000Y-110500000D01*
X141980000Y-110900000D01*
X141979037Y-110919603D01*
X141976157Y-110939018D01*
X141971388Y-110958057D01*
X141964776Y-110976537D01*
X141956384Y-110994279D01*
X141946294Y-111011114D01*
X141934602Y-111026879D01*
X141921421Y-111041421D01*
X141906879Y-111054602D01*
X141891114Y-111066294D01*
X141874279Y-111076384D01*
X141856537Y-111084776D01*
X141838057Y-111091388D01*
X141819018Y-111096157D01*
X141799603Y-111099037D01*
X141780000Y-111100000D01*
X140880000Y-111100000D01*
X140860397Y-111099037D01*
X140840982Y-111096157D01*
X140821943Y-111091388D01*
X140803463Y-111084776D01*
X140785721Y-111076384D01*
X140768886Y-111066294D01*
X140753121Y-111054602D01*
X140738579Y-111041421D01*
X140725398Y-111026879D01*
X140713706Y-111011114D01*
X140703616Y-110994279D01*
X140695224Y-110976537D01*
X140688612Y-110958057D01*
X140683843Y-110939018D01*
X140680963Y-110919603D01*
X140680000Y-110900000D01*
X140680000Y-110500000D01*
X140680963Y-110480397D01*
X140683843Y-110460982D01*
X140688612Y-110441943D01*
X140695224Y-110423463D01*
X140703616Y-110405721D01*
X140713706Y-110388886D01*
X140725398Y-110373121D01*
X140738579Y-110358579D01*
X140753121Y-110345398D01*
X140768886Y-110333706D01*
X140785721Y-110323616D01*
X140803463Y-110315224D01*
X140821943Y-110308612D01*
X140840982Y-110303843D01*
X140860397Y-110300963D01*
X140880000Y-110300000D01*
X141780000Y-110300000D01*
X141799603Y-110300963D01*
X141799603Y-110300963D01*
G37*
D17*
G04 #@! TO.P,J3,1*
G04 #@! TO.N,+5V*
X141330000Y-110700000D03*
G04 #@! TD*
D16*
G04 #@! TO.N,+5V*
G04 #@! TO.C,J5*
G36*
X146879603Y-110320963D02*
X146899018Y-110323843D01*
X146918057Y-110328612D01*
X146936537Y-110335224D01*
X146954279Y-110343616D01*
X146971114Y-110353706D01*
X146986879Y-110365398D01*
X147001421Y-110378579D01*
X147014602Y-110393121D01*
X147026294Y-110408886D01*
X147036384Y-110425721D01*
X147044776Y-110443463D01*
X147051388Y-110461943D01*
X147056157Y-110480982D01*
X147059037Y-110500397D01*
X147060000Y-110520000D01*
X147060000Y-110920000D01*
X147059037Y-110939603D01*
X147056157Y-110959018D01*
X147051388Y-110978057D01*
X147044776Y-110996537D01*
X147036384Y-111014279D01*
X147026294Y-111031114D01*
X147014602Y-111046879D01*
X147001421Y-111061421D01*
X146986879Y-111074602D01*
X146971114Y-111086294D01*
X146954279Y-111096384D01*
X146936537Y-111104776D01*
X146918057Y-111111388D01*
X146899018Y-111116157D01*
X146879603Y-111119037D01*
X146860000Y-111120000D01*
X145960000Y-111120000D01*
X145940397Y-111119037D01*
X145920982Y-111116157D01*
X145901943Y-111111388D01*
X145883463Y-111104776D01*
X145865721Y-111096384D01*
X145848886Y-111086294D01*
X145833121Y-111074602D01*
X145818579Y-111061421D01*
X145805398Y-111046879D01*
X145793706Y-111031114D01*
X145783616Y-111014279D01*
X145775224Y-110996537D01*
X145768612Y-110978057D01*
X145763843Y-110959018D01*
X145760963Y-110939603D01*
X145760000Y-110920000D01*
X145760000Y-110520000D01*
X145760963Y-110500397D01*
X145763843Y-110480982D01*
X145768612Y-110461943D01*
X145775224Y-110443463D01*
X145783616Y-110425721D01*
X145793706Y-110408886D01*
X145805398Y-110393121D01*
X145818579Y-110378579D01*
X145833121Y-110365398D01*
X145848886Y-110353706D01*
X145865721Y-110343616D01*
X145883463Y-110335224D01*
X145901943Y-110328612D01*
X145920982Y-110323843D01*
X145940397Y-110320963D01*
X145960000Y-110320000D01*
X146860000Y-110320000D01*
X146879603Y-110320963D01*
X146879603Y-110320963D01*
G37*
D17*
G04 #@! TD*
G04 #@! TO.P,J5,1*
G04 #@! TO.N,+5V*
X146410000Y-110720000D03*
D18*
G04 #@! TO.P,J5,2*
G04 #@! TO.N,Earth*
X146410000Y-109470000D03*
G04 #@! TO.P,J5,3*
G04 #@! TO.N,/AI2*
X146410000Y-108220000D03*
G04 #@! TD*
G04 #@! TO.P,J7,3*
G04 #@! TO.N,/AI3*
X151490000Y-108220000D03*
G04 #@! TO.P,J7,2*
G04 #@! TO.N,Earth*
X151490000Y-109470000D03*
D16*
G04 #@! TD*
G04 #@! TO.N,+5V*
G04 #@! TO.C,J7*
G36*
X151959603Y-110320963D02*
X151979018Y-110323843D01*
X151998057Y-110328612D01*
X152016537Y-110335224D01*
X152034279Y-110343616D01*
X152051114Y-110353706D01*
X152066879Y-110365398D01*
X152081421Y-110378579D01*
X152094602Y-110393121D01*
X152106294Y-110408886D01*
X152116384Y-110425721D01*
X152124776Y-110443463D01*
X152131388Y-110461943D01*
X152136157Y-110480982D01*
X152139037Y-110500397D01*
X152140000Y-110520000D01*
X152140000Y-110920000D01*
X152139037Y-110939603D01*
X152136157Y-110959018D01*
X152131388Y-110978057D01*
X152124776Y-110996537D01*
X152116384Y-111014279D01*
X152106294Y-111031114D01*
X152094602Y-111046879D01*
X152081421Y-111061421D01*
X152066879Y-111074602D01*
X152051114Y-111086294D01*
X152034279Y-111096384D01*
X152016537Y-111104776D01*
X151998057Y-111111388D01*
X151979018Y-111116157D01*
X151959603Y-111119037D01*
X151940000Y-111120000D01*
X151040000Y-111120000D01*
X151020397Y-111119037D01*
X151000982Y-111116157D01*
X150981943Y-111111388D01*
X150963463Y-111104776D01*
X150945721Y-111096384D01*
X150928886Y-111086294D01*
X150913121Y-111074602D01*
X150898579Y-111061421D01*
X150885398Y-111046879D01*
X150873706Y-111031114D01*
X150863616Y-111014279D01*
X150855224Y-110996537D01*
X150848612Y-110978057D01*
X150843843Y-110959018D01*
X150840963Y-110939603D01*
X150840000Y-110920000D01*
X150840000Y-110520000D01*
X150840963Y-110500397D01*
X150843843Y-110480982D01*
X150848612Y-110461943D01*
X150855224Y-110443463D01*
X150863616Y-110425721D01*
X150873706Y-110408886D01*
X150885398Y-110393121D01*
X150898579Y-110378579D01*
X150913121Y-110365398D01*
X150928886Y-110353706D01*
X150945721Y-110343616D01*
X150963463Y-110335224D01*
X150981943Y-110328612D01*
X151000982Y-110323843D01*
X151020397Y-110320963D01*
X151040000Y-110320000D01*
X151940000Y-110320000D01*
X151959603Y-110320963D01*
X151959603Y-110320963D01*
G37*
D17*
G04 #@! TO.P,J7,1*
G04 #@! TO.N,+5V*
X151490000Y-110720000D03*
G04 #@! TD*
D18*
G04 #@! TO.P,J9,3*
G04 #@! TO.N,/AI4*
X156570000Y-108220000D03*
G04 #@! TO.P,J9,2*
G04 #@! TO.N,Earth*
X156570000Y-109470000D03*
D16*
G04 #@! TD*
G04 #@! TO.N,+5V*
G04 #@! TO.C,J9*
G36*
X157039603Y-110320963D02*
X157059018Y-110323843D01*
X157078057Y-110328612D01*
X157096537Y-110335224D01*
X157114279Y-110343616D01*
X157131114Y-110353706D01*
X157146879Y-110365398D01*
X157161421Y-110378579D01*
X157174602Y-110393121D01*
X157186294Y-110408886D01*
X157196384Y-110425721D01*
X157204776Y-110443463D01*
X157211388Y-110461943D01*
X157216157Y-110480982D01*
X157219037Y-110500397D01*
X157220000Y-110520000D01*
X157220000Y-110920000D01*
X157219037Y-110939603D01*
X157216157Y-110959018D01*
X157211388Y-110978057D01*
X157204776Y-110996537D01*
X157196384Y-111014279D01*
X157186294Y-111031114D01*
X157174602Y-111046879D01*
X157161421Y-111061421D01*
X157146879Y-111074602D01*
X157131114Y-111086294D01*
X157114279Y-111096384D01*
X157096537Y-111104776D01*
X157078057Y-111111388D01*
X157059018Y-111116157D01*
X157039603Y-111119037D01*
X157020000Y-111120000D01*
X156120000Y-111120000D01*
X156100397Y-111119037D01*
X156080982Y-111116157D01*
X156061943Y-111111388D01*
X156043463Y-111104776D01*
X156025721Y-111096384D01*
X156008886Y-111086294D01*
X155993121Y-111074602D01*
X155978579Y-111061421D01*
X155965398Y-111046879D01*
X155953706Y-111031114D01*
X155943616Y-111014279D01*
X155935224Y-110996537D01*
X155928612Y-110978057D01*
X155923843Y-110959018D01*
X155920963Y-110939603D01*
X155920000Y-110920000D01*
X155920000Y-110520000D01*
X155920963Y-110500397D01*
X155923843Y-110480982D01*
X155928612Y-110461943D01*
X155935224Y-110443463D01*
X155943616Y-110425721D01*
X155953706Y-110408886D01*
X155965398Y-110393121D01*
X155978579Y-110378579D01*
X155993121Y-110365398D01*
X156008886Y-110353706D01*
X156025721Y-110343616D01*
X156043463Y-110335224D01*
X156061943Y-110328612D01*
X156080982Y-110323843D01*
X156100397Y-110320963D01*
X156120000Y-110320000D01*
X157020000Y-110320000D01*
X157039603Y-110320963D01*
X157039603Y-110320963D01*
G37*
D17*
G04 #@! TO.P,J9,1*
G04 #@! TO.N,+5V*
X156570000Y-110720000D03*
G04 #@! TD*
D16*
G04 #@! TO.N,+5V*
G04 #@! TO.C,J11*
G36*
X162119603Y-110320963D02*
X162139018Y-110323843D01*
X162158057Y-110328612D01*
X162176537Y-110335224D01*
X162194279Y-110343616D01*
X162211114Y-110353706D01*
X162226879Y-110365398D01*
X162241421Y-110378579D01*
X162254602Y-110393121D01*
X162266294Y-110408886D01*
X162276384Y-110425721D01*
X162284776Y-110443463D01*
X162291388Y-110461943D01*
X162296157Y-110480982D01*
X162299037Y-110500397D01*
X162300000Y-110520000D01*
X162300000Y-110920000D01*
X162299037Y-110939603D01*
X162296157Y-110959018D01*
X162291388Y-110978057D01*
X162284776Y-110996537D01*
X162276384Y-111014279D01*
X162266294Y-111031114D01*
X162254602Y-111046879D01*
X162241421Y-111061421D01*
X162226879Y-111074602D01*
X162211114Y-111086294D01*
X162194279Y-111096384D01*
X162176537Y-111104776D01*
X162158057Y-111111388D01*
X162139018Y-111116157D01*
X162119603Y-111119037D01*
X162100000Y-111120000D01*
X161200000Y-111120000D01*
X161180397Y-111119037D01*
X161160982Y-111116157D01*
X161141943Y-111111388D01*
X161123463Y-111104776D01*
X161105721Y-111096384D01*
X161088886Y-111086294D01*
X161073121Y-111074602D01*
X161058579Y-111061421D01*
X161045398Y-111046879D01*
X161033706Y-111031114D01*
X161023616Y-111014279D01*
X161015224Y-110996537D01*
X161008612Y-110978057D01*
X161003843Y-110959018D01*
X161000963Y-110939603D01*
X161000000Y-110920000D01*
X161000000Y-110520000D01*
X161000963Y-110500397D01*
X161003843Y-110480982D01*
X161008612Y-110461943D01*
X161015224Y-110443463D01*
X161023616Y-110425721D01*
X161033706Y-110408886D01*
X161045398Y-110393121D01*
X161058579Y-110378579D01*
X161073121Y-110365398D01*
X161088886Y-110353706D01*
X161105721Y-110343616D01*
X161123463Y-110335224D01*
X161141943Y-110328612D01*
X161160982Y-110323843D01*
X161180397Y-110320963D01*
X161200000Y-110320000D01*
X162100000Y-110320000D01*
X162119603Y-110320963D01*
X162119603Y-110320963D01*
G37*
D17*
G04 #@! TD*
G04 #@! TO.P,J11,1*
G04 #@! TO.N,+5V*
X161650000Y-110720000D03*
D18*
G04 #@! TO.P,J11,2*
G04 #@! TO.N,Earth*
X161650000Y-109470000D03*
G04 #@! TO.P,J11,3*
G04 #@! TO.N,/AI5*
X161650000Y-108220000D03*
G04 #@! TD*
G04 #@! TO.P,J13,3*
G04 #@! TO.N,/AI6*
X166730000Y-108220000D03*
G04 #@! TO.P,J13,2*
G04 #@! TO.N,Earth*
X166730000Y-109470000D03*
D16*
G04 #@! TD*
G04 #@! TO.N,+5V*
G04 #@! TO.C,J13*
G36*
X167199603Y-110320963D02*
X167219018Y-110323843D01*
X167238057Y-110328612D01*
X167256537Y-110335224D01*
X167274279Y-110343616D01*
X167291114Y-110353706D01*
X167306879Y-110365398D01*
X167321421Y-110378579D01*
X167334602Y-110393121D01*
X167346294Y-110408886D01*
X167356384Y-110425721D01*
X167364776Y-110443463D01*
X167371388Y-110461943D01*
X167376157Y-110480982D01*
X167379037Y-110500397D01*
X167380000Y-110520000D01*
X167380000Y-110920000D01*
X167379037Y-110939603D01*
X167376157Y-110959018D01*
X167371388Y-110978057D01*
X167364776Y-110996537D01*
X167356384Y-111014279D01*
X167346294Y-111031114D01*
X167334602Y-111046879D01*
X167321421Y-111061421D01*
X167306879Y-111074602D01*
X167291114Y-111086294D01*
X167274279Y-111096384D01*
X167256537Y-111104776D01*
X167238057Y-111111388D01*
X167219018Y-111116157D01*
X167199603Y-111119037D01*
X167180000Y-111120000D01*
X166280000Y-111120000D01*
X166260397Y-111119037D01*
X166240982Y-111116157D01*
X166221943Y-111111388D01*
X166203463Y-111104776D01*
X166185721Y-111096384D01*
X166168886Y-111086294D01*
X166153121Y-111074602D01*
X166138579Y-111061421D01*
X166125398Y-111046879D01*
X166113706Y-111031114D01*
X166103616Y-111014279D01*
X166095224Y-110996537D01*
X166088612Y-110978057D01*
X166083843Y-110959018D01*
X166080963Y-110939603D01*
X166080000Y-110920000D01*
X166080000Y-110520000D01*
X166080963Y-110500397D01*
X166083843Y-110480982D01*
X166088612Y-110461943D01*
X166095224Y-110443463D01*
X166103616Y-110425721D01*
X166113706Y-110408886D01*
X166125398Y-110393121D01*
X166138579Y-110378579D01*
X166153121Y-110365398D01*
X166168886Y-110353706D01*
X166185721Y-110343616D01*
X166203463Y-110335224D01*
X166221943Y-110328612D01*
X166240982Y-110323843D01*
X166260397Y-110320963D01*
X166280000Y-110320000D01*
X167180000Y-110320000D01*
X167199603Y-110320963D01*
X167199603Y-110320963D01*
G37*
D17*
G04 #@! TO.P,J13,1*
G04 #@! TO.N,+5V*
X166730000Y-110720000D03*
G04 #@! TD*
D16*
G04 #@! TO.N,+5V*
G04 #@! TO.C,J15*
G36*
X172279603Y-110320963D02*
X172299018Y-110323843D01*
X172318057Y-110328612D01*
X172336537Y-110335224D01*
X172354279Y-110343616D01*
X172371114Y-110353706D01*
X172386879Y-110365398D01*
X172401421Y-110378579D01*
X172414602Y-110393121D01*
X172426294Y-110408886D01*
X172436384Y-110425721D01*
X172444776Y-110443463D01*
X172451388Y-110461943D01*
X172456157Y-110480982D01*
X172459037Y-110500397D01*
X172460000Y-110520000D01*
X172460000Y-110920000D01*
X172459037Y-110939603D01*
X172456157Y-110959018D01*
X172451388Y-110978057D01*
X172444776Y-110996537D01*
X172436384Y-111014279D01*
X172426294Y-111031114D01*
X172414602Y-111046879D01*
X172401421Y-111061421D01*
X172386879Y-111074602D01*
X172371114Y-111086294D01*
X172354279Y-111096384D01*
X172336537Y-111104776D01*
X172318057Y-111111388D01*
X172299018Y-111116157D01*
X172279603Y-111119037D01*
X172260000Y-111120000D01*
X171360000Y-111120000D01*
X171340397Y-111119037D01*
X171320982Y-111116157D01*
X171301943Y-111111388D01*
X171283463Y-111104776D01*
X171265721Y-111096384D01*
X171248886Y-111086294D01*
X171233121Y-111074602D01*
X171218579Y-111061421D01*
X171205398Y-111046879D01*
X171193706Y-111031114D01*
X171183616Y-111014279D01*
X171175224Y-110996537D01*
X171168612Y-110978057D01*
X171163843Y-110959018D01*
X171160963Y-110939603D01*
X171160000Y-110920000D01*
X171160000Y-110520000D01*
X171160963Y-110500397D01*
X171163843Y-110480982D01*
X171168612Y-110461943D01*
X171175224Y-110443463D01*
X171183616Y-110425721D01*
X171193706Y-110408886D01*
X171205398Y-110393121D01*
X171218579Y-110378579D01*
X171233121Y-110365398D01*
X171248886Y-110353706D01*
X171265721Y-110343616D01*
X171283463Y-110335224D01*
X171301943Y-110328612D01*
X171320982Y-110323843D01*
X171340397Y-110320963D01*
X171360000Y-110320000D01*
X172260000Y-110320000D01*
X172279603Y-110320963D01*
X172279603Y-110320963D01*
G37*
D17*
G04 #@! TD*
G04 #@! TO.P,J15,1*
G04 #@! TO.N,+5V*
X171810000Y-110720000D03*
D18*
G04 #@! TO.P,J15,2*
G04 #@! TO.N,Earth*
X171810000Y-109470000D03*
G04 #@! TO.P,J15,3*
G04 #@! TO.N,/AI7*
X171810000Y-108220000D03*
G04 #@! TD*
G04 #@! TO.P,J17,3*
G04 #@! TO.N,/AI8*
X176890000Y-108220000D03*
G04 #@! TO.P,J17,2*
G04 #@! TO.N,Earth*
X176890000Y-109470000D03*
D16*
G04 #@! TD*
G04 #@! TO.N,+5V*
G04 #@! TO.C,J17*
G36*
X177359603Y-110320963D02*
X177379018Y-110323843D01*
X177398057Y-110328612D01*
X177416537Y-110335224D01*
X177434279Y-110343616D01*
X177451114Y-110353706D01*
X177466879Y-110365398D01*
X177481421Y-110378579D01*
X177494602Y-110393121D01*
X177506294Y-110408886D01*
X177516384Y-110425721D01*
X177524776Y-110443463D01*
X177531388Y-110461943D01*
X177536157Y-110480982D01*
X177539037Y-110500397D01*
X177540000Y-110520000D01*
X177540000Y-110920000D01*
X177539037Y-110939603D01*
X177536157Y-110959018D01*
X177531388Y-110978057D01*
X177524776Y-110996537D01*
X177516384Y-111014279D01*
X177506294Y-111031114D01*
X177494602Y-111046879D01*
X177481421Y-111061421D01*
X177466879Y-111074602D01*
X177451114Y-111086294D01*
X177434279Y-111096384D01*
X177416537Y-111104776D01*
X177398057Y-111111388D01*
X177379018Y-111116157D01*
X177359603Y-111119037D01*
X177340000Y-111120000D01*
X176440000Y-111120000D01*
X176420397Y-111119037D01*
X176400982Y-111116157D01*
X176381943Y-111111388D01*
X176363463Y-111104776D01*
X176345721Y-111096384D01*
X176328886Y-111086294D01*
X176313121Y-111074602D01*
X176298579Y-111061421D01*
X176285398Y-111046879D01*
X176273706Y-111031114D01*
X176263616Y-111014279D01*
X176255224Y-110996537D01*
X176248612Y-110978057D01*
X176243843Y-110959018D01*
X176240963Y-110939603D01*
X176240000Y-110920000D01*
X176240000Y-110520000D01*
X176240963Y-110500397D01*
X176243843Y-110480982D01*
X176248612Y-110461943D01*
X176255224Y-110443463D01*
X176263616Y-110425721D01*
X176273706Y-110408886D01*
X176285398Y-110393121D01*
X176298579Y-110378579D01*
X176313121Y-110365398D01*
X176328886Y-110353706D01*
X176345721Y-110343616D01*
X176363463Y-110335224D01*
X176381943Y-110328612D01*
X176400982Y-110323843D01*
X176420397Y-110320963D01*
X176440000Y-110320000D01*
X177340000Y-110320000D01*
X177359603Y-110320963D01*
X177359603Y-110320963D01*
G37*
D17*
G04 #@! TO.P,J17,1*
G04 #@! TO.N,+5V*
X176890000Y-110720000D03*
G04 #@! TD*
D16*
G04 #@! TO.N,+5V*
G04 #@! TO.C,J18*
G36*
X182439603Y-110300963D02*
X182459018Y-110303843D01*
X182478057Y-110308612D01*
X182496537Y-110315224D01*
X182514279Y-110323616D01*
X182531114Y-110333706D01*
X182546879Y-110345398D01*
X182561421Y-110358579D01*
X182574602Y-110373121D01*
X182586294Y-110388886D01*
X182596384Y-110405721D01*
X182604776Y-110423463D01*
X182611388Y-110441943D01*
X182616157Y-110460982D01*
X182619037Y-110480397D01*
X182620000Y-110500000D01*
X182620000Y-110900000D01*
X182619037Y-110919603D01*
X182616157Y-110939018D01*
X182611388Y-110958057D01*
X182604776Y-110976537D01*
X182596384Y-110994279D01*
X182586294Y-111011114D01*
X182574602Y-111026879D01*
X182561421Y-111041421D01*
X182546879Y-111054602D01*
X182531114Y-111066294D01*
X182514279Y-111076384D01*
X182496537Y-111084776D01*
X182478057Y-111091388D01*
X182459018Y-111096157D01*
X182439603Y-111099037D01*
X182420000Y-111100000D01*
X181520000Y-111100000D01*
X181500397Y-111099037D01*
X181480982Y-111096157D01*
X181461943Y-111091388D01*
X181443463Y-111084776D01*
X181425721Y-111076384D01*
X181408886Y-111066294D01*
X181393121Y-111054602D01*
X181378579Y-111041421D01*
X181365398Y-111026879D01*
X181353706Y-111011114D01*
X181343616Y-110994279D01*
X181335224Y-110976537D01*
X181328612Y-110958057D01*
X181323843Y-110939018D01*
X181320963Y-110919603D01*
X181320000Y-110900000D01*
X181320000Y-110500000D01*
X181320963Y-110480397D01*
X181323843Y-110460982D01*
X181328612Y-110441943D01*
X181335224Y-110423463D01*
X181343616Y-110405721D01*
X181353706Y-110388886D01*
X181365398Y-110373121D01*
X181378579Y-110358579D01*
X181393121Y-110345398D01*
X181408886Y-110333706D01*
X181425721Y-110323616D01*
X181443463Y-110315224D01*
X181461943Y-110308612D01*
X181480982Y-110303843D01*
X181500397Y-110300963D01*
X181520000Y-110300000D01*
X182420000Y-110300000D01*
X182439603Y-110300963D01*
X182439603Y-110300963D01*
G37*
D17*
G04 #@! TD*
G04 #@! TO.P,J18,1*
G04 #@! TO.N,+5V*
X181970000Y-110700000D03*
D18*
G04 #@! TO.P,J18,2*
G04 #@! TO.N,Earth*
X181970000Y-109450000D03*
G04 #@! TO.P,J18,3*
G04 #@! TO.N,/AI9*
X181970000Y-108200000D03*
G04 #@! TD*
D16*
G04 #@! TO.N,Earth*
G04 #@! TO.C,J19*
G36*
X191329603Y-93810963D02*
X191349018Y-93813843D01*
X191368057Y-93818612D01*
X191386537Y-93825224D01*
X191404279Y-93833616D01*
X191421114Y-93843706D01*
X191436879Y-93855398D01*
X191451421Y-93868579D01*
X191464602Y-93883121D01*
X191476294Y-93898886D01*
X191486384Y-93915721D01*
X191494776Y-93933463D01*
X191501388Y-93951943D01*
X191506157Y-93970982D01*
X191509037Y-93990397D01*
X191510000Y-94010000D01*
X191510000Y-94410000D01*
X191509037Y-94429603D01*
X191506157Y-94449018D01*
X191501388Y-94468057D01*
X191494776Y-94486537D01*
X191486384Y-94504279D01*
X191476294Y-94521114D01*
X191464602Y-94536879D01*
X191451421Y-94551421D01*
X191436879Y-94564602D01*
X191421114Y-94576294D01*
X191404279Y-94586384D01*
X191386537Y-94594776D01*
X191368057Y-94601388D01*
X191349018Y-94606157D01*
X191329603Y-94609037D01*
X191310000Y-94610000D01*
X190410000Y-94610000D01*
X190390397Y-94609037D01*
X190370982Y-94606157D01*
X190351943Y-94601388D01*
X190333463Y-94594776D01*
X190315721Y-94586384D01*
X190298886Y-94576294D01*
X190283121Y-94564602D01*
X190268579Y-94551421D01*
X190255398Y-94536879D01*
X190243706Y-94521114D01*
X190233616Y-94504279D01*
X190225224Y-94486537D01*
X190218612Y-94468057D01*
X190213843Y-94449018D01*
X190210963Y-94429603D01*
X190210000Y-94410000D01*
X190210000Y-94010000D01*
X190210963Y-93990397D01*
X190213843Y-93970982D01*
X190218612Y-93951943D01*
X190225224Y-93933463D01*
X190233616Y-93915721D01*
X190243706Y-93898886D01*
X190255398Y-93883121D01*
X190268579Y-93868579D01*
X190283121Y-93855398D01*
X190298886Y-93843706D01*
X190315721Y-93833616D01*
X190333463Y-93825224D01*
X190351943Y-93818612D01*
X190370982Y-93813843D01*
X190390397Y-93810963D01*
X190410000Y-93810000D01*
X191310000Y-93810000D01*
X191329603Y-93810963D01*
X191329603Y-93810963D01*
G37*
D17*
G04 #@! TD*
G04 #@! TO.P,J19,1*
G04 #@! TO.N,Earth*
X190860000Y-94210000D03*
D18*
G04 #@! TO.P,J19,2*
G04 #@! TO.N,+5V*
X190860000Y-92960000D03*
G04 #@! TO.P,J19,3*
G04 #@! TO.N,/CH1*
X190860000Y-91710000D03*
G04 #@! TO.P,J19,4*
G04 #@! TO.N,/CH2*
X190860000Y-90460000D03*
G04 #@! TO.P,J19,5*
G04 #@! TO.N,/CH3*
X190860000Y-89210000D03*
G04 #@! TO.P,J19,6*
G04 #@! TO.N,/CH4*
X190860000Y-87960000D03*
G04 #@! TO.P,J19,7*
G04 #@! TO.N,/CH5*
X190860000Y-86710000D03*
G04 #@! TO.P,J19,8*
G04 #@! TO.N,/CH6*
X190860000Y-85460000D03*
G04 #@! TD*
D16*
G04 #@! TO.N,/TX1*
G04 #@! TO.C,J20*
G36*
X191329603Y-70950963D02*
X191349018Y-70953843D01*
X191368057Y-70958612D01*
X191386537Y-70965224D01*
X191404279Y-70973616D01*
X191421114Y-70983706D01*
X191436879Y-70995398D01*
X191451421Y-71008579D01*
X191464602Y-71023121D01*
X191476294Y-71038886D01*
X191486384Y-71055721D01*
X191494776Y-71073463D01*
X191501388Y-71091943D01*
X191506157Y-71110982D01*
X191509037Y-71130397D01*
X191510000Y-71150000D01*
X191510000Y-71550000D01*
X191509037Y-71569603D01*
X191506157Y-71589018D01*
X191501388Y-71608057D01*
X191494776Y-71626537D01*
X191486384Y-71644279D01*
X191476294Y-71661114D01*
X191464602Y-71676879D01*
X191451421Y-71691421D01*
X191436879Y-71704602D01*
X191421114Y-71716294D01*
X191404279Y-71726384D01*
X191386537Y-71734776D01*
X191368057Y-71741388D01*
X191349018Y-71746157D01*
X191329603Y-71749037D01*
X191310000Y-71750000D01*
X190410000Y-71750000D01*
X190390397Y-71749037D01*
X190370982Y-71746157D01*
X190351943Y-71741388D01*
X190333463Y-71734776D01*
X190315721Y-71726384D01*
X190298886Y-71716294D01*
X190283121Y-71704602D01*
X190268579Y-71691421D01*
X190255398Y-71676879D01*
X190243706Y-71661114D01*
X190233616Y-71644279D01*
X190225224Y-71626537D01*
X190218612Y-71608057D01*
X190213843Y-71589018D01*
X190210963Y-71569603D01*
X190210000Y-71550000D01*
X190210000Y-71150000D01*
X190210963Y-71130397D01*
X190213843Y-71110982D01*
X190218612Y-71091943D01*
X190225224Y-71073463D01*
X190233616Y-71055721D01*
X190243706Y-71038886D01*
X190255398Y-71023121D01*
X190268579Y-71008579D01*
X190283121Y-70995398D01*
X190298886Y-70983706D01*
X190315721Y-70973616D01*
X190333463Y-70965224D01*
X190351943Y-70958612D01*
X190370982Y-70953843D01*
X190390397Y-70950963D01*
X190410000Y-70950000D01*
X191310000Y-70950000D01*
X191329603Y-70950963D01*
X191329603Y-70950963D01*
G37*
D17*
G04 #@! TD*
G04 #@! TO.P,J20,1*
G04 #@! TO.N,/TX1*
X190860000Y-71350000D03*
D18*
G04 #@! TO.P,J20,2*
G04 #@! TO.N,/RX1*
X190860000Y-70100000D03*
G04 #@! TO.P,J20,3*
G04 #@! TO.N,Earth*
X190860000Y-68850000D03*
G04 #@! TO.P,J20,4*
G04 #@! TO.N,+5V*
X190860000Y-67600000D03*
G04 #@! TD*
G04 #@! TO.P,J21,4*
G04 #@! TO.N,+5V*
X190860000Y-99350000D03*
G04 #@! TO.P,J21,3*
G04 #@! TO.N,Earth*
X190860000Y-100600000D03*
G04 #@! TO.P,J21,2*
G04 #@! TO.N,/RX3_SDA2*
X190860000Y-101850000D03*
D16*
G04 #@! TD*
G04 #@! TO.N,/TX3_SDL2*
G04 #@! TO.C,J21*
G36*
X191329603Y-102700963D02*
X191349018Y-102703843D01*
X191368057Y-102708612D01*
X191386537Y-102715224D01*
X191404279Y-102723616D01*
X191421114Y-102733706D01*
X191436879Y-102745398D01*
X191451421Y-102758579D01*
X191464602Y-102773121D01*
X191476294Y-102788886D01*
X191486384Y-102805721D01*
X191494776Y-102823463D01*
X191501388Y-102841943D01*
X191506157Y-102860982D01*
X191509037Y-102880397D01*
X191510000Y-102900000D01*
X191510000Y-103300000D01*
X191509037Y-103319603D01*
X191506157Y-103339018D01*
X191501388Y-103358057D01*
X191494776Y-103376537D01*
X191486384Y-103394279D01*
X191476294Y-103411114D01*
X191464602Y-103426879D01*
X191451421Y-103441421D01*
X191436879Y-103454602D01*
X191421114Y-103466294D01*
X191404279Y-103476384D01*
X191386537Y-103484776D01*
X191368057Y-103491388D01*
X191349018Y-103496157D01*
X191329603Y-103499037D01*
X191310000Y-103500000D01*
X190410000Y-103500000D01*
X190390397Y-103499037D01*
X190370982Y-103496157D01*
X190351943Y-103491388D01*
X190333463Y-103484776D01*
X190315721Y-103476384D01*
X190298886Y-103466294D01*
X190283121Y-103454602D01*
X190268579Y-103441421D01*
X190255398Y-103426879D01*
X190243706Y-103411114D01*
X190233616Y-103394279D01*
X190225224Y-103376537D01*
X190218612Y-103358057D01*
X190213843Y-103339018D01*
X190210963Y-103319603D01*
X190210000Y-103300000D01*
X190210000Y-102900000D01*
X190210963Y-102880397D01*
X190213843Y-102860982D01*
X190218612Y-102841943D01*
X190225224Y-102823463D01*
X190233616Y-102805721D01*
X190243706Y-102788886D01*
X190255398Y-102773121D01*
X190268579Y-102758579D01*
X190283121Y-102745398D01*
X190298886Y-102733706D01*
X190315721Y-102723616D01*
X190333463Y-102715224D01*
X190351943Y-102708612D01*
X190370982Y-102703843D01*
X190390397Y-102700963D01*
X190410000Y-102700000D01*
X191310000Y-102700000D01*
X191329603Y-102700963D01*
X191329603Y-102700963D01*
G37*
D17*
G04 #@! TO.P,J21,1*
G04 #@! TO.N,/TX3_SDL2*
X190860000Y-103100000D03*
G04 #@! TD*
D16*
G04 #@! TO.N,/CANTX_USB+*
G04 #@! TO.C,J22*
G36*
X191329603Y-79840963D02*
X191349018Y-79843843D01*
X191368057Y-79848612D01*
X191386537Y-79855224D01*
X191404279Y-79863616D01*
X191421114Y-79873706D01*
X191436879Y-79885398D01*
X191451421Y-79898579D01*
X191464602Y-79913121D01*
X191476294Y-79928886D01*
X191486384Y-79945721D01*
X191494776Y-79963463D01*
X191501388Y-79981943D01*
X191506157Y-80000982D01*
X191509037Y-80020397D01*
X191510000Y-80040000D01*
X191510000Y-80440000D01*
X191509037Y-80459603D01*
X191506157Y-80479018D01*
X191501388Y-80498057D01*
X191494776Y-80516537D01*
X191486384Y-80534279D01*
X191476294Y-80551114D01*
X191464602Y-80566879D01*
X191451421Y-80581421D01*
X191436879Y-80594602D01*
X191421114Y-80606294D01*
X191404279Y-80616384D01*
X191386537Y-80624776D01*
X191368057Y-80631388D01*
X191349018Y-80636157D01*
X191329603Y-80639037D01*
X191310000Y-80640000D01*
X190410000Y-80640000D01*
X190390397Y-80639037D01*
X190370982Y-80636157D01*
X190351943Y-80631388D01*
X190333463Y-80624776D01*
X190315721Y-80616384D01*
X190298886Y-80606294D01*
X190283121Y-80594602D01*
X190268579Y-80581421D01*
X190255398Y-80566879D01*
X190243706Y-80551114D01*
X190233616Y-80534279D01*
X190225224Y-80516537D01*
X190218612Y-80498057D01*
X190213843Y-80479018D01*
X190210963Y-80459603D01*
X190210000Y-80440000D01*
X190210000Y-80040000D01*
X190210963Y-80020397D01*
X190213843Y-80000982D01*
X190218612Y-79981943D01*
X190225224Y-79963463D01*
X190233616Y-79945721D01*
X190243706Y-79928886D01*
X190255398Y-79913121D01*
X190268579Y-79898579D01*
X190283121Y-79885398D01*
X190298886Y-79873706D01*
X190315721Y-79863616D01*
X190333463Y-79855224D01*
X190351943Y-79848612D01*
X190370982Y-79843843D01*
X190390397Y-79840963D01*
X190410000Y-79840000D01*
X191310000Y-79840000D01*
X191329603Y-79840963D01*
X191329603Y-79840963D01*
G37*
D17*
G04 #@! TD*
G04 #@! TO.P,J22,1*
G04 #@! TO.N,/CANTX_USB+*
X190860000Y-80240000D03*
D18*
G04 #@! TO.P,J22,2*
G04 #@! TO.N,/CANRX_USB-*
X190860000Y-78990000D03*
G04 #@! TO.P,J22,3*
G04 #@! TO.N,Earth*
X190860000Y-77740000D03*
G04 #@! TO.P,J22,4*
G04 #@! TO.N,+5V*
X190860000Y-76490000D03*
G04 #@! TD*
G04 #@! TO.P,J2,3*
G04 #@! TO.N,/IN1*
X151490000Y-63690000D03*
G04 #@! TO.P,J2,2*
G04 #@! TO.N,Earth*
X151490000Y-62440000D03*
D16*
G04 #@! TD*
G04 #@! TO.N,VCC*
G04 #@! TO.C,J2*
G36*
X151959603Y-60790963D02*
X151979018Y-60793843D01*
X151998057Y-60798612D01*
X152016537Y-60805224D01*
X152034279Y-60813616D01*
X152051114Y-60823706D01*
X152066879Y-60835398D01*
X152081421Y-60848579D01*
X152094602Y-60863121D01*
X152106294Y-60878886D01*
X152116384Y-60895721D01*
X152124776Y-60913463D01*
X152131388Y-60931943D01*
X152136157Y-60950982D01*
X152139037Y-60970397D01*
X152140000Y-60990000D01*
X152140000Y-61390000D01*
X152139037Y-61409603D01*
X152136157Y-61429018D01*
X152131388Y-61448057D01*
X152124776Y-61466537D01*
X152116384Y-61484279D01*
X152106294Y-61501114D01*
X152094602Y-61516879D01*
X152081421Y-61531421D01*
X152066879Y-61544602D01*
X152051114Y-61556294D01*
X152034279Y-61566384D01*
X152016537Y-61574776D01*
X151998057Y-61581388D01*
X151979018Y-61586157D01*
X151959603Y-61589037D01*
X151940000Y-61590000D01*
X151040000Y-61590000D01*
X151020397Y-61589037D01*
X151000982Y-61586157D01*
X150981943Y-61581388D01*
X150963463Y-61574776D01*
X150945721Y-61566384D01*
X150928886Y-61556294D01*
X150913121Y-61544602D01*
X150898579Y-61531421D01*
X150885398Y-61516879D01*
X150873706Y-61501114D01*
X150863616Y-61484279D01*
X150855224Y-61466537D01*
X150848612Y-61448057D01*
X150843843Y-61429018D01*
X150840963Y-61409603D01*
X150840000Y-61390000D01*
X150840000Y-60990000D01*
X150840963Y-60970397D01*
X150843843Y-60950982D01*
X150848612Y-60931943D01*
X150855224Y-60913463D01*
X150863616Y-60895721D01*
X150873706Y-60878886D01*
X150885398Y-60863121D01*
X150898579Y-60848579D01*
X150913121Y-60835398D01*
X150928886Y-60823706D01*
X150945721Y-60813616D01*
X150963463Y-60805224D01*
X150981943Y-60798612D01*
X151000982Y-60793843D01*
X151020397Y-60790963D01*
X151040000Y-60790000D01*
X151940000Y-60790000D01*
X151959603Y-60790963D01*
X151959603Y-60790963D01*
G37*
D17*
G04 #@! TO.P,J2,1*
G04 #@! TO.N,VCC*
X151490000Y-61190000D03*
G04 #@! TD*
D16*
G04 #@! TO.N,VCC*
G04 #@! TO.C,J4*
G36*
X146879603Y-60830963D02*
X146899018Y-60833843D01*
X146918057Y-60838612D01*
X146936537Y-60845224D01*
X146954279Y-60853616D01*
X146971114Y-60863706D01*
X146986879Y-60875398D01*
X147001421Y-60888579D01*
X147014602Y-60903121D01*
X147026294Y-60918886D01*
X147036384Y-60935721D01*
X147044776Y-60953463D01*
X147051388Y-60971943D01*
X147056157Y-60990982D01*
X147059037Y-61010397D01*
X147060000Y-61030000D01*
X147060000Y-61430000D01*
X147059037Y-61449603D01*
X147056157Y-61469018D01*
X147051388Y-61488057D01*
X147044776Y-61506537D01*
X147036384Y-61524279D01*
X147026294Y-61541114D01*
X147014602Y-61556879D01*
X147001421Y-61571421D01*
X146986879Y-61584602D01*
X146971114Y-61596294D01*
X146954279Y-61606384D01*
X146936537Y-61614776D01*
X146918057Y-61621388D01*
X146899018Y-61626157D01*
X146879603Y-61629037D01*
X146860000Y-61630000D01*
X145960000Y-61630000D01*
X145940397Y-61629037D01*
X145920982Y-61626157D01*
X145901943Y-61621388D01*
X145883463Y-61614776D01*
X145865721Y-61606384D01*
X145848886Y-61596294D01*
X145833121Y-61584602D01*
X145818579Y-61571421D01*
X145805398Y-61556879D01*
X145793706Y-61541114D01*
X145783616Y-61524279D01*
X145775224Y-61506537D01*
X145768612Y-61488057D01*
X145763843Y-61469018D01*
X145760963Y-61449603D01*
X145760000Y-61430000D01*
X145760000Y-61030000D01*
X145760963Y-61010397D01*
X145763843Y-60990982D01*
X145768612Y-60971943D01*
X145775224Y-60953463D01*
X145783616Y-60935721D01*
X145793706Y-60918886D01*
X145805398Y-60903121D01*
X145818579Y-60888579D01*
X145833121Y-60875398D01*
X145848886Y-60863706D01*
X145865721Y-60853616D01*
X145883463Y-60845224D01*
X145901943Y-60838612D01*
X145920982Y-60833843D01*
X145940397Y-60830963D01*
X145960000Y-60830000D01*
X146860000Y-60830000D01*
X146879603Y-60830963D01*
X146879603Y-60830963D01*
G37*
D17*
G04 #@! TD*
G04 #@! TO.P,J4,1*
G04 #@! TO.N,VCC*
X146410000Y-61230000D03*
D18*
G04 #@! TO.P,J4,2*
G04 #@! TO.N,Earth*
X146410000Y-62480000D03*
G04 #@! TO.P,J4,3*
G04 #@! TO.N,/IN2*
X146410000Y-63730000D03*
G04 #@! TD*
G04 #@! TO.P,J6,3*
G04 #@! TO.N,/IN3*
X141330000Y-63690000D03*
G04 #@! TO.P,J6,2*
G04 #@! TO.N,Earth*
X141330000Y-62440000D03*
D16*
G04 #@! TD*
G04 #@! TO.N,VCC*
G04 #@! TO.C,J6*
G36*
X141799603Y-60790963D02*
X141819018Y-60793843D01*
X141838057Y-60798612D01*
X141856537Y-60805224D01*
X141874279Y-60813616D01*
X141891114Y-60823706D01*
X141906879Y-60835398D01*
X141921421Y-60848579D01*
X141934602Y-60863121D01*
X141946294Y-60878886D01*
X141956384Y-60895721D01*
X141964776Y-60913463D01*
X141971388Y-60931943D01*
X141976157Y-60950982D01*
X141979037Y-60970397D01*
X141980000Y-60990000D01*
X141980000Y-61390000D01*
X141979037Y-61409603D01*
X141976157Y-61429018D01*
X141971388Y-61448057D01*
X141964776Y-61466537D01*
X141956384Y-61484279D01*
X141946294Y-61501114D01*
X141934602Y-61516879D01*
X141921421Y-61531421D01*
X141906879Y-61544602D01*
X141891114Y-61556294D01*
X141874279Y-61566384D01*
X141856537Y-61574776D01*
X141838057Y-61581388D01*
X141819018Y-61586157D01*
X141799603Y-61589037D01*
X141780000Y-61590000D01*
X140880000Y-61590000D01*
X140860397Y-61589037D01*
X140840982Y-61586157D01*
X140821943Y-61581388D01*
X140803463Y-61574776D01*
X140785721Y-61566384D01*
X140768886Y-61556294D01*
X140753121Y-61544602D01*
X140738579Y-61531421D01*
X140725398Y-61516879D01*
X140713706Y-61501114D01*
X140703616Y-61484279D01*
X140695224Y-61466537D01*
X140688612Y-61448057D01*
X140683843Y-61429018D01*
X140680963Y-61409603D01*
X140680000Y-61390000D01*
X140680000Y-60990000D01*
X140680963Y-60970397D01*
X140683843Y-60950982D01*
X140688612Y-60931943D01*
X140695224Y-60913463D01*
X140703616Y-60895721D01*
X140713706Y-60878886D01*
X140725398Y-60863121D01*
X140738579Y-60848579D01*
X140753121Y-60835398D01*
X140768886Y-60823706D01*
X140785721Y-60813616D01*
X140803463Y-60805224D01*
X140821943Y-60798612D01*
X140840982Y-60793843D01*
X140860397Y-60790963D01*
X140880000Y-60790000D01*
X141780000Y-60790000D01*
X141799603Y-60790963D01*
X141799603Y-60790963D01*
G37*
D17*
G04 #@! TO.P,J6,1*
G04 #@! TO.N,VCC*
X141330000Y-61190000D03*
G04 #@! TD*
D16*
G04 #@! TO.N,VCC*
G04 #@! TO.C,J8*
G36*
X136719603Y-60790963D02*
X136739018Y-60793843D01*
X136758057Y-60798612D01*
X136776537Y-60805224D01*
X136794279Y-60813616D01*
X136811114Y-60823706D01*
X136826879Y-60835398D01*
X136841421Y-60848579D01*
X136854602Y-60863121D01*
X136866294Y-60878886D01*
X136876384Y-60895721D01*
X136884776Y-60913463D01*
X136891388Y-60931943D01*
X136896157Y-60950982D01*
X136899037Y-60970397D01*
X136900000Y-60990000D01*
X136900000Y-61390000D01*
X136899037Y-61409603D01*
X136896157Y-61429018D01*
X136891388Y-61448057D01*
X136884776Y-61466537D01*
X136876384Y-61484279D01*
X136866294Y-61501114D01*
X136854602Y-61516879D01*
X136841421Y-61531421D01*
X136826879Y-61544602D01*
X136811114Y-61556294D01*
X136794279Y-61566384D01*
X136776537Y-61574776D01*
X136758057Y-61581388D01*
X136739018Y-61586157D01*
X136719603Y-61589037D01*
X136700000Y-61590000D01*
X135800000Y-61590000D01*
X135780397Y-61589037D01*
X135760982Y-61586157D01*
X135741943Y-61581388D01*
X135723463Y-61574776D01*
X135705721Y-61566384D01*
X135688886Y-61556294D01*
X135673121Y-61544602D01*
X135658579Y-61531421D01*
X135645398Y-61516879D01*
X135633706Y-61501114D01*
X135623616Y-61484279D01*
X135615224Y-61466537D01*
X135608612Y-61448057D01*
X135603843Y-61429018D01*
X135600963Y-61409603D01*
X135600000Y-61390000D01*
X135600000Y-60990000D01*
X135600963Y-60970397D01*
X135603843Y-60950982D01*
X135608612Y-60931943D01*
X135615224Y-60913463D01*
X135623616Y-60895721D01*
X135633706Y-60878886D01*
X135645398Y-60863121D01*
X135658579Y-60848579D01*
X135673121Y-60835398D01*
X135688886Y-60823706D01*
X135705721Y-60813616D01*
X135723463Y-60805224D01*
X135741943Y-60798612D01*
X135760982Y-60793843D01*
X135780397Y-60790963D01*
X135800000Y-60790000D01*
X136700000Y-60790000D01*
X136719603Y-60790963D01*
X136719603Y-60790963D01*
G37*
D17*
G04 #@! TD*
G04 #@! TO.P,J8,1*
G04 #@! TO.N,VCC*
X136250000Y-61190000D03*
D18*
G04 #@! TO.P,J8,2*
G04 #@! TO.N,Earth*
X136250000Y-62440000D03*
G04 #@! TO.P,J8,3*
G04 #@! TO.N,/IN4*
X136250000Y-63690000D03*
G04 #@! TD*
D16*
G04 #@! TO.N,VCC*
G04 #@! TO.C,J10*
G36*
X184979603Y-68410963D02*
X184999018Y-68413843D01*
X185018057Y-68418612D01*
X185036537Y-68425224D01*
X185054279Y-68433616D01*
X185071114Y-68443706D01*
X185086879Y-68455398D01*
X185101421Y-68468579D01*
X185114602Y-68483121D01*
X185126294Y-68498886D01*
X185136384Y-68515721D01*
X185144776Y-68533463D01*
X185151388Y-68551943D01*
X185156157Y-68570982D01*
X185159037Y-68590397D01*
X185160000Y-68610000D01*
X185160000Y-69010000D01*
X185159037Y-69029603D01*
X185156157Y-69049018D01*
X185151388Y-69068057D01*
X185144776Y-69086537D01*
X185136384Y-69104279D01*
X185126294Y-69121114D01*
X185114602Y-69136879D01*
X185101421Y-69151421D01*
X185086879Y-69164602D01*
X185071114Y-69176294D01*
X185054279Y-69186384D01*
X185036537Y-69194776D01*
X185018057Y-69201388D01*
X184999018Y-69206157D01*
X184979603Y-69209037D01*
X184960000Y-69210000D01*
X184060000Y-69210000D01*
X184040397Y-69209037D01*
X184020982Y-69206157D01*
X184001943Y-69201388D01*
X183983463Y-69194776D01*
X183965721Y-69186384D01*
X183948886Y-69176294D01*
X183933121Y-69164602D01*
X183918579Y-69151421D01*
X183905398Y-69136879D01*
X183893706Y-69121114D01*
X183883616Y-69104279D01*
X183875224Y-69086537D01*
X183868612Y-69068057D01*
X183863843Y-69049018D01*
X183860963Y-69029603D01*
X183860000Y-69010000D01*
X183860000Y-68610000D01*
X183860963Y-68590397D01*
X183863843Y-68570982D01*
X183868612Y-68551943D01*
X183875224Y-68533463D01*
X183883616Y-68515721D01*
X183893706Y-68498886D01*
X183905398Y-68483121D01*
X183918579Y-68468579D01*
X183933121Y-68455398D01*
X183948886Y-68443706D01*
X183965721Y-68433616D01*
X183983463Y-68425224D01*
X184001943Y-68418612D01*
X184020982Y-68413843D01*
X184040397Y-68410963D01*
X184060000Y-68410000D01*
X184960000Y-68410000D01*
X184979603Y-68410963D01*
X184979603Y-68410963D01*
G37*
D17*
G04 #@! TD*
G04 #@! TO.P,J10,1*
G04 #@! TO.N,VCC*
X184510000Y-68810000D03*
D18*
G04 #@! TO.P,J10,2*
G04 #@! TO.N,Earth*
X184510000Y-67560000D03*
G04 #@! TO.P,J10,3*
G04 #@! TO.N,/OUT1*
X184510000Y-66310000D03*
G04 #@! TD*
G04 #@! TO.P,J12,3*
G04 #@! TO.N,/OUT2*
X179430000Y-66310000D03*
G04 #@! TO.P,J12,2*
G04 #@! TO.N,Earth*
X179430000Y-67560000D03*
D16*
G04 #@! TD*
G04 #@! TO.N,VCC*
G04 #@! TO.C,J12*
G36*
X179899603Y-68410963D02*
X179919018Y-68413843D01*
X179938057Y-68418612D01*
X179956537Y-68425224D01*
X179974279Y-68433616D01*
X179991114Y-68443706D01*
X180006879Y-68455398D01*
X180021421Y-68468579D01*
X180034602Y-68483121D01*
X180046294Y-68498886D01*
X180056384Y-68515721D01*
X180064776Y-68533463D01*
X180071388Y-68551943D01*
X180076157Y-68570982D01*
X180079037Y-68590397D01*
X180080000Y-68610000D01*
X180080000Y-69010000D01*
X180079037Y-69029603D01*
X180076157Y-69049018D01*
X180071388Y-69068057D01*
X180064776Y-69086537D01*
X180056384Y-69104279D01*
X180046294Y-69121114D01*
X180034602Y-69136879D01*
X180021421Y-69151421D01*
X180006879Y-69164602D01*
X179991114Y-69176294D01*
X179974279Y-69186384D01*
X179956537Y-69194776D01*
X179938057Y-69201388D01*
X179919018Y-69206157D01*
X179899603Y-69209037D01*
X179880000Y-69210000D01*
X178980000Y-69210000D01*
X178960397Y-69209037D01*
X178940982Y-69206157D01*
X178921943Y-69201388D01*
X178903463Y-69194776D01*
X178885721Y-69186384D01*
X178868886Y-69176294D01*
X178853121Y-69164602D01*
X178838579Y-69151421D01*
X178825398Y-69136879D01*
X178813706Y-69121114D01*
X178803616Y-69104279D01*
X178795224Y-69086537D01*
X178788612Y-69068057D01*
X178783843Y-69049018D01*
X178780963Y-69029603D01*
X178780000Y-69010000D01*
X178780000Y-68610000D01*
X178780963Y-68590397D01*
X178783843Y-68570982D01*
X178788612Y-68551943D01*
X178795224Y-68533463D01*
X178803616Y-68515721D01*
X178813706Y-68498886D01*
X178825398Y-68483121D01*
X178838579Y-68468579D01*
X178853121Y-68455398D01*
X178868886Y-68443706D01*
X178885721Y-68433616D01*
X178903463Y-68425224D01*
X178921943Y-68418612D01*
X178940982Y-68413843D01*
X178960397Y-68410963D01*
X178980000Y-68410000D01*
X179880000Y-68410000D01*
X179899603Y-68410963D01*
X179899603Y-68410963D01*
G37*
D17*
G04 #@! TO.P,J12,1*
G04 #@! TO.N,VCC*
X179430000Y-68810000D03*
G04 #@! TD*
D16*
G04 #@! TO.N,VCC*
G04 #@! TO.C,J14*
G36*
X174819603Y-68410963D02*
X174839018Y-68413843D01*
X174858057Y-68418612D01*
X174876537Y-68425224D01*
X174894279Y-68433616D01*
X174911114Y-68443706D01*
X174926879Y-68455398D01*
X174941421Y-68468579D01*
X174954602Y-68483121D01*
X174966294Y-68498886D01*
X174976384Y-68515721D01*
X174984776Y-68533463D01*
X174991388Y-68551943D01*
X174996157Y-68570982D01*
X174999037Y-68590397D01*
X175000000Y-68610000D01*
X175000000Y-69010000D01*
X174999037Y-69029603D01*
X174996157Y-69049018D01*
X174991388Y-69068057D01*
X174984776Y-69086537D01*
X174976384Y-69104279D01*
X174966294Y-69121114D01*
X174954602Y-69136879D01*
X174941421Y-69151421D01*
X174926879Y-69164602D01*
X174911114Y-69176294D01*
X174894279Y-69186384D01*
X174876537Y-69194776D01*
X174858057Y-69201388D01*
X174839018Y-69206157D01*
X174819603Y-69209037D01*
X174800000Y-69210000D01*
X173900000Y-69210000D01*
X173880397Y-69209037D01*
X173860982Y-69206157D01*
X173841943Y-69201388D01*
X173823463Y-69194776D01*
X173805721Y-69186384D01*
X173788886Y-69176294D01*
X173773121Y-69164602D01*
X173758579Y-69151421D01*
X173745398Y-69136879D01*
X173733706Y-69121114D01*
X173723616Y-69104279D01*
X173715224Y-69086537D01*
X173708612Y-69068057D01*
X173703843Y-69049018D01*
X173700963Y-69029603D01*
X173700000Y-69010000D01*
X173700000Y-68610000D01*
X173700963Y-68590397D01*
X173703843Y-68570982D01*
X173708612Y-68551943D01*
X173715224Y-68533463D01*
X173723616Y-68515721D01*
X173733706Y-68498886D01*
X173745398Y-68483121D01*
X173758579Y-68468579D01*
X173773121Y-68455398D01*
X173788886Y-68443706D01*
X173805721Y-68433616D01*
X173823463Y-68425224D01*
X173841943Y-68418612D01*
X173860982Y-68413843D01*
X173880397Y-68410963D01*
X173900000Y-68410000D01*
X174800000Y-68410000D01*
X174819603Y-68410963D01*
X174819603Y-68410963D01*
G37*
D17*
G04 #@! TD*
G04 #@! TO.P,J14,1*
G04 #@! TO.N,VCC*
X174350000Y-68810000D03*
D18*
G04 #@! TO.P,J14,2*
G04 #@! TO.N,Earth*
X174350000Y-67560000D03*
G04 #@! TO.P,J14,3*
G04 #@! TO.N,/OUT3*
X174350000Y-66310000D03*
G04 #@! TD*
G04 #@! TO.P,J16,3*
G04 #@! TO.N,/OUT4*
X169270000Y-66310000D03*
G04 #@! TO.P,J16,2*
G04 #@! TO.N,Earth*
X169270000Y-67560000D03*
D16*
G04 #@! TD*
G04 #@! TO.N,VCC*
G04 #@! TO.C,J16*
G36*
X169739603Y-68410963D02*
X169759018Y-68413843D01*
X169778057Y-68418612D01*
X169796537Y-68425224D01*
X169814279Y-68433616D01*
X169831114Y-68443706D01*
X169846879Y-68455398D01*
X169861421Y-68468579D01*
X169874602Y-68483121D01*
X169886294Y-68498886D01*
X169896384Y-68515721D01*
X169904776Y-68533463D01*
X169911388Y-68551943D01*
X169916157Y-68570982D01*
X169919037Y-68590397D01*
X169920000Y-68610000D01*
X169920000Y-69010000D01*
X169919037Y-69029603D01*
X169916157Y-69049018D01*
X169911388Y-69068057D01*
X169904776Y-69086537D01*
X169896384Y-69104279D01*
X169886294Y-69121114D01*
X169874602Y-69136879D01*
X169861421Y-69151421D01*
X169846879Y-69164602D01*
X169831114Y-69176294D01*
X169814279Y-69186384D01*
X169796537Y-69194776D01*
X169778057Y-69201388D01*
X169759018Y-69206157D01*
X169739603Y-69209037D01*
X169720000Y-69210000D01*
X168820000Y-69210000D01*
X168800397Y-69209037D01*
X168780982Y-69206157D01*
X168761943Y-69201388D01*
X168743463Y-69194776D01*
X168725721Y-69186384D01*
X168708886Y-69176294D01*
X168693121Y-69164602D01*
X168678579Y-69151421D01*
X168665398Y-69136879D01*
X168653706Y-69121114D01*
X168643616Y-69104279D01*
X168635224Y-69086537D01*
X168628612Y-69068057D01*
X168623843Y-69049018D01*
X168620963Y-69029603D01*
X168620000Y-69010000D01*
X168620000Y-68610000D01*
X168620963Y-68590397D01*
X168623843Y-68570982D01*
X168628612Y-68551943D01*
X168635224Y-68533463D01*
X168643616Y-68515721D01*
X168653706Y-68498886D01*
X168665398Y-68483121D01*
X168678579Y-68468579D01*
X168693121Y-68455398D01*
X168708886Y-68443706D01*
X168725721Y-68433616D01*
X168743463Y-68425224D01*
X168761943Y-68418612D01*
X168780982Y-68413843D01*
X168800397Y-68410963D01*
X168820000Y-68410000D01*
X169720000Y-68410000D01*
X169739603Y-68410963D01*
X169739603Y-68410963D01*
G37*
D17*
G04 #@! TO.P,J16,1*
G04 #@! TO.N,VCC*
X169270000Y-68810000D03*
G04 #@! TD*
D16*
G04 #@! TO.N,Net-(D1-Pad2)*
G04 #@! TO.C,J23*
G36*
X139259603Y-100160963D02*
X139279018Y-100163843D01*
X139298057Y-100168612D01*
X139316537Y-100175224D01*
X139334279Y-100183616D01*
X139351114Y-100193706D01*
X139366879Y-100205398D01*
X139381421Y-100218579D01*
X139394602Y-100233121D01*
X139406294Y-100248886D01*
X139416384Y-100265721D01*
X139424776Y-100283463D01*
X139431388Y-100301943D01*
X139436157Y-100320982D01*
X139439037Y-100340397D01*
X139440000Y-100360000D01*
X139440000Y-100760000D01*
X139439037Y-100779603D01*
X139436157Y-100799018D01*
X139431388Y-100818057D01*
X139424776Y-100836537D01*
X139416384Y-100854279D01*
X139406294Y-100871114D01*
X139394602Y-100886879D01*
X139381421Y-100901421D01*
X139366879Y-100914602D01*
X139351114Y-100926294D01*
X139334279Y-100936384D01*
X139316537Y-100944776D01*
X139298057Y-100951388D01*
X139279018Y-100956157D01*
X139259603Y-100959037D01*
X139240000Y-100960000D01*
X138340000Y-100960000D01*
X138320397Y-100959037D01*
X138300982Y-100956157D01*
X138281943Y-100951388D01*
X138263463Y-100944776D01*
X138245721Y-100936384D01*
X138228886Y-100926294D01*
X138213121Y-100914602D01*
X138198579Y-100901421D01*
X138185398Y-100886879D01*
X138173706Y-100871114D01*
X138163616Y-100854279D01*
X138155224Y-100836537D01*
X138148612Y-100818057D01*
X138143843Y-100799018D01*
X138140963Y-100779603D01*
X138140000Y-100760000D01*
X138140000Y-100360000D01*
X138140963Y-100340397D01*
X138143843Y-100320982D01*
X138148612Y-100301943D01*
X138155224Y-100283463D01*
X138163616Y-100265721D01*
X138173706Y-100248886D01*
X138185398Y-100233121D01*
X138198579Y-100218579D01*
X138213121Y-100205398D01*
X138228886Y-100193706D01*
X138245721Y-100183616D01*
X138263463Y-100175224D01*
X138281943Y-100168612D01*
X138300982Y-100163843D01*
X138320397Y-100160963D01*
X138340000Y-100160000D01*
X139240000Y-100160000D01*
X139259603Y-100160963D01*
X139259603Y-100160963D01*
G37*
D17*
G04 #@! TD*
G04 #@! TO.P,J23,1*
G04 #@! TO.N,Net-(D1-Pad2)*
X138790000Y-100560000D03*
D18*
G04 #@! TO.P,J23,2*
G04 #@! TO.N,Earth*
X138790000Y-99310000D03*
G04 #@! TO.P,J23,3*
G04 #@! TO.N,Net-(D2-Pad2)*
X138790000Y-98060000D03*
G04 #@! TD*
D10*
G04 #@! TO.P,REF\002A\002A,1*
G04 #@! TO.N,Earth*
X189590000Y-109450000D03*
G04 #@! TD*
D19*
G04 #@! TO.N,VCC*
X181560000Y-98020000D03*
G04 #@! TO.N,Earth*
X167250000Y-73150000D03*
G04 #@! TO.N,/PWM_CH1*
X157900000Y-63750000D03*
G04 #@! TO.N,/PWM_CH2*
X157700000Y-62350000D03*
G04 #@! TO.N,/PWM_CH3*
X153900000Y-61150000D03*
G04 #@! TO.N,/PWM_CH4*
X152900000Y-59950000D03*
G04 #@! TD*
D20*
G04 #@! TO.N,+5V*
X182720000Y-110700000D02*
X187050000Y-106370000D01*
X181970000Y-110700000D02*
X182720000Y-110700000D01*
X187050000Y-101710000D02*
X189410000Y-99350000D01*
X189410000Y-99350000D02*
X190860000Y-99350000D01*
X187050000Y-106370000D02*
X187050000Y-101710000D01*
X190860000Y-63730000D02*
X190860000Y-67600000D01*
D21*
X141330000Y-76430000D02*
X141330000Y-83720000D01*
X141330000Y-83720000D02*
X134500000Y-90550000D01*
X135500000Y-110720000D02*
X136250000Y-110720000D01*
X134500000Y-109720000D02*
X135500000Y-110720000D01*
X134500000Y-90550000D02*
X134500000Y-109720000D01*
G04 #@! TO.N,VCC*
X168520000Y-68810000D02*
X158260000Y-58550000D01*
X169270000Y-68810000D02*
X168520000Y-68810000D01*
X158260000Y-58550000D02*
X152300000Y-58550000D01*
X151490000Y-59360000D02*
X151490000Y-61190000D01*
X152300000Y-58550000D02*
X151490000Y-59360000D01*
X186500000Y-70800000D02*
X184510000Y-68810000D01*
X186500000Y-78350000D02*
X186500000Y-70800000D01*
X188689964Y-98020000D02*
X192500000Y-94209964D01*
X192500000Y-94209964D02*
X192500000Y-84350000D01*
X181560000Y-98020000D02*
X188689964Y-98020000D01*
X192500000Y-84350000D02*
X186500000Y-78350000D01*
G04 #@! TO.N,/IN1*
X149077194Y-60047194D02*
X146410000Y-57380000D01*
X150240000Y-63690000D02*
X149077194Y-62527194D01*
X149077194Y-62527194D02*
X149077194Y-60047194D01*
X151490000Y-63690000D02*
X150240000Y-63690000D01*
G04 #@! TO.N,/IN2*
X143870000Y-62440000D02*
X143870000Y-58511370D01*
X145160000Y-63730000D02*
X143870000Y-62440000D01*
X143870000Y-58511370D02*
X143870000Y-57380000D01*
X146410000Y-63730000D02*
X145160000Y-63730000D01*
G04 #@! TO.N,/IN3*
X141330000Y-58511370D02*
X141330000Y-57380000D01*
X139700000Y-60141370D02*
X141330000Y-58511370D01*
X139700000Y-63310000D02*
X139700000Y-60141370D01*
X140080000Y-63690000D02*
X139700000Y-63310000D01*
X141330000Y-63690000D02*
X140080000Y-63690000D01*
G04 #@! TO.N,/IN4*
X138790000Y-62400000D02*
X138790000Y-57380000D01*
X137500000Y-63690000D02*
X138790000Y-62400000D01*
X136250000Y-63690000D02*
X137500000Y-63690000D01*
G04 #@! TO.N,/CH1*
X188060000Y-91710000D02*
X174350000Y-78000000D01*
X174350000Y-78000000D02*
X174350000Y-76430000D01*
X190860000Y-91710000D02*
X188060000Y-91710000D01*
G04 #@! TO.N,/CH2*
X176890000Y-78740000D02*
X176890000Y-76430000D01*
X188610000Y-90460000D02*
X176890000Y-78740000D01*
X190860000Y-90460000D02*
X188610000Y-90460000D01*
G04 #@! TO.N,/CH3*
X179430000Y-76430000D02*
X179430000Y-79680000D01*
X179430000Y-79680000D02*
X188960000Y-89210000D01*
X188960000Y-89210000D02*
X190860000Y-89210000D01*
G04 #@! TO.N,/CH4*
X181970000Y-76430000D02*
X181970000Y-80820000D01*
X181970000Y-80820000D02*
X189110000Y-87960000D01*
X189110000Y-87960000D02*
X190860000Y-87960000D01*
G04 #@! TO.N,/CH5*
X189460000Y-86710000D02*
X190860000Y-86710000D01*
X184510000Y-77507630D02*
X184500000Y-77517630D01*
X184500000Y-81750000D02*
X189460000Y-86710000D01*
X184500000Y-77517630D02*
X184500000Y-81750000D01*
X184510000Y-76430000D02*
X184510000Y-77507630D01*
D20*
G04 #@! TO.N,/AI8*
X176640000Y-108220000D02*
X176890000Y-108220000D01*
X175330000Y-106910000D02*
X176640000Y-108220000D01*
X169270000Y-106910000D02*
X175330000Y-106910000D01*
X166730000Y-104370000D02*
X169270000Y-106910000D01*
D21*
G04 #@! TO.N,+3V3*
X179430000Y-91670000D02*
X177710000Y-89950000D01*
X137970000Y-89950000D02*
X136250000Y-91670000D01*
X177710000Y-89950000D02*
X137970000Y-89950000D01*
G04 #@! TO.N,/PWM_CH1*
X151490000Y-76430000D02*
X151490000Y-70160000D01*
X151490000Y-70160000D02*
X157900000Y-63750000D01*
G04 #@! TO.N,/PWM_CH2*
X148950000Y-76430000D02*
X148950000Y-71100000D01*
X148950000Y-71100000D02*
X157700000Y-62350000D01*
G04 #@! TO.N,/PWM_CH3*
X146410000Y-76430000D02*
X146410000Y-72040000D01*
X153900000Y-64550000D02*
X153900000Y-63750000D01*
X146410000Y-72040000D02*
X153900000Y-64550000D01*
X153900000Y-61150000D02*
X153900000Y-63750000D01*
G04 #@! TO.N,/PWM_CH4*
X143870000Y-76430000D02*
X143870000Y-73180000D01*
X143870000Y-73180000D02*
X152900000Y-64150000D01*
X152900000Y-64150000D02*
X152900000Y-59950000D01*
G04 #@! TD*
D22*
G04 #@! TO.N,Earth*
G36*
X173165680Y-77221337D02*
X173415000Y-77470657D01*
X173415000Y-77907914D01*
X173396683Y-78000000D01*
X173415000Y-78092085D01*
X173469250Y-78364818D01*
X173675903Y-78674097D01*
X173753972Y-78726261D01*
X187333741Y-92306031D01*
X187385903Y-92384097D01*
X187463969Y-92436259D01*
X187695181Y-92590750D01*
X188060000Y-92663317D01*
X188152086Y-92645000D01*
X189617381Y-92645000D01*
X189554724Y-92960000D01*
X189635052Y-93363837D01*
X189684353Y-93437622D01*
X189671673Y-93450302D01*
X189575000Y-93683691D01*
X189575000Y-93924250D01*
X189733750Y-94083000D01*
X190733000Y-94083000D01*
X190733000Y-94063000D01*
X190987000Y-94063000D01*
X190987000Y-94083000D01*
X191007000Y-94083000D01*
X191007000Y-94337000D01*
X190987000Y-94337000D01*
X190987000Y-94357000D01*
X190733000Y-94357000D01*
X190733000Y-94337000D01*
X189733750Y-94337000D01*
X189575000Y-94495750D01*
X189575000Y-94736309D01*
X189671673Y-94969698D01*
X189850301Y-95148327D01*
X190083690Y-95245000D01*
X190142675Y-95245000D01*
X188302675Y-97085000D01*
X181876639Y-97085000D01*
X181755929Y-97035000D01*
X181364071Y-97035000D01*
X181002042Y-97184958D01*
X180724958Y-97462042D01*
X180575000Y-97824071D01*
X180575000Y-98215929D01*
X180724958Y-98577958D01*
X181002042Y-98855042D01*
X181364071Y-99005000D01*
X181755929Y-99005000D01*
X181876639Y-98955000D01*
X188341289Y-98955000D01*
X186390225Y-100906065D01*
X186303808Y-100963807D01*
X186246066Y-101050224D01*
X186075052Y-101306164D01*
X185994724Y-101710000D01*
X186015001Y-101811939D01*
X186015000Y-105941289D01*
X183077489Y-108878801D01*
X183045802Y-108827050D01*
X183194948Y-108603837D01*
X183275276Y-108200000D01*
X183194948Y-107796163D01*
X182966193Y-107453807D01*
X182623837Y-107225052D01*
X182321935Y-107165000D01*
X181618065Y-107165000D01*
X181316163Y-107225052D01*
X180973807Y-107453807D01*
X180745052Y-107796163D01*
X180664724Y-108200000D01*
X180745052Y-108603837D01*
X180894198Y-108827050D01*
X180735013Y-109087031D01*
X180725334Y-109163877D01*
X180853002Y-109323000D01*
X181843000Y-109323000D01*
X181843000Y-109303000D01*
X182097000Y-109303000D01*
X182097000Y-109323000D01*
X182117000Y-109323000D01*
X182117000Y-109577000D01*
X182097000Y-109577000D01*
X182097000Y-109597000D01*
X181843000Y-109597000D01*
X181843000Y-109577000D01*
X180853002Y-109577000D01*
X180725334Y-109736123D01*
X180735013Y-109812969D01*
X180851891Y-110003854D01*
X180737068Y-110175699D01*
X180672560Y-110500000D01*
X180672560Y-110900000D01*
X180737068Y-111224301D01*
X180920769Y-111499231D01*
X181195699Y-111682932D01*
X181520000Y-111747440D01*
X182420000Y-111747440D01*
X182482540Y-111735000D01*
X182618066Y-111735000D01*
X182720000Y-111755276D01*
X182821934Y-111735000D01*
X182821935Y-111735000D01*
X183123837Y-111674948D01*
X183431488Y-111469382D01*
X187750223Y-111469382D01*
X187995368Y-111860888D01*
X189039360Y-112287609D01*
X190167181Y-112282330D01*
X191184632Y-111860888D01*
X191429777Y-111469382D01*
X189590000Y-109629605D01*
X187750223Y-111469382D01*
X183431488Y-111469382D01*
X183466193Y-111446193D01*
X183523937Y-111359773D01*
X185984350Y-108899360D01*
X186752391Y-108899360D01*
X186757670Y-110027181D01*
X187179112Y-111044632D01*
X187570618Y-111289777D01*
X189410395Y-109450000D01*
X189769605Y-109450000D01*
X191609382Y-111289777D01*
X192000888Y-111044632D01*
X192427609Y-110000640D01*
X192422330Y-108872819D01*
X192000888Y-107855368D01*
X191609382Y-107610223D01*
X189769605Y-109450000D01*
X189410395Y-109450000D01*
X187570618Y-107610223D01*
X187179112Y-107855368D01*
X186752391Y-108899360D01*
X185984350Y-108899360D01*
X187453092Y-107430618D01*
X187750223Y-107430618D01*
X189590000Y-109270395D01*
X191429777Y-107430618D01*
X191184632Y-107039112D01*
X190140640Y-106612391D01*
X189012819Y-106617670D01*
X187995368Y-107039112D01*
X187750223Y-107430618D01*
X187453092Y-107430618D01*
X187709776Y-107173935D01*
X187796193Y-107116193D01*
X188024948Y-106773837D01*
X188085000Y-106471935D01*
X188085000Y-106471934D01*
X188105276Y-106370000D01*
X188085000Y-106268066D01*
X188085000Y-102138710D01*
X189575000Y-100648711D01*
X189575000Y-100727002D01*
X189743000Y-100727002D01*
X189615334Y-100886123D01*
X189625013Y-100962969D01*
X189784198Y-101222950D01*
X189635052Y-101446163D01*
X189554724Y-101850000D01*
X189635052Y-102253837D01*
X189738590Y-102408793D01*
X189627068Y-102575699D01*
X189562560Y-102900000D01*
X189562560Y-103300000D01*
X189627068Y-103624301D01*
X189810769Y-103899231D01*
X190085699Y-104082932D01*
X190410000Y-104147440D01*
X191310000Y-104147440D01*
X191634301Y-104082932D01*
X191909231Y-103899231D01*
X192092932Y-103624301D01*
X192157440Y-103300000D01*
X192157440Y-102900000D01*
X192092932Y-102575699D01*
X191981410Y-102408793D01*
X192084948Y-102253837D01*
X192165276Y-101850000D01*
X192084948Y-101446163D01*
X191935802Y-101222950D01*
X192094987Y-100962969D01*
X192104666Y-100886123D01*
X191976998Y-100727000D01*
X190987000Y-100727000D01*
X190987000Y-100747000D01*
X190733000Y-100747000D01*
X190733000Y-100727000D01*
X190713000Y-100727000D01*
X190713000Y-100473000D01*
X190733000Y-100473000D01*
X190733000Y-100453000D01*
X190987000Y-100453000D01*
X190987000Y-100473000D01*
X191976998Y-100473000D01*
X192104666Y-100313877D01*
X192094987Y-100237031D01*
X191935802Y-99977050D01*
X192084948Y-99753837D01*
X192165276Y-99350000D01*
X192084948Y-98946163D01*
X191856193Y-98603807D01*
X191513837Y-98375052D01*
X191211935Y-98315000D01*
X189717253Y-98315000D01*
X192690000Y-95342253D01*
X192690000Y-112550000D01*
X134420000Y-112550000D01*
X134420000Y-110962289D01*
X134773739Y-111316028D01*
X134825903Y-111394097D01*
X135135181Y-111600750D01*
X135402288Y-111653881D01*
X135475699Y-111702932D01*
X135800000Y-111767440D01*
X136700000Y-111767440D01*
X137024301Y-111702932D01*
X137299231Y-111519231D01*
X137482932Y-111244301D01*
X137547440Y-110920000D01*
X137547440Y-110520000D01*
X137543462Y-110500000D01*
X140032560Y-110500000D01*
X140032560Y-110900000D01*
X140097068Y-111224301D01*
X140280769Y-111499231D01*
X140555699Y-111682932D01*
X140880000Y-111747440D01*
X141780000Y-111747440D01*
X142104301Y-111682932D01*
X142379231Y-111499231D01*
X142562932Y-111224301D01*
X142627440Y-110900000D01*
X142627440Y-110520000D01*
X145112560Y-110520000D01*
X145112560Y-110920000D01*
X145177068Y-111244301D01*
X145360769Y-111519231D01*
X145635699Y-111702932D01*
X145960000Y-111767440D01*
X146860000Y-111767440D01*
X147184301Y-111702932D01*
X147459231Y-111519231D01*
X147642932Y-111244301D01*
X147707440Y-110920000D01*
X147707440Y-110520000D01*
X150192560Y-110520000D01*
X150192560Y-110920000D01*
X150257068Y-111244301D01*
X150440769Y-111519231D01*
X150715699Y-111702932D01*
X151040000Y-111767440D01*
X151940000Y-111767440D01*
X152264301Y-111702932D01*
X152539231Y-111519231D01*
X152722932Y-111244301D01*
X152787440Y-110920000D01*
X152787440Y-110520000D01*
X155272560Y-110520000D01*
X155272560Y-110920000D01*
X155337068Y-111244301D01*
X155520769Y-111519231D01*
X155795699Y-111702932D01*
X156120000Y-111767440D01*
X157020000Y-111767440D01*
X157344301Y-111702932D01*
X157619231Y-111519231D01*
X157802932Y-111244301D01*
X157867440Y-110920000D01*
X157867440Y-110520000D01*
X160352560Y-110520000D01*
X160352560Y-110920000D01*
X160417068Y-111244301D01*
X160600769Y-111519231D01*
X160875699Y-111702932D01*
X161200000Y-111767440D01*
X162100000Y-111767440D01*
X162424301Y-111702932D01*
X162699231Y-111519231D01*
X162882932Y-111244301D01*
X162947440Y-110920000D01*
X162947440Y-110520000D01*
X165432560Y-110520000D01*
X165432560Y-110920000D01*
X165497068Y-111244301D01*
X165680769Y-111519231D01*
X165955699Y-111702932D01*
X166280000Y-111767440D01*
X167180000Y-111767440D01*
X167504301Y-111702932D01*
X167779231Y-111519231D01*
X167962932Y-111244301D01*
X168027440Y-110920000D01*
X168027440Y-110520000D01*
X170512560Y-110520000D01*
X170512560Y-110920000D01*
X170577068Y-111244301D01*
X170760769Y-111519231D01*
X171035699Y-111702932D01*
X171360000Y-111767440D01*
X172260000Y-111767440D01*
X172584301Y-111702932D01*
X172859231Y-111519231D01*
X173042932Y-111244301D01*
X173107440Y-110920000D01*
X173107440Y-110520000D01*
X175592560Y-110520000D01*
X175592560Y-110920000D01*
X175657068Y-111244301D01*
X175840769Y-111519231D01*
X176115699Y-111702932D01*
X176440000Y-111767440D01*
X177340000Y-111767440D01*
X177664301Y-111702932D01*
X177939231Y-111519231D01*
X178122932Y-111244301D01*
X178187440Y-110920000D01*
X178187440Y-110520000D01*
X178122932Y-110195699D01*
X178008109Y-110023854D01*
X178124987Y-109832969D01*
X178134666Y-109756123D01*
X178006998Y-109597000D01*
X177017000Y-109597000D01*
X177017000Y-109617000D01*
X176763000Y-109617000D01*
X176763000Y-109597000D01*
X175773002Y-109597000D01*
X175645334Y-109756123D01*
X175655013Y-109832969D01*
X175771891Y-110023854D01*
X175657068Y-110195699D01*
X175592560Y-110520000D01*
X173107440Y-110520000D01*
X173042932Y-110195699D01*
X172928109Y-110023854D01*
X173044987Y-109832969D01*
X173054666Y-109756123D01*
X172926998Y-109597000D01*
X171937000Y-109597000D01*
X171937000Y-109617000D01*
X171683000Y-109617000D01*
X171683000Y-109597000D01*
X170693002Y-109597000D01*
X170565334Y-109756123D01*
X170575013Y-109832969D01*
X170691891Y-110023854D01*
X170577068Y-110195699D01*
X170512560Y-110520000D01*
X168027440Y-110520000D01*
X167962932Y-110195699D01*
X167848109Y-110023854D01*
X167964987Y-109832969D01*
X167974666Y-109756123D01*
X167846998Y-109597000D01*
X166857000Y-109597000D01*
X166857000Y-109617000D01*
X166603000Y-109617000D01*
X166603000Y-109597000D01*
X165613002Y-109597000D01*
X165485334Y-109756123D01*
X165495013Y-109832969D01*
X165611891Y-110023854D01*
X165497068Y-110195699D01*
X165432560Y-110520000D01*
X162947440Y-110520000D01*
X162882932Y-110195699D01*
X162768109Y-110023854D01*
X162884987Y-109832969D01*
X162894666Y-109756123D01*
X162766998Y-109597000D01*
X161777000Y-109597000D01*
X161777000Y-109617000D01*
X161523000Y-109617000D01*
X161523000Y-109597000D01*
X160533002Y-109597000D01*
X160405334Y-109756123D01*
X160415013Y-109832969D01*
X160531891Y-110023854D01*
X160417068Y-110195699D01*
X160352560Y-110520000D01*
X157867440Y-110520000D01*
X157802932Y-110195699D01*
X157688109Y-110023854D01*
X157804987Y-109832969D01*
X157814666Y-109756123D01*
X157686998Y-109597000D01*
X156697000Y-109597000D01*
X156697000Y-109617000D01*
X156443000Y-109617000D01*
X156443000Y-109597000D01*
X155453002Y-109597000D01*
X155325334Y-109756123D01*
X155335013Y-109832969D01*
X155451891Y-110023854D01*
X155337068Y-110195699D01*
X155272560Y-110520000D01*
X152787440Y-110520000D01*
X152722932Y-110195699D01*
X152608109Y-110023854D01*
X152724987Y-109832969D01*
X152734666Y-109756123D01*
X152606998Y-109597000D01*
X151617000Y-109597000D01*
X151617000Y-109617000D01*
X151363000Y-109617000D01*
X151363000Y-109597000D01*
X150373002Y-109597000D01*
X150245334Y-109756123D01*
X150255013Y-109832969D01*
X150371891Y-110023854D01*
X150257068Y-110195699D01*
X150192560Y-110520000D01*
X147707440Y-110520000D01*
X147642932Y-110195699D01*
X147528109Y-110023854D01*
X147644987Y-109832969D01*
X147654666Y-109756123D01*
X147526998Y-109597000D01*
X146537000Y-109597000D01*
X146537000Y-109617000D01*
X146283000Y-109617000D01*
X146283000Y-109597000D01*
X145293002Y-109597000D01*
X145165334Y-109756123D01*
X145175013Y-109832969D01*
X145291891Y-110023854D01*
X145177068Y-110195699D01*
X145112560Y-110520000D01*
X142627440Y-110520000D01*
X142627440Y-110500000D01*
X142562932Y-110175699D01*
X142448109Y-110003854D01*
X142564987Y-109812969D01*
X142574666Y-109736123D01*
X142446998Y-109577000D01*
X141457000Y-109577000D01*
X141457000Y-109597000D01*
X141203000Y-109597000D01*
X141203000Y-109577000D01*
X140213002Y-109577000D01*
X140085334Y-109736123D01*
X140095013Y-109812969D01*
X140211891Y-110003854D01*
X140097068Y-110175699D01*
X140032560Y-110500000D01*
X137543462Y-110500000D01*
X137482932Y-110195699D01*
X137368109Y-110023854D01*
X137484987Y-109832969D01*
X137494666Y-109756123D01*
X137366998Y-109597000D01*
X136377000Y-109597000D01*
X136377000Y-109617000D01*
X136123000Y-109617000D01*
X136123000Y-109597000D01*
X136103000Y-109597000D01*
X136103000Y-109343000D01*
X136123000Y-109343000D01*
X136123000Y-109323000D01*
X136377000Y-109323000D01*
X136377000Y-109343000D01*
X137366998Y-109343000D01*
X137494666Y-109183877D01*
X137484987Y-109107031D01*
X137325802Y-108847050D01*
X137474948Y-108623837D01*
X137555276Y-108220000D01*
X137551298Y-108200000D01*
X140024724Y-108200000D01*
X140105052Y-108603837D01*
X140254198Y-108827050D01*
X140095013Y-109087031D01*
X140085334Y-109163877D01*
X140213002Y-109323000D01*
X141203000Y-109323000D01*
X141203000Y-109303000D01*
X141457000Y-109303000D01*
X141457000Y-109323000D01*
X142446998Y-109323000D01*
X142574666Y-109163877D01*
X142564987Y-109087031D01*
X142405802Y-108827050D01*
X142554948Y-108603837D01*
X142631297Y-108220000D01*
X145104724Y-108220000D01*
X145185052Y-108623837D01*
X145334198Y-108847050D01*
X145175013Y-109107031D01*
X145165334Y-109183877D01*
X145293002Y-109343000D01*
X146283000Y-109343000D01*
X146283000Y-109323000D01*
X146537000Y-109323000D01*
X146537000Y-109343000D01*
X147526998Y-109343000D01*
X147654666Y-109183877D01*
X147644987Y-109107031D01*
X147485802Y-108847050D01*
X147634948Y-108623837D01*
X147715276Y-108220000D01*
X150184724Y-108220000D01*
X150265052Y-108623837D01*
X150414198Y-108847050D01*
X150255013Y-109107031D01*
X150245334Y-109183877D01*
X150373002Y-109343000D01*
X151363000Y-109343000D01*
X151363000Y-109323000D01*
X151617000Y-109323000D01*
X151617000Y-109343000D01*
X152606998Y-109343000D01*
X152734666Y-109183877D01*
X152724987Y-109107031D01*
X152565802Y-108847050D01*
X152714948Y-108623837D01*
X152795276Y-108220000D01*
X155264724Y-108220000D01*
X155345052Y-108623837D01*
X155494198Y-108847050D01*
X155335013Y-109107031D01*
X155325334Y-109183877D01*
X155453002Y-109343000D01*
X156443000Y-109343000D01*
X156443000Y-109323000D01*
X156697000Y-109323000D01*
X156697000Y-109343000D01*
X157686998Y-109343000D01*
X157814666Y-109183877D01*
X157804987Y-109107031D01*
X157645802Y-108847050D01*
X157794948Y-108623837D01*
X157875276Y-108220000D01*
X160344724Y-108220000D01*
X160425052Y-108623837D01*
X160574198Y-108847050D01*
X160415013Y-109107031D01*
X160405334Y-109183877D01*
X160533002Y-109343000D01*
X161523000Y-109343000D01*
X161523000Y-109323000D01*
X161777000Y-109323000D01*
X161777000Y-109343000D01*
X162766998Y-109343000D01*
X162894666Y-109183877D01*
X162884987Y-109107031D01*
X162725802Y-108847050D01*
X162874948Y-108623837D01*
X162955276Y-108220000D01*
X165424724Y-108220000D01*
X165505052Y-108623837D01*
X165654198Y-108847050D01*
X165495013Y-109107031D01*
X165485334Y-109183877D01*
X165613002Y-109343000D01*
X166603000Y-109343000D01*
X166603000Y-109323000D01*
X166857000Y-109323000D01*
X166857000Y-109343000D01*
X167846998Y-109343000D01*
X167974666Y-109183877D01*
X167964987Y-109107031D01*
X167805802Y-108847050D01*
X167954948Y-108623837D01*
X168035276Y-108220000D01*
X167954948Y-107816163D01*
X167726193Y-107473807D01*
X167383837Y-107245052D01*
X167081935Y-107185000D01*
X166378065Y-107185000D01*
X166076163Y-107245052D01*
X165733807Y-107473807D01*
X165505052Y-107816163D01*
X165424724Y-108220000D01*
X162955276Y-108220000D01*
X162874948Y-107816163D01*
X162646193Y-107473807D01*
X162303837Y-107245052D01*
X162001935Y-107185000D01*
X161298065Y-107185000D01*
X160996163Y-107245052D01*
X160653807Y-107473807D01*
X160425052Y-107816163D01*
X160344724Y-108220000D01*
X157875276Y-108220000D01*
X157794948Y-107816163D01*
X157566193Y-107473807D01*
X157223837Y-107245052D01*
X156921935Y-107185000D01*
X156218065Y-107185000D01*
X155916163Y-107245052D01*
X155573807Y-107473807D01*
X155345052Y-107816163D01*
X155264724Y-108220000D01*
X152795276Y-108220000D01*
X152714948Y-107816163D01*
X152486193Y-107473807D01*
X152143837Y-107245052D01*
X151841935Y-107185000D01*
X151138065Y-107185000D01*
X150836163Y-107245052D01*
X150493807Y-107473807D01*
X150265052Y-107816163D01*
X150184724Y-108220000D01*
X147715276Y-108220000D01*
X147634948Y-107816163D01*
X147406193Y-107473807D01*
X147063837Y-107245052D01*
X146761935Y-107185000D01*
X146058065Y-107185000D01*
X145756163Y-107245052D01*
X145413807Y-107473807D01*
X145185052Y-107816163D01*
X145104724Y-108220000D01*
X142631297Y-108220000D01*
X142635276Y-108200000D01*
X142554948Y-107796163D01*
X142326193Y-107453807D01*
X141983837Y-107225052D01*
X141681935Y-107165000D01*
X140978065Y-107165000D01*
X140676163Y-107225052D01*
X140333807Y-107453807D01*
X140105052Y-107796163D01*
X140024724Y-108200000D01*
X137551298Y-108200000D01*
X137474948Y-107816163D01*
X137246193Y-107473807D01*
X136903837Y-107245052D01*
X136601935Y-107185000D01*
X135898065Y-107185000D01*
X135596163Y-107245052D01*
X135435000Y-107352738D01*
X135435000Y-104370000D01*
X144946887Y-104370000D01*
X145058260Y-104929909D01*
X145375423Y-105404577D01*
X145850091Y-105721740D01*
X146268667Y-105805000D01*
X146551333Y-105805000D01*
X146969909Y-105721740D01*
X147444577Y-105404577D01*
X147680000Y-105052242D01*
X147915423Y-105404577D01*
X148390091Y-105721740D01*
X148808667Y-105805000D01*
X149091333Y-105805000D01*
X149509909Y-105721740D01*
X149984577Y-105404577D01*
X150220000Y-105052242D01*
X150455423Y-105404577D01*
X150930091Y-105721740D01*
X151348667Y-105805000D01*
X151631333Y-105805000D01*
X152049909Y-105721740D01*
X152524577Y-105404577D01*
X152760000Y-105052242D01*
X152995423Y-105404577D01*
X153470091Y-105721740D01*
X153888667Y-105805000D01*
X154171333Y-105805000D01*
X154589909Y-105721740D01*
X155064577Y-105404577D01*
X155300000Y-105052242D01*
X155535423Y-105404577D01*
X156010091Y-105721740D01*
X156428667Y-105805000D01*
X156711333Y-105805000D01*
X157129909Y-105721740D01*
X157604577Y-105404577D01*
X157840000Y-105052242D01*
X158075423Y-105404577D01*
X158550091Y-105721740D01*
X158968667Y-105805000D01*
X159251333Y-105805000D01*
X159669909Y-105721740D01*
X160144577Y-105404577D01*
X160380000Y-105052242D01*
X160615423Y-105404577D01*
X161090091Y-105721740D01*
X161508667Y-105805000D01*
X161791333Y-105805000D01*
X162209909Y-105721740D01*
X162684577Y-105404577D01*
X162920000Y-105052242D01*
X163155423Y-105404577D01*
X163630091Y-105721740D01*
X164048667Y-105805000D01*
X164331333Y-105805000D01*
X164749909Y-105721740D01*
X165224577Y-105404577D01*
X165460000Y-105052242D01*
X165695423Y-105404577D01*
X166170091Y-105721740D01*
X166588667Y-105805000D01*
X166701290Y-105805000D01*
X168466065Y-107569776D01*
X168523807Y-107656193D01*
X168866163Y-107884948D01*
X169168065Y-107945000D01*
X169168070Y-107945000D01*
X169269999Y-107965275D01*
X169371929Y-107945000D01*
X170559425Y-107945000D01*
X170504724Y-108220000D01*
X170585052Y-108623837D01*
X170734198Y-108847050D01*
X170575013Y-109107031D01*
X170565334Y-109183877D01*
X170693002Y-109343000D01*
X171683000Y-109343000D01*
X171683000Y-109323000D01*
X171937000Y-109323000D01*
X171937000Y-109343000D01*
X172926998Y-109343000D01*
X173054666Y-109183877D01*
X173044987Y-109107031D01*
X172885802Y-108847050D01*
X173034948Y-108623837D01*
X173115276Y-108220000D01*
X173060575Y-107945000D01*
X174901290Y-107945000D01*
X175810074Y-108853785D01*
X175655013Y-109107031D01*
X175645334Y-109183877D01*
X175773002Y-109343000D01*
X176763000Y-109343000D01*
X176763000Y-109323000D01*
X177017000Y-109323000D01*
X177017000Y-109343000D01*
X178006998Y-109343000D01*
X178134666Y-109183877D01*
X178124987Y-109107031D01*
X177965802Y-108847050D01*
X178114948Y-108623837D01*
X178195276Y-108220000D01*
X178114948Y-107816163D01*
X177886193Y-107473807D01*
X177543837Y-107245052D01*
X177241935Y-107185000D01*
X177068711Y-107185000D01*
X176133937Y-106250227D01*
X176076193Y-106163807D01*
X175733837Y-105935052D01*
X175431935Y-105875000D01*
X175431934Y-105875000D01*
X175330000Y-105854724D01*
X175228066Y-105875000D01*
X169698711Y-105875000D01*
X169592645Y-105768935D01*
X169829909Y-105721740D01*
X170304577Y-105404577D01*
X170621740Y-104929909D01*
X170733113Y-104370000D01*
X170621740Y-103810091D01*
X170304577Y-103335423D01*
X169829909Y-103018260D01*
X169411333Y-102935000D01*
X169128667Y-102935000D01*
X168710091Y-103018260D01*
X168235423Y-103335423D01*
X168000000Y-103687758D01*
X167764577Y-103335423D01*
X167289909Y-103018260D01*
X166871333Y-102935000D01*
X166588667Y-102935000D01*
X166170091Y-103018260D01*
X165695423Y-103335423D01*
X165460000Y-103687758D01*
X165224577Y-103335423D01*
X164749909Y-103018260D01*
X164331333Y-102935000D01*
X164048667Y-102935000D01*
X163630091Y-103018260D01*
X163155423Y-103335423D01*
X162920000Y-103687758D01*
X162684577Y-103335423D01*
X162209909Y-103018260D01*
X161791333Y-102935000D01*
X161508667Y-102935000D01*
X161090091Y-103018260D01*
X160615423Y-103335423D01*
X160380000Y-103687758D01*
X160144577Y-103335423D01*
X159669909Y-103018260D01*
X159251333Y-102935000D01*
X158968667Y-102935000D01*
X158550091Y-103018260D01*
X158075423Y-103335423D01*
X157840000Y-103687758D01*
X157604577Y-103335423D01*
X157129909Y-103018260D01*
X156711333Y-102935000D01*
X156428667Y-102935000D01*
X156010091Y-103018260D01*
X155535423Y-103335423D01*
X155300000Y-103687758D01*
X155064577Y-103335423D01*
X154589909Y-103018260D01*
X154171333Y-102935000D01*
X153888667Y-102935000D01*
X153470091Y-103018260D01*
X152995423Y-103335423D01*
X152760000Y-103687758D01*
X152524577Y-103335423D01*
X152049909Y-103018260D01*
X151631333Y-102935000D01*
X151348667Y-102935000D01*
X150930091Y-103018260D01*
X150455423Y-103335423D01*
X150220000Y-103687758D01*
X149984577Y-103335423D01*
X149509909Y-103018260D01*
X149091333Y-102935000D01*
X148808667Y-102935000D01*
X148390091Y-103018260D01*
X147915423Y-103335423D01*
X147680000Y-103687758D01*
X147444577Y-103335423D01*
X146969909Y-103018260D01*
X146551333Y-102935000D01*
X146268667Y-102935000D01*
X145850091Y-103018260D01*
X145375423Y-103335423D01*
X145058260Y-103810091D01*
X144946887Y-104370000D01*
X135435000Y-104370000D01*
X135435000Y-100360000D01*
X137492560Y-100360000D01*
X137492560Y-100760000D01*
X137557068Y-101084301D01*
X137740769Y-101359231D01*
X138015699Y-101542932D01*
X138340000Y-101607440D01*
X139240000Y-101607440D01*
X139564301Y-101542932D01*
X139839231Y-101359231D01*
X140022932Y-101084301D01*
X140087440Y-100760000D01*
X140087440Y-100360000D01*
X140022932Y-100035699D01*
X139908109Y-99863854D01*
X140024987Y-99672969D01*
X140034666Y-99596123D01*
X139906998Y-99437000D01*
X138917000Y-99437000D01*
X138917000Y-99457000D01*
X138663000Y-99457000D01*
X138663000Y-99437000D01*
X137673002Y-99437000D01*
X137545334Y-99596123D01*
X137555013Y-99672969D01*
X137671891Y-99863854D01*
X137557068Y-100035699D01*
X137492560Y-100360000D01*
X135435000Y-100360000D01*
X135435000Y-98060000D01*
X137484724Y-98060000D01*
X137565052Y-98463837D01*
X137714198Y-98687050D01*
X137555013Y-98947031D01*
X137545334Y-99023877D01*
X137673002Y-99183000D01*
X138663000Y-99183000D01*
X138663000Y-99163000D01*
X138917000Y-99163000D01*
X138917000Y-99183000D01*
X139906998Y-99183000D01*
X140034666Y-99023877D01*
X140024987Y-98947031D01*
X139865802Y-98687050D01*
X140014948Y-98463837D01*
X140095276Y-98060000D01*
X140014948Y-97656163D01*
X139786193Y-97313807D01*
X139443837Y-97085052D01*
X139141935Y-97025000D01*
X138438065Y-97025000D01*
X138136163Y-97085052D01*
X137793807Y-97313807D01*
X137565052Y-97656163D01*
X137484724Y-98060000D01*
X135435000Y-98060000D01*
X135435000Y-96750000D01*
X144946887Y-96750000D01*
X145058260Y-97309909D01*
X145375423Y-97784577D01*
X145850091Y-98101740D01*
X146268667Y-98185000D01*
X146551333Y-98185000D01*
X146969909Y-98101740D01*
X147444577Y-97784577D01*
X147680000Y-97432242D01*
X147915423Y-97784577D01*
X148390091Y-98101740D01*
X148808667Y-98185000D01*
X149091333Y-98185000D01*
X149509909Y-98101740D01*
X149984577Y-97784577D01*
X150220000Y-97432242D01*
X150455423Y-97784577D01*
X150930091Y-98101740D01*
X151348667Y-98185000D01*
X151631333Y-98185000D01*
X152049909Y-98101740D01*
X152524577Y-97784577D01*
X152760000Y-97432242D01*
X152995423Y-97784577D01*
X153470091Y-98101740D01*
X153888667Y-98185000D01*
X154171333Y-98185000D01*
X154589909Y-98101740D01*
X155064577Y-97784577D01*
X155300000Y-97432242D01*
X155535423Y-97784577D01*
X156010091Y-98101740D01*
X156428667Y-98185000D01*
X156711333Y-98185000D01*
X157129909Y-98101740D01*
X157604577Y-97784577D01*
X157840000Y-97432242D01*
X158075423Y-97784577D01*
X158550091Y-98101740D01*
X158968667Y-98185000D01*
X159251333Y-98185000D01*
X159669909Y-98101740D01*
X160144577Y-97784577D01*
X160380000Y-97432242D01*
X160615423Y-97784577D01*
X161090091Y-98101740D01*
X161508667Y-98185000D01*
X161791333Y-98185000D01*
X162209909Y-98101740D01*
X162684577Y-97784577D01*
X162920000Y-97432242D01*
X163155423Y-97784577D01*
X163630091Y-98101740D01*
X164048667Y-98185000D01*
X164331333Y-98185000D01*
X164749909Y-98101740D01*
X165224577Y-97784577D01*
X165460000Y-97432242D01*
X165695423Y-97784577D01*
X166170091Y-98101740D01*
X166588667Y-98185000D01*
X166871333Y-98185000D01*
X167289909Y-98101740D01*
X167764577Y-97784577D01*
X167845215Y-97663894D01*
X167871843Y-97797765D01*
X168012191Y-98007809D01*
X168222235Y-98148157D01*
X168470000Y-98197440D01*
X170070000Y-98197440D01*
X170317765Y-98148157D01*
X170527809Y-98007809D01*
X170668157Y-97797765D01*
X170717440Y-97550000D01*
X170717440Y-95950000D01*
X170668157Y-95702235D01*
X170527809Y-95492191D01*
X170317765Y-95351843D01*
X170070000Y-95302560D01*
X168470000Y-95302560D01*
X168222235Y-95351843D01*
X168012191Y-95492191D01*
X167871843Y-95702235D01*
X167845215Y-95836106D01*
X167764577Y-95715423D01*
X167289909Y-95398260D01*
X166871333Y-95315000D01*
X166588667Y-95315000D01*
X166170091Y-95398260D01*
X165695423Y-95715423D01*
X165460000Y-96067758D01*
X165224577Y-95715423D01*
X164749909Y-95398260D01*
X164331333Y-95315000D01*
X164048667Y-95315000D01*
X163630091Y-95398260D01*
X163155423Y-95715423D01*
X162920000Y-96067758D01*
X162684577Y-95715423D01*
X162209909Y-95398260D01*
X161791333Y-95315000D01*
X161508667Y-95315000D01*
X161090091Y-95398260D01*
X160615423Y-95715423D01*
X160380000Y-96067758D01*
X160144577Y-95715423D01*
X159669909Y-95398260D01*
X159251333Y-95315000D01*
X158968667Y-95315000D01*
X158550091Y-95398260D01*
X158075423Y-95715423D01*
X157840000Y-96067758D01*
X157604577Y-95715423D01*
X157129909Y-95398260D01*
X156711333Y-95315000D01*
X156428667Y-95315000D01*
X156010091Y-95398260D01*
X155535423Y-95715423D01*
X155300000Y-96067758D01*
X155064577Y-95715423D01*
X154589909Y-95398260D01*
X154171333Y-95315000D01*
X153888667Y-95315000D01*
X153470091Y-95398260D01*
X152995423Y-95715423D01*
X152760000Y-96067758D01*
X152524577Y-95715423D01*
X152049909Y-95398260D01*
X151631333Y-95315000D01*
X151348667Y-95315000D01*
X150930091Y-95398260D01*
X150455423Y-95715423D01*
X150220000Y-96067758D01*
X149984577Y-95715423D01*
X149509909Y-95398260D01*
X149091333Y-95315000D01*
X148808667Y-95315000D01*
X148390091Y-95398260D01*
X147915423Y-95715423D01*
X147680000Y-96067758D01*
X147444577Y-95715423D01*
X146969909Y-95398260D01*
X146551333Y-95315000D01*
X146268667Y-95315000D01*
X145850091Y-95398260D01*
X145375423Y-95715423D01*
X145058260Y-96190091D01*
X144946887Y-96750000D01*
X135435000Y-96750000D01*
X135435000Y-92830657D01*
X135458663Y-92854320D01*
X135972119Y-93067000D01*
X136527881Y-93067000D01*
X137041337Y-92854320D01*
X137434320Y-92461337D01*
X137520000Y-92254487D01*
X137605680Y-92461337D01*
X137998663Y-92854320D01*
X138512119Y-93067000D01*
X139067881Y-93067000D01*
X139581337Y-92854320D01*
X139974320Y-92461337D01*
X140060000Y-92254487D01*
X140145680Y-92461337D01*
X140538663Y-92854320D01*
X141052119Y-93067000D01*
X141607881Y-93067000D01*
X142121337Y-92854320D01*
X142514320Y-92461337D01*
X142600000Y-92254487D01*
X142685680Y-92461337D01*
X143078663Y-92854320D01*
X143592119Y-93067000D01*
X144147881Y-93067000D01*
X144661337Y-92854320D01*
X145054320Y-92461337D01*
X145140000Y-92254487D01*
X145225680Y-92461337D01*
X145618663Y-92854320D01*
X146132119Y-93067000D01*
X146687881Y-93067000D01*
X147201337Y-92854320D01*
X147594320Y-92461337D01*
X147680000Y-92254487D01*
X147765680Y-92461337D01*
X148158663Y-92854320D01*
X148672119Y-93067000D01*
X149227881Y-93067000D01*
X149741337Y-92854320D01*
X150134320Y-92461337D01*
X150220000Y-92254487D01*
X150305680Y-92461337D01*
X150698663Y-92854320D01*
X151212119Y-93067000D01*
X151767881Y-93067000D01*
X152281337Y-92854320D01*
X152674320Y-92461337D01*
X152760000Y-92254487D01*
X152845680Y-92461337D01*
X153238663Y-92854320D01*
X153752119Y-93067000D01*
X154307881Y-93067000D01*
X154821337Y-92854320D01*
X155214320Y-92461337D01*
X155300000Y-92254487D01*
X155385680Y-92461337D01*
X155778663Y-92854320D01*
X156292119Y-93067000D01*
X156847881Y-93067000D01*
X157361337Y-92854320D01*
X157754320Y-92461337D01*
X157840000Y-92254487D01*
X157925680Y-92461337D01*
X158318663Y-92854320D01*
X158832119Y-93067000D01*
X159387881Y-93067000D01*
X159901337Y-92854320D01*
X160294320Y-92461337D01*
X160380000Y-92254487D01*
X160465680Y-92461337D01*
X160858663Y-92854320D01*
X161372119Y-93067000D01*
X161927881Y-93067000D01*
X162441337Y-92854320D01*
X162834320Y-92461337D01*
X162920000Y-92254487D01*
X163005680Y-92461337D01*
X163398663Y-92854320D01*
X163912119Y-93067000D01*
X164467881Y-93067000D01*
X164981337Y-92854320D01*
X165374320Y-92461337D01*
X165460000Y-92254487D01*
X165545680Y-92461337D01*
X165938663Y-92854320D01*
X166452119Y-93067000D01*
X167007881Y-93067000D01*
X167521337Y-92854320D01*
X167914320Y-92461337D01*
X168000000Y-92254487D01*
X168085680Y-92461337D01*
X168478663Y-92854320D01*
X168992119Y-93067000D01*
X169547881Y-93067000D01*
X170061337Y-92854320D01*
X170454320Y-92461337D01*
X170540000Y-92254487D01*
X170625680Y-92461337D01*
X171018663Y-92854320D01*
X171532119Y-93067000D01*
X172087881Y-93067000D01*
X172601337Y-92854320D01*
X172994320Y-92461337D01*
X173080000Y-92254487D01*
X173165680Y-92461337D01*
X173558663Y-92854320D01*
X174072119Y-93067000D01*
X174627881Y-93067000D01*
X175141337Y-92854320D01*
X175534320Y-92461337D01*
X175620000Y-92254487D01*
X175705680Y-92461337D01*
X176098663Y-92854320D01*
X176612119Y-93067000D01*
X177167881Y-93067000D01*
X177681337Y-92854320D01*
X178074320Y-92461337D01*
X178160000Y-92254487D01*
X178245680Y-92461337D01*
X178638663Y-92854320D01*
X179152119Y-93067000D01*
X179707881Y-93067000D01*
X180221337Y-92854320D01*
X180425444Y-92650213D01*
X181169392Y-92650213D01*
X181238857Y-92892397D01*
X181762302Y-93079144D01*
X182317368Y-93051362D01*
X182701143Y-92892397D01*
X182770608Y-92650213D01*
X183709392Y-92650213D01*
X183778857Y-92892397D01*
X184302302Y-93079144D01*
X184857368Y-93051362D01*
X185241143Y-92892397D01*
X185310608Y-92650213D01*
X184510000Y-91849605D01*
X183709392Y-92650213D01*
X182770608Y-92650213D01*
X181970000Y-91849605D01*
X181169392Y-92650213D01*
X180425444Y-92650213D01*
X180614320Y-92461337D01*
X180693428Y-92270353D01*
X180747603Y-92401143D01*
X180989787Y-92470608D01*
X181790395Y-91670000D01*
X182149605Y-91670000D01*
X182950213Y-92470608D01*
X183192397Y-92401143D01*
X183236453Y-92277656D01*
X183287603Y-92401143D01*
X183529787Y-92470608D01*
X184330395Y-91670000D01*
X184689605Y-91670000D01*
X185490213Y-92470608D01*
X185732397Y-92401143D01*
X185919144Y-91877698D01*
X185891362Y-91322632D01*
X185732397Y-90938857D01*
X185490213Y-90869392D01*
X184689605Y-91670000D01*
X184330395Y-91670000D01*
X183529787Y-90869392D01*
X183287603Y-90938857D01*
X183243547Y-91062344D01*
X183192397Y-90938857D01*
X182950213Y-90869392D01*
X182149605Y-91670000D01*
X181790395Y-91670000D01*
X180989787Y-90869392D01*
X180747603Y-90938857D01*
X180697465Y-91079393D01*
X180614320Y-90878663D01*
X180425444Y-90689787D01*
X181169392Y-90689787D01*
X181970000Y-91490395D01*
X182770608Y-90689787D01*
X183709392Y-90689787D01*
X184510000Y-91490395D01*
X185310608Y-90689787D01*
X185241143Y-90447603D01*
X184717698Y-90260856D01*
X184162632Y-90288638D01*
X183778857Y-90447603D01*
X183709392Y-90689787D01*
X182770608Y-90689787D01*
X182701143Y-90447603D01*
X182177698Y-90260856D01*
X181622632Y-90288638D01*
X181238857Y-90447603D01*
X181169392Y-90689787D01*
X180425444Y-90689787D01*
X180221337Y-90485680D01*
X179707881Y-90273000D01*
X179355290Y-90273000D01*
X178436261Y-89353972D01*
X178384097Y-89275903D01*
X178074819Y-89069250D01*
X177802086Y-89015000D01*
X177710000Y-88996683D01*
X177617914Y-89015000D01*
X173150273Y-89015000D01*
X173245000Y-88786310D01*
X173245000Y-88145750D01*
X173086250Y-87987000D01*
X171937000Y-87987000D01*
X171937000Y-88007000D01*
X171683000Y-88007000D01*
X171683000Y-87987000D01*
X171663000Y-87987000D01*
X171663000Y-87733000D01*
X171683000Y-87733000D01*
X171683000Y-86583750D01*
X171937000Y-86583750D01*
X171937000Y-87733000D01*
X173086250Y-87733000D01*
X173245000Y-87574250D01*
X173245000Y-86933690D01*
X173148327Y-86700301D01*
X172969698Y-86521673D01*
X172736309Y-86425000D01*
X172095750Y-86425000D01*
X171937000Y-86583750D01*
X171683000Y-86583750D01*
X171524250Y-86425000D01*
X170883691Y-86425000D01*
X170650302Y-86521673D01*
X170471673Y-86700301D01*
X170375734Y-86931917D01*
X170304577Y-86825423D01*
X169829909Y-86508260D01*
X169411333Y-86425000D01*
X169128667Y-86425000D01*
X168710091Y-86508260D01*
X168235423Y-86825423D01*
X168000000Y-87177758D01*
X167764577Y-86825423D01*
X167289909Y-86508260D01*
X166871333Y-86425000D01*
X166588667Y-86425000D01*
X166170091Y-86508260D01*
X165695423Y-86825423D01*
X165460000Y-87177758D01*
X165224577Y-86825423D01*
X164749909Y-86508260D01*
X164331333Y-86425000D01*
X164048667Y-86425000D01*
X163630091Y-86508260D01*
X163155423Y-86825423D01*
X162920000Y-87177758D01*
X162684577Y-86825423D01*
X162209909Y-86508260D01*
X161791333Y-86425000D01*
X161508667Y-86425000D01*
X161090091Y-86508260D01*
X160615423Y-86825423D01*
X160380000Y-87177758D01*
X160144577Y-86825423D01*
X159669909Y-86508260D01*
X159251333Y-86425000D01*
X158968667Y-86425000D01*
X158550091Y-86508260D01*
X158075423Y-86825423D01*
X157840000Y-87177758D01*
X157604577Y-86825423D01*
X157129909Y-86508260D01*
X156711333Y-86425000D01*
X156428667Y-86425000D01*
X156010091Y-86508260D01*
X155535423Y-86825423D01*
X155300000Y-87177758D01*
X155064577Y-86825423D01*
X154589909Y-86508260D01*
X154171333Y-86425000D01*
X153888667Y-86425000D01*
X153470091Y-86508260D01*
X152995423Y-86825423D01*
X152760000Y-87177758D01*
X152524577Y-86825423D01*
X152049909Y-86508260D01*
X151631333Y-86425000D01*
X151348667Y-86425000D01*
X150930091Y-86508260D01*
X150455423Y-86825423D01*
X150220000Y-87177758D01*
X149984577Y-86825423D01*
X149509909Y-86508260D01*
X149091333Y-86425000D01*
X148808667Y-86425000D01*
X148390091Y-86508260D01*
X147915423Y-86825423D01*
X147680000Y-87177758D01*
X147444577Y-86825423D01*
X146969909Y-86508260D01*
X146551333Y-86425000D01*
X146268667Y-86425000D01*
X145850091Y-86508260D01*
X145375423Y-86825423D01*
X145058260Y-87300091D01*
X144946887Y-87860000D01*
X145058260Y-88419909D01*
X145375423Y-88894577D01*
X145555649Y-89015000D01*
X138062081Y-89015000D01*
X137969999Y-88996684D01*
X137877917Y-89015000D01*
X137877914Y-89015000D01*
X137605181Y-89069250D01*
X137295903Y-89275903D01*
X137243741Y-89353969D01*
X136324711Y-90273000D01*
X136099289Y-90273000D01*
X141926028Y-84446261D01*
X142004097Y-84394097D01*
X142210750Y-84084819D01*
X142265000Y-83812086D01*
X142283317Y-83720000D01*
X142265000Y-83627914D01*
X142265000Y-77470657D01*
X142514320Y-77221337D01*
X142600000Y-77014487D01*
X142685680Y-77221337D01*
X143078663Y-77614320D01*
X143592119Y-77827000D01*
X144147881Y-77827000D01*
X144661337Y-77614320D01*
X145054320Y-77221337D01*
X145140000Y-77014487D01*
X145225680Y-77221337D01*
X145618663Y-77614320D01*
X146132119Y-77827000D01*
X146687881Y-77827000D01*
X147201337Y-77614320D01*
X147594320Y-77221337D01*
X147680000Y-77014487D01*
X147765680Y-77221337D01*
X148158663Y-77614320D01*
X148672119Y-77827000D01*
X149227881Y-77827000D01*
X149741337Y-77614320D01*
X150134320Y-77221337D01*
X150220000Y-77014487D01*
X150305680Y-77221337D01*
X150698663Y-77614320D01*
X151212119Y-77827000D01*
X151767881Y-77827000D01*
X152281337Y-77614320D01*
X152674320Y-77221337D01*
X152760000Y-77014487D01*
X152845680Y-77221337D01*
X153238663Y-77614320D01*
X153752119Y-77827000D01*
X154307881Y-77827000D01*
X154821337Y-77614320D01*
X155214320Y-77221337D01*
X155300000Y-77014487D01*
X155385680Y-77221337D01*
X155778663Y-77614320D01*
X156292119Y-77827000D01*
X156847881Y-77827000D01*
X157361337Y-77614320D01*
X157754320Y-77221337D01*
X157840000Y-77014487D01*
X157925680Y-77221337D01*
X158318663Y-77614320D01*
X158832119Y-77827000D01*
X159387881Y-77827000D01*
X159901337Y-77614320D01*
X160294320Y-77221337D01*
X160380000Y-77014487D01*
X160465680Y-77221337D01*
X160858663Y-77614320D01*
X161372119Y-77827000D01*
X161927881Y-77827000D01*
X162441337Y-77614320D01*
X162834320Y-77221337D01*
X162920000Y-77014487D01*
X163005680Y-77221337D01*
X163398663Y-77614320D01*
X163912119Y-77827000D01*
X164467881Y-77827000D01*
X164981337Y-77614320D01*
X165374320Y-77221337D01*
X165460000Y-77014487D01*
X165545680Y-77221337D01*
X165938663Y-77614320D01*
X166452119Y-77827000D01*
X167007881Y-77827000D01*
X167521337Y-77614320D01*
X167914320Y-77221337D01*
X168000000Y-77014487D01*
X168085680Y-77221337D01*
X168478663Y-77614320D01*
X168992119Y-77827000D01*
X169547881Y-77827000D01*
X170061337Y-77614320D01*
X170454320Y-77221337D01*
X170540000Y-77014487D01*
X170625680Y-77221337D01*
X171018663Y-77614320D01*
X171532119Y-77827000D01*
X172087881Y-77827000D01*
X172601337Y-77614320D01*
X172994320Y-77221337D01*
X173080000Y-77014487D01*
X173165680Y-77221337D01*
X173165680Y-77221337D01*
G37*
X173165680Y-77221337D02*
X173415000Y-77470657D01*
X173415000Y-77907914D01*
X173396683Y-78000000D01*
X173415000Y-78092085D01*
X173469250Y-78364818D01*
X173675903Y-78674097D01*
X173753972Y-78726261D01*
X187333741Y-92306031D01*
X187385903Y-92384097D01*
X187463969Y-92436259D01*
X187695181Y-92590750D01*
X188060000Y-92663317D01*
X188152086Y-92645000D01*
X189617381Y-92645000D01*
X189554724Y-92960000D01*
X189635052Y-93363837D01*
X189684353Y-93437622D01*
X189671673Y-93450302D01*
X189575000Y-93683691D01*
X189575000Y-93924250D01*
X189733750Y-94083000D01*
X190733000Y-94083000D01*
X190733000Y-94063000D01*
X190987000Y-94063000D01*
X190987000Y-94083000D01*
X191007000Y-94083000D01*
X191007000Y-94337000D01*
X190987000Y-94337000D01*
X190987000Y-94357000D01*
X190733000Y-94357000D01*
X190733000Y-94337000D01*
X189733750Y-94337000D01*
X189575000Y-94495750D01*
X189575000Y-94736309D01*
X189671673Y-94969698D01*
X189850301Y-95148327D01*
X190083690Y-95245000D01*
X190142675Y-95245000D01*
X188302675Y-97085000D01*
X181876639Y-97085000D01*
X181755929Y-97035000D01*
X181364071Y-97035000D01*
X181002042Y-97184958D01*
X180724958Y-97462042D01*
X180575000Y-97824071D01*
X180575000Y-98215929D01*
X180724958Y-98577958D01*
X181002042Y-98855042D01*
X181364071Y-99005000D01*
X181755929Y-99005000D01*
X181876639Y-98955000D01*
X188341289Y-98955000D01*
X186390225Y-100906065D01*
X186303808Y-100963807D01*
X186246066Y-101050224D01*
X186075052Y-101306164D01*
X185994724Y-101710000D01*
X186015001Y-101811939D01*
X186015000Y-105941289D01*
X183077489Y-108878801D01*
X183045802Y-108827050D01*
X183194948Y-108603837D01*
X183275276Y-108200000D01*
X183194948Y-107796163D01*
X182966193Y-107453807D01*
X182623837Y-107225052D01*
X182321935Y-107165000D01*
X181618065Y-107165000D01*
X181316163Y-107225052D01*
X180973807Y-107453807D01*
X180745052Y-107796163D01*
X180664724Y-108200000D01*
X180745052Y-108603837D01*
X180894198Y-108827050D01*
X180735013Y-109087031D01*
X180725334Y-109163877D01*
X180853002Y-109323000D01*
X181843000Y-109323000D01*
X181843000Y-109303000D01*
X182097000Y-109303000D01*
X182097000Y-109323000D01*
X182117000Y-109323000D01*
X182117000Y-109577000D01*
X182097000Y-109577000D01*
X182097000Y-109597000D01*
X181843000Y-109597000D01*
X181843000Y-109577000D01*
X180853002Y-109577000D01*
X180725334Y-109736123D01*
X180735013Y-109812969D01*
X180851891Y-110003854D01*
X180737068Y-110175699D01*
X180672560Y-110500000D01*
X180672560Y-110900000D01*
X180737068Y-111224301D01*
X180920769Y-111499231D01*
X181195699Y-111682932D01*
X181520000Y-111747440D01*
X182420000Y-111747440D01*
X182482540Y-111735000D01*
X182618066Y-111735000D01*
X182720000Y-111755276D01*
X182821934Y-111735000D01*
X182821935Y-111735000D01*
X183123837Y-111674948D01*
X183431488Y-111469382D01*
X187750223Y-111469382D01*
X187995368Y-111860888D01*
X189039360Y-112287609D01*
X190167181Y-112282330D01*
X191184632Y-111860888D01*
X191429777Y-111469382D01*
X189590000Y-109629605D01*
X187750223Y-111469382D01*
X183431488Y-111469382D01*
X183466193Y-111446193D01*
X183523937Y-111359773D01*
X185984350Y-108899360D01*
X186752391Y-108899360D01*
X186757670Y-110027181D01*
X187179112Y-111044632D01*
X187570618Y-111289777D01*
X189410395Y-109450000D01*
X189769605Y-109450000D01*
X191609382Y-111289777D01*
X192000888Y-111044632D01*
X192427609Y-110000640D01*
X192422330Y-108872819D01*
X192000888Y-107855368D01*
X191609382Y-107610223D01*
X189769605Y-109450000D01*
X189410395Y-109450000D01*
X187570618Y-107610223D01*
X187179112Y-107855368D01*
X186752391Y-108899360D01*
X185984350Y-108899360D01*
X187453092Y-107430618D01*
X187750223Y-107430618D01*
X189590000Y-109270395D01*
X191429777Y-107430618D01*
X191184632Y-107039112D01*
X190140640Y-106612391D01*
X189012819Y-106617670D01*
X187995368Y-107039112D01*
X187750223Y-107430618D01*
X187453092Y-107430618D01*
X187709776Y-107173935D01*
X187796193Y-107116193D01*
X188024948Y-106773837D01*
X188085000Y-106471935D01*
X188085000Y-106471934D01*
X188105276Y-106370000D01*
X188085000Y-106268066D01*
X188085000Y-102138710D01*
X189575000Y-100648711D01*
X189575000Y-100727002D01*
X189743000Y-100727002D01*
X189615334Y-100886123D01*
X189625013Y-100962969D01*
X189784198Y-101222950D01*
X189635052Y-101446163D01*
X189554724Y-101850000D01*
X189635052Y-102253837D01*
X189738590Y-102408793D01*
X189627068Y-102575699D01*
X189562560Y-102900000D01*
X189562560Y-103300000D01*
X189627068Y-103624301D01*
X189810769Y-103899231D01*
X190085699Y-104082932D01*
X190410000Y-104147440D01*
X191310000Y-104147440D01*
X191634301Y-104082932D01*
X191909231Y-103899231D01*
X192092932Y-103624301D01*
X192157440Y-103300000D01*
X192157440Y-102900000D01*
X192092932Y-102575699D01*
X191981410Y-102408793D01*
X192084948Y-102253837D01*
X192165276Y-101850000D01*
X192084948Y-101446163D01*
X191935802Y-101222950D01*
X192094987Y-100962969D01*
X192104666Y-100886123D01*
X191976998Y-100727000D01*
X190987000Y-100727000D01*
X190987000Y-100747000D01*
X190733000Y-100747000D01*
X190733000Y-100727000D01*
X190713000Y-100727000D01*
X190713000Y-100473000D01*
X190733000Y-100473000D01*
X190733000Y-100453000D01*
X190987000Y-100453000D01*
X190987000Y-100473000D01*
X191976998Y-100473000D01*
X192104666Y-100313877D01*
X192094987Y-100237031D01*
X191935802Y-99977050D01*
X192084948Y-99753837D01*
X192165276Y-99350000D01*
X192084948Y-98946163D01*
X191856193Y-98603807D01*
X191513837Y-98375052D01*
X191211935Y-98315000D01*
X189717253Y-98315000D01*
X192690000Y-95342253D01*
X192690000Y-112550000D01*
X134420000Y-112550000D01*
X134420000Y-110962289D01*
X134773739Y-111316028D01*
X134825903Y-111394097D01*
X135135181Y-111600750D01*
X135402288Y-111653881D01*
X135475699Y-111702932D01*
X135800000Y-111767440D01*
X136700000Y-111767440D01*
X137024301Y-111702932D01*
X137299231Y-111519231D01*
X137482932Y-111244301D01*
X137547440Y-110920000D01*
X137547440Y-110520000D01*
X137543462Y-110500000D01*
X140032560Y-110500000D01*
X140032560Y-110900000D01*
X140097068Y-111224301D01*
X140280769Y-111499231D01*
X140555699Y-111682932D01*
X140880000Y-111747440D01*
X141780000Y-111747440D01*
X142104301Y-111682932D01*
X142379231Y-111499231D01*
X142562932Y-111224301D01*
X142627440Y-110900000D01*
X142627440Y-110520000D01*
X145112560Y-110520000D01*
X145112560Y-110920000D01*
X145177068Y-111244301D01*
X145360769Y-111519231D01*
X145635699Y-111702932D01*
X145960000Y-111767440D01*
X146860000Y-111767440D01*
X147184301Y-111702932D01*
X147459231Y-111519231D01*
X147642932Y-111244301D01*
X147707440Y-110920000D01*
X147707440Y-110520000D01*
X150192560Y-110520000D01*
X150192560Y-110920000D01*
X150257068Y-111244301D01*
X150440769Y-111519231D01*
X150715699Y-111702932D01*
X151040000Y-111767440D01*
X151940000Y-111767440D01*
X152264301Y-111702932D01*
X152539231Y-111519231D01*
X152722932Y-111244301D01*
X152787440Y-110920000D01*
X152787440Y-110520000D01*
X155272560Y-110520000D01*
X155272560Y-110920000D01*
X155337068Y-111244301D01*
X155520769Y-111519231D01*
X155795699Y-111702932D01*
X156120000Y-111767440D01*
X157020000Y-111767440D01*
X157344301Y-111702932D01*
X157619231Y-111519231D01*
X157802932Y-111244301D01*
X157867440Y-110920000D01*
X157867440Y-110520000D01*
X160352560Y-110520000D01*
X160352560Y-110920000D01*
X160417068Y-111244301D01*
X160600769Y-111519231D01*
X160875699Y-111702932D01*
X161200000Y-111767440D01*
X162100000Y-111767440D01*
X162424301Y-111702932D01*
X162699231Y-111519231D01*
X162882932Y-111244301D01*
X162947440Y-110920000D01*
X162947440Y-110520000D01*
X165432560Y-110520000D01*
X165432560Y-110920000D01*
X165497068Y-111244301D01*
X165680769Y-111519231D01*
X165955699Y-111702932D01*
X166280000Y-111767440D01*
X167180000Y-111767440D01*
X167504301Y-111702932D01*
X167779231Y-111519231D01*
X167962932Y-111244301D01*
X168027440Y-110920000D01*
X168027440Y-110520000D01*
X170512560Y-110520000D01*
X170512560Y-110920000D01*
X170577068Y-111244301D01*
X170760769Y-111519231D01*
X171035699Y-111702932D01*
X171360000Y-111767440D01*
X172260000Y-111767440D01*
X172584301Y-111702932D01*
X172859231Y-111519231D01*
X173042932Y-111244301D01*
X173107440Y-110920000D01*
X173107440Y-110520000D01*
X175592560Y-110520000D01*
X175592560Y-110920000D01*
X175657068Y-111244301D01*
X175840769Y-111519231D01*
X176115699Y-111702932D01*
X176440000Y-111767440D01*
X177340000Y-111767440D01*
X177664301Y-111702932D01*
X177939231Y-111519231D01*
X178122932Y-111244301D01*
X178187440Y-110920000D01*
X178187440Y-110520000D01*
X178122932Y-110195699D01*
X178008109Y-110023854D01*
X178124987Y-109832969D01*
X178134666Y-109756123D01*
X178006998Y-109597000D01*
X177017000Y-109597000D01*
X177017000Y-109617000D01*
X176763000Y-109617000D01*
X176763000Y-109597000D01*
X175773002Y-109597000D01*
X175645334Y-109756123D01*
X175655013Y-109832969D01*
X175771891Y-110023854D01*
X175657068Y-110195699D01*
X175592560Y-110520000D01*
X173107440Y-110520000D01*
X173042932Y-110195699D01*
X172928109Y-110023854D01*
X173044987Y-109832969D01*
X173054666Y-109756123D01*
X172926998Y-109597000D01*
X171937000Y-109597000D01*
X171937000Y-109617000D01*
X171683000Y-109617000D01*
X171683000Y-109597000D01*
X170693002Y-109597000D01*
X170565334Y-109756123D01*
X170575013Y-109832969D01*
X170691891Y-110023854D01*
X170577068Y-110195699D01*
X170512560Y-110520000D01*
X168027440Y-110520000D01*
X167962932Y-110195699D01*
X167848109Y-110023854D01*
X167964987Y-109832969D01*
X167974666Y-109756123D01*
X167846998Y-109597000D01*
X166857000Y-109597000D01*
X166857000Y-109617000D01*
X166603000Y-109617000D01*
X166603000Y-109597000D01*
X165613002Y-109597000D01*
X165485334Y-109756123D01*
X165495013Y-109832969D01*
X165611891Y-110023854D01*
X165497068Y-110195699D01*
X165432560Y-110520000D01*
X162947440Y-110520000D01*
X162882932Y-110195699D01*
X162768109Y-110023854D01*
X162884987Y-109832969D01*
X162894666Y-109756123D01*
X162766998Y-109597000D01*
X161777000Y-109597000D01*
X161777000Y-109617000D01*
X161523000Y-109617000D01*
X161523000Y-109597000D01*
X160533002Y-109597000D01*
X160405334Y-109756123D01*
X160415013Y-109832969D01*
X160531891Y-110023854D01*
X160417068Y-110195699D01*
X160352560Y-110520000D01*
X157867440Y-110520000D01*
X157802932Y-110195699D01*
X157688109Y-110023854D01*
X157804987Y-109832969D01*
X157814666Y-109756123D01*
X157686998Y-109597000D01*
X156697000Y-109597000D01*
X156697000Y-109617000D01*
X156443000Y-109617000D01*
X156443000Y-109597000D01*
X155453002Y-109597000D01*
X155325334Y-109756123D01*
X155335013Y-109832969D01*
X155451891Y-110023854D01*
X155337068Y-110195699D01*
X155272560Y-110520000D01*
X152787440Y-110520000D01*
X152722932Y-110195699D01*
X152608109Y-110023854D01*
X152724987Y-109832969D01*
X152734666Y-109756123D01*
X152606998Y-109597000D01*
X151617000Y-109597000D01*
X151617000Y-109617000D01*
X151363000Y-109617000D01*
X151363000Y-109597000D01*
X150373002Y-109597000D01*
X150245334Y-109756123D01*
X150255013Y-109832969D01*
X150371891Y-110023854D01*
X150257068Y-110195699D01*
X150192560Y-110520000D01*
X147707440Y-110520000D01*
X147642932Y-110195699D01*
X147528109Y-110023854D01*
X147644987Y-109832969D01*
X147654666Y-109756123D01*
X147526998Y-109597000D01*
X146537000Y-109597000D01*
X146537000Y-109617000D01*
X146283000Y-109617000D01*
X146283000Y-109597000D01*
X145293002Y-109597000D01*
X145165334Y-109756123D01*
X145175013Y-109832969D01*
X145291891Y-110023854D01*
X145177068Y-110195699D01*
X145112560Y-110520000D01*
X142627440Y-110520000D01*
X142627440Y-110500000D01*
X142562932Y-110175699D01*
X142448109Y-110003854D01*
X142564987Y-109812969D01*
X142574666Y-109736123D01*
X142446998Y-109577000D01*
X141457000Y-109577000D01*
X141457000Y-109597000D01*
X141203000Y-109597000D01*
X141203000Y-109577000D01*
X140213002Y-109577000D01*
X140085334Y-109736123D01*
X140095013Y-109812969D01*
X140211891Y-110003854D01*
X140097068Y-110175699D01*
X140032560Y-110500000D01*
X137543462Y-110500000D01*
X137482932Y-110195699D01*
X137368109Y-110023854D01*
X137484987Y-109832969D01*
X137494666Y-109756123D01*
X137366998Y-109597000D01*
X136377000Y-109597000D01*
X136377000Y-109617000D01*
X136123000Y-109617000D01*
X136123000Y-109597000D01*
X136103000Y-109597000D01*
X136103000Y-109343000D01*
X136123000Y-109343000D01*
X136123000Y-109323000D01*
X136377000Y-109323000D01*
X136377000Y-109343000D01*
X137366998Y-109343000D01*
X137494666Y-109183877D01*
X137484987Y-109107031D01*
X137325802Y-108847050D01*
X137474948Y-108623837D01*
X137555276Y-108220000D01*
X137551298Y-108200000D01*
X140024724Y-108200000D01*
X140105052Y-108603837D01*
X140254198Y-108827050D01*
X140095013Y-109087031D01*
X140085334Y-109163877D01*
X140213002Y-109323000D01*
X141203000Y-109323000D01*
X141203000Y-109303000D01*
X141457000Y-109303000D01*
X141457000Y-109323000D01*
X142446998Y-109323000D01*
X142574666Y-109163877D01*
X142564987Y-109087031D01*
X142405802Y-108827050D01*
X142554948Y-108603837D01*
X142631297Y-108220000D01*
X145104724Y-108220000D01*
X145185052Y-108623837D01*
X145334198Y-108847050D01*
X145175013Y-109107031D01*
X145165334Y-109183877D01*
X145293002Y-109343000D01*
X146283000Y-109343000D01*
X146283000Y-109323000D01*
X146537000Y-109323000D01*
X146537000Y-109343000D01*
X147526998Y-109343000D01*
X147654666Y-109183877D01*
X147644987Y-109107031D01*
X147485802Y-108847050D01*
X147634948Y-108623837D01*
X147715276Y-108220000D01*
X150184724Y-108220000D01*
X150265052Y-108623837D01*
X150414198Y-108847050D01*
X150255013Y-109107031D01*
X150245334Y-109183877D01*
X150373002Y-109343000D01*
X151363000Y-109343000D01*
X151363000Y-109323000D01*
X151617000Y-109323000D01*
X151617000Y-109343000D01*
X152606998Y-109343000D01*
X152734666Y-109183877D01*
X152724987Y-109107031D01*
X152565802Y-108847050D01*
X152714948Y-108623837D01*
X152795276Y-108220000D01*
X155264724Y-108220000D01*
X155345052Y-108623837D01*
X155494198Y-108847050D01*
X155335013Y-109107031D01*
X155325334Y-109183877D01*
X155453002Y-109343000D01*
X156443000Y-109343000D01*
X156443000Y-109323000D01*
X156697000Y-109323000D01*
X156697000Y-109343000D01*
X157686998Y-109343000D01*
X157814666Y-109183877D01*
X157804987Y-109107031D01*
X157645802Y-108847050D01*
X157794948Y-108623837D01*
X157875276Y-108220000D01*
X160344724Y-108220000D01*
X160425052Y-108623837D01*
X160574198Y-108847050D01*
X160415013Y-109107031D01*
X160405334Y-109183877D01*
X160533002Y-109343000D01*
X161523000Y-109343000D01*
X161523000Y-109323000D01*
X161777000Y-109323000D01*
X161777000Y-109343000D01*
X162766998Y-109343000D01*
X162894666Y-109183877D01*
X162884987Y-109107031D01*
X162725802Y-108847050D01*
X162874948Y-108623837D01*
X162955276Y-108220000D01*
X165424724Y-108220000D01*
X165505052Y-108623837D01*
X165654198Y-108847050D01*
X165495013Y-109107031D01*
X165485334Y-109183877D01*
X165613002Y-109343000D01*
X166603000Y-109343000D01*
X166603000Y-109323000D01*
X166857000Y-109323000D01*
X166857000Y-109343000D01*
X167846998Y-109343000D01*
X167974666Y-109183877D01*
X167964987Y-109107031D01*
X167805802Y-108847050D01*
X167954948Y-108623837D01*
X168035276Y-108220000D01*
X167954948Y-107816163D01*
X167726193Y-107473807D01*
X167383837Y-107245052D01*
X167081935Y-107185000D01*
X166378065Y-107185000D01*
X166076163Y-107245052D01*
X165733807Y-107473807D01*
X165505052Y-107816163D01*
X165424724Y-108220000D01*
X162955276Y-108220000D01*
X162874948Y-107816163D01*
X162646193Y-107473807D01*
X162303837Y-107245052D01*
X162001935Y-107185000D01*
X161298065Y-107185000D01*
X160996163Y-107245052D01*
X160653807Y-107473807D01*
X160425052Y-107816163D01*
X160344724Y-108220000D01*
X157875276Y-108220000D01*
X157794948Y-107816163D01*
X157566193Y-107473807D01*
X157223837Y-107245052D01*
X156921935Y-107185000D01*
X156218065Y-107185000D01*
X155916163Y-107245052D01*
X155573807Y-107473807D01*
X155345052Y-107816163D01*
X155264724Y-108220000D01*
X152795276Y-108220000D01*
X152714948Y-107816163D01*
X152486193Y-107473807D01*
X152143837Y-107245052D01*
X151841935Y-107185000D01*
X151138065Y-107185000D01*
X150836163Y-107245052D01*
X150493807Y-107473807D01*
X150265052Y-107816163D01*
X150184724Y-108220000D01*
X147715276Y-108220000D01*
X147634948Y-107816163D01*
X147406193Y-107473807D01*
X147063837Y-107245052D01*
X146761935Y-107185000D01*
X146058065Y-107185000D01*
X145756163Y-107245052D01*
X145413807Y-107473807D01*
X145185052Y-107816163D01*
X145104724Y-108220000D01*
X142631297Y-108220000D01*
X142635276Y-108200000D01*
X142554948Y-107796163D01*
X142326193Y-107453807D01*
X141983837Y-107225052D01*
X141681935Y-107165000D01*
X140978065Y-107165000D01*
X140676163Y-107225052D01*
X140333807Y-107453807D01*
X140105052Y-107796163D01*
X140024724Y-108200000D01*
X137551298Y-108200000D01*
X137474948Y-107816163D01*
X137246193Y-107473807D01*
X136903837Y-107245052D01*
X136601935Y-107185000D01*
X135898065Y-107185000D01*
X135596163Y-107245052D01*
X135435000Y-107352738D01*
X135435000Y-104370000D01*
X144946887Y-104370000D01*
X145058260Y-104929909D01*
X145375423Y-105404577D01*
X145850091Y-105721740D01*
X146268667Y-105805000D01*
X146551333Y-105805000D01*
X146969909Y-105721740D01*
X147444577Y-105404577D01*
X147680000Y-105052242D01*
X147915423Y-105404577D01*
X148390091Y-105721740D01*
X148808667Y-105805000D01*
X149091333Y-105805000D01*
X149509909Y-105721740D01*
X149984577Y-105404577D01*
X150220000Y-105052242D01*
X150455423Y-105404577D01*
X150930091Y-105721740D01*
X151348667Y-105805000D01*
X151631333Y-105805000D01*
X152049909Y-105721740D01*
X152524577Y-105404577D01*
X152760000Y-105052242D01*
X152995423Y-105404577D01*
X153470091Y-105721740D01*
X153888667Y-105805000D01*
X154171333Y-105805000D01*
X154589909Y-105721740D01*
X155064577Y-105404577D01*
X155300000Y-105052242D01*
X155535423Y-105404577D01*
X156010091Y-105721740D01*
X156428667Y-105805000D01*
X156711333Y-105805000D01*
X157129909Y-105721740D01*
X157604577Y-105404577D01*
X157840000Y-105052242D01*
X158075423Y-105404577D01*
X158550091Y-105721740D01*
X158968667Y-105805000D01*
X159251333Y-105805000D01*
X159669909Y-105721740D01*
X160144577Y-105404577D01*
X160380000Y-105052242D01*
X160615423Y-105404577D01*
X161090091Y-105721740D01*
X161508667Y-105805000D01*
X161791333Y-105805000D01*
X162209909Y-105721740D01*
X162684577Y-105404577D01*
X162920000Y-105052242D01*
X163155423Y-105404577D01*
X163630091Y-105721740D01*
X164048667Y-105805000D01*
X164331333Y-105805000D01*
X164749909Y-105721740D01*
X165224577Y-105404577D01*
X165460000Y-105052242D01*
X165695423Y-105404577D01*
X166170091Y-105721740D01*
X166588667Y-105805000D01*
X166701290Y-105805000D01*
X168466065Y-107569776D01*
X168523807Y-107656193D01*
X168866163Y-107884948D01*
X169168065Y-107945000D01*
X169168070Y-107945000D01*
X169269999Y-107965275D01*
X169371929Y-107945000D01*
X170559425Y-107945000D01*
X170504724Y-108220000D01*
X170585052Y-108623837D01*
X170734198Y-108847050D01*
X170575013Y-109107031D01*
X170565334Y-109183877D01*
X170693002Y-109343000D01*
X171683000Y-109343000D01*
X171683000Y-109323000D01*
X171937000Y-109323000D01*
X171937000Y-109343000D01*
X172926998Y-109343000D01*
X173054666Y-109183877D01*
X173044987Y-109107031D01*
X172885802Y-108847050D01*
X173034948Y-108623837D01*
X173115276Y-108220000D01*
X173060575Y-107945000D01*
X174901290Y-107945000D01*
X175810074Y-108853785D01*
X175655013Y-109107031D01*
X175645334Y-109183877D01*
X175773002Y-109343000D01*
X176763000Y-109343000D01*
X176763000Y-109323000D01*
X177017000Y-109323000D01*
X177017000Y-109343000D01*
X178006998Y-109343000D01*
X178134666Y-109183877D01*
X178124987Y-109107031D01*
X177965802Y-108847050D01*
X178114948Y-108623837D01*
X178195276Y-108220000D01*
X178114948Y-107816163D01*
X177886193Y-107473807D01*
X177543837Y-107245052D01*
X177241935Y-107185000D01*
X177068711Y-107185000D01*
X176133937Y-106250227D01*
X176076193Y-106163807D01*
X175733837Y-105935052D01*
X175431935Y-105875000D01*
X175431934Y-105875000D01*
X175330000Y-105854724D01*
X175228066Y-105875000D01*
X169698711Y-105875000D01*
X169592645Y-105768935D01*
X169829909Y-105721740D01*
X170304577Y-105404577D01*
X170621740Y-104929909D01*
X170733113Y-104370000D01*
X170621740Y-103810091D01*
X170304577Y-103335423D01*
X169829909Y-103018260D01*
X169411333Y-102935000D01*
X169128667Y-102935000D01*
X168710091Y-103018260D01*
X168235423Y-103335423D01*
X168000000Y-103687758D01*
X167764577Y-103335423D01*
X167289909Y-103018260D01*
X166871333Y-102935000D01*
X166588667Y-102935000D01*
X166170091Y-103018260D01*
X165695423Y-103335423D01*
X165460000Y-103687758D01*
X165224577Y-103335423D01*
X164749909Y-103018260D01*
X164331333Y-102935000D01*
X164048667Y-102935000D01*
X163630091Y-103018260D01*
X163155423Y-103335423D01*
X162920000Y-103687758D01*
X162684577Y-103335423D01*
X162209909Y-103018260D01*
X161791333Y-102935000D01*
X161508667Y-102935000D01*
X161090091Y-103018260D01*
X160615423Y-103335423D01*
X160380000Y-103687758D01*
X160144577Y-103335423D01*
X159669909Y-103018260D01*
X159251333Y-102935000D01*
X158968667Y-102935000D01*
X158550091Y-103018260D01*
X158075423Y-103335423D01*
X157840000Y-103687758D01*
X157604577Y-103335423D01*
X157129909Y-103018260D01*
X156711333Y-102935000D01*
X156428667Y-102935000D01*
X156010091Y-103018260D01*
X155535423Y-103335423D01*
X155300000Y-103687758D01*
X155064577Y-103335423D01*
X154589909Y-103018260D01*
X154171333Y-102935000D01*
X153888667Y-102935000D01*
X153470091Y-103018260D01*
X152995423Y-103335423D01*
X152760000Y-103687758D01*
X152524577Y-103335423D01*
X152049909Y-103018260D01*
X151631333Y-102935000D01*
X151348667Y-102935000D01*
X150930091Y-103018260D01*
X150455423Y-103335423D01*
X150220000Y-103687758D01*
X149984577Y-103335423D01*
X149509909Y-103018260D01*
X149091333Y-102935000D01*
X148808667Y-102935000D01*
X148390091Y-103018260D01*
X147915423Y-103335423D01*
X147680000Y-103687758D01*
X147444577Y-103335423D01*
X146969909Y-103018260D01*
X146551333Y-102935000D01*
X146268667Y-102935000D01*
X145850091Y-103018260D01*
X145375423Y-103335423D01*
X145058260Y-103810091D01*
X144946887Y-104370000D01*
X135435000Y-104370000D01*
X135435000Y-100360000D01*
X137492560Y-100360000D01*
X137492560Y-100760000D01*
X137557068Y-101084301D01*
X137740769Y-101359231D01*
X138015699Y-101542932D01*
X138340000Y-101607440D01*
X139240000Y-101607440D01*
X139564301Y-101542932D01*
X139839231Y-101359231D01*
X140022932Y-101084301D01*
X140087440Y-100760000D01*
X140087440Y-100360000D01*
X140022932Y-100035699D01*
X139908109Y-99863854D01*
X140024987Y-99672969D01*
X140034666Y-99596123D01*
X139906998Y-99437000D01*
X138917000Y-99437000D01*
X138917000Y-99457000D01*
X138663000Y-99457000D01*
X138663000Y-99437000D01*
X137673002Y-99437000D01*
X137545334Y-99596123D01*
X137555013Y-99672969D01*
X137671891Y-99863854D01*
X137557068Y-100035699D01*
X137492560Y-100360000D01*
X135435000Y-100360000D01*
X135435000Y-98060000D01*
X137484724Y-98060000D01*
X137565052Y-98463837D01*
X137714198Y-98687050D01*
X137555013Y-98947031D01*
X137545334Y-99023877D01*
X137673002Y-99183000D01*
X138663000Y-99183000D01*
X138663000Y-99163000D01*
X138917000Y-99163000D01*
X138917000Y-99183000D01*
X139906998Y-99183000D01*
X140034666Y-99023877D01*
X140024987Y-98947031D01*
X139865802Y-98687050D01*
X140014948Y-98463837D01*
X140095276Y-98060000D01*
X140014948Y-97656163D01*
X139786193Y-97313807D01*
X139443837Y-97085052D01*
X139141935Y-97025000D01*
X138438065Y-97025000D01*
X138136163Y-97085052D01*
X137793807Y-97313807D01*
X137565052Y-97656163D01*
X137484724Y-98060000D01*
X135435000Y-98060000D01*
X135435000Y-96750000D01*
X144946887Y-96750000D01*
X145058260Y-97309909D01*
X145375423Y-97784577D01*
X145850091Y-98101740D01*
X146268667Y-98185000D01*
X146551333Y-98185000D01*
X146969909Y-98101740D01*
X147444577Y-97784577D01*
X147680000Y-97432242D01*
X147915423Y-97784577D01*
X148390091Y-98101740D01*
X148808667Y-98185000D01*
X149091333Y-98185000D01*
X149509909Y-98101740D01*
X149984577Y-97784577D01*
X150220000Y-97432242D01*
X150455423Y-97784577D01*
X150930091Y-98101740D01*
X151348667Y-98185000D01*
X151631333Y-98185000D01*
X152049909Y-98101740D01*
X152524577Y-97784577D01*
X152760000Y-97432242D01*
X152995423Y-97784577D01*
X153470091Y-98101740D01*
X153888667Y-98185000D01*
X154171333Y-98185000D01*
X154589909Y-98101740D01*
X155064577Y-97784577D01*
X155300000Y-97432242D01*
X155535423Y-97784577D01*
X156010091Y-98101740D01*
X156428667Y-98185000D01*
X156711333Y-98185000D01*
X157129909Y-98101740D01*
X157604577Y-97784577D01*
X157840000Y-97432242D01*
X158075423Y-97784577D01*
X158550091Y-98101740D01*
X158968667Y-98185000D01*
X159251333Y-98185000D01*
X159669909Y-98101740D01*
X160144577Y-97784577D01*
X160380000Y-97432242D01*
X160615423Y-97784577D01*
X161090091Y-98101740D01*
X161508667Y-98185000D01*
X161791333Y-98185000D01*
X162209909Y-98101740D01*
X162684577Y-97784577D01*
X162920000Y-97432242D01*
X163155423Y-97784577D01*
X163630091Y-98101740D01*
X164048667Y-98185000D01*
X164331333Y-98185000D01*
X164749909Y-98101740D01*
X165224577Y-97784577D01*
X165460000Y-97432242D01*
X165695423Y-97784577D01*
X166170091Y-98101740D01*
X166588667Y-98185000D01*
X166871333Y-98185000D01*
X167289909Y-98101740D01*
X167764577Y-97784577D01*
X167845215Y-97663894D01*
X167871843Y-97797765D01*
X168012191Y-98007809D01*
X168222235Y-98148157D01*
X168470000Y-98197440D01*
X170070000Y-98197440D01*
X170317765Y-98148157D01*
X170527809Y-98007809D01*
X170668157Y-97797765D01*
X170717440Y-97550000D01*
X170717440Y-95950000D01*
X170668157Y-95702235D01*
X170527809Y-95492191D01*
X170317765Y-95351843D01*
X170070000Y-95302560D01*
X168470000Y-95302560D01*
X168222235Y-95351843D01*
X168012191Y-95492191D01*
X167871843Y-95702235D01*
X167845215Y-95836106D01*
X167764577Y-95715423D01*
X167289909Y-95398260D01*
X166871333Y-95315000D01*
X166588667Y-95315000D01*
X166170091Y-95398260D01*
X165695423Y-95715423D01*
X165460000Y-96067758D01*
X165224577Y-95715423D01*
X164749909Y-95398260D01*
X164331333Y-95315000D01*
X164048667Y-95315000D01*
X163630091Y-95398260D01*
X163155423Y-95715423D01*
X162920000Y-96067758D01*
X162684577Y-95715423D01*
X162209909Y-95398260D01*
X161791333Y-95315000D01*
X161508667Y-95315000D01*
X161090091Y-95398260D01*
X160615423Y-95715423D01*
X160380000Y-96067758D01*
X160144577Y-95715423D01*
X159669909Y-95398260D01*
X159251333Y-95315000D01*
X158968667Y-95315000D01*
X158550091Y-95398260D01*
X158075423Y-95715423D01*
X157840000Y-96067758D01*
X157604577Y-95715423D01*
X157129909Y-95398260D01*
X156711333Y-95315000D01*
X156428667Y-95315000D01*
X156010091Y-95398260D01*
X155535423Y-95715423D01*
X155300000Y-96067758D01*
X155064577Y-95715423D01*
X154589909Y-95398260D01*
X154171333Y-95315000D01*
X153888667Y-95315000D01*
X153470091Y-95398260D01*
X152995423Y-95715423D01*
X152760000Y-96067758D01*
X152524577Y-95715423D01*
X152049909Y-95398260D01*
X151631333Y-95315000D01*
X151348667Y-95315000D01*
X150930091Y-95398260D01*
X150455423Y-95715423D01*
X150220000Y-96067758D01*
X149984577Y-95715423D01*
X149509909Y-95398260D01*
X149091333Y-95315000D01*
X148808667Y-95315000D01*
X148390091Y-95398260D01*
X147915423Y-95715423D01*
X147680000Y-96067758D01*
X147444577Y-95715423D01*
X146969909Y-95398260D01*
X146551333Y-95315000D01*
X146268667Y-95315000D01*
X145850091Y-95398260D01*
X145375423Y-95715423D01*
X145058260Y-96190091D01*
X144946887Y-96750000D01*
X135435000Y-96750000D01*
X135435000Y-92830657D01*
X135458663Y-92854320D01*
X135972119Y-93067000D01*
X136527881Y-93067000D01*
X137041337Y-92854320D01*
X137434320Y-92461337D01*
X137520000Y-92254487D01*
X137605680Y-92461337D01*
X137998663Y-92854320D01*
X138512119Y-93067000D01*
X139067881Y-93067000D01*
X139581337Y-92854320D01*
X139974320Y-92461337D01*
X140060000Y-92254487D01*
X140145680Y-92461337D01*
X140538663Y-92854320D01*
X141052119Y-93067000D01*
X141607881Y-93067000D01*
X142121337Y-92854320D01*
X142514320Y-92461337D01*
X142600000Y-92254487D01*
X142685680Y-92461337D01*
X143078663Y-92854320D01*
X143592119Y-93067000D01*
X144147881Y-93067000D01*
X144661337Y-92854320D01*
X145054320Y-92461337D01*
X145140000Y-92254487D01*
X145225680Y-92461337D01*
X145618663Y-92854320D01*
X146132119Y-93067000D01*
X146687881Y-93067000D01*
X147201337Y-92854320D01*
X147594320Y-92461337D01*
X147680000Y-92254487D01*
X147765680Y-92461337D01*
X148158663Y-92854320D01*
X148672119Y-93067000D01*
X149227881Y-93067000D01*
X149741337Y-92854320D01*
X150134320Y-92461337D01*
X150220000Y-92254487D01*
X150305680Y-92461337D01*
X150698663Y-92854320D01*
X151212119Y-93067000D01*
X151767881Y-93067000D01*
X152281337Y-92854320D01*
X152674320Y-92461337D01*
X152760000Y-92254487D01*
X152845680Y-92461337D01*
X153238663Y-92854320D01*
X153752119Y-93067000D01*
X154307881Y-93067000D01*
X154821337Y-92854320D01*
X155214320Y-92461337D01*
X155300000Y-92254487D01*
X155385680Y-92461337D01*
X155778663Y-92854320D01*
X156292119Y-93067000D01*
X156847881Y-93067000D01*
X157361337Y-92854320D01*
X157754320Y-92461337D01*
X157840000Y-92254487D01*
X157925680Y-92461337D01*
X158318663Y-92854320D01*
X158832119Y-93067000D01*
X159387881Y-93067000D01*
X159901337Y-92854320D01*
X160294320Y-92461337D01*
X160380000Y-92254487D01*
X160465680Y-92461337D01*
X160858663Y-92854320D01*
X161372119Y-93067000D01*
X161927881Y-93067000D01*
X162441337Y-92854320D01*
X162834320Y-92461337D01*
X162920000Y-92254487D01*
X163005680Y-92461337D01*
X163398663Y-92854320D01*
X163912119Y-93067000D01*
X164467881Y-93067000D01*
X164981337Y-92854320D01*
X165374320Y-92461337D01*
X165460000Y-92254487D01*
X165545680Y-92461337D01*
X165938663Y-92854320D01*
X166452119Y-93067000D01*
X167007881Y-93067000D01*
X167521337Y-92854320D01*
X167914320Y-92461337D01*
X168000000Y-92254487D01*
X168085680Y-92461337D01*
X168478663Y-92854320D01*
X168992119Y-93067000D01*
X169547881Y-93067000D01*
X170061337Y-92854320D01*
X170454320Y-92461337D01*
X170540000Y-92254487D01*
X170625680Y-92461337D01*
X171018663Y-92854320D01*
X171532119Y-93067000D01*
X172087881Y-93067000D01*
X172601337Y-92854320D01*
X172994320Y-92461337D01*
X173080000Y-92254487D01*
X173165680Y-92461337D01*
X173558663Y-92854320D01*
X174072119Y-93067000D01*
X174627881Y-93067000D01*
X175141337Y-92854320D01*
X175534320Y-92461337D01*
X175620000Y-92254487D01*
X175705680Y-92461337D01*
X176098663Y-92854320D01*
X176612119Y-93067000D01*
X177167881Y-93067000D01*
X177681337Y-92854320D01*
X178074320Y-92461337D01*
X178160000Y-92254487D01*
X178245680Y-92461337D01*
X178638663Y-92854320D01*
X179152119Y-93067000D01*
X179707881Y-93067000D01*
X180221337Y-92854320D01*
X180425444Y-92650213D01*
X181169392Y-92650213D01*
X181238857Y-92892397D01*
X181762302Y-93079144D01*
X182317368Y-93051362D01*
X182701143Y-92892397D01*
X182770608Y-92650213D01*
X183709392Y-92650213D01*
X183778857Y-92892397D01*
X184302302Y-93079144D01*
X184857368Y-93051362D01*
X185241143Y-92892397D01*
X185310608Y-92650213D01*
X184510000Y-91849605D01*
X183709392Y-92650213D01*
X182770608Y-92650213D01*
X181970000Y-91849605D01*
X181169392Y-92650213D01*
X180425444Y-92650213D01*
X180614320Y-92461337D01*
X180693428Y-92270353D01*
X180747603Y-92401143D01*
X180989787Y-92470608D01*
X181790395Y-91670000D01*
X182149605Y-91670000D01*
X182950213Y-92470608D01*
X183192397Y-92401143D01*
X183236453Y-92277656D01*
X183287603Y-92401143D01*
X183529787Y-92470608D01*
X184330395Y-91670000D01*
X184689605Y-91670000D01*
X185490213Y-92470608D01*
X185732397Y-92401143D01*
X185919144Y-91877698D01*
X185891362Y-91322632D01*
X185732397Y-90938857D01*
X185490213Y-90869392D01*
X184689605Y-91670000D01*
X184330395Y-91670000D01*
X183529787Y-90869392D01*
X183287603Y-90938857D01*
X183243547Y-91062344D01*
X183192397Y-90938857D01*
X182950213Y-90869392D01*
X182149605Y-91670000D01*
X181790395Y-91670000D01*
X180989787Y-90869392D01*
X180747603Y-90938857D01*
X180697465Y-91079393D01*
X180614320Y-90878663D01*
X180425444Y-90689787D01*
X181169392Y-90689787D01*
X181970000Y-91490395D01*
X182770608Y-90689787D01*
X183709392Y-90689787D01*
X184510000Y-91490395D01*
X185310608Y-90689787D01*
X185241143Y-90447603D01*
X184717698Y-90260856D01*
X184162632Y-90288638D01*
X183778857Y-90447603D01*
X183709392Y-90689787D01*
X182770608Y-90689787D01*
X182701143Y-90447603D01*
X182177698Y-90260856D01*
X181622632Y-90288638D01*
X181238857Y-90447603D01*
X181169392Y-90689787D01*
X180425444Y-90689787D01*
X180221337Y-90485680D01*
X179707881Y-90273000D01*
X179355290Y-90273000D01*
X178436261Y-89353972D01*
X178384097Y-89275903D01*
X178074819Y-89069250D01*
X177802086Y-89015000D01*
X177710000Y-88996683D01*
X177617914Y-89015000D01*
X173150273Y-89015000D01*
X173245000Y-88786310D01*
X173245000Y-88145750D01*
X173086250Y-87987000D01*
X171937000Y-87987000D01*
X171937000Y-88007000D01*
X171683000Y-88007000D01*
X171683000Y-87987000D01*
X171663000Y-87987000D01*
X171663000Y-87733000D01*
X171683000Y-87733000D01*
X171683000Y-86583750D01*
X171937000Y-86583750D01*
X171937000Y-87733000D01*
X173086250Y-87733000D01*
X173245000Y-87574250D01*
X173245000Y-86933690D01*
X173148327Y-86700301D01*
X172969698Y-86521673D01*
X172736309Y-86425000D01*
X172095750Y-86425000D01*
X171937000Y-86583750D01*
X171683000Y-86583750D01*
X171524250Y-86425000D01*
X170883691Y-86425000D01*
X170650302Y-86521673D01*
X170471673Y-86700301D01*
X170375734Y-86931917D01*
X170304577Y-86825423D01*
X169829909Y-86508260D01*
X169411333Y-86425000D01*
X169128667Y-86425000D01*
X168710091Y-86508260D01*
X168235423Y-86825423D01*
X168000000Y-87177758D01*
X167764577Y-86825423D01*
X167289909Y-86508260D01*
X166871333Y-86425000D01*
X166588667Y-86425000D01*
X166170091Y-86508260D01*
X165695423Y-86825423D01*
X165460000Y-87177758D01*
X165224577Y-86825423D01*
X164749909Y-86508260D01*
X164331333Y-86425000D01*
X164048667Y-86425000D01*
X163630091Y-86508260D01*
X163155423Y-86825423D01*
X162920000Y-87177758D01*
X162684577Y-86825423D01*
X162209909Y-86508260D01*
X161791333Y-86425000D01*
X161508667Y-86425000D01*
X161090091Y-86508260D01*
X160615423Y-86825423D01*
X160380000Y-87177758D01*
X160144577Y-86825423D01*
X159669909Y-86508260D01*
X159251333Y-86425000D01*
X158968667Y-86425000D01*
X158550091Y-86508260D01*
X158075423Y-86825423D01*
X157840000Y-87177758D01*
X157604577Y-86825423D01*
X157129909Y-86508260D01*
X156711333Y-86425000D01*
X156428667Y-86425000D01*
X156010091Y-86508260D01*
X155535423Y-86825423D01*
X155300000Y-87177758D01*
X155064577Y-86825423D01*
X154589909Y-86508260D01*
X154171333Y-86425000D01*
X153888667Y-86425000D01*
X153470091Y-86508260D01*
X152995423Y-86825423D01*
X152760000Y-87177758D01*
X152524577Y-86825423D01*
X152049909Y-86508260D01*
X151631333Y-86425000D01*
X151348667Y-86425000D01*
X150930091Y-86508260D01*
X150455423Y-86825423D01*
X150220000Y-87177758D01*
X149984577Y-86825423D01*
X149509909Y-86508260D01*
X149091333Y-86425000D01*
X148808667Y-86425000D01*
X148390091Y-86508260D01*
X147915423Y-86825423D01*
X147680000Y-87177758D01*
X147444577Y-86825423D01*
X146969909Y-86508260D01*
X146551333Y-86425000D01*
X146268667Y-86425000D01*
X145850091Y-86508260D01*
X145375423Y-86825423D01*
X145058260Y-87300091D01*
X144946887Y-87860000D01*
X145058260Y-88419909D01*
X145375423Y-88894577D01*
X145555649Y-89015000D01*
X138062081Y-89015000D01*
X137969999Y-88996684D01*
X137877917Y-89015000D01*
X137877914Y-89015000D01*
X137605181Y-89069250D01*
X137295903Y-89275903D01*
X137243741Y-89353969D01*
X136324711Y-90273000D01*
X136099289Y-90273000D01*
X141926028Y-84446261D01*
X142004097Y-84394097D01*
X142210750Y-84084819D01*
X142265000Y-83812086D01*
X142283317Y-83720000D01*
X142265000Y-83627914D01*
X142265000Y-77470657D01*
X142514320Y-77221337D01*
X142600000Y-77014487D01*
X142685680Y-77221337D01*
X143078663Y-77614320D01*
X143592119Y-77827000D01*
X144147881Y-77827000D01*
X144661337Y-77614320D01*
X145054320Y-77221337D01*
X145140000Y-77014487D01*
X145225680Y-77221337D01*
X145618663Y-77614320D01*
X146132119Y-77827000D01*
X146687881Y-77827000D01*
X147201337Y-77614320D01*
X147594320Y-77221337D01*
X147680000Y-77014487D01*
X147765680Y-77221337D01*
X148158663Y-77614320D01*
X148672119Y-77827000D01*
X149227881Y-77827000D01*
X149741337Y-77614320D01*
X150134320Y-77221337D01*
X150220000Y-77014487D01*
X150305680Y-77221337D01*
X150698663Y-77614320D01*
X151212119Y-77827000D01*
X151767881Y-77827000D01*
X152281337Y-77614320D01*
X152674320Y-77221337D01*
X152760000Y-77014487D01*
X152845680Y-77221337D01*
X153238663Y-77614320D01*
X153752119Y-77827000D01*
X154307881Y-77827000D01*
X154821337Y-77614320D01*
X155214320Y-77221337D01*
X155300000Y-77014487D01*
X155385680Y-77221337D01*
X155778663Y-77614320D01*
X156292119Y-77827000D01*
X156847881Y-77827000D01*
X157361337Y-77614320D01*
X157754320Y-77221337D01*
X157840000Y-77014487D01*
X157925680Y-77221337D01*
X158318663Y-77614320D01*
X158832119Y-77827000D01*
X159387881Y-77827000D01*
X159901337Y-77614320D01*
X160294320Y-77221337D01*
X160380000Y-77014487D01*
X160465680Y-77221337D01*
X160858663Y-77614320D01*
X161372119Y-77827000D01*
X161927881Y-77827000D01*
X162441337Y-77614320D01*
X162834320Y-77221337D01*
X162920000Y-77014487D01*
X163005680Y-77221337D01*
X163398663Y-77614320D01*
X163912119Y-77827000D01*
X164467881Y-77827000D01*
X164981337Y-77614320D01*
X165374320Y-77221337D01*
X165460000Y-77014487D01*
X165545680Y-77221337D01*
X165938663Y-77614320D01*
X166452119Y-77827000D01*
X167007881Y-77827000D01*
X167521337Y-77614320D01*
X167914320Y-77221337D01*
X168000000Y-77014487D01*
X168085680Y-77221337D01*
X168478663Y-77614320D01*
X168992119Y-77827000D01*
X169547881Y-77827000D01*
X170061337Y-77614320D01*
X170454320Y-77221337D01*
X170540000Y-77014487D01*
X170625680Y-77221337D01*
X171018663Y-77614320D01*
X171532119Y-77827000D01*
X172087881Y-77827000D01*
X172601337Y-77614320D01*
X172994320Y-77221337D01*
X173080000Y-77014487D01*
X173165680Y-77221337D01*
G36*
X192690001Y-83217711D02*
X190759730Y-81287440D01*
X191310000Y-81287440D01*
X191634301Y-81222932D01*
X191909231Y-81039231D01*
X192092932Y-80764301D01*
X192157440Y-80440000D01*
X192157440Y-80040000D01*
X192092932Y-79715699D01*
X191981410Y-79548793D01*
X192084948Y-79393837D01*
X192165276Y-78990000D01*
X192084948Y-78586163D01*
X191935802Y-78362950D01*
X192094987Y-78102969D01*
X192104666Y-78026123D01*
X191976998Y-77867000D01*
X190987000Y-77867000D01*
X190987000Y-77887000D01*
X190733000Y-77887000D01*
X190733000Y-77867000D01*
X189743002Y-77867000D01*
X189615334Y-78026123D01*
X189625013Y-78102969D01*
X189784198Y-78362950D01*
X189635052Y-78586163D01*
X189554724Y-78990000D01*
X189635052Y-79393837D01*
X189738590Y-79548793D01*
X189627068Y-79715699D01*
X189562560Y-80040000D01*
X189562560Y-80090271D01*
X187435000Y-77962711D01*
X187435000Y-76490000D01*
X189554724Y-76490000D01*
X189635052Y-76893837D01*
X189784198Y-77117050D01*
X189625013Y-77377031D01*
X189615334Y-77453877D01*
X189743002Y-77613000D01*
X190733000Y-77613000D01*
X190733000Y-77593000D01*
X190987000Y-77593000D01*
X190987000Y-77613000D01*
X191976998Y-77613000D01*
X192104666Y-77453877D01*
X192094987Y-77377031D01*
X191935802Y-77117050D01*
X192084948Y-76893837D01*
X192165276Y-76490000D01*
X192084948Y-76086163D01*
X191856193Y-75743807D01*
X191513837Y-75515052D01*
X191211935Y-75455000D01*
X190508065Y-75455000D01*
X190206163Y-75515052D01*
X189863807Y-75743807D01*
X189635052Y-76086163D01*
X189554724Y-76490000D01*
X187435000Y-76490000D01*
X187435000Y-70892086D01*
X187453317Y-70800000D01*
X187380750Y-70435181D01*
X187226259Y-70203969D01*
X187174097Y-70125903D01*
X187135331Y-70100000D01*
X189554724Y-70100000D01*
X189635052Y-70503837D01*
X189738590Y-70658793D01*
X189627068Y-70825699D01*
X189562560Y-71150000D01*
X189562560Y-71550000D01*
X189627068Y-71874301D01*
X189810769Y-72149231D01*
X190085699Y-72332932D01*
X190410000Y-72397440D01*
X191310000Y-72397440D01*
X191634301Y-72332932D01*
X191909231Y-72149231D01*
X192092932Y-71874301D01*
X192157440Y-71550000D01*
X192157440Y-71150000D01*
X192092932Y-70825699D01*
X191981410Y-70658793D01*
X192084948Y-70503837D01*
X192165276Y-70100000D01*
X192084948Y-69696163D01*
X191935802Y-69472950D01*
X192094987Y-69212969D01*
X192104666Y-69136123D01*
X191976998Y-68977000D01*
X190987000Y-68977000D01*
X190987000Y-68997000D01*
X190733000Y-68997000D01*
X190733000Y-68977000D01*
X189743002Y-68977000D01*
X189615334Y-69136123D01*
X189625013Y-69212969D01*
X189784198Y-69472950D01*
X189635052Y-69696163D01*
X189554724Y-70100000D01*
X187135331Y-70100000D01*
X187096031Y-70073741D01*
X185807440Y-68785151D01*
X185807440Y-68610000D01*
X185742932Y-68285699D01*
X185628109Y-68113854D01*
X185744987Y-67922969D01*
X185754666Y-67846123D01*
X185626998Y-67687000D01*
X184637000Y-67687000D01*
X184637000Y-67707000D01*
X184383000Y-67707000D01*
X184383000Y-67687000D01*
X183393002Y-67687000D01*
X183265334Y-67846123D01*
X183275013Y-67922969D01*
X183391891Y-68113854D01*
X183277068Y-68285699D01*
X183212560Y-68610000D01*
X183212560Y-69010000D01*
X183277068Y-69334301D01*
X183460769Y-69609231D01*
X183735699Y-69792932D01*
X184060000Y-69857440D01*
X184235151Y-69857440D01*
X185565001Y-71187291D01*
X185565000Y-75509343D01*
X185301337Y-75245680D01*
X184787881Y-75033000D01*
X184232119Y-75033000D01*
X183718663Y-75245680D01*
X183325680Y-75638663D01*
X183240000Y-75845513D01*
X183154320Y-75638663D01*
X182761337Y-75245680D01*
X182247881Y-75033000D01*
X181692119Y-75033000D01*
X181178663Y-75245680D01*
X180785680Y-75638663D01*
X180700000Y-75845513D01*
X180614320Y-75638663D01*
X180221337Y-75245680D01*
X179707881Y-75033000D01*
X179152119Y-75033000D01*
X178638663Y-75245680D01*
X178245680Y-75638663D01*
X178160000Y-75845513D01*
X178074320Y-75638663D01*
X177681337Y-75245680D01*
X177167881Y-75033000D01*
X176612119Y-75033000D01*
X176098663Y-75245680D01*
X175705680Y-75638663D01*
X175620000Y-75845513D01*
X175534320Y-75638663D01*
X175141337Y-75245680D01*
X174627881Y-75033000D01*
X174072119Y-75033000D01*
X173558663Y-75245680D01*
X173165680Y-75638663D01*
X173080000Y-75845513D01*
X172994320Y-75638663D01*
X172601337Y-75245680D01*
X172087881Y-75033000D01*
X171532119Y-75033000D01*
X171018663Y-75245680D01*
X170625680Y-75638663D01*
X170540000Y-75845513D01*
X170454320Y-75638663D01*
X170061337Y-75245680D01*
X169547881Y-75033000D01*
X168992119Y-75033000D01*
X168478663Y-75245680D01*
X168085680Y-75638663D01*
X168000000Y-75845513D01*
X167914320Y-75638663D01*
X167521337Y-75245680D01*
X167007881Y-75033000D01*
X166452119Y-75033000D01*
X165938663Y-75245680D01*
X165545680Y-75638663D01*
X165460000Y-75845513D01*
X165374320Y-75638663D01*
X164981337Y-75245680D01*
X164467881Y-75033000D01*
X163912119Y-75033000D01*
X163398663Y-75245680D01*
X163005680Y-75638663D01*
X162920000Y-75845513D01*
X162834320Y-75638663D01*
X162441337Y-75245680D01*
X161927881Y-75033000D01*
X161372119Y-75033000D01*
X160858663Y-75245680D01*
X160465680Y-75638663D01*
X160380000Y-75845513D01*
X160294320Y-75638663D01*
X159901337Y-75245680D01*
X159387881Y-75033000D01*
X158832119Y-75033000D01*
X158318663Y-75245680D01*
X157925680Y-75638663D01*
X157840000Y-75845513D01*
X157754320Y-75638663D01*
X157361337Y-75245680D01*
X156847881Y-75033000D01*
X156292119Y-75033000D01*
X155778663Y-75245680D01*
X155385680Y-75638663D01*
X155300000Y-75845513D01*
X155214320Y-75638663D01*
X154821337Y-75245680D01*
X154307881Y-75033000D01*
X153752119Y-75033000D01*
X153238663Y-75245680D01*
X152845680Y-75638663D01*
X152760000Y-75845513D01*
X152674320Y-75638663D01*
X152425000Y-75389343D01*
X152425000Y-70547289D01*
X158337248Y-64635042D01*
X158457958Y-64585042D01*
X158735042Y-64307958D01*
X158885000Y-63945929D01*
X158885000Y-63554071D01*
X158735042Y-63192042D01*
X158493000Y-62950000D01*
X158535042Y-62907958D01*
X158685000Y-62545929D01*
X158685000Y-62154071D01*
X158535042Y-61792042D01*
X158257958Y-61514958D01*
X157895929Y-61365000D01*
X157504071Y-61365000D01*
X157142042Y-61514958D01*
X156864958Y-61792042D01*
X156814957Y-61912754D01*
X154835000Y-63892711D01*
X154835000Y-61466639D01*
X154885000Y-61345929D01*
X154885000Y-60954071D01*
X154735042Y-60592042D01*
X154457958Y-60314958D01*
X154095929Y-60165000D01*
X153877100Y-60165000D01*
X153885000Y-60145929D01*
X153885000Y-59754071D01*
X153773547Y-59485000D01*
X157872711Y-59485000D01*
X167793740Y-69406030D01*
X167845903Y-69484097D01*
X167923969Y-69536259D01*
X168155181Y-69690750D01*
X168422289Y-69743881D01*
X168495699Y-69792932D01*
X168820000Y-69857440D01*
X169720000Y-69857440D01*
X170044301Y-69792932D01*
X170319231Y-69609231D01*
X170502932Y-69334301D01*
X170567440Y-69010000D01*
X170567440Y-68610000D01*
X173052560Y-68610000D01*
X173052560Y-69010000D01*
X173117068Y-69334301D01*
X173300769Y-69609231D01*
X173575699Y-69792932D01*
X173900000Y-69857440D01*
X174800000Y-69857440D01*
X175124301Y-69792932D01*
X175399231Y-69609231D01*
X175582932Y-69334301D01*
X175647440Y-69010000D01*
X175647440Y-68610000D01*
X178132560Y-68610000D01*
X178132560Y-69010000D01*
X178197068Y-69334301D01*
X178380769Y-69609231D01*
X178655699Y-69792932D01*
X178980000Y-69857440D01*
X179880000Y-69857440D01*
X180204301Y-69792932D01*
X180479231Y-69609231D01*
X180662932Y-69334301D01*
X180727440Y-69010000D01*
X180727440Y-68610000D01*
X180662932Y-68285699D01*
X180548109Y-68113854D01*
X180664987Y-67922969D01*
X180674666Y-67846123D01*
X180546998Y-67687000D01*
X179557000Y-67687000D01*
X179557000Y-67707000D01*
X179303000Y-67707000D01*
X179303000Y-67687000D01*
X178313002Y-67687000D01*
X178185334Y-67846123D01*
X178195013Y-67922969D01*
X178311891Y-68113854D01*
X178197068Y-68285699D01*
X178132560Y-68610000D01*
X175647440Y-68610000D01*
X175582932Y-68285699D01*
X175468109Y-68113854D01*
X175584987Y-67922969D01*
X175594666Y-67846123D01*
X175466998Y-67687000D01*
X174477000Y-67687000D01*
X174477000Y-67707000D01*
X174223000Y-67707000D01*
X174223000Y-67687000D01*
X173233002Y-67687000D01*
X173105334Y-67846123D01*
X173115013Y-67922969D01*
X173231891Y-68113854D01*
X173117068Y-68285699D01*
X173052560Y-68610000D01*
X170567440Y-68610000D01*
X170502932Y-68285699D01*
X170388109Y-68113854D01*
X170504987Y-67922969D01*
X170514666Y-67846123D01*
X170386998Y-67687000D01*
X169397000Y-67687000D01*
X169397000Y-67707000D01*
X169143000Y-67707000D01*
X169143000Y-67687000D01*
X169123000Y-67687000D01*
X169123000Y-67433000D01*
X169143000Y-67433000D01*
X169143000Y-67413000D01*
X169397000Y-67413000D01*
X169397000Y-67433000D01*
X170386998Y-67433000D01*
X170514666Y-67273877D01*
X170504987Y-67197031D01*
X170345802Y-66937050D01*
X170494948Y-66713837D01*
X170575276Y-66310000D01*
X173044724Y-66310000D01*
X173125052Y-66713837D01*
X173274198Y-66937050D01*
X173115013Y-67197031D01*
X173105334Y-67273877D01*
X173233002Y-67433000D01*
X174223000Y-67433000D01*
X174223000Y-67413000D01*
X174477000Y-67413000D01*
X174477000Y-67433000D01*
X175466998Y-67433000D01*
X175594666Y-67273877D01*
X175584987Y-67197031D01*
X175425802Y-66937050D01*
X175574948Y-66713837D01*
X175655276Y-66310000D01*
X178124724Y-66310000D01*
X178205052Y-66713837D01*
X178354198Y-66937050D01*
X178195013Y-67197031D01*
X178185334Y-67273877D01*
X178313002Y-67433000D01*
X179303000Y-67433000D01*
X179303000Y-67413000D01*
X179557000Y-67413000D01*
X179557000Y-67433000D01*
X180546998Y-67433000D01*
X180674666Y-67273877D01*
X180664987Y-67197031D01*
X180505802Y-66937050D01*
X180654948Y-66713837D01*
X180735276Y-66310000D01*
X183204724Y-66310000D01*
X183285052Y-66713837D01*
X183434198Y-66937050D01*
X183275013Y-67197031D01*
X183265334Y-67273877D01*
X183393002Y-67433000D01*
X184383000Y-67433000D01*
X184383000Y-67413000D01*
X184637000Y-67413000D01*
X184637000Y-67433000D01*
X185626998Y-67433000D01*
X185754666Y-67273877D01*
X185744987Y-67197031D01*
X185585802Y-66937050D01*
X185734948Y-66713837D01*
X185815276Y-66310000D01*
X185734948Y-65906163D01*
X185506193Y-65563807D01*
X185163837Y-65335052D01*
X184861935Y-65275000D01*
X184158065Y-65275000D01*
X183856163Y-65335052D01*
X183513807Y-65563807D01*
X183285052Y-65906163D01*
X183204724Y-66310000D01*
X180735276Y-66310000D01*
X180654948Y-65906163D01*
X180426193Y-65563807D01*
X180083837Y-65335052D01*
X179781935Y-65275000D01*
X179078065Y-65275000D01*
X178776163Y-65335052D01*
X178433807Y-65563807D01*
X178205052Y-65906163D01*
X178124724Y-66310000D01*
X175655276Y-66310000D01*
X175574948Y-65906163D01*
X175346193Y-65563807D01*
X175003837Y-65335052D01*
X174701935Y-65275000D01*
X173998065Y-65275000D01*
X173696163Y-65335052D01*
X173353807Y-65563807D01*
X173125052Y-65906163D01*
X173044724Y-66310000D01*
X170575276Y-66310000D01*
X170494948Y-65906163D01*
X170266193Y-65563807D01*
X169923837Y-65335052D01*
X169621935Y-65275000D01*
X168918065Y-65275000D01*
X168616163Y-65335052D01*
X168273807Y-65563807D01*
X168045052Y-65906163D01*
X167964724Y-66310000D01*
X168045052Y-66713837D01*
X168194198Y-66937050D01*
X168108805Y-67076515D01*
X164762290Y-63730000D01*
X186805908Y-63730000D01*
X186921161Y-64309418D01*
X187249375Y-64800625D01*
X187740582Y-65128839D01*
X188173744Y-65215000D01*
X188466256Y-65215000D01*
X188899418Y-65128839D01*
X189390625Y-64800625D01*
X189402816Y-64782381D01*
X189411843Y-64827765D01*
X189552191Y-65037809D01*
X189762235Y-65178157D01*
X189825000Y-65190642D01*
X189825001Y-66911885D01*
X189635052Y-67196163D01*
X189554724Y-67600000D01*
X189635052Y-68003837D01*
X189784198Y-68227050D01*
X189625013Y-68487031D01*
X189615334Y-68563877D01*
X189743002Y-68723000D01*
X190733000Y-68723000D01*
X190733000Y-68703000D01*
X190987000Y-68703000D01*
X190987000Y-68723000D01*
X191976998Y-68723000D01*
X192104666Y-68563877D01*
X192094987Y-68487031D01*
X191935802Y-68227050D01*
X192084948Y-68003837D01*
X192165276Y-67600000D01*
X192084948Y-67196163D01*
X191895000Y-66911886D01*
X191895000Y-65190642D01*
X191957765Y-65178157D01*
X192167809Y-65037809D01*
X192308157Y-64827765D01*
X192357440Y-64580000D01*
X192357440Y-62880000D01*
X192308157Y-62632235D01*
X192167809Y-62422191D01*
X191957765Y-62281843D01*
X191710000Y-62232560D01*
X190010000Y-62232560D01*
X189762235Y-62281843D01*
X189552191Y-62422191D01*
X189411843Y-62632235D01*
X189402816Y-62677619D01*
X189390625Y-62659375D01*
X188899418Y-62331161D01*
X188466256Y-62245000D01*
X188173744Y-62245000D01*
X187740582Y-62331161D01*
X187249375Y-62659375D01*
X186921161Y-63150582D01*
X186805908Y-63730000D01*
X164762290Y-63730000D01*
X158986261Y-57953972D01*
X158934097Y-57875903D01*
X158624819Y-57669250D01*
X158352086Y-57615000D01*
X158260000Y-57596683D01*
X158167914Y-57615000D01*
X152392086Y-57615000D01*
X152300000Y-57596683D01*
X152207914Y-57615000D01*
X151935181Y-57669250D01*
X151625903Y-57875903D01*
X151573741Y-57953970D01*
X150893972Y-58633739D01*
X150815903Y-58685903D01*
X150662947Y-58914819D01*
X150609250Y-58995182D01*
X150536683Y-59360000D01*
X150555000Y-59452086D01*
X150555001Y-60314443D01*
X150440769Y-60390769D01*
X150257068Y-60665699D01*
X150192560Y-60990000D01*
X150192560Y-61390000D01*
X150257068Y-61714301D01*
X150371891Y-61886146D01*
X150255013Y-62077031D01*
X150245334Y-62153877D01*
X150373000Y-62312998D01*
X150205000Y-62312998D01*
X150205000Y-62332711D01*
X150012194Y-62139905D01*
X150012194Y-60139280D01*
X150030511Y-60047194D01*
X149957944Y-59682375D01*
X149803453Y-59451163D01*
X149751291Y-59373097D01*
X149673225Y-59320935D01*
X147849749Y-57497460D01*
X147873113Y-57380000D01*
X147761740Y-56820091D01*
X147444577Y-56345423D01*
X146969909Y-56028260D01*
X146551333Y-55945000D01*
X146268667Y-55945000D01*
X145850091Y-56028260D01*
X145375423Y-56345423D01*
X145140000Y-56697758D01*
X144904577Y-56345423D01*
X144429909Y-56028260D01*
X144011333Y-55945000D01*
X143728667Y-55945000D01*
X143310091Y-56028260D01*
X142835423Y-56345423D01*
X142600000Y-56697758D01*
X142364577Y-56345423D01*
X141889909Y-56028260D01*
X141471333Y-55945000D01*
X141188667Y-55945000D01*
X140770091Y-56028260D01*
X140295423Y-56345423D01*
X140060000Y-56697758D01*
X139824577Y-56345423D01*
X139349909Y-56028260D01*
X138931333Y-55945000D01*
X138648667Y-55945000D01*
X138230091Y-56028260D01*
X137755423Y-56345423D01*
X137674785Y-56466106D01*
X137648157Y-56332235D01*
X137507809Y-56122191D01*
X137297765Y-55981843D01*
X137050000Y-55932560D01*
X135450000Y-55932560D01*
X135202235Y-55981843D01*
X134992191Y-56122191D01*
X134851843Y-56332235D01*
X134802560Y-56580000D01*
X134802560Y-58180000D01*
X134851843Y-58427765D01*
X134992191Y-58637809D01*
X135202235Y-58778157D01*
X135450000Y-58827440D01*
X137050000Y-58827440D01*
X137297765Y-58778157D01*
X137507809Y-58637809D01*
X137648157Y-58427765D01*
X137674785Y-58293894D01*
X137755423Y-58414577D01*
X137855001Y-58481113D01*
X137855000Y-62012710D01*
X137535000Y-62332711D01*
X137535000Y-62312998D01*
X137367000Y-62312998D01*
X137494666Y-62153877D01*
X137484987Y-62077031D01*
X137368109Y-61886146D01*
X137482932Y-61714301D01*
X137547440Y-61390000D01*
X137547440Y-60990000D01*
X137482932Y-60665699D01*
X137299231Y-60390769D01*
X137024301Y-60207068D01*
X136700000Y-60142560D01*
X135800000Y-60142560D01*
X135475699Y-60207068D01*
X135200769Y-60390769D01*
X135017068Y-60665699D01*
X134952560Y-60990000D01*
X134952560Y-61390000D01*
X135017068Y-61714301D01*
X135131891Y-61886146D01*
X135015013Y-62077031D01*
X135005334Y-62153877D01*
X135133002Y-62313000D01*
X136123000Y-62313000D01*
X136123000Y-62293000D01*
X136377000Y-62293000D01*
X136377000Y-62313000D01*
X136397000Y-62313000D01*
X136397000Y-62567000D01*
X136377000Y-62567000D01*
X136377000Y-62587000D01*
X136123000Y-62587000D01*
X136123000Y-62567000D01*
X135133002Y-62567000D01*
X135005334Y-62726123D01*
X135015013Y-62802969D01*
X135174198Y-63062950D01*
X135025052Y-63286163D01*
X134944724Y-63690000D01*
X135025052Y-64093837D01*
X135253807Y-64436193D01*
X135596163Y-64664948D01*
X135898065Y-64725000D01*
X136601935Y-64725000D01*
X136903837Y-64664948D01*
X136963623Y-64625000D01*
X137407914Y-64625000D01*
X137500000Y-64643317D01*
X137592086Y-64625000D01*
X137864819Y-64570750D01*
X138174097Y-64364097D01*
X138226261Y-64286028D01*
X138826549Y-63685741D01*
X139025903Y-63984097D01*
X139103972Y-64036261D01*
X139353739Y-64286028D01*
X139405903Y-64364097D01*
X139715181Y-64570750D01*
X140079999Y-64643317D01*
X140172085Y-64625000D01*
X140616377Y-64625000D01*
X140676163Y-64664948D01*
X140978065Y-64725000D01*
X141681935Y-64725000D01*
X141983837Y-64664948D01*
X142326193Y-64436193D01*
X142554948Y-64093837D01*
X142635276Y-63690000D01*
X142554948Y-63286163D01*
X142405802Y-63062950D01*
X142564987Y-62802969D01*
X142574666Y-62726123D01*
X142446998Y-62567000D01*
X141457000Y-62567000D01*
X141457000Y-62587000D01*
X141203000Y-62587000D01*
X141203000Y-62567000D01*
X141183000Y-62567000D01*
X141183000Y-62313000D01*
X141203000Y-62313000D01*
X141203000Y-62293000D01*
X141457000Y-62293000D01*
X141457000Y-62313000D01*
X142446998Y-62313000D01*
X142574666Y-62153877D01*
X142564987Y-62077031D01*
X142448109Y-61886146D01*
X142562932Y-61714301D01*
X142627440Y-61390000D01*
X142627440Y-60990000D01*
X142562932Y-60665699D01*
X142379231Y-60390769D01*
X142104301Y-60207068D01*
X141780000Y-60142560D01*
X141021099Y-60142560D01*
X141926031Y-59237629D01*
X142004097Y-59185467D01*
X142210750Y-58876189D01*
X142265000Y-58603456D01*
X142265000Y-58603455D01*
X142283317Y-58511371D01*
X142275855Y-58473859D01*
X142364577Y-58414577D01*
X142600000Y-58062242D01*
X142835423Y-58414577D01*
X142935000Y-58481112D01*
X142935000Y-58603455D01*
X142935001Y-58603460D01*
X142935000Y-62347914D01*
X142916683Y-62440000D01*
X142981294Y-62764819D01*
X142989250Y-62804818D01*
X143195903Y-63114097D01*
X143273972Y-63166261D01*
X144433741Y-64326031D01*
X144485903Y-64404097D01*
X144795181Y-64610750D01*
X145067914Y-64665000D01*
X145067918Y-64665000D01*
X145159999Y-64683316D01*
X145252080Y-64665000D01*
X145696377Y-64665000D01*
X145756163Y-64704948D01*
X146058065Y-64765000D01*
X146761935Y-64765000D01*
X147063837Y-64704948D01*
X147406193Y-64476193D01*
X147634948Y-64133837D01*
X147715276Y-63730000D01*
X147634948Y-63326163D01*
X147485802Y-63102950D01*
X147644987Y-62842969D01*
X147654666Y-62766123D01*
X147526998Y-62607000D01*
X146537000Y-62607000D01*
X146537000Y-62627000D01*
X146283000Y-62627000D01*
X146283000Y-62607000D01*
X146263000Y-62607000D01*
X146263000Y-62353000D01*
X146283000Y-62353000D01*
X146283000Y-62333000D01*
X146537000Y-62333000D01*
X146537000Y-62353000D01*
X147526998Y-62353000D01*
X147654666Y-62193877D01*
X147644987Y-62117031D01*
X147528109Y-61926146D01*
X147642932Y-61754301D01*
X147707440Y-61430000D01*
X147707440Y-61030000D01*
X147642932Y-60705699D01*
X147459231Y-60430769D01*
X147184301Y-60247068D01*
X146860000Y-60182560D01*
X145960000Y-60182560D01*
X145635699Y-60247068D01*
X145360769Y-60430769D01*
X145177068Y-60705699D01*
X145112560Y-61030000D01*
X145112560Y-61430000D01*
X145177068Y-61754301D01*
X145291891Y-61926146D01*
X145175013Y-62117031D01*
X145165334Y-62193877D01*
X145293000Y-62352998D01*
X145125000Y-62352998D01*
X145125000Y-62372710D01*
X144805000Y-62052711D01*
X144805000Y-58481112D01*
X144904577Y-58414577D01*
X145140000Y-58062242D01*
X145375423Y-58414577D01*
X145850091Y-58731740D01*
X146268667Y-58815000D01*
X146522711Y-58815000D01*
X148142195Y-60434485D01*
X148142194Y-62435108D01*
X148123877Y-62527194D01*
X148171144Y-62764819D01*
X148196444Y-62892012D01*
X148403097Y-63201291D01*
X148481166Y-63253455D01*
X149513741Y-64286031D01*
X149565903Y-64364097D01*
X149791473Y-64514818D01*
X149875181Y-64570750D01*
X150239999Y-64643317D01*
X150332085Y-64625000D01*
X150776377Y-64625000D01*
X150836163Y-64664948D01*
X151025167Y-64702543D01*
X143273970Y-72453741D01*
X143195904Y-72505903D01*
X143143742Y-72583969D01*
X143143741Y-72583970D01*
X142989250Y-72815182D01*
X142916683Y-73180000D01*
X142935001Y-73272090D01*
X142935000Y-75389343D01*
X142685680Y-75638663D01*
X142600000Y-75845513D01*
X142514320Y-75638663D01*
X142121337Y-75245680D01*
X141607881Y-75033000D01*
X141052119Y-75033000D01*
X140538663Y-75245680D01*
X140145680Y-75638663D01*
X140066572Y-75829647D01*
X140012397Y-75698857D01*
X139770213Y-75629392D01*
X138969605Y-76430000D01*
X139770213Y-77230608D01*
X140012397Y-77161143D01*
X140062535Y-77020607D01*
X140145680Y-77221337D01*
X140395000Y-77470657D01*
X140395001Y-83332710D01*
X134420000Y-89307711D01*
X134420000Y-76152119D01*
X134853000Y-76152119D01*
X134853000Y-76707881D01*
X135065680Y-77221337D01*
X135458663Y-77614320D01*
X135972119Y-77827000D01*
X136527881Y-77827000D01*
X137041337Y-77614320D01*
X137245444Y-77410213D01*
X137989392Y-77410213D01*
X138058857Y-77652397D01*
X138582302Y-77839144D01*
X139137368Y-77811362D01*
X139521143Y-77652397D01*
X139590608Y-77410213D01*
X138790000Y-76609605D01*
X137989392Y-77410213D01*
X137245444Y-77410213D01*
X137434320Y-77221337D01*
X137513428Y-77030353D01*
X137567603Y-77161143D01*
X137809787Y-77230608D01*
X138610395Y-76430000D01*
X137809787Y-75629392D01*
X137567603Y-75698857D01*
X137517465Y-75839393D01*
X137434320Y-75638663D01*
X137245444Y-75449787D01*
X137989392Y-75449787D01*
X138790000Y-76250395D01*
X139590608Y-75449787D01*
X139521143Y-75207603D01*
X138997698Y-75020856D01*
X138442632Y-75048638D01*
X138058857Y-75207603D01*
X137989392Y-75449787D01*
X137245444Y-75449787D01*
X137041337Y-75245680D01*
X136527881Y-75033000D01*
X135972119Y-75033000D01*
X135458663Y-75245680D01*
X135065680Y-75638663D01*
X134853000Y-76152119D01*
X134420000Y-76152119D01*
X134420000Y-73769382D01*
X137660223Y-73769382D01*
X137905368Y-74160888D01*
X138949360Y-74587609D01*
X140077181Y-74582330D01*
X141094632Y-74160888D01*
X141339777Y-73769382D01*
X139500000Y-71929605D01*
X137660223Y-73769382D01*
X134420000Y-73769382D01*
X134420000Y-71199360D01*
X136662391Y-71199360D01*
X136667670Y-72327181D01*
X137089112Y-73344632D01*
X137480618Y-73589777D01*
X139320395Y-71750000D01*
X139679605Y-71750000D01*
X141519382Y-73589777D01*
X141910888Y-73344632D01*
X142337609Y-72300640D01*
X142332330Y-71172819D01*
X141910888Y-70155368D01*
X141519382Y-69910223D01*
X139679605Y-71750000D01*
X139320395Y-71750000D01*
X137480618Y-69910223D01*
X137089112Y-70155368D01*
X136662391Y-71199360D01*
X134420000Y-71199360D01*
X134420000Y-69730618D01*
X137660223Y-69730618D01*
X139500000Y-71570395D01*
X141339777Y-69730618D01*
X141094632Y-69339112D01*
X140050640Y-68912391D01*
X138922819Y-68917670D01*
X137905368Y-69339112D01*
X137660223Y-69730618D01*
X134420000Y-69730618D01*
X134420000Y-55550000D01*
X192690001Y-55550000D01*
X192690001Y-83217711D01*
X192690001Y-83217711D01*
G37*
X192690001Y-83217711D02*
X190759730Y-81287440D01*
X191310000Y-81287440D01*
X191634301Y-81222932D01*
X191909231Y-81039231D01*
X192092932Y-80764301D01*
X192157440Y-80440000D01*
X192157440Y-80040000D01*
X192092932Y-79715699D01*
X191981410Y-79548793D01*
X192084948Y-79393837D01*
X192165276Y-78990000D01*
X192084948Y-78586163D01*
X191935802Y-78362950D01*
X192094987Y-78102969D01*
X192104666Y-78026123D01*
X191976998Y-77867000D01*
X190987000Y-77867000D01*
X190987000Y-77887000D01*
X190733000Y-77887000D01*
X190733000Y-77867000D01*
X189743002Y-77867000D01*
X189615334Y-78026123D01*
X189625013Y-78102969D01*
X189784198Y-78362950D01*
X189635052Y-78586163D01*
X189554724Y-78990000D01*
X189635052Y-79393837D01*
X189738590Y-79548793D01*
X189627068Y-79715699D01*
X189562560Y-80040000D01*
X189562560Y-80090271D01*
X187435000Y-77962711D01*
X187435000Y-76490000D01*
X189554724Y-76490000D01*
X189635052Y-76893837D01*
X189784198Y-77117050D01*
X189625013Y-77377031D01*
X189615334Y-77453877D01*
X189743002Y-77613000D01*
X190733000Y-77613000D01*
X190733000Y-77593000D01*
X190987000Y-77593000D01*
X190987000Y-77613000D01*
X191976998Y-77613000D01*
X192104666Y-77453877D01*
X192094987Y-77377031D01*
X191935802Y-77117050D01*
X192084948Y-76893837D01*
X192165276Y-76490000D01*
X192084948Y-76086163D01*
X191856193Y-75743807D01*
X191513837Y-75515052D01*
X191211935Y-75455000D01*
X190508065Y-75455000D01*
X190206163Y-75515052D01*
X189863807Y-75743807D01*
X189635052Y-76086163D01*
X189554724Y-76490000D01*
X187435000Y-76490000D01*
X187435000Y-70892086D01*
X187453317Y-70800000D01*
X187380750Y-70435181D01*
X187226259Y-70203969D01*
X187174097Y-70125903D01*
X187135331Y-70100000D01*
X189554724Y-70100000D01*
X189635052Y-70503837D01*
X189738590Y-70658793D01*
X189627068Y-70825699D01*
X189562560Y-71150000D01*
X189562560Y-71550000D01*
X189627068Y-71874301D01*
X189810769Y-72149231D01*
X190085699Y-72332932D01*
X190410000Y-72397440D01*
X191310000Y-72397440D01*
X191634301Y-72332932D01*
X191909231Y-72149231D01*
X192092932Y-71874301D01*
X192157440Y-71550000D01*
X192157440Y-71150000D01*
X192092932Y-70825699D01*
X191981410Y-70658793D01*
X192084948Y-70503837D01*
X192165276Y-70100000D01*
X192084948Y-69696163D01*
X191935802Y-69472950D01*
X192094987Y-69212969D01*
X192104666Y-69136123D01*
X191976998Y-68977000D01*
X190987000Y-68977000D01*
X190987000Y-68997000D01*
X190733000Y-68997000D01*
X190733000Y-68977000D01*
X189743002Y-68977000D01*
X189615334Y-69136123D01*
X189625013Y-69212969D01*
X189784198Y-69472950D01*
X189635052Y-69696163D01*
X189554724Y-70100000D01*
X187135331Y-70100000D01*
X187096031Y-70073741D01*
X185807440Y-68785151D01*
X185807440Y-68610000D01*
X185742932Y-68285699D01*
X185628109Y-68113854D01*
X185744987Y-67922969D01*
X185754666Y-67846123D01*
X185626998Y-67687000D01*
X184637000Y-67687000D01*
X184637000Y-67707000D01*
X184383000Y-67707000D01*
X184383000Y-67687000D01*
X183393002Y-67687000D01*
X183265334Y-67846123D01*
X183275013Y-67922969D01*
X183391891Y-68113854D01*
X183277068Y-68285699D01*
X183212560Y-68610000D01*
X183212560Y-69010000D01*
X183277068Y-69334301D01*
X183460769Y-69609231D01*
X183735699Y-69792932D01*
X184060000Y-69857440D01*
X184235151Y-69857440D01*
X185565001Y-71187291D01*
X185565000Y-75509343D01*
X185301337Y-75245680D01*
X184787881Y-75033000D01*
X184232119Y-75033000D01*
X183718663Y-75245680D01*
X183325680Y-75638663D01*
X183240000Y-75845513D01*
X183154320Y-75638663D01*
X182761337Y-75245680D01*
X182247881Y-75033000D01*
X181692119Y-75033000D01*
X181178663Y-75245680D01*
X180785680Y-75638663D01*
X180700000Y-75845513D01*
X180614320Y-75638663D01*
X180221337Y-75245680D01*
X179707881Y-75033000D01*
X179152119Y-75033000D01*
X178638663Y-75245680D01*
X178245680Y-75638663D01*
X178160000Y-75845513D01*
X178074320Y-75638663D01*
X177681337Y-75245680D01*
X177167881Y-75033000D01*
X176612119Y-75033000D01*
X176098663Y-75245680D01*
X175705680Y-75638663D01*
X175620000Y-75845513D01*
X175534320Y-75638663D01*
X175141337Y-75245680D01*
X174627881Y-75033000D01*
X174072119Y-75033000D01*
X173558663Y-75245680D01*
X173165680Y-75638663D01*
X173080000Y-75845513D01*
X172994320Y-75638663D01*
X172601337Y-75245680D01*
X172087881Y-75033000D01*
X171532119Y-75033000D01*
X171018663Y-75245680D01*
X170625680Y-75638663D01*
X170540000Y-75845513D01*
X170454320Y-75638663D01*
X170061337Y-75245680D01*
X169547881Y-75033000D01*
X168992119Y-75033000D01*
X168478663Y-75245680D01*
X168085680Y-75638663D01*
X168000000Y-75845513D01*
X167914320Y-75638663D01*
X167521337Y-75245680D01*
X167007881Y-75033000D01*
X166452119Y-75033000D01*
X165938663Y-75245680D01*
X165545680Y-75638663D01*
X165460000Y-75845513D01*
X165374320Y-75638663D01*
X164981337Y-75245680D01*
X164467881Y-75033000D01*
X163912119Y-75033000D01*
X163398663Y-75245680D01*
X163005680Y-75638663D01*
X162920000Y-75845513D01*
X162834320Y-75638663D01*
X162441337Y-75245680D01*
X161927881Y-75033000D01*
X161372119Y-75033000D01*
X160858663Y-75245680D01*
X160465680Y-75638663D01*
X160380000Y-75845513D01*
X160294320Y-75638663D01*
X159901337Y-75245680D01*
X159387881Y-75033000D01*
X158832119Y-75033000D01*
X158318663Y-75245680D01*
X157925680Y-75638663D01*
X157840000Y-75845513D01*
X157754320Y-75638663D01*
X157361337Y-75245680D01*
X156847881Y-75033000D01*
X156292119Y-75033000D01*
X155778663Y-75245680D01*
X155385680Y-75638663D01*
X155300000Y-75845513D01*
X155214320Y-75638663D01*
X154821337Y-75245680D01*
X154307881Y-75033000D01*
X153752119Y-75033000D01*
X153238663Y-75245680D01*
X152845680Y-75638663D01*
X152760000Y-75845513D01*
X152674320Y-75638663D01*
X152425000Y-75389343D01*
X152425000Y-70547289D01*
X158337248Y-64635042D01*
X158457958Y-64585042D01*
X158735042Y-64307958D01*
X158885000Y-63945929D01*
X158885000Y-63554071D01*
X158735042Y-63192042D01*
X158493000Y-62950000D01*
X158535042Y-62907958D01*
X158685000Y-62545929D01*
X158685000Y-62154071D01*
X158535042Y-61792042D01*
X158257958Y-61514958D01*
X157895929Y-61365000D01*
X157504071Y-61365000D01*
X157142042Y-61514958D01*
X156864958Y-61792042D01*
X156814957Y-61912754D01*
X154835000Y-63892711D01*
X154835000Y-61466639D01*
X154885000Y-61345929D01*
X154885000Y-60954071D01*
X154735042Y-60592042D01*
X154457958Y-60314958D01*
X154095929Y-60165000D01*
X153877100Y-60165000D01*
X153885000Y-60145929D01*
X153885000Y-59754071D01*
X153773547Y-59485000D01*
X157872711Y-59485000D01*
X167793740Y-69406030D01*
X167845903Y-69484097D01*
X167923969Y-69536259D01*
X168155181Y-69690750D01*
X168422289Y-69743881D01*
X168495699Y-69792932D01*
X168820000Y-69857440D01*
X169720000Y-69857440D01*
X170044301Y-69792932D01*
X170319231Y-69609231D01*
X170502932Y-69334301D01*
X170567440Y-69010000D01*
X170567440Y-68610000D01*
X173052560Y-68610000D01*
X173052560Y-69010000D01*
X173117068Y-69334301D01*
X173300769Y-69609231D01*
X173575699Y-69792932D01*
X173900000Y-69857440D01*
X174800000Y-69857440D01*
X175124301Y-69792932D01*
X175399231Y-69609231D01*
X175582932Y-69334301D01*
X175647440Y-69010000D01*
X175647440Y-68610000D01*
X178132560Y-68610000D01*
X178132560Y-69010000D01*
X178197068Y-69334301D01*
X178380769Y-69609231D01*
X178655699Y-69792932D01*
X178980000Y-69857440D01*
X179880000Y-69857440D01*
X180204301Y-69792932D01*
X180479231Y-69609231D01*
X180662932Y-69334301D01*
X180727440Y-69010000D01*
X180727440Y-68610000D01*
X180662932Y-68285699D01*
X180548109Y-68113854D01*
X180664987Y-67922969D01*
X180674666Y-67846123D01*
X180546998Y-67687000D01*
X179557000Y-67687000D01*
X179557000Y-67707000D01*
X179303000Y-67707000D01*
X179303000Y-67687000D01*
X178313002Y-67687000D01*
X178185334Y-67846123D01*
X178195013Y-67922969D01*
X178311891Y-68113854D01*
X178197068Y-68285699D01*
X178132560Y-68610000D01*
X175647440Y-68610000D01*
X175582932Y-68285699D01*
X175468109Y-68113854D01*
X175584987Y-67922969D01*
X175594666Y-67846123D01*
X175466998Y-67687000D01*
X174477000Y-67687000D01*
X174477000Y-67707000D01*
X174223000Y-67707000D01*
X174223000Y-67687000D01*
X173233002Y-67687000D01*
X173105334Y-67846123D01*
X173115013Y-67922969D01*
X173231891Y-68113854D01*
X173117068Y-68285699D01*
X173052560Y-68610000D01*
X170567440Y-68610000D01*
X170502932Y-68285699D01*
X170388109Y-68113854D01*
X170504987Y-67922969D01*
X170514666Y-67846123D01*
X170386998Y-67687000D01*
X169397000Y-67687000D01*
X169397000Y-67707000D01*
X169143000Y-67707000D01*
X169143000Y-67687000D01*
X169123000Y-67687000D01*
X169123000Y-67433000D01*
X169143000Y-67433000D01*
X169143000Y-67413000D01*
X169397000Y-67413000D01*
X169397000Y-67433000D01*
X170386998Y-67433000D01*
X170514666Y-67273877D01*
X170504987Y-67197031D01*
X170345802Y-66937050D01*
X170494948Y-66713837D01*
X170575276Y-66310000D01*
X173044724Y-66310000D01*
X173125052Y-66713837D01*
X173274198Y-66937050D01*
X173115013Y-67197031D01*
X173105334Y-67273877D01*
X173233002Y-67433000D01*
X174223000Y-67433000D01*
X174223000Y-67413000D01*
X174477000Y-67413000D01*
X174477000Y-67433000D01*
X175466998Y-67433000D01*
X175594666Y-67273877D01*
X175584987Y-67197031D01*
X175425802Y-66937050D01*
X175574948Y-66713837D01*
X175655276Y-66310000D01*
X178124724Y-66310000D01*
X178205052Y-66713837D01*
X178354198Y-66937050D01*
X178195013Y-67197031D01*
X178185334Y-67273877D01*
X178313002Y-67433000D01*
X179303000Y-67433000D01*
X179303000Y-67413000D01*
X179557000Y-67413000D01*
X179557000Y-67433000D01*
X180546998Y-67433000D01*
X180674666Y-67273877D01*
X180664987Y-67197031D01*
X180505802Y-66937050D01*
X180654948Y-66713837D01*
X180735276Y-66310000D01*
X183204724Y-66310000D01*
X183285052Y-66713837D01*
X183434198Y-66937050D01*
X183275013Y-67197031D01*
X183265334Y-67273877D01*
X183393002Y-67433000D01*
X184383000Y-67433000D01*
X184383000Y-67413000D01*
X184637000Y-67413000D01*
X184637000Y-67433000D01*
X185626998Y-67433000D01*
X185754666Y-67273877D01*
X185744987Y-67197031D01*
X185585802Y-66937050D01*
X185734948Y-66713837D01*
X185815276Y-66310000D01*
X185734948Y-65906163D01*
X185506193Y-65563807D01*
X185163837Y-65335052D01*
X184861935Y-65275000D01*
X184158065Y-65275000D01*
X183856163Y-65335052D01*
X183513807Y-65563807D01*
X183285052Y-65906163D01*
X183204724Y-66310000D01*
X180735276Y-66310000D01*
X180654948Y-65906163D01*
X180426193Y-65563807D01*
X180083837Y-65335052D01*
X179781935Y-65275000D01*
X179078065Y-65275000D01*
X178776163Y-65335052D01*
X178433807Y-65563807D01*
X178205052Y-65906163D01*
X178124724Y-66310000D01*
X175655276Y-66310000D01*
X175574948Y-65906163D01*
X175346193Y-65563807D01*
X175003837Y-65335052D01*
X174701935Y-65275000D01*
X173998065Y-65275000D01*
X173696163Y-65335052D01*
X173353807Y-65563807D01*
X173125052Y-65906163D01*
X173044724Y-66310000D01*
X170575276Y-66310000D01*
X170494948Y-65906163D01*
X170266193Y-65563807D01*
X169923837Y-65335052D01*
X169621935Y-65275000D01*
X168918065Y-65275000D01*
X168616163Y-65335052D01*
X168273807Y-65563807D01*
X168045052Y-65906163D01*
X167964724Y-66310000D01*
X168045052Y-66713837D01*
X168194198Y-66937050D01*
X168108805Y-67076515D01*
X164762290Y-63730000D01*
X186805908Y-63730000D01*
X186921161Y-64309418D01*
X187249375Y-64800625D01*
X187740582Y-65128839D01*
X188173744Y-65215000D01*
X188466256Y-65215000D01*
X188899418Y-65128839D01*
X189390625Y-64800625D01*
X189402816Y-64782381D01*
X189411843Y-64827765D01*
X189552191Y-65037809D01*
X189762235Y-65178157D01*
X189825000Y-65190642D01*
X189825001Y-66911885D01*
X189635052Y-67196163D01*
X189554724Y-67600000D01*
X189635052Y-68003837D01*
X189784198Y-68227050D01*
X189625013Y-68487031D01*
X189615334Y-68563877D01*
X189743002Y-68723000D01*
X190733000Y-68723000D01*
X190733000Y-68703000D01*
X190987000Y-68703000D01*
X190987000Y-68723000D01*
X191976998Y-68723000D01*
X192104666Y-68563877D01*
X192094987Y-68487031D01*
X191935802Y-68227050D01*
X192084948Y-68003837D01*
X192165276Y-67600000D01*
X192084948Y-67196163D01*
X191895000Y-66911886D01*
X191895000Y-65190642D01*
X191957765Y-65178157D01*
X192167809Y-65037809D01*
X192308157Y-64827765D01*
X192357440Y-64580000D01*
X192357440Y-62880000D01*
X192308157Y-62632235D01*
X192167809Y-62422191D01*
X191957765Y-62281843D01*
X191710000Y-62232560D01*
X190010000Y-62232560D01*
X189762235Y-62281843D01*
X189552191Y-62422191D01*
X189411843Y-62632235D01*
X189402816Y-62677619D01*
X189390625Y-62659375D01*
X188899418Y-62331161D01*
X188466256Y-62245000D01*
X188173744Y-62245000D01*
X187740582Y-62331161D01*
X187249375Y-62659375D01*
X186921161Y-63150582D01*
X186805908Y-63730000D01*
X164762290Y-63730000D01*
X158986261Y-57953972D01*
X158934097Y-57875903D01*
X158624819Y-57669250D01*
X158352086Y-57615000D01*
X158260000Y-57596683D01*
X158167914Y-57615000D01*
X152392086Y-57615000D01*
X152300000Y-57596683D01*
X152207914Y-57615000D01*
X151935181Y-57669250D01*
X151625903Y-57875903D01*
X151573741Y-57953970D01*
X150893972Y-58633739D01*
X150815903Y-58685903D01*
X150662947Y-58914819D01*
X150609250Y-58995182D01*
X150536683Y-59360000D01*
X150555000Y-59452086D01*
X150555001Y-60314443D01*
X150440769Y-60390769D01*
X150257068Y-60665699D01*
X150192560Y-60990000D01*
X150192560Y-61390000D01*
X150257068Y-61714301D01*
X150371891Y-61886146D01*
X150255013Y-62077031D01*
X150245334Y-62153877D01*
X150373000Y-62312998D01*
X150205000Y-62312998D01*
X150205000Y-62332711D01*
X150012194Y-62139905D01*
X150012194Y-60139280D01*
X150030511Y-60047194D01*
X149957944Y-59682375D01*
X149803453Y-59451163D01*
X149751291Y-59373097D01*
X149673225Y-59320935D01*
X147849749Y-57497460D01*
X147873113Y-57380000D01*
X147761740Y-56820091D01*
X147444577Y-56345423D01*
X146969909Y-56028260D01*
X146551333Y-55945000D01*
X146268667Y-55945000D01*
X145850091Y-56028260D01*
X145375423Y-56345423D01*
X145140000Y-56697758D01*
X144904577Y-56345423D01*
X144429909Y-56028260D01*
X144011333Y-55945000D01*
X143728667Y-55945000D01*
X143310091Y-56028260D01*
X142835423Y-56345423D01*
X142600000Y-56697758D01*
X142364577Y-56345423D01*
X141889909Y-56028260D01*
X141471333Y-55945000D01*
X141188667Y-55945000D01*
X140770091Y-56028260D01*
X140295423Y-56345423D01*
X140060000Y-56697758D01*
X139824577Y-56345423D01*
X139349909Y-56028260D01*
X138931333Y-55945000D01*
X138648667Y-55945000D01*
X138230091Y-56028260D01*
X137755423Y-56345423D01*
X137674785Y-56466106D01*
X137648157Y-56332235D01*
X137507809Y-56122191D01*
X137297765Y-55981843D01*
X137050000Y-55932560D01*
X135450000Y-55932560D01*
X135202235Y-55981843D01*
X134992191Y-56122191D01*
X134851843Y-56332235D01*
X134802560Y-56580000D01*
X134802560Y-58180000D01*
X134851843Y-58427765D01*
X134992191Y-58637809D01*
X135202235Y-58778157D01*
X135450000Y-58827440D01*
X137050000Y-58827440D01*
X137297765Y-58778157D01*
X137507809Y-58637809D01*
X137648157Y-58427765D01*
X137674785Y-58293894D01*
X137755423Y-58414577D01*
X137855001Y-58481113D01*
X137855000Y-62012710D01*
X137535000Y-62332711D01*
X137535000Y-62312998D01*
X137367000Y-62312998D01*
X137494666Y-62153877D01*
X137484987Y-62077031D01*
X137368109Y-61886146D01*
X137482932Y-61714301D01*
X137547440Y-61390000D01*
X137547440Y-60990000D01*
X137482932Y-60665699D01*
X137299231Y-60390769D01*
X137024301Y-60207068D01*
X136700000Y-60142560D01*
X135800000Y-60142560D01*
X135475699Y-60207068D01*
X135200769Y-60390769D01*
X135017068Y-60665699D01*
X134952560Y-60990000D01*
X134952560Y-61390000D01*
X135017068Y-61714301D01*
X135131891Y-61886146D01*
X135015013Y-62077031D01*
X135005334Y-62153877D01*
X135133002Y-62313000D01*
X136123000Y-62313000D01*
X136123000Y-62293000D01*
X136377000Y-62293000D01*
X136377000Y-62313000D01*
X136397000Y-62313000D01*
X136397000Y-62567000D01*
X136377000Y-62567000D01*
X136377000Y-62587000D01*
X136123000Y-62587000D01*
X136123000Y-62567000D01*
X135133002Y-62567000D01*
X135005334Y-62726123D01*
X135015013Y-62802969D01*
X135174198Y-63062950D01*
X135025052Y-63286163D01*
X134944724Y-63690000D01*
X135025052Y-64093837D01*
X135253807Y-64436193D01*
X135596163Y-64664948D01*
X135898065Y-64725000D01*
X136601935Y-64725000D01*
X136903837Y-64664948D01*
X136963623Y-64625000D01*
X137407914Y-64625000D01*
X137500000Y-64643317D01*
X137592086Y-64625000D01*
X137864819Y-64570750D01*
X138174097Y-64364097D01*
X138226261Y-64286028D01*
X138826549Y-63685741D01*
X139025903Y-63984097D01*
X139103972Y-64036261D01*
X139353739Y-64286028D01*
X139405903Y-64364097D01*
X139715181Y-64570750D01*
X140079999Y-64643317D01*
X140172085Y-64625000D01*
X140616377Y-64625000D01*
X140676163Y-64664948D01*
X140978065Y-64725000D01*
X141681935Y-64725000D01*
X141983837Y-64664948D01*
X142326193Y-64436193D01*
X142554948Y-64093837D01*
X142635276Y-63690000D01*
X142554948Y-63286163D01*
X142405802Y-63062950D01*
X142564987Y-62802969D01*
X142574666Y-62726123D01*
X142446998Y-62567000D01*
X141457000Y-62567000D01*
X141457000Y-62587000D01*
X141203000Y-62587000D01*
X141203000Y-62567000D01*
X141183000Y-62567000D01*
X141183000Y-62313000D01*
X141203000Y-62313000D01*
X141203000Y-62293000D01*
X141457000Y-62293000D01*
X141457000Y-62313000D01*
X142446998Y-62313000D01*
X142574666Y-62153877D01*
X142564987Y-62077031D01*
X142448109Y-61886146D01*
X142562932Y-61714301D01*
X142627440Y-61390000D01*
X142627440Y-60990000D01*
X142562932Y-60665699D01*
X142379231Y-60390769D01*
X142104301Y-60207068D01*
X141780000Y-60142560D01*
X141021099Y-60142560D01*
X141926031Y-59237629D01*
X142004097Y-59185467D01*
X142210750Y-58876189D01*
X142265000Y-58603456D01*
X142265000Y-58603455D01*
X142283317Y-58511371D01*
X142275855Y-58473859D01*
X142364577Y-58414577D01*
X142600000Y-58062242D01*
X142835423Y-58414577D01*
X142935000Y-58481112D01*
X142935000Y-58603455D01*
X142935001Y-58603460D01*
X142935000Y-62347914D01*
X142916683Y-62440000D01*
X142981294Y-62764819D01*
X142989250Y-62804818D01*
X143195903Y-63114097D01*
X143273972Y-63166261D01*
X144433741Y-64326031D01*
X144485903Y-64404097D01*
X144795181Y-64610750D01*
X145067914Y-64665000D01*
X145067918Y-64665000D01*
X145159999Y-64683316D01*
X145252080Y-64665000D01*
X145696377Y-64665000D01*
X145756163Y-64704948D01*
X146058065Y-64765000D01*
X146761935Y-64765000D01*
X147063837Y-64704948D01*
X147406193Y-64476193D01*
X147634948Y-64133837D01*
X147715276Y-63730000D01*
X147634948Y-63326163D01*
X147485802Y-63102950D01*
X147644987Y-62842969D01*
X147654666Y-62766123D01*
X147526998Y-62607000D01*
X146537000Y-62607000D01*
X146537000Y-62627000D01*
X146283000Y-62627000D01*
X146283000Y-62607000D01*
X146263000Y-62607000D01*
X146263000Y-62353000D01*
X146283000Y-62353000D01*
X146283000Y-62333000D01*
X146537000Y-62333000D01*
X146537000Y-62353000D01*
X147526998Y-62353000D01*
X147654666Y-62193877D01*
X147644987Y-62117031D01*
X147528109Y-61926146D01*
X147642932Y-61754301D01*
X147707440Y-61430000D01*
X147707440Y-61030000D01*
X147642932Y-60705699D01*
X147459231Y-60430769D01*
X147184301Y-60247068D01*
X146860000Y-60182560D01*
X145960000Y-60182560D01*
X145635699Y-60247068D01*
X145360769Y-60430769D01*
X145177068Y-60705699D01*
X145112560Y-61030000D01*
X145112560Y-61430000D01*
X145177068Y-61754301D01*
X145291891Y-61926146D01*
X145175013Y-62117031D01*
X145165334Y-62193877D01*
X145293000Y-62352998D01*
X145125000Y-62352998D01*
X145125000Y-62372710D01*
X144805000Y-62052711D01*
X144805000Y-58481112D01*
X144904577Y-58414577D01*
X145140000Y-58062242D01*
X145375423Y-58414577D01*
X145850091Y-58731740D01*
X146268667Y-58815000D01*
X146522711Y-58815000D01*
X148142195Y-60434485D01*
X148142194Y-62435108D01*
X148123877Y-62527194D01*
X148171144Y-62764819D01*
X148196444Y-62892012D01*
X148403097Y-63201291D01*
X148481166Y-63253455D01*
X149513741Y-64286031D01*
X149565903Y-64364097D01*
X149791473Y-64514818D01*
X149875181Y-64570750D01*
X150239999Y-64643317D01*
X150332085Y-64625000D01*
X150776377Y-64625000D01*
X150836163Y-64664948D01*
X151025167Y-64702543D01*
X143273970Y-72453741D01*
X143195904Y-72505903D01*
X143143742Y-72583969D01*
X143143741Y-72583970D01*
X142989250Y-72815182D01*
X142916683Y-73180000D01*
X142935001Y-73272090D01*
X142935000Y-75389343D01*
X142685680Y-75638663D01*
X142600000Y-75845513D01*
X142514320Y-75638663D01*
X142121337Y-75245680D01*
X141607881Y-75033000D01*
X141052119Y-75033000D01*
X140538663Y-75245680D01*
X140145680Y-75638663D01*
X140066572Y-75829647D01*
X140012397Y-75698857D01*
X139770213Y-75629392D01*
X138969605Y-76430000D01*
X139770213Y-77230608D01*
X140012397Y-77161143D01*
X140062535Y-77020607D01*
X140145680Y-77221337D01*
X140395000Y-77470657D01*
X140395001Y-83332710D01*
X134420000Y-89307711D01*
X134420000Y-76152119D01*
X134853000Y-76152119D01*
X134853000Y-76707881D01*
X135065680Y-77221337D01*
X135458663Y-77614320D01*
X135972119Y-77827000D01*
X136527881Y-77827000D01*
X137041337Y-77614320D01*
X137245444Y-77410213D01*
X137989392Y-77410213D01*
X138058857Y-77652397D01*
X138582302Y-77839144D01*
X139137368Y-77811362D01*
X139521143Y-77652397D01*
X139590608Y-77410213D01*
X138790000Y-76609605D01*
X137989392Y-77410213D01*
X137245444Y-77410213D01*
X137434320Y-77221337D01*
X137513428Y-77030353D01*
X137567603Y-77161143D01*
X137809787Y-77230608D01*
X138610395Y-76430000D01*
X137809787Y-75629392D01*
X137567603Y-75698857D01*
X137517465Y-75839393D01*
X137434320Y-75638663D01*
X137245444Y-75449787D01*
X137989392Y-75449787D01*
X138790000Y-76250395D01*
X139590608Y-75449787D01*
X139521143Y-75207603D01*
X138997698Y-75020856D01*
X138442632Y-75048638D01*
X138058857Y-75207603D01*
X137989392Y-75449787D01*
X137245444Y-75449787D01*
X137041337Y-75245680D01*
X136527881Y-75033000D01*
X135972119Y-75033000D01*
X135458663Y-75245680D01*
X135065680Y-75638663D01*
X134853000Y-76152119D01*
X134420000Y-76152119D01*
X134420000Y-73769382D01*
X137660223Y-73769382D01*
X137905368Y-74160888D01*
X138949360Y-74587609D01*
X140077181Y-74582330D01*
X141094632Y-74160888D01*
X141339777Y-73769382D01*
X139500000Y-71929605D01*
X137660223Y-73769382D01*
X134420000Y-73769382D01*
X134420000Y-71199360D01*
X136662391Y-71199360D01*
X136667670Y-72327181D01*
X137089112Y-73344632D01*
X137480618Y-73589777D01*
X139320395Y-71750000D01*
X139679605Y-71750000D01*
X141519382Y-73589777D01*
X141910888Y-73344632D01*
X142337609Y-72300640D01*
X142332330Y-71172819D01*
X141910888Y-70155368D01*
X141519382Y-69910223D01*
X139679605Y-71750000D01*
X139320395Y-71750000D01*
X137480618Y-69910223D01*
X137089112Y-70155368D01*
X136662391Y-71199360D01*
X134420000Y-71199360D01*
X134420000Y-69730618D01*
X137660223Y-69730618D01*
X139500000Y-71570395D01*
X141339777Y-69730618D01*
X141094632Y-69339112D01*
X140050640Y-68912391D01*
X138922819Y-68917670D01*
X137905368Y-69339112D01*
X137660223Y-69730618D01*
X134420000Y-69730618D01*
X134420000Y-55550000D01*
X192690001Y-55550000D01*
X192690001Y-83217711D01*
G36*
X151617000Y-62313000D02*
X151637000Y-62313000D01*
X151637000Y-62567000D01*
X151617000Y-62567000D01*
X151617000Y-62587000D01*
X151363000Y-62587000D01*
X151363000Y-62567000D01*
X151343000Y-62567000D01*
X151343000Y-62313000D01*
X151363000Y-62313000D01*
X151363000Y-62293000D01*
X151617000Y-62293000D01*
X151617000Y-62313000D01*
X151617000Y-62313000D01*
G37*
X151617000Y-62313000D02*
X151637000Y-62313000D01*
X151637000Y-62567000D01*
X151617000Y-62567000D01*
X151617000Y-62587000D01*
X151363000Y-62587000D01*
X151363000Y-62567000D01*
X151343000Y-62567000D01*
X151343000Y-62313000D01*
X151363000Y-62313000D01*
X151363000Y-62293000D01*
X151617000Y-62293000D01*
X151617000Y-62313000D01*
G04 #@! TD*
M02*
